<?xml version="1.0" standalone="no"?>
<!DOCTYPE svg PUBLIC "-//W3C//DTD SVG 20010904//EN"
 "http://www.w3.org/TR/2001/REC-SVG-20010904/DTD/svg10.dtd">
<svg version="1.0" xmlns="http://www.w3.org/2000/svg"
 width="57.000000pt" height="17.000000pt" viewBox="0 0 57.000000 17.000000"
 preserveAspectRatio="xMidYMid meet">
<metadata>
Created by potrace 1.13, written by Peter Selinger 2001-2015
</metadata>
<g transform="translate(0.000000,17.000000) scale(0.100000,-0.100000)"
fill="#000000" stroke="none">
<path d="M80 155 c-10 -12 -10 -19 -2 -27 9 -9 12 -8 12 4 0 24 14 29 47 18
l29 -11 -62 -65 c-36 -38 -68 -63 -74 -59 -6 4 -9 13 -6 21 6 16 -10 19 -19 4
-9 -14 13 -40 33 -40 8 0 32 18 53 40 44 46 62 51 53 16 -5 -21 -3 -25 18 -24
12 1 29 6 37 12 10 8 15 8 18 -1 8 -22 32 -14 73 23 64 58 54 72 -65 85 -38 4
-84 11 -101 14 -22 5 -34 2 -44 -10z"/>
</g>
</svg>
