G04 MADE WITH FRITZING*
G04 WWW.FRITZING.ORG*
G04 DOUBLE SIDED*
G04 HOLES PLATED*
G04 CONTOUR ON CENTER OF CONTOUR VECTOR*
%ASAXBY*%
%FSLAX23Y23*%
%MOIN*%
%OFA0B0*%
%SFA1.0B1.0*%
%ADD10R,1.968500X1.968500X1.952500X1.952500*%
%ADD11C,0.008000*%
%ADD12R,0.001000X0.001000*%
%LNSILK0*%
G90*
G70*
G54D11*
X4Y1965D02*
X1965Y1965D01*
X1965Y4D01*
X4Y4D01*
X4Y1965D01*
D02*
G54D12*
X989Y1617D02*
X991Y1617D01*
X988Y1616D02*
X992Y1616D01*
X987Y1615D02*
X992Y1615D01*
X987Y1614D02*
X992Y1614D01*
X987Y1613D02*
X993Y1613D01*
X987Y1612D02*
X993Y1612D01*
X987Y1611D02*
X993Y1611D01*
X987Y1610D02*
X993Y1610D01*
X987Y1609D02*
X993Y1609D01*
X987Y1608D02*
X1032Y1608D01*
X987Y1607D02*
X1033Y1607D01*
X987Y1606D02*
X1034Y1606D01*
X987Y1605D02*
X1034Y1605D01*
X987Y1604D02*
X1034Y1604D01*
X987Y1603D02*
X1034Y1603D01*
X987Y1602D02*
X993Y1602D01*
X1028Y1602D02*
X1034Y1602D01*
X987Y1601D02*
X993Y1601D01*
X1028Y1601D02*
X1034Y1601D01*
X987Y1600D02*
X993Y1600D01*
X1028Y1600D02*
X1034Y1600D01*
X987Y1599D02*
X993Y1599D01*
X1028Y1599D02*
X1034Y1599D01*
X987Y1598D02*
X993Y1598D01*
X1028Y1598D02*
X1034Y1598D01*
X987Y1597D02*
X993Y1597D01*
X1028Y1597D02*
X1034Y1597D01*
X987Y1596D02*
X992Y1596D01*
X1029Y1596D02*
X1034Y1596D01*
X988Y1595D02*
X992Y1595D01*
X1029Y1595D02*
X1033Y1595D01*
X989Y1594D02*
X991Y1594D01*
X1030Y1594D02*
X1032Y1594D01*
X880Y1584D02*
X884Y1584D01*
X879Y1583D02*
X887Y1583D01*
X878Y1582D02*
X888Y1582D01*
X878Y1581D02*
X889Y1581D01*
X878Y1580D02*
X890Y1580D01*
X879Y1579D02*
X890Y1579D01*
X884Y1578D02*
X890Y1578D01*
X885Y1577D02*
X891Y1577D01*
X886Y1576D02*
X891Y1576D01*
X988Y1576D02*
X992Y1576D01*
X1001Y1576D02*
X1014Y1576D01*
X886Y1575D02*
X891Y1575D01*
X988Y1575D02*
X992Y1575D01*
X1000Y1575D02*
X1015Y1575D01*
X886Y1574D02*
X891Y1574D01*
X987Y1574D02*
X992Y1574D01*
X1000Y1574D02*
X1016Y1574D01*
X886Y1573D02*
X891Y1573D01*
X987Y1573D02*
X993Y1573D01*
X1000Y1573D02*
X1017Y1573D01*
X886Y1572D02*
X891Y1572D01*
X987Y1572D02*
X993Y1572D01*
X1000Y1572D02*
X1018Y1572D01*
X886Y1571D02*
X891Y1571D01*
X987Y1571D02*
X993Y1571D01*
X1000Y1571D02*
X1019Y1571D01*
X885Y1570D02*
X891Y1570D01*
X987Y1570D02*
X993Y1570D01*
X1000Y1570D02*
X1005Y1570D01*
X1013Y1570D02*
X1020Y1570D01*
X885Y1569D02*
X891Y1569D01*
X987Y1569D02*
X993Y1569D01*
X1000Y1569D02*
X1005Y1569D01*
X1014Y1569D02*
X1020Y1569D01*
X884Y1568D02*
X891Y1568D01*
X987Y1568D02*
X993Y1568D01*
X1000Y1568D02*
X1005Y1568D01*
X1015Y1568D02*
X1020Y1568D01*
X883Y1567D02*
X890Y1567D01*
X987Y1567D02*
X993Y1567D01*
X1000Y1567D02*
X1005Y1567D01*
X1015Y1567D02*
X1021Y1567D01*
X882Y1566D02*
X889Y1566D01*
X987Y1566D02*
X993Y1566D01*
X1000Y1566D02*
X1005Y1566D01*
X1016Y1566D02*
X1021Y1566D01*
X881Y1565D02*
X888Y1565D01*
X987Y1565D02*
X993Y1565D01*
X1000Y1565D02*
X1005Y1565D01*
X1016Y1565D02*
X1021Y1565D01*
X880Y1564D02*
X887Y1564D01*
X987Y1564D02*
X993Y1564D01*
X1000Y1564D02*
X1005Y1564D01*
X1016Y1564D02*
X1021Y1564D01*
X879Y1563D02*
X886Y1563D01*
X987Y1563D02*
X993Y1563D01*
X1000Y1563D02*
X1005Y1563D01*
X1016Y1563D02*
X1021Y1563D01*
X879Y1562D02*
X886Y1562D01*
X987Y1562D02*
X993Y1562D01*
X1000Y1562D02*
X1005Y1562D01*
X1016Y1562D02*
X1021Y1562D01*
X878Y1561D02*
X885Y1561D01*
X987Y1561D02*
X993Y1561D01*
X1000Y1561D02*
X1005Y1561D01*
X1016Y1561D02*
X1021Y1561D01*
X859Y1560D02*
X889Y1560D01*
X987Y1560D02*
X993Y1560D01*
X1000Y1560D02*
X1005Y1560D01*
X1016Y1560D02*
X1021Y1560D01*
X858Y1559D02*
X890Y1559D01*
X987Y1559D02*
X993Y1559D01*
X1000Y1559D02*
X1005Y1559D01*
X1016Y1559D02*
X1021Y1559D01*
X858Y1558D02*
X891Y1558D01*
X987Y1558D02*
X993Y1558D01*
X1000Y1558D02*
X1005Y1558D01*
X1016Y1558D02*
X1021Y1558D01*
X858Y1557D02*
X891Y1557D01*
X987Y1557D02*
X993Y1557D01*
X1000Y1557D02*
X1005Y1557D01*
X1015Y1557D02*
X1021Y1557D01*
X858Y1556D02*
X891Y1556D01*
X988Y1556D02*
X993Y1556D01*
X1000Y1556D02*
X1005Y1556D01*
X1015Y1556D02*
X1021Y1556D01*
X859Y1555D02*
X890Y1555D01*
X988Y1555D02*
X994Y1555D01*
X1000Y1555D02*
X1005Y1555D01*
X1014Y1555D02*
X1020Y1555D01*
X988Y1554D02*
X995Y1554D01*
X1000Y1554D02*
X1005Y1554D01*
X1013Y1554D02*
X1020Y1554D01*
X989Y1553D02*
X997Y1553D01*
X1000Y1553D02*
X1006Y1553D01*
X1011Y1553D02*
X1019Y1553D01*
X990Y1552D02*
X1018Y1552D01*
X990Y1551D02*
X1018Y1551D01*
X991Y1550D02*
X1017Y1550D01*
X992Y1549D02*
X1016Y1549D01*
X994Y1548D02*
X1014Y1548D01*
X996Y1547D02*
X1012Y1547D01*
X859Y1540D02*
X861Y1540D01*
X871Y1540D02*
X884Y1540D01*
X858Y1539D02*
X862Y1539D01*
X871Y1539D02*
X885Y1539D01*
X858Y1538D02*
X863Y1538D01*
X870Y1538D02*
X886Y1538D01*
X857Y1537D02*
X863Y1537D01*
X870Y1537D02*
X887Y1537D01*
X857Y1536D02*
X863Y1536D01*
X870Y1536D02*
X888Y1536D01*
X857Y1535D02*
X863Y1535D01*
X870Y1535D02*
X889Y1535D01*
X857Y1534D02*
X863Y1534D01*
X870Y1534D02*
X875Y1534D01*
X883Y1534D02*
X890Y1534D01*
X857Y1533D02*
X863Y1533D01*
X870Y1533D02*
X875Y1533D01*
X884Y1533D02*
X890Y1533D01*
X996Y1533D02*
X1012Y1533D01*
X857Y1532D02*
X863Y1532D01*
X870Y1532D02*
X875Y1532D01*
X885Y1532D02*
X891Y1532D01*
X994Y1532D02*
X1014Y1532D01*
X857Y1531D02*
X863Y1531D01*
X870Y1531D02*
X875Y1531D01*
X885Y1531D02*
X891Y1531D01*
X992Y1531D02*
X1016Y1531D01*
X857Y1530D02*
X863Y1530D01*
X870Y1530D02*
X875Y1530D01*
X886Y1530D02*
X891Y1530D01*
X991Y1530D02*
X1017Y1530D01*
X857Y1529D02*
X863Y1529D01*
X870Y1529D02*
X875Y1529D01*
X886Y1529D02*
X891Y1529D01*
X991Y1529D02*
X1018Y1529D01*
X857Y1528D02*
X863Y1528D01*
X870Y1528D02*
X875Y1528D01*
X886Y1528D02*
X891Y1528D01*
X990Y1528D02*
X1018Y1528D01*
X857Y1527D02*
X863Y1527D01*
X870Y1527D02*
X875Y1527D01*
X886Y1527D02*
X891Y1527D01*
X989Y1527D02*
X996Y1527D01*
X1012Y1527D02*
X1019Y1527D01*
X857Y1526D02*
X863Y1526D01*
X870Y1526D02*
X875Y1526D01*
X886Y1526D02*
X891Y1526D01*
X988Y1526D02*
X995Y1526D01*
X1013Y1526D02*
X1020Y1526D01*
X857Y1525D02*
X863Y1525D01*
X870Y1525D02*
X875Y1525D01*
X886Y1525D02*
X891Y1525D01*
X988Y1525D02*
X994Y1525D01*
X1014Y1525D02*
X1020Y1525D01*
X857Y1524D02*
X863Y1524D01*
X870Y1524D02*
X875Y1524D01*
X886Y1524D02*
X891Y1524D01*
X988Y1524D02*
X993Y1524D01*
X1015Y1524D02*
X1021Y1524D01*
X857Y1523D02*
X863Y1523D01*
X870Y1523D02*
X875Y1523D01*
X886Y1523D02*
X891Y1523D01*
X987Y1523D02*
X993Y1523D01*
X1015Y1523D02*
X1021Y1523D01*
X857Y1522D02*
X863Y1522D01*
X870Y1522D02*
X875Y1522D01*
X886Y1522D02*
X891Y1522D01*
X987Y1522D02*
X993Y1522D01*
X1016Y1522D02*
X1021Y1522D01*
X858Y1521D02*
X863Y1521D01*
X870Y1521D02*
X875Y1521D01*
X886Y1521D02*
X891Y1521D01*
X987Y1521D02*
X993Y1521D01*
X1016Y1521D02*
X1021Y1521D01*
X858Y1520D02*
X863Y1520D01*
X870Y1520D02*
X875Y1520D01*
X885Y1520D02*
X891Y1520D01*
X987Y1520D02*
X993Y1520D01*
X1016Y1520D02*
X1021Y1520D01*
X858Y1519D02*
X864Y1519D01*
X870Y1519D02*
X875Y1519D01*
X884Y1519D02*
X890Y1519D01*
X987Y1519D02*
X993Y1519D01*
X1016Y1519D02*
X1021Y1519D01*
X858Y1518D02*
X865Y1518D01*
X870Y1518D02*
X875Y1518D01*
X883Y1518D02*
X890Y1518D01*
X987Y1518D02*
X993Y1518D01*
X1016Y1518D02*
X1021Y1518D01*
X859Y1517D02*
X867Y1517D01*
X870Y1517D02*
X876Y1517D01*
X882Y1517D02*
X889Y1517D01*
X987Y1517D02*
X993Y1517D01*
X1016Y1517D02*
X1021Y1517D01*
X860Y1516D02*
X889Y1516D01*
X988Y1516D02*
X993Y1516D01*
X1015Y1516D02*
X1021Y1516D01*
X860Y1515D02*
X888Y1515D01*
X988Y1515D02*
X994Y1515D01*
X1014Y1515D02*
X1020Y1515D01*
X861Y1514D02*
X887Y1514D01*
X988Y1514D02*
X995Y1514D01*
X1014Y1514D02*
X1020Y1514D01*
X862Y1513D02*
X886Y1513D01*
X989Y1513D02*
X995Y1513D01*
X1013Y1513D02*
X1020Y1513D01*
X864Y1512D02*
X884Y1512D01*
X989Y1512D02*
X996Y1512D01*
X1012Y1512D02*
X1019Y1512D01*
X866Y1511D02*
X882Y1511D01*
X990Y1511D02*
X997Y1511D01*
X1011Y1511D02*
X1018Y1511D01*
X991Y1510D02*
X998Y1510D01*
X1010Y1510D02*
X1017Y1510D01*
X989Y1509D02*
X1032Y1509D01*
X988Y1508D02*
X1033Y1508D01*
X988Y1507D02*
X1033Y1507D01*
X987Y1506D02*
X1034Y1506D01*
X988Y1505D02*
X1033Y1505D01*
X988Y1504D02*
X1033Y1504D01*
X864Y1497D02*
X866Y1497D01*
X862Y1496D02*
X867Y1496D01*
X861Y1495D02*
X868Y1495D01*
X860Y1494D02*
X868Y1494D01*
X888Y1494D02*
X888Y1494D01*
X859Y1493D02*
X867Y1493D01*
X887Y1493D02*
X890Y1493D01*
X997Y1493D02*
X1008Y1493D01*
X858Y1492D02*
X867Y1492D01*
X886Y1492D02*
X891Y1492D01*
X994Y1492D02*
X1011Y1492D01*
X858Y1491D02*
X865Y1491D01*
X886Y1491D02*
X891Y1491D01*
X992Y1491D02*
X1013Y1491D01*
X858Y1490D02*
X863Y1490D01*
X886Y1490D02*
X891Y1490D01*
X991Y1490D02*
X1014Y1490D01*
X858Y1489D02*
X863Y1489D01*
X886Y1489D02*
X891Y1489D01*
X990Y1489D02*
X1015Y1489D01*
X857Y1488D02*
X863Y1488D01*
X886Y1488D02*
X891Y1488D01*
X989Y1488D02*
X998Y1488D01*
X1007Y1488D02*
X1016Y1488D01*
X857Y1487D02*
X863Y1487D01*
X886Y1487D02*
X891Y1487D01*
X989Y1487D02*
X995Y1487D01*
X1010Y1487D02*
X1016Y1487D01*
X1025Y1487D02*
X1030Y1487D01*
X857Y1486D02*
X863Y1486D01*
X886Y1486D02*
X891Y1486D01*
X988Y1486D02*
X993Y1486D01*
X1012Y1486D02*
X1017Y1486D01*
X1025Y1486D02*
X1030Y1486D01*
X857Y1485D02*
X863Y1485D01*
X886Y1485D02*
X891Y1485D01*
X988Y1485D02*
X992Y1485D01*
X1013Y1485D02*
X1017Y1485D01*
X1025Y1485D02*
X1030Y1485D01*
X857Y1484D02*
X863Y1484D01*
X886Y1484D02*
X891Y1484D01*
X987Y1484D02*
X992Y1484D01*
X1014Y1484D02*
X1018Y1484D01*
X1025Y1484D02*
X1030Y1484D01*
X857Y1483D02*
X863Y1483D01*
X886Y1483D02*
X891Y1483D01*
X987Y1483D02*
X991Y1483D01*
X1014Y1483D02*
X1018Y1483D01*
X1025Y1483D02*
X1030Y1483D01*
X857Y1482D02*
X863Y1482D01*
X886Y1482D02*
X891Y1482D01*
X987Y1482D02*
X991Y1482D01*
X1015Y1482D02*
X1018Y1482D01*
X1025Y1482D02*
X1030Y1482D01*
X858Y1481D02*
X863Y1481D01*
X886Y1481D02*
X891Y1481D01*
X987Y1481D02*
X990Y1481D01*
X1015Y1481D02*
X1018Y1481D01*
X858Y1480D02*
X864Y1480D01*
X886Y1480D02*
X891Y1480D01*
X987Y1480D02*
X990Y1480D01*
X1015Y1480D02*
X1018Y1480D01*
X858Y1479D02*
X899Y1479D01*
X987Y1479D02*
X990Y1479D01*
X1015Y1479D02*
X1018Y1479D01*
X858Y1478D02*
X900Y1478D01*
X987Y1478D02*
X990Y1478D01*
X1015Y1478D02*
X1018Y1478D01*
X859Y1477D02*
X901Y1477D01*
X987Y1477D02*
X990Y1477D01*
X1015Y1477D02*
X1018Y1477D01*
X860Y1476D02*
X901Y1476D01*
X987Y1476D02*
X991Y1476D01*
X1014Y1476D02*
X1018Y1476D01*
X1025Y1476D02*
X1030Y1476D01*
X861Y1475D02*
X901Y1475D01*
X987Y1475D02*
X991Y1475D01*
X1014Y1475D02*
X1018Y1475D01*
X1025Y1475D02*
X1030Y1475D01*
X863Y1474D02*
X900Y1474D01*
X987Y1474D02*
X992Y1474D01*
X1013Y1474D02*
X1018Y1474D01*
X1025Y1474D02*
X1030Y1474D01*
X885Y1473D02*
X891Y1473D01*
X988Y1473D02*
X993Y1473D01*
X1013Y1473D02*
X1017Y1473D01*
X1025Y1473D02*
X1030Y1473D01*
X886Y1472D02*
X891Y1472D01*
X988Y1472D02*
X994Y1472D01*
X1011Y1472D02*
X1017Y1472D01*
X1025Y1472D02*
X1030Y1472D01*
X886Y1471D02*
X891Y1471D01*
X989Y1471D02*
X996Y1471D01*
X1009Y1471D02*
X1016Y1471D01*
X1025Y1471D02*
X1030Y1471D01*
X886Y1470D02*
X891Y1470D01*
X990Y1470D02*
X1000Y1470D01*
X1005Y1470D02*
X1016Y1470D01*
X886Y1469D02*
X891Y1469D01*
X990Y1469D02*
X1015Y1469D01*
X887Y1468D02*
X890Y1468D01*
X992Y1468D02*
X1014Y1468D01*
X993Y1467D02*
X1012Y1467D01*
X995Y1466D02*
X1010Y1466D01*
X998Y1465D02*
X1007Y1465D01*
X988Y1455D02*
X1034Y1455D01*
X988Y1454D02*
X1034Y1454D01*
X863Y1453D02*
X866Y1453D01*
X987Y1453D02*
X1034Y1453D01*
X862Y1452D02*
X867Y1452D01*
X988Y1452D02*
X1034Y1452D01*
X860Y1451D02*
X868Y1451D01*
X988Y1451D02*
X1034Y1451D01*
X859Y1450D02*
X868Y1450D01*
X887Y1450D02*
X889Y1450D01*
X989Y1450D02*
X1034Y1450D01*
X859Y1449D02*
X867Y1449D01*
X886Y1449D02*
X890Y1449D01*
X1025Y1449D02*
X1034Y1449D01*
X858Y1448D02*
X866Y1448D01*
X886Y1448D02*
X891Y1448D01*
X1024Y1448D02*
X1033Y1448D01*
X858Y1447D02*
X864Y1447D01*
X886Y1447D02*
X891Y1447D01*
X1022Y1447D02*
X1032Y1447D01*
X858Y1446D02*
X863Y1446D01*
X886Y1446D02*
X891Y1446D01*
X1021Y1446D02*
X1031Y1446D01*
X858Y1445D02*
X863Y1445D01*
X886Y1445D02*
X891Y1445D01*
X1019Y1445D02*
X1029Y1445D01*
X857Y1444D02*
X863Y1444D01*
X886Y1444D02*
X891Y1444D01*
X1018Y1444D02*
X1028Y1444D01*
X857Y1443D02*
X863Y1443D01*
X886Y1443D02*
X891Y1443D01*
X1014Y1443D02*
X1026Y1443D01*
X857Y1442D02*
X863Y1442D01*
X886Y1442D02*
X891Y1442D01*
X1013Y1442D02*
X1025Y1442D01*
X857Y1441D02*
X863Y1441D01*
X886Y1441D02*
X891Y1441D01*
X1013Y1441D02*
X1023Y1441D01*
X857Y1440D02*
X863Y1440D01*
X886Y1440D02*
X891Y1440D01*
X1013Y1440D02*
X1024Y1440D01*
X857Y1439D02*
X863Y1439D01*
X886Y1439D02*
X891Y1439D01*
X1014Y1439D02*
X1026Y1439D01*
X858Y1438D02*
X863Y1438D01*
X886Y1438D02*
X891Y1438D01*
X1015Y1438D02*
X1027Y1438D01*
X858Y1437D02*
X863Y1437D01*
X886Y1437D02*
X891Y1437D01*
X1019Y1437D02*
X1028Y1437D01*
X858Y1436D02*
X864Y1436D01*
X886Y1436D02*
X891Y1436D01*
X1020Y1436D02*
X1030Y1436D01*
X858Y1435D02*
X900Y1435D01*
X1021Y1435D02*
X1031Y1435D01*
X859Y1434D02*
X901Y1434D01*
X1023Y1434D02*
X1033Y1434D01*
X859Y1433D02*
X901Y1433D01*
X1024Y1433D02*
X1034Y1433D01*
X860Y1432D02*
X901Y1432D01*
X1025Y1432D02*
X1034Y1432D01*
X862Y1431D02*
X901Y1431D01*
X989Y1431D02*
X1034Y1431D01*
X863Y1430D02*
X900Y1430D01*
X988Y1430D02*
X1034Y1430D01*
X886Y1429D02*
X891Y1429D01*
X987Y1429D02*
X1034Y1429D01*
X886Y1428D02*
X891Y1428D01*
X988Y1428D02*
X1034Y1428D01*
X886Y1427D02*
X891Y1427D01*
X988Y1427D02*
X1034Y1427D01*
X886Y1426D02*
X891Y1426D01*
X989Y1426D02*
X1034Y1426D01*
X886Y1425D02*
X890Y1425D01*
X887Y1424D02*
X889Y1424D01*
X797Y1409D02*
X840Y1409D01*
X796Y1408D02*
X841Y1408D01*
X796Y1407D02*
X842Y1407D01*
X796Y1406D02*
X842Y1406D01*
X858Y1406D02*
X862Y1406D01*
X796Y1405D02*
X842Y1405D01*
X858Y1405D02*
X862Y1405D01*
X797Y1404D02*
X841Y1404D01*
X858Y1404D02*
X863Y1404D01*
X799Y1403D02*
X807Y1403D01*
X818Y1403D02*
X825Y1403D01*
X857Y1403D02*
X863Y1403D01*
X799Y1402D02*
X806Y1402D01*
X819Y1402D02*
X826Y1402D01*
X857Y1402D02*
X863Y1402D01*
X798Y1401D02*
X805Y1401D01*
X820Y1401D02*
X827Y1401D01*
X857Y1401D02*
X863Y1401D01*
X797Y1400D02*
X804Y1400D01*
X821Y1400D02*
X828Y1400D01*
X857Y1400D02*
X863Y1400D01*
X797Y1399D02*
X803Y1399D01*
X822Y1399D02*
X828Y1399D01*
X857Y1399D02*
X863Y1399D01*
X796Y1398D02*
X802Y1398D01*
X822Y1398D02*
X829Y1398D01*
X857Y1398D02*
X863Y1398D01*
X796Y1397D02*
X802Y1397D01*
X823Y1397D02*
X829Y1397D01*
X857Y1397D02*
X890Y1397D01*
X900Y1397D02*
X905Y1397D01*
X796Y1396D02*
X801Y1396D01*
X824Y1396D02*
X829Y1396D01*
X857Y1396D02*
X891Y1396D01*
X899Y1396D02*
X906Y1396D01*
X796Y1395D02*
X801Y1395D01*
X824Y1395D02*
X829Y1395D01*
X857Y1395D02*
X891Y1395D01*
X899Y1395D02*
X906Y1395D01*
X796Y1394D02*
X801Y1394D01*
X824Y1394D02*
X829Y1394D01*
X857Y1394D02*
X891Y1394D01*
X899Y1394D02*
X906Y1394D01*
X796Y1393D02*
X801Y1393D01*
X824Y1393D02*
X829Y1393D01*
X857Y1393D02*
X891Y1393D01*
X899Y1393D02*
X906Y1393D01*
X796Y1392D02*
X801Y1392D01*
X824Y1392D02*
X829Y1392D01*
X857Y1392D02*
X891Y1392D01*
X899Y1392D02*
X906Y1392D01*
X796Y1391D02*
X801Y1391D01*
X824Y1391D02*
X829Y1391D01*
X857Y1391D02*
X863Y1391D01*
X886Y1391D02*
X891Y1391D01*
X899Y1391D02*
X906Y1391D01*
X796Y1390D02*
X801Y1390D01*
X824Y1390D02*
X829Y1390D01*
X857Y1390D02*
X863Y1390D01*
X886Y1390D02*
X891Y1390D01*
X899Y1390D02*
X906Y1390D01*
X796Y1389D02*
X801Y1389D01*
X824Y1389D02*
X829Y1389D01*
X857Y1389D02*
X863Y1389D01*
X886Y1389D02*
X891Y1389D01*
X901Y1389D02*
X904Y1389D01*
X796Y1388D02*
X802Y1388D01*
X823Y1388D02*
X829Y1388D01*
X857Y1388D02*
X863Y1388D01*
X886Y1388D02*
X891Y1388D01*
X796Y1387D02*
X803Y1387D01*
X822Y1387D02*
X828Y1387D01*
X857Y1387D02*
X863Y1387D01*
X886Y1387D02*
X891Y1387D01*
X797Y1386D02*
X804Y1386D01*
X821Y1386D02*
X828Y1386D01*
X858Y1386D02*
X863Y1386D01*
X886Y1386D02*
X891Y1386D01*
X798Y1385D02*
X827Y1385D01*
X858Y1385D02*
X862Y1385D01*
X886Y1385D02*
X891Y1385D01*
X798Y1384D02*
X826Y1384D01*
X858Y1384D02*
X862Y1384D01*
X886Y1384D02*
X890Y1384D01*
X799Y1383D02*
X826Y1383D01*
X860Y1383D02*
X860Y1383D01*
X888Y1383D02*
X889Y1383D01*
X800Y1382D02*
X825Y1382D01*
X801Y1381D02*
X823Y1381D01*
X803Y1380D02*
X822Y1380D01*
X989Y1368D02*
X991Y1368D01*
X1002Y1368D02*
X1013Y1368D01*
X988Y1367D02*
X992Y1367D01*
X1001Y1367D02*
X1015Y1367D01*
X869Y1366D02*
X890Y1366D01*
X987Y1366D02*
X992Y1366D01*
X1000Y1366D02*
X1016Y1366D01*
X797Y1365D02*
X821Y1365D01*
X865Y1365D02*
X891Y1365D01*
X987Y1365D02*
X993Y1365D01*
X1000Y1365D02*
X1017Y1365D01*
X796Y1364D02*
X824Y1364D01*
X862Y1364D02*
X891Y1364D01*
X987Y1364D02*
X993Y1364D01*
X1000Y1364D02*
X1018Y1364D01*
X796Y1363D02*
X826Y1363D01*
X859Y1363D02*
X891Y1363D01*
X987Y1363D02*
X993Y1363D01*
X1000Y1363D02*
X1019Y1363D01*
X796Y1362D02*
X827Y1362D01*
X858Y1362D02*
X890Y1362D01*
X987Y1362D02*
X993Y1362D01*
X1000Y1362D02*
X1005Y1362D01*
X1012Y1362D02*
X1019Y1362D01*
X796Y1361D02*
X828Y1361D01*
X858Y1361D02*
X888Y1361D01*
X987Y1361D02*
X993Y1361D01*
X1000Y1361D02*
X1005Y1361D01*
X1014Y1361D02*
X1020Y1361D01*
X798Y1360D02*
X828Y1360D01*
X857Y1360D02*
X869Y1360D01*
X987Y1360D02*
X993Y1360D01*
X1000Y1360D02*
X1005Y1360D01*
X1014Y1360D02*
X1020Y1360D01*
X819Y1359D02*
X829Y1359D01*
X857Y1359D02*
X866Y1359D01*
X987Y1359D02*
X993Y1359D01*
X1000Y1359D02*
X1005Y1359D01*
X1015Y1359D02*
X1021Y1359D01*
X823Y1358D02*
X829Y1358D01*
X857Y1358D02*
X864Y1358D01*
X987Y1358D02*
X993Y1358D01*
X1000Y1358D02*
X1005Y1358D01*
X1015Y1358D02*
X1021Y1358D01*
X824Y1357D02*
X829Y1357D01*
X858Y1357D02*
X866Y1357D01*
X987Y1357D02*
X993Y1357D01*
X1000Y1357D02*
X1005Y1357D01*
X1016Y1357D02*
X1021Y1357D01*
X824Y1356D02*
X829Y1356D01*
X858Y1356D02*
X868Y1356D01*
X987Y1356D02*
X993Y1356D01*
X1000Y1356D02*
X1005Y1356D01*
X1016Y1356D02*
X1021Y1356D01*
X824Y1355D02*
X829Y1355D01*
X859Y1355D02*
X870Y1355D01*
X987Y1355D02*
X993Y1355D01*
X1000Y1355D02*
X1005Y1355D01*
X1016Y1355D02*
X1021Y1355D01*
X824Y1354D02*
X829Y1354D01*
X860Y1354D02*
X879Y1354D01*
X987Y1354D02*
X993Y1354D01*
X1000Y1354D02*
X1005Y1354D01*
X1016Y1354D02*
X1021Y1354D01*
X824Y1353D02*
X829Y1353D01*
X862Y1353D02*
X880Y1353D01*
X987Y1353D02*
X993Y1353D01*
X1000Y1353D02*
X1005Y1353D01*
X1016Y1353D02*
X1021Y1353D01*
X824Y1352D02*
X829Y1352D01*
X864Y1352D02*
X880Y1352D01*
X987Y1352D02*
X993Y1352D01*
X1000Y1352D02*
X1005Y1352D01*
X1016Y1352D02*
X1021Y1352D01*
X824Y1351D02*
X829Y1351D01*
X864Y1351D02*
X881Y1351D01*
X987Y1351D02*
X993Y1351D01*
X1000Y1351D02*
X1005Y1351D01*
X1016Y1351D02*
X1021Y1351D01*
X823Y1350D02*
X829Y1350D01*
X862Y1350D02*
X880Y1350D01*
X987Y1350D02*
X993Y1350D01*
X1000Y1350D02*
X1005Y1350D01*
X1016Y1350D02*
X1021Y1350D01*
X822Y1349D02*
X828Y1349D01*
X861Y1349D02*
X879Y1349D01*
X987Y1349D02*
X993Y1349D01*
X1000Y1349D02*
X1005Y1349D01*
X1015Y1349D02*
X1021Y1349D01*
X822Y1348D02*
X828Y1348D01*
X859Y1348D02*
X870Y1348D01*
X988Y1348D02*
X993Y1348D01*
X1000Y1348D02*
X1005Y1348D01*
X1015Y1348D02*
X1021Y1348D01*
X821Y1347D02*
X827Y1347D01*
X858Y1347D02*
X869Y1347D01*
X988Y1347D02*
X994Y1347D01*
X1000Y1347D02*
X1005Y1347D01*
X1014Y1347D02*
X1020Y1347D01*
X820Y1346D02*
X827Y1346D01*
X858Y1346D02*
X867Y1346D01*
X988Y1346D02*
X995Y1346D01*
X1000Y1346D02*
X1005Y1346D01*
X1013Y1346D02*
X1020Y1346D01*
X820Y1345D02*
X826Y1345D01*
X857Y1345D02*
X865Y1345D01*
X989Y1345D02*
X996Y1345D01*
X1000Y1345D02*
X1005Y1345D01*
X1012Y1345D02*
X1019Y1345D01*
X819Y1344D02*
X825Y1344D01*
X857Y1344D02*
X865Y1344D01*
X989Y1344D02*
X1019Y1344D01*
X818Y1343D02*
X825Y1343D01*
X857Y1343D02*
X868Y1343D01*
X990Y1343D02*
X1018Y1343D01*
X818Y1342D02*
X824Y1342D01*
X858Y1342D02*
X879Y1342D01*
X991Y1342D02*
X1017Y1342D01*
X797Y1341D02*
X828Y1341D01*
X858Y1341D02*
X890Y1341D01*
X992Y1341D02*
X1016Y1341D01*
X796Y1340D02*
X829Y1340D01*
X859Y1340D02*
X890Y1340D01*
X993Y1340D02*
X1015Y1340D01*
X796Y1339D02*
X829Y1339D01*
X861Y1339D02*
X891Y1339D01*
X995Y1339D02*
X1013Y1339D01*
X796Y1338D02*
X829Y1338D01*
X864Y1338D02*
X891Y1338D01*
X796Y1337D02*
X829Y1337D01*
X868Y1337D02*
X890Y1337D01*
X798Y1336D02*
X827Y1336D01*
X876Y1336D02*
X889Y1336D01*
X990Y1325D02*
X1031Y1325D01*
X988Y1324D02*
X1033Y1324D01*
X988Y1323D02*
X1033Y1323D01*
X798Y1322D02*
X804Y1322D01*
X859Y1322D02*
X882Y1322D01*
X987Y1322D02*
X1034Y1322D01*
X796Y1321D02*
X823Y1321D01*
X858Y1321D02*
X886Y1321D01*
X988Y1321D02*
X1033Y1321D01*
X796Y1320D02*
X825Y1320D01*
X858Y1320D02*
X887Y1320D01*
X988Y1320D02*
X1033Y1320D01*
X796Y1319D02*
X826Y1319D01*
X858Y1319D02*
X889Y1319D01*
X990Y1319D02*
X1031Y1319D01*
X796Y1318D02*
X827Y1318D01*
X858Y1318D02*
X889Y1318D01*
X991Y1318D02*
X998Y1318D01*
X1010Y1318D02*
X1017Y1318D01*
X797Y1317D02*
X828Y1317D01*
X859Y1317D02*
X890Y1317D01*
X990Y1317D02*
X997Y1317D01*
X1011Y1317D02*
X1018Y1317D01*
X798Y1316D02*
X828Y1316D01*
X880Y1316D02*
X890Y1316D01*
X989Y1316D02*
X996Y1316D01*
X1012Y1316D02*
X1019Y1316D01*
X798Y1315D02*
X804Y1315D01*
X810Y1315D02*
X816Y1315D01*
X822Y1315D02*
X829Y1315D01*
X885Y1315D02*
X891Y1315D01*
X989Y1315D02*
X995Y1315D01*
X1013Y1315D02*
X1020Y1315D01*
X798Y1314D02*
X804Y1314D01*
X811Y1314D02*
X816Y1314D01*
X824Y1314D02*
X829Y1314D01*
X886Y1314D02*
X891Y1314D01*
X988Y1314D02*
X994Y1314D01*
X1014Y1314D02*
X1020Y1314D01*
X797Y1313D02*
X803Y1313D01*
X811Y1313D02*
X816Y1313D01*
X824Y1313D02*
X829Y1313D01*
X886Y1313D02*
X891Y1313D01*
X988Y1313D02*
X994Y1313D01*
X1015Y1313D02*
X1020Y1313D01*
X796Y1312D02*
X802Y1312D01*
X811Y1312D02*
X816Y1312D01*
X824Y1312D02*
X829Y1312D01*
X886Y1312D02*
X891Y1312D01*
X988Y1312D02*
X993Y1312D01*
X1015Y1312D02*
X1021Y1312D01*
X796Y1311D02*
X802Y1311D01*
X811Y1311D02*
X816Y1311D01*
X824Y1311D02*
X829Y1311D01*
X886Y1311D02*
X891Y1311D01*
X987Y1311D02*
X993Y1311D01*
X1016Y1311D02*
X1021Y1311D01*
X796Y1310D02*
X801Y1310D01*
X811Y1310D02*
X816Y1310D01*
X824Y1310D02*
X829Y1310D01*
X886Y1310D02*
X891Y1310D01*
X987Y1310D02*
X993Y1310D01*
X1016Y1310D02*
X1021Y1310D01*
X796Y1309D02*
X801Y1309D01*
X811Y1309D02*
X816Y1309D01*
X824Y1309D02*
X829Y1309D01*
X886Y1309D02*
X891Y1309D01*
X987Y1309D02*
X993Y1309D01*
X1016Y1309D02*
X1021Y1309D01*
X796Y1308D02*
X801Y1308D01*
X811Y1308D02*
X816Y1308D01*
X824Y1308D02*
X829Y1308D01*
X885Y1308D02*
X891Y1308D01*
X987Y1308D02*
X993Y1308D01*
X1016Y1308D02*
X1021Y1308D01*
X796Y1307D02*
X801Y1307D01*
X811Y1307D02*
X816Y1307D01*
X824Y1307D02*
X829Y1307D01*
X885Y1307D02*
X890Y1307D01*
X987Y1307D02*
X993Y1307D01*
X1016Y1307D02*
X1021Y1307D01*
X796Y1306D02*
X801Y1306D01*
X811Y1306D02*
X816Y1306D01*
X824Y1306D02*
X829Y1306D01*
X884Y1306D02*
X890Y1306D01*
X987Y1306D02*
X993Y1306D01*
X1016Y1306D02*
X1021Y1306D01*
X796Y1305D02*
X801Y1305D01*
X811Y1305D02*
X816Y1305D01*
X824Y1305D02*
X829Y1305D01*
X883Y1305D02*
X890Y1305D01*
X987Y1305D02*
X993Y1305D01*
X1015Y1305D02*
X1021Y1305D01*
X796Y1304D02*
X801Y1304D01*
X811Y1304D02*
X816Y1304D01*
X824Y1304D02*
X829Y1304D01*
X883Y1304D02*
X889Y1304D01*
X988Y1304D02*
X993Y1304D01*
X1015Y1304D02*
X1021Y1304D01*
X796Y1303D02*
X801Y1303D01*
X811Y1303D02*
X816Y1303D01*
X824Y1303D02*
X829Y1303D01*
X882Y1303D02*
X888Y1303D01*
X988Y1303D02*
X994Y1303D01*
X1014Y1303D02*
X1020Y1303D01*
X796Y1302D02*
X801Y1302D01*
X811Y1302D02*
X816Y1302D01*
X824Y1302D02*
X829Y1302D01*
X881Y1302D02*
X888Y1302D01*
X988Y1302D02*
X995Y1302D01*
X1013Y1302D02*
X1020Y1302D01*
X796Y1301D02*
X801Y1301D01*
X811Y1301D02*
X816Y1301D01*
X824Y1301D02*
X829Y1301D01*
X881Y1301D02*
X887Y1301D01*
X989Y1301D02*
X997Y1301D01*
X1011Y1301D02*
X1019Y1301D01*
X796Y1300D02*
X801Y1300D01*
X811Y1300D02*
X816Y1300D01*
X824Y1300D02*
X829Y1300D01*
X880Y1300D02*
X887Y1300D01*
X990Y1300D02*
X1018Y1300D01*
X796Y1299D02*
X802Y1299D01*
X810Y1299D02*
X816Y1299D01*
X825Y1299D02*
X828Y1299D01*
X879Y1299D02*
X886Y1299D01*
X991Y1299D02*
X1018Y1299D01*
X796Y1298D02*
X816Y1298D01*
X859Y1298D02*
X903Y1298D01*
X991Y1298D02*
X1017Y1298D01*
X797Y1297D02*
X815Y1297D01*
X858Y1297D02*
X903Y1297D01*
X992Y1297D02*
X1016Y1297D01*
X797Y1296D02*
X815Y1296D01*
X858Y1296D02*
X904Y1296D01*
X994Y1296D02*
X1014Y1296D01*
X798Y1295D02*
X814Y1295D01*
X858Y1295D02*
X904Y1295D01*
X997Y1295D02*
X1011Y1295D01*
X799Y1294D02*
X813Y1294D01*
X858Y1294D02*
X903Y1294D01*
X801Y1293D02*
X811Y1293D01*
X859Y1293D02*
X902Y1293D01*
X989Y1281D02*
X1001Y1281D01*
X988Y1280D02*
X1015Y1280D01*
X860Y1279D02*
X860Y1279D01*
X888Y1279D02*
X889Y1279D01*
X988Y1279D02*
X1017Y1279D01*
X858Y1278D02*
X862Y1278D01*
X886Y1278D02*
X890Y1278D01*
X987Y1278D02*
X1018Y1278D01*
X858Y1277D02*
X862Y1277D01*
X886Y1277D02*
X891Y1277D01*
X988Y1277D02*
X1019Y1277D01*
X857Y1276D02*
X863Y1276D01*
X886Y1276D02*
X891Y1276D01*
X989Y1276D02*
X1020Y1276D01*
X797Y1275D02*
X800Y1275D01*
X857Y1275D02*
X863Y1275D01*
X886Y1275D02*
X891Y1275D01*
X999Y1275D02*
X1020Y1275D01*
X796Y1274D02*
X800Y1274D01*
X857Y1274D02*
X863Y1274D01*
X886Y1274D02*
X891Y1274D01*
X1014Y1274D02*
X1020Y1274D01*
X796Y1273D02*
X801Y1273D01*
X857Y1273D02*
X863Y1273D01*
X886Y1273D02*
X891Y1273D01*
X1015Y1273D02*
X1021Y1273D01*
X796Y1272D02*
X801Y1272D01*
X857Y1272D02*
X863Y1272D01*
X886Y1272D02*
X891Y1272D01*
X1016Y1272D02*
X1021Y1272D01*
X796Y1271D02*
X801Y1271D01*
X857Y1271D02*
X863Y1271D01*
X886Y1271D02*
X891Y1271D01*
X1016Y1271D02*
X1021Y1271D01*
X796Y1270D02*
X801Y1270D01*
X857Y1270D02*
X863Y1270D01*
X886Y1270D02*
X891Y1270D01*
X1016Y1270D02*
X1021Y1270D01*
X796Y1269D02*
X801Y1269D01*
X857Y1269D02*
X863Y1269D01*
X886Y1269D02*
X891Y1269D01*
X1016Y1269D02*
X1021Y1269D01*
X796Y1268D02*
X801Y1268D01*
X857Y1268D02*
X863Y1268D01*
X886Y1268D02*
X891Y1268D01*
X1016Y1268D02*
X1021Y1268D01*
X796Y1267D02*
X801Y1267D01*
X857Y1267D02*
X863Y1267D01*
X886Y1267D02*
X891Y1267D01*
X1015Y1267D02*
X1021Y1267D01*
X796Y1266D02*
X841Y1266D01*
X857Y1266D02*
X863Y1266D01*
X886Y1266D02*
X891Y1266D01*
X1015Y1266D02*
X1020Y1266D01*
X796Y1265D02*
X842Y1265D01*
X857Y1265D02*
X863Y1265D01*
X886Y1265D02*
X891Y1265D01*
X1014Y1265D02*
X1020Y1265D01*
X796Y1264D02*
X842Y1264D01*
X857Y1264D02*
X863Y1264D01*
X886Y1264D02*
X891Y1264D01*
X1014Y1264D02*
X1020Y1264D01*
X796Y1263D02*
X842Y1263D01*
X858Y1263D02*
X863Y1263D01*
X886Y1263D02*
X891Y1263D01*
X1013Y1263D02*
X1019Y1263D01*
X796Y1262D02*
X842Y1262D01*
X858Y1262D02*
X863Y1262D01*
X885Y1262D02*
X891Y1262D01*
X1012Y1262D02*
X1019Y1262D01*
X796Y1261D02*
X842Y1261D01*
X858Y1261D02*
X864Y1261D01*
X885Y1261D02*
X891Y1261D01*
X1012Y1261D02*
X1018Y1261D01*
X796Y1260D02*
X801Y1260D01*
X837Y1260D02*
X842Y1260D01*
X858Y1260D02*
X865Y1260D01*
X884Y1260D02*
X890Y1260D01*
X1011Y1260D02*
X1017Y1260D01*
X796Y1259D02*
X801Y1259D01*
X837Y1259D02*
X842Y1259D01*
X859Y1259D02*
X865Y1259D01*
X883Y1259D02*
X890Y1259D01*
X1010Y1259D02*
X1017Y1259D01*
X796Y1258D02*
X801Y1258D01*
X837Y1258D02*
X842Y1258D01*
X859Y1258D02*
X866Y1258D01*
X882Y1258D02*
X889Y1258D01*
X1010Y1258D02*
X1016Y1258D01*
X796Y1257D02*
X801Y1257D01*
X837Y1257D02*
X842Y1257D01*
X860Y1257D02*
X867Y1257D01*
X881Y1257D02*
X889Y1257D01*
X989Y1257D02*
X1019Y1257D01*
X796Y1256D02*
X801Y1256D01*
X837Y1256D02*
X842Y1256D01*
X861Y1256D02*
X868Y1256D01*
X880Y1256D02*
X888Y1256D01*
X988Y1256D02*
X1020Y1256D01*
X796Y1255D02*
X801Y1255D01*
X837Y1255D02*
X842Y1255D01*
X862Y1255D02*
X887Y1255D01*
X988Y1255D02*
X1021Y1255D01*
X796Y1254D02*
X801Y1254D01*
X837Y1254D02*
X842Y1254D01*
X863Y1254D02*
X886Y1254D01*
X987Y1254D02*
X1021Y1254D01*
X796Y1253D02*
X800Y1253D01*
X837Y1253D02*
X842Y1253D01*
X863Y1253D02*
X885Y1253D01*
X988Y1253D02*
X1020Y1253D01*
X797Y1252D02*
X799Y1252D01*
X838Y1252D02*
X841Y1252D01*
X864Y1252D02*
X884Y1252D01*
X989Y1252D02*
X1020Y1252D01*
X865Y1251D02*
X883Y1251D01*
X867Y1250D02*
X881Y1250D01*
X988Y1237D02*
X991Y1237D01*
X1001Y1237D02*
X1014Y1237D01*
X988Y1236D02*
X992Y1236D01*
X1001Y1236D02*
X1015Y1236D01*
X812Y1235D02*
X818Y1235D01*
X862Y1235D02*
X866Y1235D01*
X895Y1235D02*
X899Y1235D01*
X987Y1235D02*
X992Y1235D01*
X1000Y1235D02*
X1016Y1235D01*
X797Y1234D02*
X800Y1234D01*
X809Y1234D02*
X822Y1234D01*
X860Y1234D02*
X868Y1234D01*
X894Y1234D02*
X900Y1234D01*
X987Y1234D02*
X993Y1234D01*
X1000Y1234D02*
X1017Y1234D01*
X796Y1233D02*
X801Y1233D01*
X809Y1233D02*
X824Y1233D01*
X859Y1233D02*
X869Y1233D01*
X894Y1233D02*
X901Y1233D01*
X987Y1233D02*
X993Y1233D01*
X1000Y1233D02*
X1018Y1233D01*
X796Y1232D02*
X801Y1232D01*
X809Y1232D02*
X825Y1232D01*
X858Y1232D02*
X870Y1232D01*
X894Y1232D02*
X902Y1232D01*
X987Y1232D02*
X993Y1232D01*
X1000Y1232D02*
X1019Y1232D01*
X796Y1231D02*
X801Y1231D01*
X809Y1231D02*
X826Y1231D01*
X858Y1231D02*
X872Y1231D01*
X894Y1231D02*
X903Y1231D01*
X987Y1231D02*
X993Y1231D01*
X1000Y1231D02*
X1005Y1231D01*
X1013Y1231D02*
X1020Y1231D01*
X796Y1230D02*
X801Y1230D01*
X809Y1230D02*
X827Y1230D01*
X858Y1230D02*
X873Y1230D01*
X895Y1230D02*
X903Y1230D01*
X987Y1230D02*
X993Y1230D01*
X1000Y1230D02*
X1005Y1230D01*
X1014Y1230D02*
X1020Y1230D01*
X796Y1229D02*
X801Y1229D01*
X809Y1229D02*
X827Y1229D01*
X858Y1229D02*
X863Y1229D01*
X865Y1229D02*
X874Y1229D01*
X898Y1229D02*
X904Y1229D01*
X987Y1229D02*
X993Y1229D01*
X1000Y1229D02*
X1005Y1229D01*
X1015Y1229D02*
X1020Y1229D01*
X796Y1228D02*
X801Y1228D01*
X809Y1228D02*
X814Y1228D01*
X821Y1228D02*
X828Y1228D01*
X857Y1228D02*
X863Y1228D01*
X866Y1228D02*
X875Y1228D01*
X898Y1228D02*
X904Y1228D01*
X987Y1228D02*
X993Y1228D01*
X1000Y1228D02*
X1005Y1228D01*
X1015Y1228D02*
X1021Y1228D01*
X796Y1227D02*
X801Y1227D01*
X809Y1227D02*
X814Y1227D01*
X822Y1227D02*
X829Y1227D01*
X857Y1227D02*
X863Y1227D01*
X868Y1227D02*
X877Y1227D01*
X899Y1227D02*
X904Y1227D01*
X987Y1227D02*
X993Y1227D01*
X1000Y1227D02*
X1005Y1227D01*
X1016Y1227D02*
X1021Y1227D01*
X796Y1226D02*
X801Y1226D01*
X809Y1226D02*
X814Y1226D01*
X823Y1226D02*
X829Y1226D01*
X857Y1226D02*
X863Y1226D01*
X869Y1226D02*
X878Y1226D01*
X899Y1226D02*
X904Y1226D01*
X987Y1226D02*
X993Y1226D01*
X1000Y1226D02*
X1005Y1226D01*
X1016Y1226D02*
X1021Y1226D01*
X796Y1225D02*
X801Y1225D01*
X809Y1225D02*
X814Y1225D01*
X824Y1225D02*
X829Y1225D01*
X857Y1225D02*
X863Y1225D01*
X870Y1225D02*
X879Y1225D01*
X899Y1225D02*
X904Y1225D01*
X987Y1225D02*
X993Y1225D01*
X1000Y1225D02*
X1005Y1225D01*
X1016Y1225D02*
X1021Y1225D01*
X796Y1224D02*
X801Y1224D01*
X809Y1224D02*
X814Y1224D01*
X824Y1224D02*
X829Y1224D01*
X857Y1224D02*
X863Y1224D01*
X871Y1224D02*
X881Y1224D01*
X899Y1224D02*
X904Y1224D01*
X987Y1224D02*
X993Y1224D01*
X1000Y1224D02*
X1005Y1224D01*
X1016Y1224D02*
X1021Y1224D01*
X796Y1223D02*
X801Y1223D01*
X809Y1223D02*
X814Y1223D01*
X824Y1223D02*
X829Y1223D01*
X857Y1223D02*
X863Y1223D01*
X873Y1223D02*
X882Y1223D01*
X899Y1223D02*
X904Y1223D01*
X987Y1223D02*
X993Y1223D01*
X1000Y1223D02*
X1005Y1223D01*
X1016Y1223D02*
X1021Y1223D01*
X796Y1222D02*
X801Y1222D01*
X809Y1222D02*
X814Y1222D01*
X824Y1222D02*
X829Y1222D01*
X857Y1222D02*
X863Y1222D01*
X874Y1222D02*
X883Y1222D01*
X899Y1222D02*
X904Y1222D01*
X987Y1222D02*
X993Y1222D01*
X1000Y1222D02*
X1005Y1222D01*
X1016Y1222D02*
X1021Y1222D01*
X796Y1221D02*
X801Y1221D01*
X809Y1221D02*
X814Y1221D01*
X824Y1221D02*
X829Y1221D01*
X857Y1221D02*
X863Y1221D01*
X875Y1221D02*
X884Y1221D01*
X899Y1221D02*
X904Y1221D01*
X987Y1221D02*
X993Y1221D01*
X1000Y1221D02*
X1005Y1221D01*
X1016Y1221D02*
X1021Y1221D01*
X796Y1220D02*
X801Y1220D01*
X809Y1220D02*
X814Y1220D01*
X824Y1220D02*
X829Y1220D01*
X857Y1220D02*
X863Y1220D01*
X877Y1220D02*
X886Y1220D01*
X899Y1220D02*
X904Y1220D01*
X987Y1220D02*
X993Y1220D01*
X1000Y1220D02*
X1005Y1220D01*
X1016Y1220D02*
X1021Y1220D01*
X796Y1219D02*
X801Y1219D01*
X809Y1219D02*
X814Y1219D01*
X824Y1219D02*
X829Y1219D01*
X857Y1219D02*
X863Y1219D01*
X878Y1219D02*
X887Y1219D01*
X899Y1219D02*
X904Y1219D01*
X987Y1219D02*
X993Y1219D01*
X1000Y1219D02*
X1005Y1219D01*
X1016Y1219D02*
X1021Y1219D01*
X796Y1218D02*
X801Y1218D01*
X809Y1218D02*
X814Y1218D01*
X824Y1218D02*
X829Y1218D01*
X857Y1218D02*
X863Y1218D01*
X879Y1218D02*
X888Y1218D01*
X899Y1218D02*
X904Y1218D01*
X987Y1218D02*
X993Y1218D01*
X1000Y1218D02*
X1005Y1218D01*
X1015Y1218D02*
X1021Y1218D01*
X796Y1217D02*
X801Y1217D01*
X809Y1217D02*
X814Y1217D01*
X824Y1217D02*
X829Y1217D01*
X857Y1217D02*
X863Y1217D01*
X880Y1217D02*
X890Y1217D01*
X899Y1217D02*
X904Y1217D01*
X988Y1217D02*
X993Y1217D01*
X1000Y1217D02*
X1005Y1217D01*
X1015Y1217D02*
X1021Y1217D01*
X796Y1216D02*
X801Y1216D01*
X809Y1216D02*
X814Y1216D01*
X824Y1216D02*
X829Y1216D01*
X857Y1216D02*
X863Y1216D01*
X882Y1216D02*
X891Y1216D01*
X899Y1216D02*
X904Y1216D01*
X988Y1216D02*
X994Y1216D01*
X1000Y1216D02*
X1005Y1216D01*
X1014Y1216D02*
X1020Y1216D01*
X796Y1215D02*
X801Y1215D01*
X809Y1215D02*
X814Y1215D01*
X824Y1215D02*
X829Y1215D01*
X857Y1215D02*
X863Y1215D01*
X883Y1215D02*
X892Y1215D01*
X899Y1215D02*
X904Y1215D01*
X988Y1215D02*
X995Y1215D01*
X1000Y1215D02*
X1005Y1215D01*
X1013Y1215D02*
X1020Y1215D01*
X796Y1214D02*
X802Y1214D01*
X809Y1214D02*
X814Y1214D01*
X823Y1214D02*
X829Y1214D01*
X857Y1214D02*
X863Y1214D01*
X884Y1214D02*
X893Y1214D01*
X899Y1214D02*
X904Y1214D01*
X989Y1214D02*
X997Y1214D01*
X1000Y1214D02*
X1006Y1214D01*
X1012Y1214D02*
X1019Y1214D01*
X796Y1213D02*
X803Y1213D01*
X809Y1213D02*
X814Y1213D01*
X822Y1213D02*
X829Y1213D01*
X858Y1213D02*
X863Y1213D01*
X886Y1213D02*
X895Y1213D01*
X899Y1213D02*
X904Y1213D01*
X990Y1213D02*
X1019Y1213D01*
X797Y1212D02*
X803Y1212D01*
X809Y1212D02*
X814Y1212D01*
X821Y1212D02*
X828Y1212D01*
X858Y1212D02*
X863Y1212D01*
X887Y1212D02*
X896Y1212D01*
X898Y1212D02*
X904Y1212D01*
X990Y1212D02*
X1018Y1212D01*
X797Y1211D02*
X806Y1211D01*
X808Y1211D02*
X814Y1211D01*
X819Y1211D02*
X828Y1211D01*
X858Y1211D02*
X866Y1211D01*
X888Y1211D02*
X904Y1211D01*
X991Y1211D02*
X1017Y1211D01*
X798Y1210D02*
X827Y1210D01*
X858Y1210D02*
X867Y1210D01*
X890Y1210D02*
X903Y1210D01*
X992Y1210D02*
X1016Y1210D01*
X799Y1209D02*
X826Y1209D01*
X859Y1209D02*
X868Y1209D01*
X891Y1209D02*
X903Y1209D01*
X994Y1209D02*
X1014Y1209D01*
X800Y1208D02*
X825Y1208D01*
X860Y1208D02*
X868Y1208D01*
X892Y1208D02*
X902Y1208D01*
X996Y1208D02*
X1012Y1208D01*
X801Y1207D02*
X824Y1207D01*
X861Y1207D02*
X867Y1207D01*
X893Y1207D02*
X901Y1207D01*
X802Y1206D02*
X822Y1206D01*
X863Y1206D02*
X866Y1206D01*
X895Y1206D02*
X900Y1206D01*
X805Y1205D02*
X819Y1205D01*
X989Y1194D02*
X990Y1194D01*
X988Y1193D02*
X992Y1193D01*
X988Y1192D02*
X993Y1192D01*
X797Y1191D02*
X799Y1191D01*
X987Y1191D02*
X994Y1191D01*
X1018Y1191D02*
X1019Y1191D01*
X796Y1190D02*
X800Y1190D01*
X988Y1190D02*
X994Y1190D01*
X1016Y1190D02*
X1020Y1190D01*
X796Y1189D02*
X801Y1189D01*
X988Y1189D02*
X995Y1189D01*
X1015Y1189D02*
X1021Y1189D01*
X796Y1188D02*
X802Y1188D01*
X826Y1188D02*
X827Y1188D01*
X989Y1188D02*
X996Y1188D01*
X1015Y1188D02*
X1021Y1188D01*
X796Y1187D02*
X803Y1187D01*
X825Y1187D02*
X829Y1187D01*
X990Y1187D02*
X997Y1187D01*
X1014Y1187D02*
X1021Y1187D01*
X797Y1186D02*
X804Y1186D01*
X824Y1186D02*
X829Y1186D01*
X991Y1186D02*
X998Y1186D01*
X1013Y1186D02*
X1020Y1186D01*
X798Y1185D02*
X805Y1185D01*
X823Y1185D02*
X829Y1185D01*
X992Y1185D02*
X999Y1185D01*
X1012Y1185D02*
X1019Y1185D01*
X799Y1184D02*
X806Y1184D01*
X822Y1184D02*
X829Y1184D01*
X993Y1184D02*
X1000Y1184D01*
X1011Y1184D02*
X1018Y1184D01*
X799Y1183D02*
X806Y1183D01*
X821Y1183D02*
X828Y1183D01*
X993Y1183D02*
X1000Y1183D01*
X1010Y1183D02*
X1017Y1183D01*
X800Y1182D02*
X807Y1182D01*
X820Y1182D02*
X827Y1182D01*
X994Y1182D02*
X1001Y1182D01*
X1009Y1182D02*
X1016Y1182D01*
X801Y1181D02*
X808Y1181D01*
X819Y1181D02*
X826Y1181D01*
X995Y1181D02*
X1002Y1181D01*
X1009Y1181D02*
X1016Y1181D01*
X802Y1180D02*
X809Y1180D01*
X819Y1180D02*
X826Y1180D01*
X996Y1180D02*
X1003Y1180D01*
X1008Y1180D02*
X1015Y1180D01*
X803Y1179D02*
X810Y1179D01*
X818Y1179D02*
X825Y1179D01*
X997Y1179D02*
X1004Y1179D01*
X1007Y1179D02*
X1014Y1179D01*
X804Y1178D02*
X811Y1178D01*
X817Y1178D02*
X824Y1178D01*
X998Y1178D02*
X1013Y1178D01*
X804Y1177D02*
X812Y1177D01*
X816Y1177D02*
X823Y1177D01*
X998Y1177D02*
X1012Y1177D01*
X805Y1176D02*
X812Y1176D01*
X815Y1176D02*
X822Y1176D01*
X999Y1176D02*
X1011Y1176D01*
X806Y1175D02*
X821Y1175D01*
X1000Y1175D02*
X1011Y1175D01*
X807Y1174D02*
X820Y1174D01*
X1001Y1174D02*
X1010Y1174D01*
X808Y1173D02*
X820Y1173D01*
X1002Y1173D02*
X1009Y1173D01*
X809Y1172D02*
X819Y1172D01*
X1001Y1172D02*
X1008Y1172D01*
X810Y1171D02*
X818Y1171D01*
X1000Y1171D02*
X1007Y1171D01*
X810Y1170D02*
X817Y1170D01*
X990Y1170D02*
X1031Y1170D01*
X809Y1169D02*
X816Y1169D01*
X988Y1169D02*
X1033Y1169D01*
X808Y1168D02*
X815Y1168D01*
X988Y1168D02*
X1033Y1168D01*
X797Y1167D02*
X840Y1167D01*
X987Y1167D02*
X1034Y1167D01*
X796Y1166D02*
X841Y1166D01*
X988Y1166D02*
X1033Y1166D01*
X796Y1165D02*
X842Y1165D01*
X988Y1165D02*
X1033Y1165D01*
X796Y1164D02*
X842Y1164D01*
X796Y1163D02*
X842Y1163D01*
X797Y1162D02*
X841Y1162D01*
X989Y1150D02*
X1007Y1150D01*
X988Y1149D02*
X1015Y1149D01*
X864Y1148D02*
X868Y1148D01*
X987Y1148D02*
X1017Y1148D01*
X817Y1147D02*
X824Y1147D01*
X862Y1147D02*
X870Y1147D01*
X884Y1147D02*
X887Y1147D01*
X987Y1147D02*
X1018Y1147D01*
X817Y1146D02*
X825Y1146D01*
X861Y1146D02*
X872Y1146D01*
X884Y1146D02*
X888Y1146D01*
X988Y1146D02*
X1019Y1146D01*
X816Y1145D02*
X827Y1145D01*
X860Y1145D02*
X873Y1145D01*
X883Y1145D02*
X889Y1145D01*
X989Y1145D02*
X1020Y1145D01*
X816Y1144D02*
X827Y1144D01*
X859Y1144D02*
X874Y1144D01*
X883Y1144D02*
X890Y1144D01*
X1005Y1144D02*
X1020Y1144D01*
X817Y1143D02*
X828Y1143D01*
X858Y1143D02*
X874Y1143D01*
X884Y1143D02*
X890Y1143D01*
X1014Y1143D02*
X1020Y1143D01*
X818Y1142D02*
X829Y1142D01*
X858Y1142D02*
X865Y1142D01*
X868Y1142D02*
X875Y1142D01*
X885Y1142D02*
X891Y1142D01*
X1015Y1142D02*
X1021Y1142D01*
X823Y1141D02*
X829Y1141D01*
X858Y1141D02*
X863Y1141D01*
X869Y1141D02*
X875Y1141D01*
X885Y1141D02*
X891Y1141D01*
X1016Y1141D02*
X1021Y1141D01*
X824Y1140D02*
X829Y1140D01*
X858Y1140D02*
X863Y1140D01*
X870Y1140D02*
X876Y1140D01*
X886Y1140D02*
X891Y1140D01*
X1016Y1140D02*
X1021Y1140D01*
X824Y1139D02*
X829Y1139D01*
X857Y1139D02*
X863Y1139D01*
X870Y1139D02*
X876Y1139D01*
X886Y1139D02*
X891Y1139D01*
X1016Y1139D02*
X1021Y1139D01*
X824Y1138D02*
X829Y1138D01*
X857Y1138D02*
X863Y1138D01*
X871Y1138D02*
X876Y1138D01*
X886Y1138D02*
X891Y1138D01*
X1016Y1138D02*
X1021Y1138D01*
X824Y1137D02*
X829Y1137D01*
X857Y1137D02*
X863Y1137D01*
X871Y1137D02*
X877Y1137D01*
X886Y1137D02*
X891Y1137D01*
X1016Y1137D02*
X1021Y1137D01*
X824Y1136D02*
X829Y1136D01*
X857Y1136D02*
X863Y1136D01*
X872Y1136D02*
X877Y1136D01*
X886Y1136D02*
X891Y1136D01*
X1015Y1136D02*
X1021Y1136D01*
X824Y1135D02*
X829Y1135D01*
X857Y1135D02*
X863Y1135D01*
X872Y1135D02*
X878Y1135D01*
X886Y1135D02*
X891Y1135D01*
X1015Y1135D02*
X1020Y1135D01*
X824Y1134D02*
X829Y1134D01*
X857Y1134D02*
X863Y1134D01*
X872Y1134D02*
X878Y1134D01*
X886Y1134D02*
X891Y1134D01*
X1014Y1134D02*
X1020Y1134D01*
X823Y1133D02*
X829Y1133D01*
X857Y1133D02*
X863Y1133D01*
X873Y1133D02*
X879Y1133D01*
X886Y1133D02*
X891Y1133D01*
X1013Y1133D02*
X1020Y1133D01*
X822Y1132D02*
X829Y1132D01*
X857Y1132D02*
X863Y1132D01*
X873Y1132D02*
X879Y1132D01*
X886Y1132D02*
X891Y1132D01*
X1013Y1132D02*
X1019Y1132D01*
X822Y1131D02*
X829Y1131D01*
X857Y1131D02*
X863Y1131D01*
X874Y1131D02*
X879Y1131D01*
X886Y1131D02*
X891Y1131D01*
X1012Y1131D02*
X1018Y1131D01*
X821Y1130D02*
X828Y1130D01*
X857Y1130D02*
X863Y1130D01*
X874Y1130D02*
X880Y1130D01*
X886Y1130D02*
X891Y1130D01*
X1011Y1130D02*
X1018Y1130D01*
X820Y1129D02*
X827Y1129D01*
X857Y1129D02*
X863Y1129D01*
X875Y1129D02*
X880Y1129D01*
X886Y1129D02*
X891Y1129D01*
X1011Y1129D02*
X1017Y1129D01*
X819Y1128D02*
X826Y1128D01*
X857Y1128D02*
X863Y1128D01*
X875Y1128D02*
X881Y1128D01*
X886Y1128D02*
X891Y1128D01*
X1010Y1128D02*
X1017Y1128D01*
X818Y1127D02*
X825Y1127D01*
X858Y1127D02*
X863Y1127D01*
X876Y1127D02*
X881Y1127D01*
X886Y1127D02*
X891Y1127D01*
X1010Y1127D02*
X1016Y1127D01*
X817Y1126D02*
X824Y1126D01*
X858Y1126D02*
X863Y1126D01*
X876Y1126D02*
X882Y1126D01*
X886Y1126D02*
X891Y1126D01*
X989Y1126D02*
X1019Y1126D01*
X816Y1125D02*
X824Y1125D01*
X858Y1125D02*
X863Y1125D01*
X876Y1125D02*
X891Y1125D01*
X988Y1125D02*
X1020Y1125D01*
X816Y1124D02*
X823Y1124D01*
X858Y1124D02*
X864Y1124D01*
X877Y1124D02*
X890Y1124D01*
X987Y1124D02*
X1021Y1124D01*
X797Y1123D02*
X828Y1123D01*
X858Y1123D02*
X865Y1123D01*
X877Y1123D02*
X890Y1123D01*
X987Y1123D02*
X1021Y1123D01*
X796Y1122D02*
X829Y1122D01*
X859Y1122D02*
X865Y1122D01*
X878Y1122D02*
X889Y1122D01*
X988Y1122D02*
X1020Y1122D01*
X796Y1121D02*
X829Y1121D01*
X860Y1121D02*
X865Y1121D01*
X879Y1121D02*
X888Y1121D01*
X989Y1121D02*
X1019Y1121D01*
X796Y1120D02*
X829Y1120D01*
X860Y1120D02*
X865Y1120D01*
X880Y1120D02*
X887Y1120D01*
X796Y1119D02*
X829Y1119D01*
X861Y1119D02*
X864Y1119D01*
X798Y1118D02*
X827Y1118D01*
X1003Y1107D02*
X1010Y1107D01*
X988Y1106D02*
X992Y1106D01*
X1001Y1106D02*
X1014Y1106D01*
X988Y1105D02*
X992Y1105D01*
X1000Y1105D02*
X1015Y1105D01*
X859Y1104D02*
X882Y1104D01*
X987Y1104D02*
X992Y1104D01*
X1000Y1104D02*
X1017Y1104D01*
X858Y1103D02*
X886Y1103D01*
X987Y1103D02*
X993Y1103D01*
X1000Y1103D02*
X1017Y1103D01*
X858Y1102D02*
X887Y1102D01*
X987Y1102D02*
X993Y1102D01*
X1000Y1102D02*
X1018Y1102D01*
X798Y1101D02*
X799Y1101D01*
X858Y1101D02*
X889Y1101D01*
X987Y1101D02*
X993Y1101D01*
X1000Y1101D02*
X1019Y1101D01*
X796Y1100D02*
X800Y1100D01*
X858Y1100D02*
X889Y1100D01*
X987Y1100D02*
X993Y1100D01*
X1000Y1100D02*
X1005Y1100D01*
X1013Y1100D02*
X1020Y1100D01*
X796Y1099D02*
X801Y1099D01*
X859Y1099D02*
X890Y1099D01*
X987Y1099D02*
X993Y1099D01*
X1000Y1099D02*
X1005Y1099D01*
X1014Y1099D02*
X1020Y1099D01*
X796Y1098D02*
X801Y1098D01*
X860Y1098D02*
X866Y1098D01*
X871Y1098D02*
X878Y1098D01*
X880Y1098D02*
X890Y1098D01*
X987Y1098D02*
X993Y1098D01*
X1000Y1098D02*
X1005Y1098D01*
X1015Y1098D02*
X1020Y1098D01*
X796Y1097D02*
X801Y1097D01*
X860Y1097D02*
X866Y1097D01*
X872Y1097D02*
X878Y1097D01*
X885Y1097D02*
X891Y1097D01*
X987Y1097D02*
X993Y1097D01*
X1000Y1097D02*
X1005Y1097D01*
X1015Y1097D02*
X1021Y1097D01*
X796Y1096D02*
X801Y1096D01*
X859Y1096D02*
X865Y1096D01*
X873Y1096D02*
X878Y1096D01*
X886Y1096D02*
X891Y1096D01*
X987Y1096D02*
X993Y1096D01*
X1000Y1096D02*
X1005Y1096D01*
X1016Y1096D02*
X1021Y1096D01*
X796Y1095D02*
X801Y1095D01*
X858Y1095D02*
X864Y1095D01*
X873Y1095D02*
X878Y1095D01*
X886Y1095D02*
X891Y1095D01*
X987Y1095D02*
X993Y1095D01*
X1000Y1095D02*
X1005Y1095D01*
X1016Y1095D02*
X1021Y1095D01*
X796Y1094D02*
X801Y1094D01*
X858Y1094D02*
X864Y1094D01*
X873Y1094D02*
X878Y1094D01*
X886Y1094D02*
X891Y1094D01*
X987Y1094D02*
X993Y1094D01*
X1000Y1094D02*
X1005Y1094D01*
X1016Y1094D02*
X1021Y1094D01*
X796Y1093D02*
X801Y1093D01*
X858Y1093D02*
X863Y1093D01*
X873Y1093D02*
X878Y1093D01*
X886Y1093D02*
X891Y1093D01*
X987Y1093D02*
X993Y1093D01*
X1000Y1093D02*
X1005Y1093D01*
X1016Y1093D02*
X1021Y1093D01*
X796Y1092D02*
X827Y1092D01*
X839Y1092D02*
X842Y1092D01*
X857Y1092D02*
X863Y1092D01*
X873Y1092D02*
X878Y1092D01*
X886Y1092D02*
X891Y1092D01*
X987Y1092D02*
X993Y1092D01*
X1000Y1092D02*
X1005Y1092D01*
X1016Y1092D02*
X1021Y1092D01*
X796Y1091D02*
X828Y1091D01*
X838Y1091D02*
X844Y1091D01*
X857Y1091D02*
X863Y1091D01*
X873Y1091D02*
X878Y1091D01*
X886Y1091D02*
X891Y1091D01*
X987Y1091D02*
X993Y1091D01*
X1000Y1091D02*
X1005Y1091D01*
X1016Y1091D02*
X1021Y1091D01*
X796Y1090D02*
X829Y1090D01*
X837Y1090D02*
X844Y1090D01*
X857Y1090D02*
X863Y1090D01*
X873Y1090D02*
X878Y1090D01*
X886Y1090D02*
X891Y1090D01*
X987Y1090D02*
X993Y1090D01*
X1000Y1090D02*
X1005Y1090D01*
X1016Y1090D02*
X1021Y1090D01*
X796Y1089D02*
X829Y1089D01*
X837Y1089D02*
X845Y1089D01*
X857Y1089D02*
X863Y1089D01*
X873Y1089D02*
X878Y1089D01*
X886Y1089D02*
X891Y1089D01*
X987Y1089D02*
X993Y1089D01*
X1000Y1089D02*
X1005Y1089D01*
X1016Y1089D02*
X1021Y1089D01*
X796Y1088D02*
X829Y1088D01*
X837Y1088D02*
X845Y1088D01*
X857Y1088D02*
X863Y1088D01*
X873Y1088D02*
X878Y1088D01*
X886Y1088D02*
X891Y1088D01*
X987Y1088D02*
X993Y1088D01*
X1000Y1088D02*
X1005Y1088D01*
X1016Y1088D02*
X1021Y1088D01*
X796Y1087D02*
X829Y1087D01*
X837Y1087D02*
X845Y1087D01*
X857Y1087D02*
X863Y1087D01*
X873Y1087D02*
X878Y1087D01*
X886Y1087D02*
X891Y1087D01*
X987Y1087D02*
X993Y1087D01*
X1000Y1087D02*
X1005Y1087D01*
X1015Y1087D02*
X1021Y1087D01*
X796Y1086D02*
X801Y1086D01*
X824Y1086D02*
X829Y1086D01*
X837Y1086D02*
X845Y1086D01*
X857Y1086D02*
X863Y1086D01*
X873Y1086D02*
X878Y1086D01*
X886Y1086D02*
X891Y1086D01*
X988Y1086D02*
X993Y1086D01*
X1000Y1086D02*
X1005Y1086D01*
X1015Y1086D02*
X1021Y1086D01*
X796Y1085D02*
X801Y1085D01*
X824Y1085D02*
X829Y1085D01*
X837Y1085D02*
X844Y1085D01*
X857Y1085D02*
X863Y1085D01*
X873Y1085D02*
X878Y1085D01*
X886Y1085D02*
X891Y1085D01*
X988Y1085D02*
X994Y1085D01*
X1000Y1085D02*
X1005Y1085D01*
X1014Y1085D02*
X1020Y1085D01*
X796Y1084D02*
X801Y1084D01*
X824Y1084D02*
X829Y1084D01*
X838Y1084D02*
X844Y1084D01*
X857Y1084D02*
X863Y1084D01*
X873Y1084D02*
X878Y1084D01*
X886Y1084D02*
X891Y1084D01*
X988Y1084D02*
X995Y1084D01*
X1000Y1084D02*
X1005Y1084D01*
X1013Y1084D02*
X1020Y1084D01*
X796Y1083D02*
X801Y1083D01*
X824Y1083D02*
X829Y1083D01*
X858Y1083D02*
X863Y1083D01*
X873Y1083D02*
X878Y1083D01*
X886Y1083D02*
X891Y1083D01*
X989Y1083D02*
X998Y1083D01*
X1000Y1083D02*
X1006Y1083D01*
X1011Y1083D02*
X1019Y1083D01*
X796Y1082D02*
X801Y1082D01*
X824Y1082D02*
X829Y1082D01*
X858Y1082D02*
X863Y1082D01*
X872Y1082D02*
X878Y1082D01*
X886Y1082D02*
X890Y1082D01*
X990Y1082D02*
X1018Y1082D01*
X796Y1081D02*
X801Y1081D01*
X824Y1081D02*
X829Y1081D01*
X858Y1081D02*
X865Y1081D01*
X871Y1081D02*
X878Y1081D01*
X887Y1081D02*
X889Y1081D01*
X991Y1081D02*
X1018Y1081D01*
X796Y1080D02*
X801Y1080D01*
X824Y1080D02*
X829Y1080D01*
X858Y1080D02*
X877Y1080D01*
X991Y1080D02*
X1017Y1080D01*
X796Y1079D02*
X801Y1079D01*
X824Y1079D02*
X829Y1079D01*
X859Y1079D02*
X877Y1079D01*
X992Y1079D02*
X1015Y1079D01*
X797Y1078D02*
X800Y1078D01*
X825Y1078D02*
X828Y1078D01*
X860Y1078D02*
X876Y1078D01*
X994Y1078D02*
X1014Y1078D01*
X861Y1077D02*
X875Y1077D01*
X997Y1077D02*
X1011Y1077D01*
X862Y1076D02*
X874Y1076D01*
X864Y1075D02*
X871Y1075D01*
X989Y1063D02*
X1032Y1063D01*
X988Y1062D02*
X1033Y1062D01*
X988Y1061D02*
X1033Y1061D01*
X804Y1060D02*
X813Y1060D01*
X825Y1060D02*
X833Y1060D01*
X987Y1060D02*
X1034Y1060D01*
X802Y1059D02*
X815Y1059D01*
X823Y1059D02*
X836Y1059D01*
X988Y1059D02*
X1033Y1059D01*
X801Y1058D02*
X817Y1058D01*
X821Y1058D02*
X837Y1058D01*
X860Y1058D02*
X860Y1058D01*
X989Y1058D02*
X1032Y1058D01*
X799Y1057D02*
X818Y1057D01*
X820Y1057D02*
X838Y1057D01*
X858Y1057D02*
X862Y1057D01*
X991Y1057D02*
X999Y1057D01*
X1009Y1057D02*
X1017Y1057D01*
X799Y1056D02*
X839Y1056D01*
X858Y1056D02*
X862Y1056D01*
X990Y1056D02*
X998Y1056D01*
X1011Y1056D02*
X1018Y1056D01*
X798Y1055D02*
X840Y1055D01*
X858Y1055D02*
X863Y1055D01*
X989Y1055D02*
X997Y1055D01*
X1012Y1055D02*
X1019Y1055D01*
X797Y1054D02*
X805Y1054D01*
X813Y1054D02*
X825Y1054D01*
X833Y1054D02*
X841Y1054D01*
X857Y1054D02*
X863Y1054D01*
X989Y1054D02*
X996Y1054D01*
X1012Y1054D02*
X1019Y1054D01*
X797Y1053D02*
X803Y1053D01*
X814Y1053D02*
X824Y1053D01*
X835Y1053D02*
X841Y1053D01*
X857Y1053D02*
X863Y1053D01*
X988Y1053D02*
X995Y1053D01*
X1013Y1053D02*
X1020Y1053D01*
X796Y1052D02*
X802Y1052D01*
X815Y1052D02*
X823Y1052D01*
X836Y1052D02*
X841Y1052D01*
X857Y1052D02*
X863Y1052D01*
X988Y1052D02*
X994Y1052D01*
X1014Y1052D02*
X1020Y1052D01*
X796Y1051D02*
X802Y1051D01*
X816Y1051D02*
X822Y1051D01*
X836Y1051D02*
X842Y1051D01*
X857Y1051D02*
X863Y1051D01*
X988Y1051D02*
X993Y1051D01*
X1015Y1051D02*
X1021Y1051D01*
X796Y1050D02*
X801Y1050D01*
X816Y1050D02*
X822Y1050D01*
X837Y1050D02*
X842Y1050D01*
X857Y1050D02*
X863Y1050D01*
X987Y1050D02*
X993Y1050D01*
X1015Y1050D02*
X1021Y1050D01*
X796Y1049D02*
X801Y1049D01*
X816Y1049D02*
X822Y1049D01*
X837Y1049D02*
X842Y1049D01*
X857Y1049D02*
X889Y1049D01*
X901Y1049D02*
X904Y1049D01*
X987Y1049D02*
X993Y1049D01*
X1016Y1049D02*
X1021Y1049D01*
X796Y1048D02*
X801Y1048D01*
X816Y1048D02*
X821Y1048D01*
X837Y1048D02*
X842Y1048D01*
X857Y1048D02*
X890Y1048D01*
X899Y1048D02*
X906Y1048D01*
X987Y1048D02*
X993Y1048D01*
X1016Y1048D02*
X1021Y1048D01*
X796Y1047D02*
X801Y1047D01*
X816Y1047D02*
X821Y1047D01*
X837Y1047D02*
X842Y1047D01*
X857Y1047D02*
X891Y1047D01*
X899Y1047D02*
X906Y1047D01*
X987Y1047D02*
X993Y1047D01*
X1016Y1047D02*
X1021Y1047D01*
X796Y1046D02*
X801Y1046D01*
X816Y1046D02*
X821Y1046D01*
X837Y1046D02*
X842Y1046D01*
X857Y1046D02*
X891Y1046D01*
X899Y1046D02*
X906Y1046D01*
X987Y1046D02*
X993Y1046D01*
X1016Y1046D02*
X1021Y1046D01*
X796Y1045D02*
X801Y1045D01*
X816Y1045D02*
X821Y1045D01*
X837Y1045D02*
X842Y1045D01*
X857Y1045D02*
X891Y1045D01*
X899Y1045D02*
X906Y1045D01*
X987Y1045D02*
X993Y1045D01*
X1016Y1045D02*
X1021Y1045D01*
X796Y1044D02*
X801Y1044D01*
X816Y1044D02*
X821Y1044D01*
X837Y1044D02*
X842Y1044D01*
X857Y1044D02*
X891Y1044D01*
X899Y1044D02*
X906Y1044D01*
X987Y1044D02*
X993Y1044D01*
X1016Y1044D02*
X1021Y1044D01*
X796Y1043D02*
X801Y1043D01*
X816Y1043D02*
X821Y1043D01*
X837Y1043D02*
X842Y1043D01*
X857Y1043D02*
X863Y1043D01*
X885Y1043D02*
X891Y1043D01*
X899Y1043D02*
X906Y1043D01*
X988Y1043D02*
X993Y1043D01*
X1015Y1043D02*
X1021Y1043D01*
X796Y1042D02*
X801Y1042D01*
X816Y1042D02*
X821Y1042D01*
X837Y1042D02*
X842Y1042D01*
X857Y1042D02*
X863Y1042D01*
X886Y1042D02*
X891Y1042D01*
X899Y1042D02*
X906Y1042D01*
X988Y1042D02*
X994Y1042D01*
X1014Y1042D02*
X1020Y1042D01*
X796Y1041D02*
X801Y1041D01*
X816Y1041D02*
X821Y1041D01*
X837Y1041D02*
X842Y1041D01*
X857Y1041D02*
X863Y1041D01*
X886Y1041D02*
X891Y1041D01*
X900Y1041D02*
X905Y1041D01*
X988Y1041D02*
X995Y1041D01*
X1014Y1041D02*
X1020Y1041D01*
X796Y1040D02*
X801Y1040D01*
X816Y1040D02*
X821Y1040D01*
X837Y1040D02*
X842Y1040D01*
X857Y1040D02*
X863Y1040D01*
X886Y1040D02*
X891Y1040D01*
X989Y1040D02*
X996Y1040D01*
X1012Y1040D02*
X1020Y1040D01*
X796Y1039D02*
X801Y1039D01*
X816Y1039D02*
X821Y1039D01*
X837Y1039D02*
X842Y1039D01*
X857Y1039D02*
X863Y1039D01*
X886Y1039D02*
X891Y1039D01*
X989Y1039D02*
X1019Y1039D01*
X796Y1038D02*
X801Y1038D01*
X816Y1038D02*
X821Y1038D01*
X837Y1038D02*
X842Y1038D01*
X857Y1038D02*
X863Y1038D01*
X886Y1038D02*
X891Y1038D01*
X990Y1038D02*
X1018Y1038D01*
X796Y1037D02*
X801Y1037D01*
X816Y1037D02*
X822Y1037D01*
X837Y1037D02*
X842Y1037D01*
X858Y1037D02*
X863Y1037D01*
X886Y1037D02*
X891Y1037D01*
X991Y1037D02*
X1017Y1037D01*
X796Y1036D02*
X842Y1036D01*
X858Y1036D02*
X862Y1036D01*
X886Y1036D02*
X891Y1036D01*
X992Y1036D02*
X1016Y1036D01*
X796Y1035D02*
X842Y1035D01*
X858Y1035D02*
X862Y1035D01*
X887Y1035D02*
X890Y1035D01*
X993Y1035D02*
X1015Y1035D01*
X796Y1034D02*
X842Y1034D01*
X995Y1034D02*
X1013Y1034D01*
X796Y1033D02*
X842Y1033D01*
X796Y1032D02*
X842Y1032D01*
X796Y1031D02*
X842Y1031D01*
X993Y1019D02*
X997Y1019D01*
X991Y1018D02*
X997Y1018D01*
X859Y1017D02*
X877Y1017D01*
X990Y1017D02*
X998Y1017D01*
X858Y1016D02*
X886Y1016D01*
X989Y1016D02*
X997Y1016D01*
X1017Y1016D02*
X1020Y1016D01*
X858Y1015D02*
X887Y1015D01*
X989Y1015D02*
X997Y1015D01*
X1016Y1015D02*
X1020Y1015D01*
X858Y1014D02*
X888Y1014D01*
X988Y1014D02*
X995Y1014D01*
X1016Y1014D02*
X1021Y1014D01*
X858Y1013D02*
X889Y1013D01*
X988Y1013D02*
X994Y1013D01*
X1016Y1013D02*
X1021Y1013D01*
X859Y1012D02*
X890Y1012D01*
X987Y1012D02*
X993Y1012D01*
X1016Y1012D02*
X1021Y1012D01*
X875Y1011D02*
X890Y1011D01*
X987Y1011D02*
X993Y1011D01*
X1016Y1011D02*
X1021Y1011D01*
X885Y1010D02*
X891Y1010D01*
X987Y1010D02*
X993Y1010D01*
X1016Y1010D02*
X1021Y1010D01*
X885Y1009D02*
X891Y1009D01*
X987Y1009D02*
X993Y1009D01*
X1016Y1009D02*
X1021Y1009D01*
X886Y1008D02*
X891Y1008D01*
X987Y1008D02*
X993Y1008D01*
X1016Y1008D02*
X1021Y1008D01*
X886Y1007D02*
X891Y1007D01*
X987Y1007D02*
X993Y1007D01*
X1016Y1007D02*
X1021Y1007D01*
X886Y1006D02*
X891Y1006D01*
X987Y1006D02*
X993Y1006D01*
X1016Y1006D02*
X1021Y1006D01*
X886Y1005D02*
X891Y1005D01*
X987Y1005D02*
X993Y1005D01*
X1016Y1005D02*
X1021Y1005D01*
X886Y1004D02*
X891Y1004D01*
X987Y1004D02*
X993Y1004D01*
X1016Y1004D02*
X1021Y1004D01*
X885Y1003D02*
X891Y1003D01*
X988Y1003D02*
X993Y1003D01*
X1016Y1003D02*
X1021Y1003D01*
X885Y1002D02*
X891Y1002D01*
X988Y1002D02*
X994Y1002D01*
X1015Y1002D02*
X1021Y1002D01*
X884Y1001D02*
X890Y1001D01*
X988Y1001D02*
X1030Y1001D01*
X884Y1000D02*
X890Y1000D01*
X989Y1000D02*
X1031Y1000D01*
X883Y999D02*
X889Y999D01*
X990Y999D02*
X1031Y999D01*
X882Y998D02*
X889Y998D01*
X990Y998D02*
X1031Y998D01*
X882Y997D02*
X888Y997D01*
X992Y997D02*
X1030Y997D01*
X881Y996D02*
X887Y996D01*
X994Y996D02*
X1029Y996D01*
X880Y995D02*
X887Y995D01*
X1016Y995D02*
X1021Y995D01*
X880Y994D02*
X886Y994D01*
X1016Y994D02*
X1021Y994D01*
X859Y993D02*
X902Y993D01*
X1016Y993D02*
X1021Y993D01*
X858Y992D02*
X903Y992D01*
X1016Y992D02*
X1021Y992D01*
X858Y991D02*
X904Y991D01*
X1016Y991D02*
X1020Y991D01*
X858Y990D02*
X904Y990D01*
X1017Y990D02*
X1019Y990D01*
X858Y989D02*
X903Y989D01*
X859Y988D02*
X902Y988D01*
X865Y974D02*
X865Y974D01*
X803Y973D02*
X807Y973D01*
X862Y973D02*
X867Y973D01*
X989Y973D02*
X990Y973D01*
X800Y972D02*
X809Y972D01*
X823Y972D02*
X825Y972D01*
X861Y972D02*
X867Y972D01*
X988Y972D02*
X992Y972D01*
X799Y971D02*
X810Y971D01*
X822Y971D02*
X827Y971D01*
X860Y971D02*
X868Y971D01*
X988Y971D02*
X992Y971D01*
X798Y970D02*
X811Y970D01*
X822Y970D02*
X827Y970D01*
X859Y970D02*
X868Y970D01*
X887Y970D02*
X890Y970D01*
X987Y970D02*
X992Y970D01*
X797Y969D02*
X812Y969D01*
X822Y969D02*
X828Y969D01*
X859Y969D02*
X867Y969D01*
X886Y969D02*
X891Y969D01*
X987Y969D02*
X993Y969D01*
X797Y968D02*
X812Y968D01*
X822Y968D02*
X829Y968D01*
X858Y968D02*
X865Y968D01*
X886Y968D02*
X891Y968D01*
X987Y968D02*
X993Y968D01*
X796Y967D02*
X803Y967D01*
X806Y967D02*
X813Y967D01*
X823Y967D02*
X829Y967D01*
X858Y967D02*
X864Y967D01*
X886Y967D02*
X891Y967D01*
X987Y967D02*
X993Y967D01*
X796Y966D02*
X802Y966D01*
X807Y966D02*
X813Y966D01*
X824Y966D02*
X829Y966D01*
X858Y966D02*
X863Y966D01*
X886Y966D02*
X891Y966D01*
X987Y966D02*
X993Y966D01*
X796Y965D02*
X801Y965D01*
X808Y965D02*
X814Y965D01*
X824Y965D02*
X829Y965D01*
X857Y965D02*
X863Y965D01*
X886Y965D02*
X891Y965D01*
X987Y965D02*
X993Y965D01*
X796Y964D02*
X801Y964D01*
X809Y964D02*
X814Y964D01*
X824Y964D02*
X829Y964D01*
X857Y964D02*
X863Y964D01*
X886Y964D02*
X891Y964D01*
X987Y964D02*
X1019Y964D01*
X1031Y964D02*
X1034Y964D01*
X796Y963D02*
X801Y963D01*
X809Y963D02*
X815Y963D01*
X824Y963D02*
X829Y963D01*
X857Y963D02*
X863Y963D01*
X886Y963D02*
X891Y963D01*
X987Y963D02*
X1020Y963D01*
X1029Y963D02*
X1035Y963D01*
X796Y962D02*
X801Y962D01*
X809Y962D02*
X815Y962D01*
X824Y962D02*
X829Y962D01*
X857Y962D02*
X863Y962D01*
X886Y962D02*
X891Y962D01*
X987Y962D02*
X1021Y962D01*
X1029Y962D02*
X1036Y962D01*
X796Y961D02*
X801Y961D01*
X810Y961D02*
X816Y961D01*
X824Y961D02*
X829Y961D01*
X857Y961D02*
X863Y961D01*
X886Y961D02*
X891Y961D01*
X987Y961D02*
X1021Y961D01*
X1029Y961D02*
X1036Y961D01*
X796Y960D02*
X801Y960D01*
X810Y960D02*
X816Y960D01*
X824Y960D02*
X829Y960D01*
X857Y960D02*
X863Y960D01*
X886Y960D02*
X891Y960D01*
X987Y960D02*
X1021Y960D01*
X1028Y960D02*
X1036Y960D01*
X796Y959D02*
X801Y959D01*
X811Y959D02*
X816Y959D01*
X824Y959D02*
X829Y959D01*
X857Y959D02*
X863Y959D01*
X886Y959D02*
X891Y959D01*
X987Y959D02*
X1021Y959D01*
X1028Y959D02*
X1036Y959D01*
X796Y958D02*
X801Y958D01*
X811Y958D02*
X817Y958D01*
X824Y958D02*
X829Y958D01*
X858Y958D02*
X863Y958D01*
X886Y958D02*
X891Y958D01*
X987Y958D02*
X993Y958D01*
X1015Y958D02*
X1021Y958D01*
X1029Y958D02*
X1036Y958D01*
X796Y957D02*
X801Y957D01*
X812Y957D02*
X817Y957D01*
X824Y957D02*
X829Y957D01*
X858Y957D02*
X863Y957D01*
X886Y957D02*
X891Y957D01*
X987Y957D02*
X993Y957D01*
X1016Y957D02*
X1021Y957D01*
X1029Y957D02*
X1036Y957D01*
X796Y956D02*
X801Y956D01*
X812Y956D02*
X818Y956D01*
X824Y956D02*
X829Y956D01*
X858Y956D02*
X865Y956D01*
X885Y956D02*
X891Y956D01*
X987Y956D02*
X993Y956D01*
X1016Y956D02*
X1021Y956D01*
X1029Y956D02*
X1035Y956D01*
X796Y955D02*
X801Y955D01*
X812Y955D02*
X818Y955D01*
X824Y955D02*
X829Y955D01*
X858Y955D02*
X900Y955D01*
X987Y955D02*
X993Y955D01*
X1016Y955D02*
X1021Y955D01*
X796Y954D02*
X801Y954D01*
X813Y954D02*
X819Y954D01*
X824Y954D02*
X829Y954D01*
X859Y954D02*
X901Y954D01*
X987Y954D02*
X993Y954D01*
X1016Y954D02*
X1021Y954D01*
X796Y953D02*
X801Y953D01*
X813Y953D02*
X819Y953D01*
X824Y953D02*
X829Y953D01*
X860Y953D02*
X901Y953D01*
X987Y953D02*
X993Y953D01*
X1016Y953D02*
X1021Y953D01*
X796Y952D02*
X801Y952D01*
X814Y952D02*
X819Y952D01*
X824Y952D02*
X829Y952D01*
X861Y952D02*
X901Y952D01*
X987Y952D02*
X992Y952D01*
X1016Y952D02*
X1021Y952D01*
X796Y951D02*
X801Y951D01*
X814Y951D02*
X820Y951D01*
X824Y951D02*
X829Y951D01*
X862Y951D02*
X900Y951D01*
X988Y951D02*
X992Y951D01*
X1016Y951D02*
X1021Y951D01*
X796Y950D02*
X802Y950D01*
X815Y950D02*
X829Y950D01*
X865Y950D02*
X899Y950D01*
X988Y950D02*
X992Y950D01*
X1017Y950D02*
X1020Y950D01*
X796Y949D02*
X802Y949D01*
X815Y949D02*
X829Y949D01*
X886Y949D02*
X891Y949D01*
X797Y948D02*
X803Y948D01*
X816Y948D02*
X828Y948D01*
X886Y948D02*
X891Y948D01*
X797Y947D02*
X803Y947D01*
X816Y947D02*
X827Y947D01*
X886Y947D02*
X891Y947D01*
X798Y946D02*
X803Y946D01*
X817Y946D02*
X827Y946D01*
X886Y946D02*
X891Y946D01*
X799Y945D02*
X803Y945D01*
X819Y945D02*
X825Y945D01*
X886Y945D02*
X890Y945D01*
X800Y944D02*
X802Y944D01*
X888Y944D02*
X889Y944D01*
X989Y932D02*
X1034Y932D01*
X988Y931D02*
X1034Y931D01*
X864Y930D02*
X866Y930D01*
X987Y930D02*
X1034Y930D01*
X862Y929D02*
X867Y929D01*
X987Y929D02*
X1034Y929D01*
X861Y928D02*
X868Y928D01*
X988Y928D02*
X1034Y928D01*
X860Y927D02*
X868Y927D01*
X888Y927D02*
X889Y927D01*
X989Y927D02*
X1034Y927D01*
X797Y926D02*
X800Y926D01*
X859Y926D02*
X867Y926D01*
X886Y926D02*
X890Y926D01*
X1025Y926D02*
X1034Y926D01*
X796Y925D02*
X801Y925D01*
X858Y925D02*
X866Y925D01*
X886Y925D02*
X891Y925D01*
X1024Y925D02*
X1033Y925D01*
X796Y924D02*
X801Y924D01*
X858Y924D02*
X865Y924D01*
X886Y924D02*
X891Y924D01*
X1023Y924D02*
X1032Y924D01*
X796Y923D02*
X801Y923D01*
X858Y923D02*
X863Y923D01*
X886Y923D02*
X891Y923D01*
X1021Y923D02*
X1031Y923D01*
X796Y922D02*
X801Y922D01*
X858Y922D02*
X863Y922D01*
X886Y922D02*
X891Y922D01*
X1020Y922D02*
X1029Y922D01*
X796Y921D02*
X801Y921D01*
X857Y921D02*
X863Y921D01*
X886Y921D02*
X891Y921D01*
X1018Y921D02*
X1028Y921D01*
X796Y920D02*
X801Y920D01*
X857Y920D02*
X863Y920D01*
X886Y920D02*
X891Y920D01*
X1014Y920D02*
X1027Y920D01*
X796Y919D02*
X801Y919D01*
X857Y919D02*
X863Y919D01*
X886Y919D02*
X891Y919D01*
X1014Y919D02*
X1025Y919D01*
X796Y918D02*
X801Y918D01*
X857Y918D02*
X863Y918D01*
X886Y918D02*
X891Y918D01*
X1013Y918D02*
X1024Y918D01*
X796Y917D02*
X841Y917D01*
X857Y917D02*
X863Y917D01*
X886Y917D02*
X891Y917D01*
X1013Y917D02*
X1024Y917D01*
X796Y916D02*
X842Y916D01*
X857Y916D02*
X863Y916D01*
X886Y916D02*
X891Y916D01*
X1014Y916D02*
X1025Y916D01*
X796Y915D02*
X842Y915D01*
X858Y915D02*
X863Y915D01*
X886Y915D02*
X891Y915D01*
X1015Y915D02*
X1027Y915D01*
X796Y914D02*
X842Y914D01*
X858Y914D02*
X863Y914D01*
X886Y914D02*
X891Y914D01*
X1018Y914D02*
X1028Y914D01*
X796Y913D02*
X842Y913D01*
X858Y913D02*
X864Y913D01*
X886Y913D02*
X891Y913D01*
X1020Y913D02*
X1030Y913D01*
X796Y912D02*
X842Y912D01*
X858Y912D02*
X899Y912D01*
X1021Y912D02*
X1031Y912D01*
X796Y911D02*
X801Y911D01*
X837Y911D02*
X842Y911D01*
X859Y911D02*
X901Y911D01*
X1023Y911D02*
X1032Y911D01*
X796Y910D02*
X801Y910D01*
X837Y910D02*
X842Y910D01*
X859Y910D02*
X901Y910D01*
X1024Y910D02*
X1034Y910D01*
X796Y909D02*
X801Y909D01*
X837Y909D02*
X842Y909D01*
X860Y909D02*
X901Y909D01*
X1025Y909D02*
X1034Y909D01*
X796Y908D02*
X801Y908D01*
X837Y908D02*
X842Y908D01*
X861Y908D02*
X901Y908D01*
X989Y908D02*
X1034Y908D01*
X796Y907D02*
X801Y907D01*
X837Y907D02*
X842Y907D01*
X863Y907D02*
X900Y907D01*
X988Y907D02*
X1034Y907D01*
X796Y906D02*
X801Y906D01*
X837Y906D02*
X842Y906D01*
X886Y906D02*
X891Y906D01*
X987Y906D02*
X1034Y906D01*
X796Y905D02*
X801Y905D01*
X837Y905D02*
X842Y905D01*
X886Y905D02*
X891Y905D01*
X987Y905D02*
X1034Y905D01*
X796Y904D02*
X800Y904D01*
X837Y904D02*
X841Y904D01*
X886Y904D02*
X891Y904D01*
X988Y904D02*
X1034Y904D01*
X798Y903D02*
X799Y903D01*
X839Y903D02*
X840Y903D01*
X886Y903D02*
X891Y903D01*
X989Y903D02*
X1034Y903D01*
X886Y902D02*
X891Y902D01*
X887Y901D02*
X890Y901D01*
X859Y886D02*
X882Y886D01*
X858Y885D02*
X886Y885D01*
X858Y884D02*
X887Y884D01*
X798Y883D02*
X799Y883D01*
X858Y883D02*
X889Y883D01*
X796Y882D02*
X800Y882D01*
X858Y882D02*
X889Y882D01*
X796Y881D02*
X801Y881D01*
X859Y881D02*
X890Y881D01*
X796Y880D02*
X801Y880D01*
X860Y880D02*
X866Y880D01*
X871Y880D02*
X878Y880D01*
X880Y880D02*
X890Y880D01*
X796Y879D02*
X801Y879D01*
X860Y879D02*
X866Y879D01*
X872Y879D02*
X878Y879D01*
X885Y879D02*
X891Y879D01*
X796Y878D02*
X801Y878D01*
X859Y878D02*
X865Y878D01*
X873Y878D02*
X878Y878D01*
X886Y878D02*
X891Y878D01*
X796Y877D02*
X801Y877D01*
X858Y877D02*
X864Y877D01*
X873Y877D02*
X878Y877D01*
X886Y877D02*
X891Y877D01*
X796Y876D02*
X801Y876D01*
X858Y876D02*
X864Y876D01*
X873Y876D02*
X878Y876D01*
X886Y876D02*
X891Y876D01*
X796Y875D02*
X801Y875D01*
X858Y875D02*
X863Y875D01*
X873Y875D02*
X878Y875D01*
X886Y875D02*
X891Y875D01*
X796Y874D02*
X827Y874D01*
X839Y874D02*
X842Y874D01*
X857Y874D02*
X863Y874D01*
X873Y874D02*
X878Y874D01*
X886Y874D02*
X891Y874D01*
X796Y873D02*
X828Y873D01*
X838Y873D02*
X844Y873D01*
X857Y873D02*
X863Y873D01*
X873Y873D02*
X878Y873D01*
X886Y873D02*
X891Y873D01*
X796Y872D02*
X829Y872D01*
X837Y872D02*
X844Y872D01*
X857Y872D02*
X863Y872D01*
X873Y872D02*
X878Y872D01*
X886Y872D02*
X891Y872D01*
X796Y871D02*
X829Y871D01*
X837Y871D02*
X845Y871D01*
X857Y871D02*
X863Y871D01*
X873Y871D02*
X878Y871D01*
X886Y871D02*
X891Y871D01*
X796Y870D02*
X829Y870D01*
X837Y870D02*
X845Y870D01*
X857Y870D02*
X863Y870D01*
X873Y870D02*
X878Y870D01*
X886Y870D02*
X891Y870D01*
X796Y869D02*
X829Y869D01*
X837Y869D02*
X845Y869D01*
X857Y869D02*
X863Y869D01*
X873Y869D02*
X878Y869D01*
X886Y869D02*
X891Y869D01*
X796Y868D02*
X801Y868D01*
X824Y868D02*
X829Y868D01*
X837Y868D02*
X845Y868D01*
X857Y868D02*
X863Y868D01*
X873Y868D02*
X878Y868D01*
X886Y868D02*
X891Y868D01*
X796Y867D02*
X801Y867D01*
X824Y867D02*
X829Y867D01*
X837Y867D02*
X844Y867D01*
X857Y867D02*
X863Y867D01*
X873Y867D02*
X878Y867D01*
X886Y867D02*
X891Y867D01*
X796Y866D02*
X801Y866D01*
X824Y866D02*
X829Y866D01*
X838Y866D02*
X844Y866D01*
X857Y866D02*
X863Y866D01*
X873Y866D02*
X878Y866D01*
X886Y866D02*
X891Y866D01*
X796Y865D02*
X801Y865D01*
X824Y865D02*
X829Y865D01*
X858Y865D02*
X863Y865D01*
X873Y865D02*
X878Y865D01*
X886Y865D02*
X891Y865D01*
X796Y864D02*
X801Y864D01*
X824Y864D02*
X829Y864D01*
X858Y864D02*
X863Y864D01*
X872Y864D02*
X878Y864D01*
X886Y864D02*
X890Y864D01*
X796Y863D02*
X801Y863D01*
X824Y863D02*
X829Y863D01*
X858Y863D02*
X865Y863D01*
X871Y863D02*
X878Y863D01*
X887Y863D02*
X889Y863D01*
X796Y862D02*
X801Y862D01*
X824Y862D02*
X829Y862D01*
X858Y862D02*
X877Y862D01*
X796Y861D02*
X801Y861D01*
X824Y861D02*
X829Y861D01*
X859Y861D02*
X877Y861D01*
X797Y860D02*
X800Y860D01*
X825Y860D02*
X828Y860D01*
X860Y860D02*
X876Y860D01*
X861Y859D02*
X875Y859D01*
X862Y858D02*
X874Y858D01*
X864Y857D02*
X871Y857D01*
X1007Y845D02*
X1011Y845D01*
X1006Y844D02*
X1013Y844D01*
X860Y843D02*
X904Y843D01*
X1005Y843D02*
X1013Y843D01*
X796Y842D02*
X841Y842D01*
X858Y842D02*
X904Y842D01*
X1005Y842D02*
X1013Y842D01*
X796Y841D02*
X842Y841D01*
X858Y841D02*
X904Y841D01*
X1005Y841D02*
X1013Y841D01*
X796Y840D02*
X842Y840D01*
X858Y840D02*
X904Y840D01*
X1005Y840D02*
X1013Y840D01*
X796Y839D02*
X842Y839D01*
X858Y839D02*
X904Y839D01*
X1005Y839D02*
X1013Y839D01*
X796Y838D02*
X842Y838D01*
X858Y838D02*
X904Y838D01*
X1005Y838D02*
X1013Y838D01*
X796Y837D02*
X841Y837D01*
X895Y837D02*
X904Y837D01*
X1005Y837D02*
X1013Y837D01*
X796Y836D02*
X807Y836D01*
X895Y836D02*
X904Y836D01*
X1005Y836D02*
X1013Y836D01*
X796Y835D02*
X809Y835D01*
X893Y835D02*
X903Y835D01*
X1005Y835D02*
X1013Y835D01*
X797Y834D02*
X811Y834D01*
X892Y834D02*
X902Y834D01*
X1005Y834D02*
X1013Y834D01*
X799Y833D02*
X814Y833D01*
X890Y833D02*
X900Y833D01*
X1005Y833D02*
X1013Y833D01*
X802Y832D02*
X816Y832D01*
X889Y832D02*
X899Y832D01*
X1005Y832D02*
X1013Y832D01*
X804Y831D02*
X818Y831D01*
X885Y831D02*
X897Y831D01*
X1005Y831D02*
X1013Y831D01*
X806Y830D02*
X820Y830D01*
X884Y830D02*
X896Y830D01*
X1005Y830D02*
X1013Y830D01*
X808Y829D02*
X823Y829D01*
X883Y829D02*
X894Y829D01*
X1005Y829D02*
X1013Y829D01*
X811Y828D02*
X825Y828D01*
X883Y828D02*
X894Y828D01*
X1005Y828D02*
X1013Y828D01*
X813Y827D02*
X827Y827D01*
X883Y827D02*
X895Y827D01*
X1005Y827D02*
X1013Y827D01*
X815Y826D02*
X830Y826D01*
X884Y826D02*
X896Y826D01*
X1005Y826D02*
X1013Y826D01*
X817Y825D02*
X832Y825D01*
X888Y825D02*
X898Y825D01*
X1005Y825D02*
X1013Y825D01*
X820Y824D02*
X834Y824D01*
X889Y824D02*
X899Y824D01*
X1005Y824D02*
X1013Y824D01*
X822Y823D02*
X836Y823D01*
X891Y823D02*
X900Y823D01*
X1005Y823D02*
X1013Y823D01*
X824Y822D02*
X839Y822D01*
X892Y822D02*
X902Y822D01*
X1005Y822D02*
X1013Y822D01*
X827Y821D02*
X841Y821D01*
X894Y821D02*
X903Y821D01*
X1005Y821D02*
X1013Y821D01*
X829Y820D02*
X842Y820D01*
X895Y820D02*
X904Y820D01*
X1005Y820D02*
X1013Y820D01*
X831Y819D02*
X842Y819D01*
X860Y819D02*
X904Y819D01*
X1005Y819D02*
X1013Y819D01*
X797Y818D02*
X842Y818D01*
X858Y818D02*
X904Y818D01*
X1005Y818D02*
X1013Y818D01*
X796Y817D02*
X842Y817D01*
X858Y817D02*
X904Y817D01*
X1006Y817D02*
X1013Y817D01*
X796Y816D02*
X842Y816D01*
X858Y816D02*
X904Y816D01*
X1007Y816D02*
X1012Y816D01*
X796Y815D02*
X842Y815D01*
X858Y815D02*
X904Y815D01*
X796Y814D02*
X842Y814D01*
X858Y814D02*
X904Y814D01*
X797Y813D02*
X842Y813D01*
X995Y758D02*
X1008Y758D01*
X1031Y758D02*
X1032Y758D01*
X992Y757D02*
X1008Y757D01*
X1029Y757D02*
X1033Y757D01*
X991Y756D02*
X1008Y756D01*
X1029Y756D02*
X1033Y756D01*
X990Y755D02*
X1008Y755D01*
X1029Y755D02*
X1034Y755D01*
X989Y754D02*
X1008Y754D01*
X1028Y754D02*
X1034Y754D01*
X988Y753D02*
X1008Y753D01*
X1028Y753D02*
X1034Y753D01*
X988Y752D02*
X995Y752D01*
X1003Y752D02*
X1008Y752D01*
X1028Y752D02*
X1034Y752D01*
X988Y751D02*
X993Y751D01*
X1003Y751D02*
X1008Y751D01*
X1028Y751D02*
X1034Y751D01*
X987Y750D02*
X993Y750D01*
X1003Y750D02*
X1008Y750D01*
X1028Y750D02*
X1034Y750D01*
X987Y749D02*
X993Y749D01*
X1003Y749D02*
X1008Y749D01*
X1028Y749D02*
X1034Y749D01*
X987Y748D02*
X993Y748D01*
X1003Y748D02*
X1008Y748D01*
X1028Y748D02*
X1034Y748D01*
X869Y747D02*
X872Y747D01*
X889Y747D02*
X892Y747D01*
X987Y747D02*
X993Y747D01*
X1003Y747D02*
X1008Y747D01*
X1028Y747D02*
X1034Y747D01*
X805Y746D02*
X812Y746D01*
X826Y746D02*
X833Y746D01*
X866Y746D02*
X875Y746D01*
X887Y746D02*
X895Y746D01*
X987Y746D02*
X993Y746D01*
X1003Y746D02*
X1008Y746D01*
X1028Y746D02*
X1034Y746D01*
X804Y745D02*
X813Y745D01*
X825Y745D02*
X834Y745D01*
X865Y745D02*
X875Y745D01*
X886Y745D02*
X896Y745D01*
X987Y745D02*
X993Y745D01*
X1003Y745D02*
X1008Y745D01*
X1028Y745D02*
X1033Y745D01*
X804Y744D02*
X814Y744D01*
X824Y744D02*
X834Y744D01*
X865Y744D02*
X875Y744D01*
X886Y744D02*
X896Y744D01*
X987Y744D02*
X993Y744D01*
X1004Y744D02*
X1007Y744D01*
X1028Y744D02*
X1033Y744D01*
X803Y743D02*
X814Y743D01*
X824Y743D02*
X834Y743D01*
X865Y743D02*
X875Y743D01*
X886Y743D02*
X896Y743D01*
X987Y743D02*
X993Y743D01*
X1026Y743D02*
X1033Y743D01*
X803Y742D02*
X814Y742D01*
X824Y742D02*
X834Y742D01*
X865Y742D02*
X875Y742D01*
X886Y742D02*
X896Y742D01*
X987Y742D02*
X993Y742D01*
X1025Y742D02*
X1033Y742D01*
X803Y741D02*
X814Y741D01*
X824Y741D02*
X834Y741D01*
X865Y741D02*
X875Y741D01*
X886Y741D02*
X896Y741D01*
X987Y741D02*
X993Y741D01*
X1024Y741D02*
X1032Y741D01*
X803Y740D02*
X814Y740D01*
X824Y740D02*
X834Y740D01*
X865Y740D02*
X875Y740D01*
X886Y740D02*
X896Y740D01*
X987Y740D02*
X993Y740D01*
X1023Y740D02*
X1031Y740D01*
X803Y739D02*
X814Y739D01*
X824Y739D02*
X834Y739D01*
X865Y739D02*
X875Y739D01*
X886Y739D02*
X896Y739D01*
X987Y739D02*
X993Y739D01*
X1021Y739D02*
X1030Y739D01*
X803Y738D02*
X814Y738D01*
X824Y738D02*
X834Y738D01*
X865Y738D02*
X875Y738D01*
X886Y738D02*
X896Y738D01*
X987Y738D02*
X993Y738D01*
X1020Y738D02*
X1029Y738D01*
X804Y737D02*
X814Y737D01*
X824Y737D02*
X834Y737D01*
X865Y737D02*
X875Y737D01*
X886Y737D02*
X896Y737D01*
X987Y737D02*
X993Y737D01*
X1019Y737D02*
X1028Y737D01*
X804Y736D02*
X813Y736D01*
X824Y736D02*
X834Y736D01*
X866Y736D02*
X875Y736D01*
X886Y736D02*
X895Y736D01*
X987Y736D02*
X993Y736D01*
X1017Y736D02*
X1026Y736D01*
X805Y735D02*
X813Y735D01*
X825Y735D02*
X833Y735D01*
X867Y735D02*
X873Y735D01*
X888Y735D02*
X894Y735D01*
X988Y735D02*
X994Y735D01*
X1016Y735D02*
X1025Y735D01*
X988Y734D02*
X1024Y734D01*
X988Y733D02*
X1023Y733D01*
X989Y732D02*
X1021Y732D01*
X990Y731D02*
X1020Y731D01*
X991Y730D02*
X1018Y730D01*
X993Y729D02*
X1017Y729D01*
X987Y714D02*
X1032Y714D01*
X987Y713D02*
X1033Y713D01*
X880Y712D02*
X884Y712D01*
X987Y712D02*
X1034Y712D01*
X817Y711D02*
X824Y711D01*
X879Y711D02*
X887Y711D01*
X987Y711D02*
X1034Y711D01*
X817Y710D02*
X825Y710D01*
X878Y710D02*
X888Y710D01*
X987Y710D02*
X1033Y710D01*
X816Y709D02*
X827Y709D01*
X878Y709D02*
X889Y709D01*
X987Y709D02*
X1032Y709D01*
X816Y708D02*
X827Y708D01*
X878Y708D02*
X890Y708D01*
X987Y708D02*
X998Y708D01*
X817Y707D02*
X828Y707D01*
X879Y707D02*
X890Y707D01*
X987Y707D02*
X1001Y707D01*
X818Y706D02*
X829Y706D01*
X884Y706D02*
X890Y706D01*
X989Y706D02*
X1003Y706D01*
X823Y705D02*
X829Y705D01*
X885Y705D02*
X891Y705D01*
X991Y705D02*
X1005Y705D01*
X824Y704D02*
X829Y704D01*
X886Y704D02*
X891Y704D01*
X993Y704D02*
X1007Y704D01*
X824Y703D02*
X829Y703D01*
X886Y703D02*
X891Y703D01*
X995Y703D02*
X1010Y703D01*
X824Y702D02*
X829Y702D01*
X886Y702D02*
X891Y702D01*
X998Y702D02*
X1012Y702D01*
X824Y701D02*
X829Y701D01*
X886Y701D02*
X891Y701D01*
X1000Y701D02*
X1014Y701D01*
X824Y700D02*
X829Y700D01*
X886Y700D02*
X891Y700D01*
X1002Y700D02*
X1017Y700D01*
X824Y699D02*
X829Y699D01*
X886Y699D02*
X891Y699D01*
X1005Y699D02*
X1019Y699D01*
X824Y698D02*
X829Y698D01*
X885Y698D02*
X891Y698D01*
X1007Y698D02*
X1021Y698D01*
X823Y697D02*
X829Y697D01*
X885Y697D02*
X891Y697D01*
X1009Y697D02*
X1023Y697D01*
X822Y696D02*
X829Y696D01*
X884Y696D02*
X891Y696D01*
X1011Y696D02*
X1026Y696D01*
X822Y695D02*
X829Y695D01*
X883Y695D02*
X890Y695D01*
X1014Y695D02*
X1028Y695D01*
X821Y694D02*
X828Y694D01*
X882Y694D02*
X889Y694D01*
X1016Y694D02*
X1030Y694D01*
X820Y693D02*
X827Y693D01*
X881Y693D02*
X888Y693D01*
X1018Y693D02*
X1033Y693D01*
X819Y692D02*
X826Y692D01*
X880Y692D02*
X887Y692D01*
X1021Y692D02*
X1034Y692D01*
X818Y691D02*
X825Y691D01*
X879Y691D02*
X886Y691D01*
X1023Y691D02*
X1034Y691D01*
X817Y690D02*
X824Y690D01*
X879Y690D02*
X886Y690D01*
X989Y690D02*
X1034Y690D01*
X816Y689D02*
X824Y689D01*
X878Y689D02*
X885Y689D01*
X988Y689D02*
X1034Y689D01*
X815Y688D02*
X823Y688D01*
X859Y688D02*
X889Y688D01*
X987Y688D02*
X1034Y688D01*
X797Y687D02*
X828Y687D01*
X858Y687D02*
X890Y687D01*
X987Y687D02*
X1034Y687D01*
X796Y686D02*
X829Y686D01*
X858Y686D02*
X891Y686D01*
X988Y686D02*
X1034Y686D01*
X796Y685D02*
X829Y685D01*
X858Y685D02*
X891Y685D01*
X989Y685D02*
X1034Y685D01*
X796Y684D02*
X829Y684D01*
X858Y684D02*
X891Y684D01*
X796Y683D02*
X829Y683D01*
X859Y683D02*
X890Y683D01*
X798Y682D02*
X827Y682D01*
X988Y670D02*
X992Y670D01*
X1029Y670D02*
X1033Y670D01*
X988Y669D02*
X992Y669D01*
X1029Y669D02*
X1033Y669D01*
X798Y668D02*
X799Y668D01*
X811Y668D02*
X820Y668D01*
X859Y668D02*
X862Y668D01*
X871Y668D02*
X884Y668D01*
X987Y668D02*
X992Y668D01*
X1029Y668D02*
X1034Y668D01*
X796Y667D02*
X800Y667D01*
X809Y667D02*
X823Y667D01*
X858Y667D02*
X862Y667D01*
X871Y667D02*
X885Y667D01*
X987Y667D02*
X993Y667D01*
X1028Y667D02*
X1034Y667D01*
X796Y666D02*
X801Y666D01*
X809Y666D02*
X824Y666D01*
X858Y666D02*
X863Y666D01*
X870Y666D02*
X886Y666D01*
X987Y666D02*
X993Y666D01*
X1028Y666D02*
X1034Y666D01*
X796Y665D02*
X801Y665D01*
X809Y665D02*
X825Y665D01*
X857Y665D02*
X863Y665D01*
X870Y665D02*
X887Y665D01*
X987Y665D02*
X993Y665D01*
X1028Y665D02*
X1034Y665D01*
X796Y664D02*
X801Y664D01*
X809Y664D02*
X826Y664D01*
X857Y664D02*
X863Y664D01*
X870Y664D02*
X888Y664D01*
X987Y664D02*
X993Y664D01*
X1028Y664D02*
X1034Y664D01*
X796Y663D02*
X801Y663D01*
X809Y663D02*
X827Y663D01*
X857Y663D02*
X863Y663D01*
X870Y663D02*
X889Y663D01*
X987Y663D02*
X993Y663D01*
X1028Y663D02*
X1034Y663D01*
X796Y662D02*
X801Y662D01*
X809Y662D02*
X814Y662D01*
X820Y662D02*
X828Y662D01*
X857Y662D02*
X863Y662D01*
X870Y662D02*
X875Y662D01*
X883Y662D02*
X890Y662D01*
X987Y662D02*
X993Y662D01*
X1028Y662D02*
X1034Y662D01*
X796Y661D02*
X801Y661D01*
X809Y661D02*
X814Y661D01*
X822Y661D02*
X828Y661D01*
X857Y661D02*
X863Y661D01*
X870Y661D02*
X875Y661D01*
X884Y661D02*
X890Y661D01*
X987Y661D02*
X993Y661D01*
X1028Y661D02*
X1034Y661D01*
X796Y660D02*
X801Y660D01*
X809Y660D02*
X814Y660D01*
X823Y660D02*
X829Y660D01*
X857Y660D02*
X863Y660D01*
X870Y660D02*
X875Y660D01*
X885Y660D02*
X891Y660D01*
X987Y660D02*
X993Y660D01*
X1028Y660D02*
X1034Y660D01*
X796Y659D02*
X801Y659D01*
X809Y659D02*
X814Y659D01*
X823Y659D02*
X829Y659D01*
X857Y659D02*
X863Y659D01*
X870Y659D02*
X875Y659D01*
X885Y659D02*
X891Y659D01*
X987Y659D02*
X1034Y659D01*
X796Y658D02*
X801Y658D01*
X809Y658D02*
X814Y658D01*
X824Y658D02*
X829Y658D01*
X857Y658D02*
X863Y658D01*
X870Y658D02*
X875Y658D01*
X886Y658D02*
X891Y658D01*
X987Y658D02*
X1034Y658D01*
X796Y657D02*
X801Y657D01*
X809Y657D02*
X814Y657D01*
X824Y657D02*
X829Y657D01*
X857Y657D02*
X863Y657D01*
X870Y657D02*
X875Y657D01*
X886Y657D02*
X891Y657D01*
X987Y657D02*
X1034Y657D01*
X796Y656D02*
X801Y656D01*
X809Y656D02*
X814Y656D01*
X824Y656D02*
X829Y656D01*
X857Y656D02*
X863Y656D01*
X870Y656D02*
X875Y656D01*
X886Y656D02*
X891Y656D01*
X987Y656D02*
X1034Y656D01*
X796Y655D02*
X801Y655D01*
X809Y655D02*
X814Y655D01*
X824Y655D02*
X829Y655D01*
X857Y655D02*
X863Y655D01*
X870Y655D02*
X875Y655D01*
X886Y655D02*
X891Y655D01*
X987Y655D02*
X1034Y655D01*
X796Y654D02*
X801Y654D01*
X809Y654D02*
X814Y654D01*
X824Y654D02*
X829Y654D01*
X857Y654D02*
X863Y654D01*
X870Y654D02*
X875Y654D01*
X886Y654D02*
X891Y654D01*
X987Y654D02*
X1034Y654D01*
X796Y653D02*
X801Y653D01*
X809Y653D02*
X814Y653D01*
X824Y653D02*
X829Y653D01*
X857Y653D02*
X863Y653D01*
X870Y653D02*
X875Y653D01*
X886Y653D02*
X891Y653D01*
X987Y653D02*
X1034Y653D01*
X796Y652D02*
X801Y652D01*
X809Y652D02*
X814Y652D01*
X824Y652D02*
X829Y652D01*
X857Y652D02*
X863Y652D01*
X870Y652D02*
X875Y652D01*
X886Y652D02*
X891Y652D01*
X987Y652D02*
X993Y652D01*
X1028Y652D02*
X1034Y652D01*
X796Y651D02*
X801Y651D01*
X809Y651D02*
X814Y651D01*
X824Y651D02*
X829Y651D01*
X857Y651D02*
X863Y651D01*
X870Y651D02*
X875Y651D01*
X886Y651D02*
X891Y651D01*
X987Y651D02*
X993Y651D01*
X1028Y651D02*
X1034Y651D01*
X796Y650D02*
X801Y650D01*
X809Y650D02*
X814Y650D01*
X824Y650D02*
X829Y650D01*
X857Y650D02*
X863Y650D01*
X870Y650D02*
X875Y650D01*
X886Y650D02*
X891Y650D01*
X987Y650D02*
X993Y650D01*
X1028Y650D02*
X1034Y650D01*
X796Y649D02*
X801Y649D01*
X809Y649D02*
X814Y649D01*
X824Y649D02*
X829Y649D01*
X858Y649D02*
X863Y649D01*
X870Y649D02*
X875Y649D01*
X886Y649D02*
X891Y649D01*
X987Y649D02*
X993Y649D01*
X1028Y649D02*
X1034Y649D01*
X796Y648D02*
X801Y648D01*
X809Y648D02*
X814Y648D01*
X824Y648D02*
X829Y648D01*
X858Y648D02*
X863Y648D01*
X870Y648D02*
X875Y648D01*
X885Y648D02*
X891Y648D01*
X987Y648D02*
X993Y648D01*
X1028Y648D02*
X1034Y648D01*
X796Y647D02*
X802Y647D01*
X809Y647D02*
X814Y647D01*
X823Y647D02*
X829Y647D01*
X858Y647D02*
X864Y647D01*
X870Y647D02*
X875Y647D01*
X884Y647D02*
X890Y647D01*
X987Y647D02*
X993Y647D01*
X1028Y647D02*
X1034Y647D01*
X796Y646D02*
X803Y646D01*
X809Y646D02*
X814Y646D01*
X822Y646D02*
X829Y646D01*
X858Y646D02*
X865Y646D01*
X870Y646D02*
X875Y646D01*
X883Y646D02*
X890Y646D01*
X987Y646D02*
X993Y646D01*
X1028Y646D02*
X1034Y646D01*
X797Y645D02*
X804Y645D01*
X809Y645D02*
X814Y645D01*
X821Y645D02*
X828Y645D01*
X859Y645D02*
X867Y645D01*
X870Y645D02*
X876Y645D01*
X882Y645D02*
X889Y645D01*
X987Y645D02*
X993Y645D01*
X1028Y645D02*
X1034Y645D01*
X797Y644D02*
X827Y644D01*
X860Y644D02*
X889Y644D01*
X987Y644D02*
X992Y644D01*
X1029Y644D02*
X1034Y644D01*
X798Y643D02*
X827Y643D01*
X860Y643D02*
X888Y643D01*
X988Y643D02*
X992Y643D01*
X1029Y643D02*
X1033Y643D01*
X799Y642D02*
X826Y642D01*
X861Y642D02*
X887Y642D01*
X988Y642D02*
X992Y642D01*
X1029Y642D02*
X1033Y642D01*
X800Y641D02*
X825Y641D01*
X862Y641D02*
X886Y641D01*
X990Y641D02*
X990Y641D01*
X1031Y641D02*
X1031Y641D01*
X801Y640D02*
X824Y640D01*
X864Y640D02*
X884Y640D01*
X803Y639D02*
X822Y639D01*
X866Y639D02*
X882Y639D01*
X860Y625D02*
X865Y625D01*
X797Y624D02*
X800Y624D01*
X810Y624D02*
X821Y624D01*
X858Y624D02*
X885Y624D01*
X796Y623D02*
X800Y623D01*
X809Y623D02*
X823Y623D01*
X858Y623D02*
X887Y623D01*
X796Y622D02*
X801Y622D01*
X809Y622D02*
X824Y622D01*
X858Y622D02*
X888Y622D01*
X796Y621D02*
X801Y621D01*
X809Y621D02*
X825Y621D01*
X858Y621D02*
X889Y621D01*
X796Y620D02*
X801Y620D01*
X809Y620D02*
X826Y620D01*
X858Y620D02*
X890Y620D01*
X796Y619D02*
X801Y619D01*
X809Y619D02*
X827Y619D01*
X864Y619D02*
X890Y619D01*
X796Y618D02*
X801Y618D01*
X809Y618D02*
X814Y618D01*
X821Y618D02*
X828Y618D01*
X884Y618D02*
X890Y618D01*
X997Y618D02*
X1004Y618D01*
X796Y617D02*
X801Y617D01*
X809Y617D02*
X814Y617D01*
X822Y617D02*
X828Y617D01*
X885Y617D02*
X891Y617D01*
X996Y617D02*
X1005Y617D01*
X796Y616D02*
X801Y616D01*
X809Y616D02*
X814Y616D01*
X823Y616D02*
X829Y616D01*
X886Y616D02*
X891Y616D01*
X995Y616D02*
X1005Y616D01*
X796Y615D02*
X801Y615D01*
X809Y615D02*
X814Y615D01*
X824Y615D02*
X829Y615D01*
X886Y615D02*
X891Y615D01*
X995Y615D02*
X1005Y615D01*
X796Y614D02*
X801Y614D01*
X809Y614D02*
X814Y614D01*
X824Y614D02*
X829Y614D01*
X886Y614D02*
X891Y614D01*
X995Y614D02*
X1005Y614D01*
X796Y613D02*
X801Y613D01*
X809Y613D02*
X814Y613D01*
X824Y613D02*
X829Y613D01*
X886Y613D02*
X891Y613D01*
X995Y613D02*
X1005Y613D01*
X796Y612D02*
X801Y612D01*
X809Y612D02*
X814Y612D01*
X824Y612D02*
X829Y612D01*
X886Y612D02*
X891Y612D01*
X995Y612D02*
X1005Y612D01*
X796Y611D02*
X801Y611D01*
X809Y611D02*
X814Y611D01*
X824Y611D02*
X829Y611D01*
X886Y611D02*
X891Y611D01*
X995Y611D02*
X1005Y611D01*
X796Y610D02*
X801Y610D01*
X809Y610D02*
X814Y610D01*
X824Y610D02*
X829Y610D01*
X885Y610D02*
X891Y610D01*
X995Y610D02*
X1005Y610D01*
X796Y609D02*
X801Y609D01*
X809Y609D02*
X814Y609D01*
X824Y609D02*
X829Y609D01*
X884Y609D02*
X890Y609D01*
X995Y609D02*
X1005Y609D01*
X796Y608D02*
X801Y608D01*
X809Y608D02*
X814Y608D01*
X824Y608D02*
X829Y608D01*
X884Y608D02*
X890Y608D01*
X995Y608D02*
X1005Y608D01*
X796Y607D02*
X801Y607D01*
X809Y607D02*
X814Y607D01*
X824Y607D02*
X829Y607D01*
X883Y607D02*
X889Y607D01*
X996Y607D02*
X1004Y607D01*
X796Y606D02*
X801Y606D01*
X809Y606D02*
X814Y606D01*
X824Y606D02*
X829Y606D01*
X883Y606D02*
X889Y606D01*
X796Y605D02*
X801Y605D01*
X809Y605D02*
X814Y605D01*
X824Y605D02*
X829Y605D01*
X882Y605D02*
X888Y605D01*
X796Y604D02*
X802Y604D01*
X809Y604D02*
X814Y604D01*
X823Y604D02*
X829Y604D01*
X881Y604D02*
X888Y604D01*
X796Y603D02*
X802Y603D01*
X809Y603D02*
X814Y603D01*
X823Y603D02*
X829Y603D01*
X881Y603D02*
X887Y603D01*
X797Y602D02*
X803Y602D01*
X809Y602D02*
X814Y602D01*
X822Y602D02*
X828Y602D01*
X880Y602D02*
X886Y602D01*
X797Y601D02*
X804Y601D01*
X809Y601D02*
X814Y601D01*
X821Y601D02*
X828Y601D01*
X860Y601D02*
X889Y601D01*
X798Y600D02*
X827Y600D01*
X858Y600D02*
X890Y600D01*
X799Y599D02*
X826Y599D01*
X858Y599D02*
X891Y599D01*
X799Y598D02*
X825Y598D01*
X858Y598D02*
X891Y598D01*
X800Y597D02*
X824Y597D01*
X858Y597D02*
X891Y597D01*
X802Y596D02*
X823Y596D01*
X858Y596D02*
X890Y596D01*
X804Y595D02*
X821Y595D01*
X852Y581D02*
X890Y581D01*
X797Y580D02*
X822Y580D01*
X851Y580D02*
X890Y580D01*
X988Y580D02*
X991Y580D01*
X796Y579D02*
X825Y579D01*
X849Y579D02*
X891Y579D01*
X988Y579D02*
X992Y579D01*
X796Y578D02*
X826Y578D01*
X848Y578D02*
X891Y578D01*
X987Y578D02*
X992Y578D01*
X796Y577D02*
X827Y577D01*
X848Y577D02*
X890Y577D01*
X987Y577D02*
X993Y577D01*
X797Y576D02*
X828Y576D01*
X847Y576D02*
X889Y576D01*
X987Y576D02*
X993Y576D01*
X798Y575D02*
X828Y575D01*
X846Y575D02*
X853Y575D01*
X864Y575D02*
X871Y575D01*
X880Y575D02*
X887Y575D01*
X987Y575D02*
X993Y575D01*
X822Y574D02*
X829Y574D01*
X845Y574D02*
X852Y574D01*
X863Y574D02*
X870Y574D01*
X881Y574D02*
X888Y574D01*
X987Y574D02*
X993Y574D01*
X823Y573D02*
X829Y573D01*
X845Y573D02*
X851Y573D01*
X862Y573D02*
X869Y573D01*
X882Y573D02*
X889Y573D01*
X987Y573D02*
X993Y573D01*
X824Y572D02*
X829Y572D01*
X845Y572D02*
X850Y572D01*
X861Y572D02*
X868Y572D01*
X883Y572D02*
X889Y572D01*
X987Y572D02*
X993Y572D01*
X824Y571D02*
X829Y571D01*
X845Y571D02*
X850Y571D01*
X861Y571D02*
X867Y571D01*
X883Y571D02*
X890Y571D01*
X987Y571D02*
X1032Y571D01*
X824Y570D02*
X829Y570D01*
X845Y570D02*
X850Y570D01*
X861Y570D02*
X867Y570D01*
X884Y570D02*
X890Y570D01*
X987Y570D02*
X1033Y570D01*
X824Y569D02*
X829Y569D01*
X845Y569D02*
X850Y569D01*
X860Y569D02*
X866Y569D01*
X885Y569D02*
X891Y569D01*
X987Y569D02*
X1034Y569D01*
X824Y568D02*
X829Y568D01*
X845Y568D02*
X850Y568D01*
X860Y568D02*
X865Y568D01*
X886Y568D02*
X891Y568D01*
X987Y568D02*
X1034Y568D01*
X824Y567D02*
X829Y567D01*
X845Y567D02*
X850Y567D01*
X860Y567D02*
X865Y567D01*
X886Y567D02*
X891Y567D01*
X987Y567D02*
X1034Y567D01*
X823Y566D02*
X829Y566D01*
X845Y566D02*
X850Y566D01*
X860Y566D02*
X865Y566D01*
X886Y566D02*
X891Y566D01*
X987Y566D02*
X1034Y566D01*
X823Y565D02*
X829Y565D01*
X845Y565D02*
X850Y565D01*
X860Y565D02*
X865Y565D01*
X886Y565D02*
X891Y565D01*
X987Y565D02*
X993Y565D01*
X1028Y565D02*
X1034Y565D01*
X822Y564D02*
X828Y564D01*
X845Y564D02*
X850Y564D01*
X860Y564D02*
X865Y564D01*
X886Y564D02*
X891Y564D01*
X987Y564D02*
X993Y564D01*
X1028Y564D02*
X1034Y564D01*
X822Y563D02*
X828Y563D01*
X845Y563D02*
X850Y563D01*
X860Y563D02*
X865Y563D01*
X886Y563D02*
X891Y563D01*
X987Y563D02*
X993Y563D01*
X1028Y563D02*
X1034Y563D01*
X821Y562D02*
X827Y562D01*
X845Y562D02*
X850Y562D01*
X860Y562D02*
X865Y562D01*
X886Y562D02*
X891Y562D01*
X987Y562D02*
X993Y562D01*
X1028Y562D02*
X1034Y562D01*
X820Y561D02*
X827Y561D01*
X845Y561D02*
X850Y561D01*
X860Y561D02*
X866Y561D01*
X885Y561D02*
X891Y561D01*
X987Y561D02*
X993Y561D01*
X1028Y561D02*
X1034Y561D01*
X820Y560D02*
X826Y560D01*
X845Y560D02*
X850Y560D01*
X860Y560D02*
X866Y560D01*
X884Y560D02*
X890Y560D01*
X987Y560D02*
X992Y560D01*
X1029Y560D02*
X1034Y560D01*
X819Y559D02*
X825Y559D01*
X845Y559D02*
X850Y559D01*
X861Y559D02*
X867Y559D01*
X884Y559D02*
X890Y559D01*
X988Y559D02*
X992Y559D01*
X1029Y559D02*
X1033Y559D01*
X818Y558D02*
X825Y558D01*
X845Y558D02*
X850Y558D01*
X861Y558D02*
X868Y558D01*
X882Y558D02*
X890Y558D01*
X988Y558D02*
X992Y558D01*
X1029Y558D02*
X1033Y558D01*
X799Y557D02*
X826Y557D01*
X845Y557D02*
X850Y557D01*
X862Y557D02*
X889Y557D01*
X989Y557D02*
X991Y557D01*
X1030Y557D02*
X1032Y557D01*
X797Y556D02*
X828Y556D01*
X845Y556D02*
X849Y556D01*
X863Y556D02*
X888Y556D01*
X796Y555D02*
X829Y555D01*
X846Y555D02*
X848Y555D01*
X864Y555D02*
X887Y555D01*
X796Y554D02*
X829Y554D01*
X865Y554D02*
X886Y554D01*
X796Y553D02*
X829Y553D01*
X866Y553D02*
X885Y553D01*
X797Y552D02*
X828Y552D01*
X868Y552D02*
X883Y552D01*
X798Y551D02*
X827Y551D01*
X989Y540D02*
X1032Y540D01*
X988Y539D02*
X1033Y539D01*
X988Y538D02*
X1033Y538D01*
X987Y537D02*
X1034Y537D01*
X988Y536D02*
X1033Y536D01*
X988Y535D02*
X1033Y535D01*
X797Y534D02*
X799Y534D01*
X858Y534D02*
X862Y534D01*
X991Y534D02*
X999Y534D01*
X1009Y534D02*
X1017Y534D01*
X796Y533D02*
X800Y533D01*
X858Y533D02*
X862Y533D01*
X990Y533D02*
X998Y533D01*
X1010Y533D02*
X1018Y533D01*
X796Y532D02*
X801Y532D01*
X858Y532D02*
X863Y532D01*
X990Y532D02*
X997Y532D01*
X1011Y532D02*
X1018Y532D01*
X796Y531D02*
X801Y531D01*
X857Y531D02*
X863Y531D01*
X989Y531D02*
X996Y531D01*
X1012Y531D02*
X1019Y531D01*
X796Y530D02*
X801Y530D01*
X857Y530D02*
X863Y530D01*
X988Y530D02*
X995Y530D01*
X1013Y530D02*
X1020Y530D01*
X796Y529D02*
X801Y529D01*
X857Y529D02*
X863Y529D01*
X988Y529D02*
X994Y529D01*
X1014Y529D02*
X1020Y529D01*
X796Y528D02*
X801Y528D01*
X857Y528D02*
X863Y528D01*
X988Y528D02*
X993Y528D01*
X1015Y528D02*
X1020Y528D01*
X796Y527D02*
X801Y527D01*
X857Y527D02*
X863Y527D01*
X987Y527D02*
X993Y527D01*
X1015Y527D02*
X1021Y527D01*
X796Y526D02*
X801Y526D01*
X857Y526D02*
X863Y526D01*
X987Y526D02*
X993Y526D01*
X1016Y526D02*
X1021Y526D01*
X796Y525D02*
X827Y525D01*
X839Y525D02*
X843Y525D01*
X857Y525D02*
X890Y525D01*
X900Y525D02*
X905Y525D01*
X987Y525D02*
X993Y525D01*
X1016Y525D02*
X1021Y525D01*
X796Y524D02*
X829Y524D01*
X837Y524D02*
X844Y524D01*
X857Y524D02*
X891Y524D01*
X899Y524D02*
X906Y524D01*
X987Y524D02*
X993Y524D01*
X1016Y524D02*
X1021Y524D01*
X796Y523D02*
X829Y523D01*
X837Y523D02*
X844Y523D01*
X857Y523D02*
X891Y523D01*
X899Y523D02*
X906Y523D01*
X987Y523D02*
X993Y523D01*
X1016Y523D02*
X1021Y523D01*
X796Y522D02*
X829Y522D01*
X837Y522D02*
X845Y522D01*
X857Y522D02*
X891Y522D01*
X899Y522D02*
X906Y522D01*
X987Y522D02*
X993Y522D01*
X1016Y522D02*
X1021Y522D01*
X796Y521D02*
X829Y521D01*
X837Y521D02*
X845Y521D01*
X857Y521D02*
X891Y521D01*
X899Y521D02*
X906Y521D01*
X987Y521D02*
X993Y521D01*
X1016Y521D02*
X1021Y521D01*
X796Y520D02*
X829Y520D01*
X837Y520D02*
X845Y520D01*
X857Y520D02*
X891Y520D01*
X899Y520D02*
X906Y520D01*
X987Y520D02*
X993Y520D01*
X1015Y520D02*
X1021Y520D01*
X796Y519D02*
X801Y519D01*
X824Y519D02*
X829Y519D01*
X837Y519D02*
X844Y519D01*
X857Y519D02*
X863Y519D01*
X886Y519D02*
X891Y519D01*
X899Y519D02*
X906Y519D01*
X988Y519D02*
X994Y519D01*
X1015Y519D02*
X1020Y519D01*
X796Y518D02*
X801Y518D01*
X824Y518D02*
X829Y518D01*
X837Y518D02*
X844Y518D01*
X857Y518D02*
X863Y518D01*
X886Y518D02*
X891Y518D01*
X899Y518D02*
X906Y518D01*
X988Y518D02*
X994Y518D01*
X1014Y518D02*
X1020Y518D01*
X796Y517D02*
X801Y517D01*
X824Y517D02*
X829Y517D01*
X838Y517D02*
X843Y517D01*
X857Y517D02*
X863Y517D01*
X886Y517D02*
X891Y517D01*
X901Y517D02*
X904Y517D01*
X988Y517D02*
X995Y517D01*
X1013Y517D02*
X1020Y517D01*
X796Y516D02*
X801Y516D01*
X824Y516D02*
X829Y516D01*
X857Y516D02*
X863Y516D01*
X886Y516D02*
X891Y516D01*
X989Y516D02*
X1019Y516D01*
X796Y515D02*
X801Y515D01*
X824Y515D02*
X829Y515D01*
X857Y515D02*
X863Y515D01*
X886Y515D02*
X891Y515D01*
X990Y515D02*
X1018Y515D01*
X796Y514D02*
X801Y514D01*
X824Y514D02*
X829Y514D01*
X858Y514D02*
X863Y514D01*
X886Y514D02*
X891Y514D01*
X991Y514D02*
X1017Y514D01*
X796Y513D02*
X801Y513D01*
X824Y513D02*
X829Y513D01*
X858Y513D02*
X862Y513D01*
X886Y513D02*
X891Y513D01*
X992Y513D02*
X1016Y513D01*
X796Y512D02*
X801Y512D01*
X824Y512D02*
X829Y512D01*
X858Y512D02*
X862Y512D01*
X886Y512D02*
X890Y512D01*
X993Y512D02*
X1015Y512D01*
X797Y511D02*
X800Y511D01*
X825Y511D02*
X828Y511D01*
X860Y511D02*
X860Y511D01*
X888Y511D02*
X889Y511D01*
X994Y511D02*
X1014Y511D01*
X989Y496D02*
X1008Y496D01*
X988Y495D02*
X1016Y495D01*
X864Y494D02*
X868Y494D01*
X987Y494D02*
X1017Y494D01*
X790Y493D02*
X828Y493D01*
X862Y493D02*
X870Y493D01*
X884Y493D02*
X887Y493D01*
X987Y493D02*
X1018Y493D01*
X789Y492D02*
X829Y492D01*
X861Y492D02*
X872Y492D01*
X884Y492D02*
X888Y492D01*
X988Y492D02*
X1019Y492D01*
X787Y491D02*
X829Y491D01*
X860Y491D02*
X873Y491D01*
X883Y491D02*
X889Y491D01*
X989Y491D02*
X1020Y491D01*
X786Y490D02*
X829Y490D01*
X859Y490D02*
X874Y490D01*
X883Y490D02*
X890Y490D01*
X1006Y490D02*
X1020Y490D01*
X786Y489D02*
X829Y489D01*
X858Y489D02*
X874Y489D01*
X884Y489D02*
X890Y489D01*
X1015Y489D02*
X1020Y489D01*
X785Y488D02*
X827Y488D01*
X858Y488D02*
X865Y488D01*
X868Y488D02*
X875Y488D01*
X885Y488D02*
X891Y488D01*
X1015Y488D02*
X1021Y488D01*
X784Y487D02*
X791Y487D01*
X802Y487D02*
X809Y487D01*
X818Y487D02*
X826Y487D01*
X858Y487D02*
X863Y487D01*
X869Y487D02*
X875Y487D01*
X885Y487D02*
X891Y487D01*
X1016Y487D02*
X1021Y487D01*
X784Y486D02*
X790Y486D01*
X801Y486D02*
X808Y486D01*
X819Y486D02*
X826Y486D01*
X858Y486D02*
X863Y486D01*
X870Y486D02*
X876Y486D01*
X886Y486D02*
X891Y486D01*
X1016Y486D02*
X1021Y486D01*
X783Y485D02*
X789Y485D01*
X800Y485D02*
X807Y485D01*
X820Y485D02*
X827Y485D01*
X857Y485D02*
X863Y485D01*
X870Y485D02*
X876Y485D01*
X886Y485D02*
X891Y485D01*
X1016Y485D02*
X1021Y485D01*
X783Y484D02*
X789Y484D01*
X800Y484D02*
X806Y484D01*
X821Y484D02*
X828Y484D01*
X857Y484D02*
X863Y484D01*
X871Y484D02*
X876Y484D01*
X886Y484D02*
X891Y484D01*
X1016Y484D02*
X1021Y484D01*
X783Y483D02*
X788Y483D01*
X799Y483D02*
X806Y483D01*
X822Y483D02*
X828Y483D01*
X857Y483D02*
X863Y483D01*
X871Y483D02*
X877Y483D01*
X886Y483D02*
X891Y483D01*
X1016Y483D02*
X1021Y483D01*
X783Y482D02*
X788Y482D01*
X799Y482D02*
X805Y482D01*
X823Y482D02*
X829Y482D01*
X857Y482D02*
X863Y482D01*
X872Y482D02*
X877Y482D01*
X886Y482D02*
X891Y482D01*
X1015Y482D02*
X1021Y482D01*
X783Y481D02*
X788Y481D01*
X798Y481D02*
X804Y481D01*
X824Y481D02*
X829Y481D01*
X857Y481D02*
X863Y481D01*
X872Y481D02*
X878Y481D01*
X886Y481D02*
X891Y481D01*
X1015Y481D02*
X1020Y481D01*
X783Y480D02*
X788Y480D01*
X798Y480D02*
X804Y480D01*
X824Y480D02*
X829Y480D01*
X857Y480D02*
X863Y480D01*
X872Y480D02*
X878Y480D01*
X886Y480D02*
X891Y480D01*
X1014Y480D02*
X1020Y480D01*
X783Y479D02*
X788Y479D01*
X798Y479D02*
X803Y479D01*
X824Y479D02*
X829Y479D01*
X857Y479D02*
X863Y479D01*
X873Y479D02*
X879Y479D01*
X886Y479D02*
X891Y479D01*
X1013Y479D02*
X1020Y479D01*
X783Y478D02*
X788Y478D01*
X798Y478D02*
X803Y478D01*
X824Y478D02*
X829Y478D01*
X857Y478D02*
X863Y478D01*
X873Y478D02*
X879Y478D01*
X886Y478D02*
X891Y478D01*
X1013Y478D02*
X1019Y478D01*
X783Y477D02*
X788Y477D01*
X798Y477D02*
X803Y477D01*
X824Y477D02*
X829Y477D01*
X857Y477D02*
X863Y477D01*
X874Y477D02*
X879Y477D01*
X886Y477D02*
X891Y477D01*
X1012Y477D02*
X1018Y477D01*
X783Y476D02*
X788Y476D01*
X798Y476D02*
X803Y476D01*
X824Y476D02*
X829Y476D01*
X857Y476D02*
X863Y476D01*
X874Y476D02*
X880Y476D01*
X886Y476D02*
X891Y476D01*
X1011Y476D02*
X1018Y476D01*
X783Y475D02*
X788Y475D01*
X798Y475D02*
X803Y475D01*
X824Y475D02*
X829Y475D01*
X857Y475D02*
X863Y475D01*
X875Y475D02*
X880Y475D01*
X886Y475D02*
X891Y475D01*
X1011Y475D02*
X1017Y475D01*
X783Y474D02*
X788Y474D01*
X798Y474D02*
X804Y474D01*
X824Y474D02*
X829Y474D01*
X857Y474D02*
X863Y474D01*
X875Y474D02*
X881Y474D01*
X886Y474D02*
X891Y474D01*
X1010Y474D02*
X1017Y474D01*
X783Y473D02*
X788Y473D01*
X799Y473D02*
X804Y473D01*
X823Y473D02*
X829Y473D01*
X858Y473D02*
X863Y473D01*
X876Y473D02*
X881Y473D01*
X886Y473D02*
X891Y473D01*
X1010Y473D02*
X1016Y473D01*
X783Y472D02*
X788Y472D01*
X799Y472D02*
X805Y472D01*
X823Y472D02*
X829Y472D01*
X858Y472D02*
X863Y472D01*
X876Y472D02*
X882Y472D01*
X886Y472D02*
X891Y472D01*
X989Y472D02*
X1019Y472D01*
X783Y471D02*
X788Y471D01*
X799Y471D02*
X806Y471D01*
X822Y471D02*
X828Y471D01*
X858Y471D02*
X863Y471D01*
X876Y471D02*
X891Y471D01*
X988Y471D02*
X1020Y471D01*
X783Y470D02*
X788Y470D01*
X800Y470D02*
X807Y470D01*
X820Y470D02*
X828Y470D01*
X858Y470D02*
X864Y470D01*
X877Y470D02*
X890Y470D01*
X987Y470D02*
X1021Y470D01*
X783Y469D02*
X788Y469D01*
X801Y469D02*
X827Y469D01*
X858Y469D02*
X865Y469D01*
X877Y469D02*
X890Y469D01*
X987Y469D02*
X1021Y469D01*
X784Y468D02*
X787Y468D01*
X801Y468D02*
X826Y468D01*
X859Y468D02*
X865Y468D01*
X878Y468D02*
X889Y468D01*
X988Y468D02*
X1020Y468D01*
X785Y467D02*
X786Y467D01*
X802Y467D02*
X825Y467D01*
X860Y467D02*
X865Y467D01*
X879Y467D02*
X888Y467D01*
X989Y467D02*
X1019Y467D01*
X803Y466D02*
X824Y466D01*
X860Y466D02*
X865Y466D01*
X881Y466D02*
X887Y466D01*
X805Y465D02*
X823Y465D01*
X861Y465D02*
X864Y465D01*
X807Y464D02*
X821Y464D01*
X798Y450D02*
X804Y450D01*
X859Y450D02*
X862Y450D01*
X871Y450D02*
X884Y450D01*
X796Y449D02*
X823Y449D01*
X858Y449D02*
X862Y449D01*
X871Y449D02*
X885Y449D01*
X988Y449D02*
X992Y449D01*
X796Y448D02*
X825Y448D01*
X858Y448D02*
X863Y448D01*
X870Y448D02*
X886Y448D01*
X988Y448D02*
X992Y448D01*
X796Y447D02*
X826Y447D01*
X857Y447D02*
X863Y447D01*
X870Y447D02*
X887Y447D01*
X987Y447D02*
X992Y447D01*
X796Y446D02*
X827Y446D01*
X857Y446D02*
X863Y446D01*
X870Y446D02*
X888Y446D01*
X987Y446D02*
X993Y446D01*
X797Y445D02*
X828Y445D01*
X857Y445D02*
X863Y445D01*
X870Y445D02*
X889Y445D01*
X987Y445D02*
X993Y445D01*
X802Y444D02*
X828Y444D01*
X857Y444D02*
X863Y444D01*
X870Y444D02*
X875Y444D01*
X883Y444D02*
X890Y444D01*
X987Y444D02*
X993Y444D01*
X822Y443D02*
X829Y443D01*
X857Y443D02*
X863Y443D01*
X870Y443D02*
X875Y443D01*
X884Y443D02*
X890Y443D01*
X987Y443D02*
X993Y443D01*
X823Y442D02*
X829Y442D01*
X857Y442D02*
X863Y442D01*
X870Y442D02*
X875Y442D01*
X885Y442D02*
X891Y442D01*
X987Y442D02*
X993Y442D01*
X824Y441D02*
X829Y441D01*
X857Y441D02*
X863Y441D01*
X870Y441D02*
X875Y441D01*
X885Y441D02*
X891Y441D01*
X987Y441D02*
X1017Y441D01*
X1032Y441D02*
X1033Y441D01*
X824Y440D02*
X829Y440D01*
X857Y440D02*
X863Y440D01*
X870Y440D02*
X875Y440D01*
X886Y440D02*
X891Y440D01*
X987Y440D02*
X1020Y440D01*
X1029Y440D02*
X1035Y440D01*
X824Y439D02*
X829Y439D01*
X857Y439D02*
X863Y439D01*
X870Y439D02*
X875Y439D01*
X886Y439D02*
X891Y439D01*
X987Y439D02*
X1021Y439D01*
X1029Y439D02*
X1036Y439D01*
X824Y438D02*
X829Y438D01*
X857Y438D02*
X863Y438D01*
X870Y438D02*
X875Y438D01*
X886Y438D02*
X891Y438D01*
X987Y438D02*
X1021Y438D01*
X1029Y438D02*
X1036Y438D01*
X824Y437D02*
X829Y437D01*
X857Y437D02*
X863Y437D01*
X870Y437D02*
X875Y437D01*
X886Y437D02*
X891Y437D01*
X987Y437D02*
X1021Y437D01*
X1028Y437D02*
X1036Y437D01*
X824Y436D02*
X829Y436D01*
X857Y436D02*
X863Y436D01*
X870Y436D02*
X875Y436D01*
X886Y436D02*
X891Y436D01*
X987Y436D02*
X1021Y436D01*
X1028Y436D02*
X1036Y436D01*
X823Y435D02*
X829Y435D01*
X857Y435D02*
X863Y435D01*
X870Y435D02*
X875Y435D01*
X886Y435D02*
X891Y435D01*
X987Y435D02*
X1021Y435D01*
X1029Y435D02*
X1036Y435D01*
X823Y434D02*
X829Y434D01*
X857Y434D02*
X863Y434D01*
X870Y434D02*
X875Y434D01*
X886Y434D02*
X891Y434D01*
X987Y434D02*
X993Y434D01*
X1016Y434D02*
X1021Y434D01*
X1029Y434D02*
X1036Y434D01*
X822Y433D02*
X828Y433D01*
X857Y433D02*
X863Y433D01*
X870Y433D02*
X875Y433D01*
X886Y433D02*
X891Y433D01*
X987Y433D02*
X993Y433D01*
X1016Y433D02*
X1021Y433D01*
X1029Y433D02*
X1035Y433D01*
X821Y432D02*
X828Y432D01*
X857Y432D02*
X863Y432D01*
X870Y432D02*
X875Y432D01*
X886Y432D02*
X891Y432D01*
X987Y432D02*
X993Y432D01*
X1016Y432D02*
X1021Y432D01*
X1031Y432D02*
X1034Y432D01*
X821Y431D02*
X827Y431D01*
X858Y431D02*
X863Y431D01*
X870Y431D02*
X875Y431D01*
X886Y431D02*
X891Y431D01*
X987Y431D02*
X993Y431D01*
X1016Y431D02*
X1021Y431D01*
X820Y430D02*
X826Y430D01*
X858Y430D02*
X863Y430D01*
X870Y430D02*
X875Y430D01*
X885Y430D02*
X891Y430D01*
X987Y430D02*
X993Y430D01*
X1016Y430D02*
X1021Y430D01*
X819Y429D02*
X826Y429D01*
X858Y429D02*
X864Y429D01*
X870Y429D02*
X875Y429D01*
X884Y429D02*
X890Y429D01*
X987Y429D02*
X992Y429D01*
X1016Y429D02*
X1021Y429D01*
X819Y428D02*
X825Y428D01*
X858Y428D02*
X865Y428D01*
X870Y428D02*
X875Y428D01*
X883Y428D02*
X890Y428D01*
X988Y428D02*
X992Y428D01*
X1016Y428D02*
X1021Y428D01*
X818Y427D02*
X825Y427D01*
X859Y427D02*
X867Y427D01*
X870Y427D02*
X876Y427D01*
X882Y427D02*
X889Y427D01*
X988Y427D02*
X992Y427D01*
X1016Y427D02*
X1020Y427D01*
X798Y426D02*
X827Y426D01*
X860Y426D02*
X889Y426D01*
X990Y426D02*
X990Y426D01*
X1018Y426D02*
X1018Y426D01*
X796Y425D02*
X828Y425D01*
X860Y425D02*
X888Y425D01*
X796Y424D02*
X829Y424D01*
X861Y424D02*
X887Y424D01*
X796Y423D02*
X829Y423D01*
X862Y423D02*
X886Y423D01*
X796Y422D02*
X829Y422D01*
X864Y422D02*
X884Y422D01*
X797Y421D02*
X828Y421D01*
X866Y421D02*
X882Y421D01*
X879Y407D02*
X882Y407D01*
X1029Y407D02*
X1033Y407D01*
X797Y406D02*
X800Y406D01*
X838Y406D02*
X841Y406D01*
X876Y406D02*
X886Y406D01*
X1029Y406D02*
X1033Y406D01*
X796Y405D02*
X800Y405D01*
X837Y405D02*
X842Y405D01*
X873Y405D02*
X888Y405D01*
X1029Y405D02*
X1034Y405D01*
X796Y404D02*
X801Y404D01*
X837Y404D02*
X842Y404D01*
X871Y404D02*
X890Y404D01*
X1028Y404D02*
X1034Y404D01*
X796Y403D02*
X801Y403D01*
X837Y403D02*
X842Y403D01*
X869Y403D02*
X892Y403D01*
X1028Y403D02*
X1034Y403D01*
X796Y402D02*
X801Y402D01*
X837Y402D02*
X842Y402D01*
X867Y402D02*
X894Y402D01*
X1028Y402D02*
X1034Y402D01*
X796Y401D02*
X801Y401D01*
X837Y401D02*
X842Y401D01*
X865Y401D02*
X879Y401D01*
X882Y401D02*
X896Y401D01*
X1017Y401D02*
X1020Y401D01*
X1028Y401D02*
X1034Y401D01*
X796Y400D02*
X801Y400D01*
X837Y400D02*
X842Y400D01*
X863Y400D02*
X876Y400D01*
X885Y400D02*
X898Y400D01*
X1016Y400D02*
X1020Y400D01*
X1028Y400D02*
X1034Y400D01*
X796Y399D02*
X801Y399D01*
X837Y399D02*
X842Y399D01*
X862Y399D02*
X874Y399D01*
X887Y399D02*
X899Y399D01*
X1016Y399D02*
X1021Y399D01*
X1028Y399D02*
X1034Y399D01*
X796Y398D02*
X801Y398D01*
X837Y398D02*
X842Y398D01*
X860Y398D02*
X872Y398D01*
X889Y398D02*
X901Y398D01*
X1016Y398D02*
X1021Y398D01*
X1028Y398D02*
X1034Y398D01*
X796Y397D02*
X801Y397D01*
X837Y397D02*
X842Y397D01*
X859Y397D02*
X870Y397D01*
X891Y397D02*
X902Y397D01*
X1016Y397D02*
X1021Y397D01*
X1028Y397D02*
X1034Y397D01*
X796Y396D02*
X801Y396D01*
X837Y396D02*
X842Y396D01*
X859Y396D02*
X868Y396D01*
X893Y396D02*
X902Y396D01*
X1016Y396D02*
X1021Y396D01*
X1028Y396D02*
X1033Y396D01*
X796Y395D02*
X801Y395D01*
X837Y395D02*
X842Y395D01*
X858Y395D02*
X866Y395D01*
X895Y395D02*
X903Y395D01*
X1016Y395D02*
X1021Y395D01*
X1028Y395D02*
X1033Y395D01*
X796Y394D02*
X801Y394D01*
X818Y394D02*
X820Y394D01*
X837Y394D02*
X842Y394D01*
X858Y394D02*
X864Y394D01*
X897Y394D02*
X903Y394D01*
X1016Y394D02*
X1021Y394D01*
X1027Y394D02*
X1033Y394D01*
X796Y393D02*
X801Y393D01*
X817Y393D02*
X821Y393D01*
X837Y393D02*
X842Y393D01*
X858Y393D02*
X863Y393D01*
X898Y393D02*
X903Y393D01*
X1015Y393D02*
X1021Y393D01*
X1025Y393D02*
X1033Y393D01*
X796Y392D02*
X801Y392D01*
X816Y392D02*
X821Y392D01*
X837Y392D02*
X842Y392D01*
X858Y392D02*
X863Y392D01*
X899Y392D02*
X904Y392D01*
X988Y392D02*
X1032Y392D01*
X796Y391D02*
X801Y391D01*
X816Y391D02*
X821Y391D01*
X837Y391D02*
X842Y391D01*
X857Y391D02*
X863Y391D01*
X899Y391D02*
X904Y391D01*
X988Y391D02*
X1031Y391D01*
X796Y390D02*
X801Y390D01*
X816Y390D02*
X821Y390D01*
X837Y390D02*
X842Y390D01*
X857Y390D02*
X863Y390D01*
X899Y390D02*
X904Y390D01*
X987Y390D02*
X1031Y390D01*
X796Y389D02*
X801Y389D01*
X816Y389D02*
X821Y389D01*
X837Y389D02*
X842Y389D01*
X857Y389D02*
X904Y389D01*
X988Y389D02*
X1029Y389D01*
X796Y388D02*
X801Y388D01*
X816Y388D02*
X821Y388D01*
X837Y388D02*
X842Y388D01*
X857Y388D02*
X904Y388D01*
X988Y388D02*
X1028Y388D01*
X796Y387D02*
X801Y387D01*
X816Y387D02*
X821Y387D01*
X837Y387D02*
X842Y387D01*
X857Y387D02*
X904Y387D01*
X989Y387D02*
X1025Y387D01*
X796Y386D02*
X801Y386D01*
X816Y386D02*
X821Y386D01*
X837Y386D02*
X842Y386D01*
X857Y386D02*
X904Y386D01*
X1016Y386D02*
X1021Y386D01*
X796Y385D02*
X801Y385D01*
X816Y385D02*
X821Y385D01*
X837Y385D02*
X842Y385D01*
X857Y385D02*
X904Y385D01*
X1016Y385D02*
X1021Y385D01*
X796Y384D02*
X801Y384D01*
X816Y384D02*
X821Y384D01*
X837Y384D02*
X842Y384D01*
X857Y384D02*
X904Y384D01*
X1016Y384D02*
X1021Y384D01*
X796Y383D02*
X801Y383D01*
X816Y383D02*
X822Y383D01*
X837Y383D02*
X842Y383D01*
X857Y383D02*
X863Y383D01*
X898Y383D02*
X904Y383D01*
X1016Y383D02*
X1021Y383D01*
X796Y382D02*
X842Y382D01*
X857Y382D02*
X863Y382D01*
X899Y382D02*
X904Y382D01*
X1016Y382D02*
X1020Y382D01*
X796Y381D02*
X842Y381D01*
X857Y381D02*
X863Y381D01*
X899Y381D02*
X904Y381D01*
X1018Y381D02*
X1019Y381D01*
X796Y380D02*
X842Y380D01*
X858Y380D02*
X863Y380D01*
X899Y380D02*
X904Y380D01*
X796Y379D02*
X842Y379D01*
X858Y379D02*
X862Y379D01*
X899Y379D02*
X903Y379D01*
X796Y378D02*
X842Y378D01*
X858Y378D02*
X862Y378D01*
X900Y378D02*
X903Y378D01*
X796Y377D02*
X842Y377D01*
D02*
G04 End of Silk0*
M02*