; NON-PLATED HOLES START AT T1
; THROUGH (PLATED) HOLES START AT T100
M48
INCH
T1C0.086614
T100C0.027559
T101C0.042000
T102C0.040000
T103C0.035000
%
T1
X000894Y018818
X018764Y000826
X000807Y000826
X018851Y018818
T100
X014949Y016836
X014949Y017836
T101
X002819Y016014
X003819Y016014
X001819Y003806
X001819Y006923
X002819Y003806
X003819Y003806
X002819Y006923
X003819Y006923
X001819Y016014
T102
X017749Y012913
X002144Y013358
X017781Y003897
X002144Y010358
X017749Y014913
X017749Y007913
X002144Y008358
X017749Y011913
X017781Y005897
X002144Y012358
X017706Y017744
X017781Y002897
X017749Y009913
X017749Y013913
X017749Y010913
X017781Y004897
X002144Y011358
X017706Y016744
X017749Y008913
X002144Y009358
T103
X005899Y009920
X015780Y013863
X011899Y012920
X005899Y010920
X000794Y005125
X004794Y005125
X011899Y004920
X011899Y017920
X005899Y015920
X011899Y009920
X013985Y009863
X005899Y007920
X011899Y010920
X000794Y002058
X004794Y002058
X011899Y015920
X005899Y013920
X011899Y007920
X005899Y005920
X011899Y013920
X013985Y013863
X005899Y011920
X011899Y005920
X005899Y003920
X005899Y016920
X005899Y008920
X011899Y011920
X011899Y003920
X015780Y009863
X011899Y016920
X005899Y014920
X011899Y008920
X005899Y006920
X000794Y017472
X004794Y017472
X011899Y014920
X005899Y012920
X011899Y006920
X005899Y004920
X005899Y017920
T00
M30
