G04 MADE WITH FRITZING*
G04 WWW.FRITZING.ORG*
G04 DOUBLE SIDED*
G04 HOLES PLATED*
G04 CONTOUR ON CENTER OF CONTOUR VECTOR*
%ASAXBY*%
%FSLAX23Y23*%
%MOIN*%
%OFA0B0*%
%SFA1.0B1.0*%
%ADD10C,0.075000*%
%ADD11C,0.080000*%
%ADD12C,0.082000*%
%ADD13C,0.065000*%
%ADD14R,0.075000X0.075000*%
%ADD15R,0.080000X0.080000*%
%ADD16R,0.082000X0.082000*%
%ADD17C,0.024000*%
%ADD18C,0.048000*%
%ADD19R,0.001000X0.001000*%
%LNCOPPER0*%
G90*
G70*
G54D10*
X494Y1640D03*
X470Y1252D03*
X498Y822D03*
X1505Y923D03*
X1291Y949D03*
X1661Y847D03*
X1605Y404D03*
X1229Y1879D03*
X590Y1792D03*
X1190Y1792D03*
X590Y1692D03*
X1190Y1692D03*
X590Y1592D03*
X1190Y1592D03*
X590Y1492D03*
X1190Y1492D03*
X590Y1392D03*
X1190Y1392D03*
X590Y1292D03*
X1190Y1292D03*
X590Y1192D03*
X1190Y1192D03*
X590Y1092D03*
X1190Y1092D03*
X590Y992D03*
X1190Y992D03*
X590Y892D03*
X1190Y892D03*
X590Y792D03*
X1190Y792D03*
X590Y692D03*
X1190Y692D03*
X590Y592D03*
X1190Y592D03*
X590Y492D03*
X1190Y492D03*
X590Y392D03*
X1190Y392D03*
G54D11*
X214Y1336D03*
X214Y1236D03*
X214Y1136D03*
X214Y1036D03*
X214Y936D03*
X214Y836D03*
X1775Y791D03*
X1775Y891D03*
X1775Y991D03*
X1775Y1091D03*
X1775Y1191D03*
X1775Y1291D03*
X1775Y1391D03*
X1775Y1491D03*
X1778Y290D03*
X1778Y390D03*
X1778Y490D03*
X1778Y590D03*
X1771Y1674D03*
X1771Y1774D03*
G54D10*
X479Y1747D03*
X79Y1747D03*
X479Y513D03*
X79Y513D03*
X479Y206D03*
X79Y206D03*
X1578Y1386D03*
X1578Y986D03*
X1399Y1386D03*
X1399Y986D03*
G54D12*
X382Y1601D03*
X282Y1601D03*
X182Y1601D03*
X382Y692D03*
X282Y692D03*
X182Y692D03*
X382Y381D03*
X282Y381D03*
X182Y381D03*
G54D13*
X1495Y1784D03*
X1495Y1684D03*
G54D14*
X590Y1792D03*
G54D15*
X214Y1336D03*
X1775Y791D03*
X1778Y290D03*
X1771Y1674D03*
G54D16*
X382Y1601D03*
X382Y692D03*
X382Y381D03*
G54D17*
X1662Y709D02*
X1852Y687D01*
D02*
X1852Y687D02*
X1902Y644D01*
D02*
X1605Y745D02*
X1662Y709D01*
D02*
X1894Y454D02*
X1805Y405D01*
D02*
X1902Y644D02*
X1894Y454D01*
D02*
X1588Y860D02*
X1605Y745D01*
D02*
X1580Y958D02*
X1588Y860D01*
G54D18*
D02*
X80Y648D02*
X80Y552D01*
D02*
X142Y675D02*
X80Y648D01*
G54D17*
D02*
X97Y364D02*
X83Y234D01*
D02*
X150Y375D02*
X97Y364D01*
G54D18*
D02*
X118Y448D02*
X100Y478D01*
D02*
X152Y412D02*
X118Y448D01*
D02*
X389Y1312D02*
X335Y1237D01*
D02*
X305Y1492D02*
X376Y1433D01*
D02*
X376Y1433D02*
X389Y1312D01*
D02*
X335Y1237D02*
X257Y1236D01*
D02*
X291Y1559D02*
X305Y1492D01*
D02*
X381Y870D02*
X303Y730D01*
D02*
X393Y966D02*
X381Y870D01*
D02*
X326Y1028D02*
X393Y966D01*
D02*
X257Y1033D02*
X326Y1028D01*
G54D17*
D02*
X398Y353D02*
X466Y231D01*
D02*
X697Y931D02*
X708Y374D01*
D02*
X708Y374D02*
X634Y250D01*
D02*
X634Y250D02*
X472Y206D01*
D02*
X472Y206D02*
X397Y352D01*
D02*
X615Y978D02*
X697Y931D01*
D02*
X397Y664D02*
X466Y538D01*
D02*
X493Y1049D02*
X564Y1080D01*
D02*
X392Y723D02*
X493Y1049D01*
D02*
X400Y1628D02*
X464Y1723D01*
D02*
X401Y1504D02*
X485Y1337D01*
D02*
X485Y1337D02*
X564Y1303D01*
D02*
X388Y1570D02*
X401Y1504D01*
D02*
X1549Y1386D02*
X1427Y1386D01*
D02*
X1373Y1399D02*
X1216Y1479D01*
D02*
X1588Y593D02*
X1747Y590D01*
D02*
X1503Y643D02*
X1588Y593D01*
D02*
X1421Y828D02*
X1503Y643D01*
D02*
X1403Y958D02*
X1421Y828D01*
G54D18*
D02*
X1800Y1863D02*
X1858Y1801D01*
D02*
X1858Y1713D02*
X1809Y1691D01*
D02*
X201Y1755D02*
X255Y1880D01*
D02*
X255Y1880D02*
X1729Y1892D01*
D02*
X1729Y1892D02*
X1800Y1863D01*
D02*
X1858Y1801D02*
X1858Y1713D01*
D02*
X187Y1644D02*
X201Y1755D01*
D02*
X201Y1755D02*
X119Y1750D01*
D02*
X80Y749D02*
X144Y713D01*
D02*
X72Y1608D02*
X80Y749D01*
D02*
X201Y1759D02*
X72Y1608D01*
D02*
X1520Y1683D02*
X1740Y1676D01*
G54D17*
D02*
X1375Y764D02*
X1214Y876D01*
D02*
X1610Y486D02*
X1464Y536D01*
D02*
X1747Y489D02*
X1610Y486D01*
D02*
X1464Y536D02*
X1375Y764D01*
D02*
X1303Y711D02*
X1396Y494D01*
D02*
X1556Y330D02*
X1748Y295D01*
D02*
X1396Y494D02*
X1556Y330D01*
D02*
X1213Y775D02*
X1303Y711D01*
D02*
X1744Y1391D02*
X1607Y1387D01*
D02*
X1681Y1310D02*
X1744Y1297D01*
D02*
X1275Y1352D02*
X1333Y1313D01*
D02*
X1333Y1313D02*
X1681Y1310D01*
D02*
X1216Y1380D02*
X1275Y1352D01*
D02*
X1217Y1283D02*
X1275Y1263D01*
D02*
X1617Y1255D02*
X1694Y1241D01*
D02*
X1275Y1263D02*
X1617Y1255D01*
D02*
X1694Y1241D02*
X1748Y1208D01*
D02*
X1286Y1192D02*
X1681Y1177D01*
D02*
X1681Y1177D02*
X1752Y1112D01*
D02*
X1219Y1192D02*
X1286Y1192D01*
D02*
X1684Y1076D02*
X1752Y1013D01*
D02*
X1217Y1102D02*
X1285Y1129D01*
D02*
X1285Y1129D02*
X1627Y1120D01*
D02*
X1627Y1120D02*
X1684Y1076D01*
D02*
X1684Y934D02*
X1747Y905D01*
D02*
X1280Y1030D02*
X1343Y1050D01*
D02*
X1636Y1028D02*
X1684Y934D01*
D02*
X1343Y1050D02*
X1575Y1056D01*
D02*
X1575Y1056D02*
X1636Y1028D01*
D02*
X1216Y1003D02*
X1280Y1030D01*
G36*
X526Y1745D02*
X526Y1737D01*
X524Y1737D01*
X524Y1731D01*
X522Y1731D01*
X522Y1727D01*
X520Y1727D01*
X520Y1723D01*
X518Y1723D01*
X518Y1721D01*
X516Y1721D01*
X516Y1719D01*
X514Y1719D01*
X514Y1717D01*
X512Y1717D01*
X512Y1715D01*
X510Y1715D01*
X510Y1713D01*
X508Y1713D01*
X508Y1711D01*
X506Y1711D01*
X506Y1709D01*
X502Y1709D01*
X502Y1707D01*
X500Y1707D01*
X500Y1705D01*
X496Y1705D01*
X496Y1703D01*
X490Y1703D01*
X490Y1701D01*
X474Y1701D01*
X474Y1699D01*
X472Y1699D01*
X472Y1695D01*
X470Y1695D01*
X470Y1693D01*
X468Y1693D01*
X468Y1689D01*
X466Y1689D01*
X466Y1687D01*
X464Y1687D01*
X464Y1683D01*
X462Y1683D01*
X462Y1681D01*
X460Y1681D01*
X460Y1677D01*
X458Y1677D01*
X458Y1675D01*
X456Y1675D01*
X456Y1671D01*
X454Y1671D01*
X454Y1669D01*
X452Y1669D01*
X452Y1665D01*
X450Y1665D01*
X450Y1663D01*
X448Y1663D01*
X448Y1659D01*
X446Y1659D01*
X446Y1657D01*
X444Y1657D01*
X444Y1653D01*
X442Y1653D01*
X442Y1651D01*
X440Y1651D01*
X440Y1647D01*
X438Y1647D01*
X438Y1645D01*
X436Y1645D01*
X436Y1641D01*
X434Y1641D01*
X434Y1639D01*
X432Y1639D01*
X432Y1551D01*
X418Y1551D01*
X418Y1529D01*
X420Y1529D01*
X420Y1519D01*
X422Y1519D01*
X422Y1511D01*
X424Y1511D01*
X424Y1507D01*
X426Y1507D01*
X426Y1503D01*
X428Y1503D01*
X428Y1499D01*
X430Y1499D01*
X430Y1495D01*
X432Y1495D01*
X432Y1491D01*
X434Y1491D01*
X434Y1487D01*
X436Y1487D01*
X436Y1483D01*
X438Y1483D01*
X438Y1479D01*
X440Y1479D01*
X440Y1475D01*
X442Y1475D01*
X442Y1471D01*
X444Y1471D01*
X444Y1467D01*
X446Y1467D01*
X446Y1463D01*
X448Y1463D01*
X448Y1459D01*
X450Y1459D01*
X450Y1455D01*
X452Y1455D01*
X452Y1451D01*
X454Y1451D01*
X454Y1447D01*
X456Y1447D01*
X456Y1443D01*
X458Y1443D01*
X458Y1439D01*
X460Y1439D01*
X460Y1435D01*
X462Y1435D01*
X462Y1431D01*
X464Y1431D01*
X464Y1427D01*
X466Y1427D01*
X466Y1423D01*
X468Y1423D01*
X468Y1419D01*
X470Y1419D01*
X470Y1415D01*
X472Y1415D01*
X472Y1411D01*
X474Y1411D01*
X474Y1407D01*
X476Y1407D01*
X476Y1403D01*
X478Y1403D01*
X478Y1399D01*
X480Y1399D01*
X480Y1395D01*
X482Y1395D01*
X482Y1391D01*
X484Y1391D01*
X484Y1387D01*
X486Y1387D01*
X486Y1383D01*
X488Y1383D01*
X488Y1379D01*
X490Y1379D01*
X490Y1375D01*
X492Y1375D01*
X492Y1371D01*
X494Y1371D01*
X494Y1367D01*
X496Y1367D01*
X496Y1363D01*
X498Y1363D01*
X498Y1359D01*
X500Y1359D01*
X500Y1355D01*
X502Y1355D01*
X502Y1353D01*
X508Y1353D01*
X508Y1351D01*
X512Y1351D01*
X512Y1349D01*
X516Y1349D01*
X516Y1347D01*
X522Y1347D01*
X522Y1345D01*
X526Y1345D01*
X526Y1343D01*
X530Y1343D01*
X530Y1341D01*
X536Y1341D01*
X536Y1339D01*
X540Y1339D01*
X540Y1337D01*
X544Y1337D01*
X544Y1335D01*
X568Y1335D01*
X568Y1353D01*
X564Y1353D01*
X564Y1355D01*
X562Y1355D01*
X562Y1357D01*
X560Y1357D01*
X560Y1359D01*
X558Y1359D01*
X558Y1361D01*
X556Y1361D01*
X556Y1363D01*
X554Y1363D01*
X554Y1365D01*
X552Y1365D01*
X552Y1367D01*
X550Y1367D01*
X550Y1371D01*
X548Y1371D01*
X548Y1375D01*
X546Y1375D01*
X546Y1379D01*
X544Y1379D01*
X544Y1387D01*
X542Y1387D01*
X542Y1399D01*
X544Y1399D01*
X544Y1405D01*
X546Y1405D01*
X546Y1411D01*
X548Y1411D01*
X548Y1413D01*
X550Y1413D01*
X550Y1417D01*
X552Y1417D01*
X552Y1419D01*
X554Y1419D01*
X554Y1423D01*
X556Y1423D01*
X556Y1425D01*
X558Y1425D01*
X558Y1427D01*
X560Y1427D01*
X560Y1429D01*
X564Y1429D01*
X564Y1431D01*
X566Y1431D01*
X566Y1433D01*
X568Y1433D01*
X568Y1453D01*
X564Y1453D01*
X564Y1455D01*
X562Y1455D01*
X562Y1457D01*
X560Y1457D01*
X560Y1459D01*
X558Y1459D01*
X558Y1461D01*
X556Y1461D01*
X556Y1463D01*
X554Y1463D01*
X554Y1465D01*
X552Y1465D01*
X552Y1467D01*
X550Y1467D01*
X550Y1471D01*
X548Y1471D01*
X548Y1475D01*
X546Y1475D01*
X546Y1479D01*
X544Y1479D01*
X544Y1487D01*
X542Y1487D01*
X542Y1499D01*
X544Y1499D01*
X544Y1505D01*
X546Y1505D01*
X546Y1511D01*
X548Y1511D01*
X548Y1513D01*
X550Y1513D01*
X550Y1517D01*
X552Y1517D01*
X552Y1519D01*
X554Y1519D01*
X554Y1523D01*
X556Y1523D01*
X556Y1525D01*
X558Y1525D01*
X558Y1527D01*
X560Y1527D01*
X560Y1529D01*
X564Y1529D01*
X564Y1531D01*
X566Y1531D01*
X566Y1533D01*
X568Y1533D01*
X568Y1553D01*
X564Y1553D01*
X564Y1555D01*
X562Y1555D01*
X562Y1557D01*
X560Y1557D01*
X560Y1559D01*
X558Y1559D01*
X558Y1561D01*
X556Y1561D01*
X556Y1563D01*
X554Y1563D01*
X554Y1565D01*
X552Y1565D01*
X552Y1567D01*
X550Y1567D01*
X550Y1571D01*
X548Y1571D01*
X548Y1575D01*
X546Y1575D01*
X546Y1579D01*
X544Y1579D01*
X544Y1587D01*
X542Y1587D01*
X542Y1599D01*
X544Y1599D01*
X544Y1605D01*
X546Y1605D01*
X546Y1611D01*
X548Y1611D01*
X548Y1613D01*
X550Y1613D01*
X550Y1617D01*
X552Y1617D01*
X552Y1619D01*
X554Y1619D01*
X554Y1623D01*
X556Y1623D01*
X556Y1625D01*
X558Y1625D01*
X558Y1627D01*
X560Y1627D01*
X560Y1629D01*
X564Y1629D01*
X564Y1631D01*
X566Y1631D01*
X566Y1633D01*
X568Y1633D01*
X568Y1653D01*
X564Y1653D01*
X564Y1655D01*
X562Y1655D01*
X562Y1657D01*
X560Y1657D01*
X560Y1659D01*
X558Y1659D01*
X558Y1661D01*
X556Y1661D01*
X556Y1663D01*
X554Y1663D01*
X554Y1665D01*
X552Y1665D01*
X552Y1667D01*
X550Y1667D01*
X550Y1671D01*
X548Y1671D01*
X548Y1675D01*
X546Y1675D01*
X546Y1679D01*
X544Y1679D01*
X544Y1687D01*
X542Y1687D01*
X542Y1699D01*
X544Y1699D01*
X544Y1705D01*
X546Y1705D01*
X546Y1711D01*
X548Y1711D01*
X548Y1713D01*
X550Y1713D01*
X550Y1717D01*
X552Y1717D01*
X552Y1719D01*
X554Y1719D01*
X554Y1723D01*
X556Y1723D01*
X556Y1725D01*
X558Y1725D01*
X558Y1745D01*
X526Y1745D01*
G37*
D02*
G36*
X332Y1551D02*
X332Y1525D01*
X334Y1525D01*
X334Y1517D01*
X336Y1517D01*
X336Y1511D01*
X338Y1511D01*
X338Y1509D01*
X340Y1509D01*
X340Y1507D01*
X342Y1507D01*
X342Y1505D01*
X344Y1505D01*
X344Y1503D01*
X346Y1503D01*
X346Y1501D01*
X350Y1501D01*
X350Y1499D01*
X352Y1499D01*
X352Y1497D01*
X354Y1497D01*
X354Y1495D01*
X356Y1495D01*
X356Y1493D01*
X360Y1493D01*
X360Y1491D01*
X362Y1491D01*
X362Y1489D01*
X364Y1489D01*
X364Y1487D01*
X384Y1487D01*
X384Y1493D01*
X382Y1493D01*
X382Y1497D01*
X380Y1497D01*
X380Y1505D01*
X378Y1505D01*
X378Y1515D01*
X376Y1515D01*
X376Y1525D01*
X374Y1525D01*
X374Y1535D01*
X372Y1535D01*
X372Y1545D01*
X370Y1545D01*
X370Y1551D01*
X332Y1551D01*
G37*
D02*
G36*
X416Y1389D02*
X416Y1371D01*
X418Y1371D01*
X418Y1353D01*
X420Y1353D01*
X420Y1333D01*
X422Y1333D01*
X422Y1301D01*
X420Y1301D01*
X420Y1297D01*
X418Y1297D01*
X418Y1293D01*
X416Y1293D01*
X416Y1291D01*
X414Y1291D01*
X414Y1287D01*
X412Y1287D01*
X412Y1285D01*
X410Y1285D01*
X410Y1283D01*
X408Y1283D01*
X408Y1279D01*
X406Y1279D01*
X406Y1277D01*
X404Y1277D01*
X404Y1275D01*
X402Y1275D01*
X402Y1271D01*
X400Y1271D01*
X400Y1269D01*
X398Y1269D01*
X398Y1265D01*
X396Y1265D01*
X396Y1263D01*
X394Y1263D01*
X394Y1261D01*
X392Y1261D01*
X392Y1257D01*
X390Y1257D01*
X390Y1255D01*
X388Y1255D01*
X388Y1251D01*
X386Y1251D01*
X386Y1249D01*
X384Y1249D01*
X384Y1247D01*
X382Y1247D01*
X382Y1243D01*
X380Y1243D01*
X380Y1241D01*
X378Y1241D01*
X378Y1239D01*
X376Y1239D01*
X376Y1235D01*
X374Y1235D01*
X374Y1233D01*
X372Y1233D01*
X372Y1229D01*
X370Y1229D01*
X370Y1227D01*
X368Y1227D01*
X368Y1225D01*
X366Y1225D01*
X366Y1221D01*
X364Y1221D01*
X364Y1219D01*
X362Y1219D01*
X362Y1217D01*
X360Y1217D01*
X360Y1213D01*
X358Y1213D01*
X358Y1211D01*
X354Y1211D01*
X354Y1209D01*
X352Y1209D01*
X352Y1207D01*
X348Y1207D01*
X348Y1205D01*
X340Y1205D01*
X340Y1203D01*
X248Y1203D01*
X248Y1201D01*
X246Y1201D01*
X246Y1199D01*
X244Y1199D01*
X244Y1197D01*
X242Y1197D01*
X242Y1175D01*
X244Y1175D01*
X244Y1173D01*
X248Y1173D01*
X248Y1171D01*
X250Y1171D01*
X250Y1169D01*
X252Y1169D01*
X252Y1165D01*
X254Y1165D01*
X254Y1163D01*
X256Y1163D01*
X256Y1159D01*
X258Y1159D01*
X258Y1157D01*
X260Y1157D01*
X260Y1153D01*
X262Y1153D01*
X262Y1147D01*
X264Y1147D01*
X264Y1127D01*
X262Y1127D01*
X262Y1121D01*
X260Y1121D01*
X260Y1117D01*
X258Y1117D01*
X258Y1113D01*
X256Y1113D01*
X256Y1109D01*
X254Y1109D01*
X254Y1107D01*
X252Y1107D01*
X252Y1105D01*
X250Y1105D01*
X250Y1103D01*
X248Y1103D01*
X248Y1101D01*
X246Y1101D01*
X246Y1099D01*
X244Y1099D01*
X244Y1097D01*
X242Y1097D01*
X242Y1075D01*
X244Y1075D01*
X244Y1073D01*
X248Y1073D01*
X248Y1071D01*
X250Y1071D01*
X250Y1069D01*
X252Y1069D01*
X252Y1067D01*
X280Y1067D01*
X280Y1065D01*
X310Y1065D01*
X310Y1063D01*
X332Y1063D01*
X332Y1061D01*
X340Y1061D01*
X340Y1059D01*
X344Y1059D01*
X344Y1057D01*
X346Y1057D01*
X346Y1055D01*
X348Y1055D01*
X348Y1053D01*
X352Y1053D01*
X352Y1051D01*
X354Y1051D01*
X354Y1049D01*
X356Y1049D01*
X356Y1047D01*
X358Y1047D01*
X358Y1045D01*
X360Y1045D01*
X360Y1043D01*
X362Y1043D01*
X362Y1041D01*
X364Y1041D01*
X364Y1039D01*
X366Y1039D01*
X366Y1037D01*
X368Y1037D01*
X368Y1035D01*
X370Y1035D01*
X370Y1033D01*
X372Y1033D01*
X372Y1031D01*
X374Y1031D01*
X374Y1029D01*
X376Y1029D01*
X376Y1027D01*
X378Y1027D01*
X378Y1025D01*
X382Y1025D01*
X382Y1023D01*
X384Y1023D01*
X384Y1021D01*
X386Y1021D01*
X386Y1019D01*
X388Y1019D01*
X388Y1017D01*
X390Y1017D01*
X390Y1015D01*
X392Y1015D01*
X392Y1013D01*
X394Y1013D01*
X394Y1011D01*
X396Y1011D01*
X396Y1009D01*
X398Y1009D01*
X398Y1007D01*
X400Y1007D01*
X400Y1005D01*
X402Y1005D01*
X402Y1003D01*
X404Y1003D01*
X404Y1001D01*
X406Y1001D01*
X406Y999D01*
X408Y999D01*
X408Y997D01*
X410Y997D01*
X410Y995D01*
X414Y995D01*
X414Y993D01*
X416Y993D01*
X416Y991D01*
X418Y991D01*
X418Y987D01*
X420Y987D01*
X420Y985D01*
X422Y985D01*
X422Y983D01*
X424Y983D01*
X424Y977D01*
X426Y977D01*
X426Y969D01*
X446Y969D01*
X446Y975D01*
X448Y975D01*
X448Y981D01*
X450Y981D01*
X450Y989D01*
X452Y989D01*
X452Y995D01*
X454Y995D01*
X454Y1001D01*
X456Y1001D01*
X456Y1007D01*
X458Y1007D01*
X458Y1013D01*
X460Y1013D01*
X460Y1021D01*
X462Y1021D01*
X462Y1027D01*
X464Y1027D01*
X464Y1033D01*
X466Y1033D01*
X466Y1039D01*
X468Y1039D01*
X468Y1045D01*
X470Y1045D01*
X470Y1053D01*
X472Y1053D01*
X472Y1059D01*
X474Y1059D01*
X474Y1061D01*
X476Y1061D01*
X476Y1065D01*
X478Y1065D01*
X478Y1067D01*
X482Y1067D01*
X482Y1069D01*
X484Y1069D01*
X484Y1071D01*
X490Y1071D01*
X490Y1073D01*
X494Y1073D01*
X494Y1075D01*
X498Y1075D01*
X498Y1077D01*
X502Y1077D01*
X502Y1079D01*
X508Y1079D01*
X508Y1081D01*
X512Y1081D01*
X512Y1083D01*
X516Y1083D01*
X516Y1085D01*
X522Y1085D01*
X522Y1087D01*
X526Y1087D01*
X526Y1089D01*
X530Y1089D01*
X530Y1091D01*
X534Y1091D01*
X534Y1093D01*
X540Y1093D01*
X540Y1095D01*
X542Y1095D01*
X542Y1099D01*
X544Y1099D01*
X544Y1105D01*
X546Y1105D01*
X546Y1111D01*
X548Y1111D01*
X548Y1113D01*
X550Y1113D01*
X550Y1117D01*
X552Y1117D01*
X552Y1119D01*
X554Y1119D01*
X554Y1123D01*
X556Y1123D01*
X556Y1125D01*
X558Y1125D01*
X558Y1127D01*
X560Y1127D01*
X560Y1129D01*
X564Y1129D01*
X564Y1131D01*
X566Y1131D01*
X566Y1133D01*
X568Y1133D01*
X568Y1153D01*
X564Y1153D01*
X564Y1155D01*
X562Y1155D01*
X562Y1157D01*
X560Y1157D01*
X560Y1159D01*
X558Y1159D01*
X558Y1161D01*
X556Y1161D01*
X556Y1163D01*
X554Y1163D01*
X554Y1165D01*
X552Y1165D01*
X552Y1167D01*
X550Y1167D01*
X550Y1171D01*
X548Y1171D01*
X548Y1175D01*
X546Y1175D01*
X546Y1179D01*
X544Y1179D01*
X544Y1187D01*
X542Y1187D01*
X542Y1199D01*
X544Y1199D01*
X544Y1205D01*
X546Y1205D01*
X546Y1211D01*
X548Y1211D01*
X548Y1213D01*
X550Y1213D01*
X550Y1217D01*
X552Y1217D01*
X552Y1219D01*
X554Y1219D01*
X554Y1223D01*
X556Y1223D01*
X556Y1225D01*
X558Y1225D01*
X558Y1227D01*
X560Y1227D01*
X560Y1229D01*
X564Y1229D01*
X564Y1231D01*
X566Y1231D01*
X566Y1233D01*
X568Y1233D01*
X568Y1253D01*
X564Y1253D01*
X564Y1255D01*
X562Y1255D01*
X562Y1257D01*
X560Y1257D01*
X560Y1259D01*
X558Y1259D01*
X558Y1261D01*
X556Y1261D01*
X556Y1263D01*
X554Y1263D01*
X554Y1265D01*
X552Y1265D01*
X552Y1267D01*
X550Y1267D01*
X550Y1271D01*
X548Y1271D01*
X548Y1275D01*
X546Y1275D01*
X546Y1279D01*
X544Y1279D01*
X544Y1287D01*
X542Y1287D01*
X542Y1289D01*
X540Y1289D01*
X540Y1291D01*
X536Y1291D01*
X536Y1293D01*
X530Y1293D01*
X530Y1295D01*
X526Y1295D01*
X526Y1297D01*
X522Y1297D01*
X522Y1299D01*
X516Y1299D01*
X516Y1301D01*
X512Y1301D01*
X512Y1303D01*
X508Y1303D01*
X508Y1305D01*
X502Y1305D01*
X502Y1307D01*
X498Y1307D01*
X498Y1309D01*
X494Y1309D01*
X494Y1311D01*
X488Y1311D01*
X488Y1313D01*
X484Y1313D01*
X484Y1315D01*
X480Y1315D01*
X480Y1317D01*
X476Y1317D01*
X476Y1319D01*
X472Y1319D01*
X472Y1321D01*
X470Y1321D01*
X470Y1323D01*
X468Y1323D01*
X468Y1325D01*
X466Y1325D01*
X466Y1329D01*
X464Y1329D01*
X464Y1333D01*
X462Y1333D01*
X462Y1337D01*
X460Y1337D01*
X460Y1341D01*
X458Y1341D01*
X458Y1345D01*
X456Y1345D01*
X456Y1349D01*
X454Y1349D01*
X454Y1353D01*
X452Y1353D01*
X452Y1357D01*
X450Y1357D01*
X450Y1361D01*
X448Y1361D01*
X448Y1365D01*
X446Y1365D01*
X446Y1369D01*
X444Y1369D01*
X444Y1373D01*
X442Y1373D01*
X442Y1377D01*
X440Y1377D01*
X440Y1381D01*
X438Y1381D01*
X438Y1385D01*
X436Y1385D01*
X436Y1389D01*
X416Y1389D01*
G37*
D02*
G36*
X548Y1051D02*
X548Y1049D01*
X544Y1049D01*
X544Y1047D01*
X540Y1047D01*
X540Y1045D01*
X534Y1045D01*
X534Y1043D01*
X530Y1043D01*
X530Y1041D01*
X526Y1041D01*
X526Y1039D01*
X522Y1039D01*
X522Y1037D01*
X516Y1037D01*
X516Y1035D01*
X512Y1035D01*
X512Y1033D01*
X510Y1033D01*
X510Y1027D01*
X508Y1027D01*
X508Y1019D01*
X506Y1019D01*
X506Y1013D01*
X504Y1013D01*
X504Y1007D01*
X502Y1007D01*
X502Y1001D01*
X500Y1001D01*
X500Y995D01*
X498Y995D01*
X498Y987D01*
X496Y987D01*
X496Y981D01*
X494Y981D01*
X494Y975D01*
X492Y975D01*
X492Y969D01*
X490Y969D01*
X490Y963D01*
X488Y963D01*
X488Y955D01*
X486Y955D01*
X486Y949D01*
X484Y949D01*
X484Y943D01*
X482Y943D01*
X482Y937D01*
X480Y937D01*
X480Y931D01*
X478Y931D01*
X478Y923D01*
X476Y923D01*
X476Y917D01*
X474Y917D01*
X474Y911D01*
X472Y911D01*
X472Y905D01*
X470Y905D01*
X470Y897D01*
X468Y897D01*
X468Y891D01*
X466Y891D01*
X466Y885D01*
X464Y885D01*
X464Y879D01*
X462Y879D01*
X462Y873D01*
X460Y873D01*
X460Y865D01*
X458Y865D01*
X458Y859D01*
X456Y859D01*
X456Y853D01*
X454Y853D01*
X454Y847D01*
X452Y847D01*
X452Y841D01*
X450Y841D01*
X450Y833D01*
X448Y833D01*
X448Y827D01*
X446Y827D01*
X446Y821D01*
X444Y821D01*
X444Y815D01*
X442Y815D01*
X442Y809D01*
X440Y809D01*
X440Y801D01*
X438Y801D01*
X438Y795D01*
X436Y795D01*
X436Y789D01*
X434Y789D01*
X434Y783D01*
X432Y783D01*
X432Y777D01*
X430Y777D01*
X430Y769D01*
X428Y769D01*
X428Y763D01*
X426Y763D01*
X426Y743D01*
X432Y743D01*
X432Y645D01*
X434Y645D01*
X434Y641D01*
X436Y641D01*
X436Y637D01*
X438Y637D01*
X438Y633D01*
X440Y633D01*
X440Y631D01*
X442Y631D01*
X442Y627D01*
X444Y627D01*
X444Y623D01*
X446Y623D01*
X446Y619D01*
X448Y619D01*
X448Y615D01*
X450Y615D01*
X450Y611D01*
X452Y611D01*
X452Y609D01*
X454Y609D01*
X454Y605D01*
X456Y605D01*
X456Y601D01*
X458Y601D01*
X458Y597D01*
X460Y597D01*
X460Y593D01*
X462Y593D01*
X462Y589D01*
X464Y589D01*
X464Y585D01*
X466Y585D01*
X466Y583D01*
X468Y583D01*
X468Y579D01*
X470Y579D01*
X470Y575D01*
X472Y575D01*
X472Y571D01*
X474Y571D01*
X474Y567D01*
X476Y567D01*
X476Y563D01*
X478Y563D01*
X478Y561D01*
X486Y561D01*
X486Y559D01*
X492Y559D01*
X492Y557D01*
X498Y557D01*
X498Y555D01*
X500Y555D01*
X500Y553D01*
X504Y553D01*
X504Y551D01*
X506Y551D01*
X506Y549D01*
X510Y549D01*
X510Y547D01*
X512Y547D01*
X512Y545D01*
X514Y545D01*
X514Y543D01*
X516Y543D01*
X516Y539D01*
X518Y539D01*
X518Y537D01*
X520Y537D01*
X520Y533D01*
X522Y533D01*
X522Y529D01*
X524Y529D01*
X524Y525D01*
X526Y525D01*
X526Y505D01*
X546Y505D01*
X546Y511D01*
X548Y511D01*
X548Y513D01*
X550Y513D01*
X550Y517D01*
X552Y517D01*
X552Y519D01*
X554Y519D01*
X554Y523D01*
X556Y523D01*
X556Y525D01*
X558Y525D01*
X558Y527D01*
X560Y527D01*
X560Y529D01*
X564Y529D01*
X564Y531D01*
X566Y531D01*
X566Y533D01*
X568Y533D01*
X568Y553D01*
X564Y553D01*
X564Y555D01*
X562Y555D01*
X562Y557D01*
X560Y557D01*
X560Y559D01*
X558Y559D01*
X558Y561D01*
X556Y561D01*
X556Y563D01*
X554Y563D01*
X554Y565D01*
X552Y565D01*
X552Y567D01*
X550Y567D01*
X550Y571D01*
X548Y571D01*
X548Y575D01*
X546Y575D01*
X546Y579D01*
X544Y579D01*
X544Y587D01*
X542Y587D01*
X542Y599D01*
X544Y599D01*
X544Y605D01*
X546Y605D01*
X546Y611D01*
X548Y611D01*
X548Y613D01*
X550Y613D01*
X550Y617D01*
X552Y617D01*
X552Y619D01*
X554Y619D01*
X554Y623D01*
X556Y623D01*
X556Y625D01*
X558Y625D01*
X558Y627D01*
X560Y627D01*
X560Y629D01*
X564Y629D01*
X564Y631D01*
X566Y631D01*
X566Y633D01*
X568Y633D01*
X568Y653D01*
X564Y653D01*
X564Y655D01*
X562Y655D01*
X562Y657D01*
X560Y657D01*
X560Y659D01*
X558Y659D01*
X558Y661D01*
X556Y661D01*
X556Y663D01*
X554Y663D01*
X554Y665D01*
X552Y665D01*
X552Y667D01*
X550Y667D01*
X550Y671D01*
X548Y671D01*
X548Y675D01*
X546Y675D01*
X546Y679D01*
X544Y679D01*
X544Y687D01*
X542Y687D01*
X542Y699D01*
X544Y699D01*
X544Y705D01*
X546Y705D01*
X546Y711D01*
X548Y711D01*
X548Y713D01*
X550Y713D01*
X550Y717D01*
X552Y717D01*
X552Y719D01*
X554Y719D01*
X554Y723D01*
X556Y723D01*
X556Y725D01*
X558Y725D01*
X558Y727D01*
X560Y727D01*
X560Y729D01*
X564Y729D01*
X564Y731D01*
X566Y731D01*
X566Y733D01*
X568Y733D01*
X568Y753D01*
X564Y753D01*
X564Y755D01*
X562Y755D01*
X562Y757D01*
X560Y757D01*
X560Y759D01*
X558Y759D01*
X558Y761D01*
X556Y761D01*
X556Y763D01*
X554Y763D01*
X554Y765D01*
X552Y765D01*
X552Y767D01*
X550Y767D01*
X550Y771D01*
X548Y771D01*
X548Y775D01*
X546Y775D01*
X546Y779D01*
X544Y779D01*
X544Y787D01*
X542Y787D01*
X542Y799D01*
X544Y799D01*
X544Y805D01*
X546Y805D01*
X546Y811D01*
X548Y811D01*
X548Y813D01*
X550Y813D01*
X550Y817D01*
X552Y817D01*
X552Y819D01*
X554Y819D01*
X554Y823D01*
X556Y823D01*
X556Y825D01*
X558Y825D01*
X558Y827D01*
X560Y827D01*
X560Y829D01*
X564Y829D01*
X564Y831D01*
X566Y831D01*
X566Y833D01*
X568Y833D01*
X568Y853D01*
X564Y853D01*
X564Y855D01*
X562Y855D01*
X562Y857D01*
X560Y857D01*
X560Y859D01*
X558Y859D01*
X558Y861D01*
X556Y861D01*
X556Y863D01*
X554Y863D01*
X554Y865D01*
X552Y865D01*
X552Y867D01*
X550Y867D01*
X550Y871D01*
X548Y871D01*
X548Y875D01*
X546Y875D01*
X546Y879D01*
X544Y879D01*
X544Y887D01*
X542Y887D01*
X542Y899D01*
X544Y899D01*
X544Y905D01*
X546Y905D01*
X546Y911D01*
X548Y911D01*
X548Y913D01*
X550Y913D01*
X550Y917D01*
X552Y917D01*
X552Y919D01*
X554Y919D01*
X554Y923D01*
X556Y923D01*
X556Y925D01*
X558Y925D01*
X558Y927D01*
X560Y927D01*
X560Y929D01*
X564Y929D01*
X564Y931D01*
X566Y931D01*
X566Y933D01*
X568Y933D01*
X568Y953D01*
X564Y953D01*
X564Y955D01*
X562Y955D01*
X562Y957D01*
X560Y957D01*
X560Y959D01*
X558Y959D01*
X558Y961D01*
X556Y961D01*
X556Y963D01*
X554Y963D01*
X554Y965D01*
X552Y965D01*
X552Y967D01*
X550Y967D01*
X550Y971D01*
X548Y971D01*
X548Y975D01*
X546Y975D01*
X546Y979D01*
X544Y979D01*
X544Y987D01*
X542Y987D01*
X542Y999D01*
X544Y999D01*
X544Y1005D01*
X546Y1005D01*
X546Y1011D01*
X548Y1011D01*
X548Y1013D01*
X550Y1013D01*
X550Y1017D01*
X552Y1017D01*
X552Y1019D01*
X554Y1019D01*
X554Y1023D01*
X556Y1023D01*
X556Y1025D01*
X558Y1025D01*
X558Y1027D01*
X560Y1027D01*
X560Y1029D01*
X564Y1029D01*
X564Y1031D01*
X566Y1031D01*
X566Y1033D01*
X568Y1033D01*
X568Y1051D01*
X548Y1051D01*
G37*
D02*
G36*
X1476Y1033D02*
X1476Y1031D01*
X1438Y1031D01*
X1438Y1009D01*
X1440Y1009D01*
X1440Y1005D01*
X1442Y1005D01*
X1442Y1001D01*
X1444Y1001D01*
X1444Y995D01*
X1446Y995D01*
X1446Y979D01*
X1444Y979D01*
X1444Y973D01*
X1442Y973D01*
X1442Y967D01*
X1440Y967D01*
X1440Y965D01*
X1438Y965D01*
X1438Y961D01*
X1436Y961D01*
X1436Y959D01*
X1434Y959D01*
X1434Y957D01*
X1432Y957D01*
X1432Y955D01*
X1430Y955D01*
X1430Y953D01*
X1428Y953D01*
X1428Y929D01*
X1430Y929D01*
X1430Y915D01*
X1432Y915D01*
X1432Y901D01*
X1434Y901D01*
X1434Y885D01*
X1436Y885D01*
X1436Y871D01*
X1438Y871D01*
X1438Y857D01*
X1440Y857D01*
X1440Y843D01*
X1442Y843D01*
X1442Y833D01*
X1444Y833D01*
X1444Y829D01*
X1446Y829D01*
X1446Y823D01*
X1448Y823D01*
X1448Y819D01*
X1450Y819D01*
X1450Y815D01*
X1452Y815D01*
X1452Y811D01*
X1454Y811D01*
X1454Y805D01*
X1456Y805D01*
X1456Y801D01*
X1458Y801D01*
X1458Y797D01*
X1460Y797D01*
X1460Y793D01*
X1462Y793D01*
X1462Y787D01*
X1464Y787D01*
X1464Y783D01*
X1466Y783D01*
X1466Y779D01*
X1468Y779D01*
X1468Y775D01*
X1470Y775D01*
X1470Y769D01*
X1472Y769D01*
X1472Y765D01*
X1474Y765D01*
X1474Y761D01*
X1476Y761D01*
X1476Y757D01*
X1478Y757D01*
X1478Y751D01*
X1480Y751D01*
X1480Y747D01*
X1482Y747D01*
X1482Y743D01*
X1484Y743D01*
X1484Y739D01*
X1486Y739D01*
X1486Y733D01*
X1488Y733D01*
X1488Y729D01*
X1490Y729D01*
X1490Y725D01*
X1492Y725D01*
X1492Y719D01*
X1494Y719D01*
X1494Y715D01*
X1496Y715D01*
X1496Y711D01*
X1498Y711D01*
X1498Y707D01*
X1500Y707D01*
X1500Y701D01*
X1502Y701D01*
X1502Y697D01*
X1504Y697D01*
X1504Y693D01*
X1506Y693D01*
X1506Y689D01*
X1508Y689D01*
X1508Y683D01*
X1510Y683D01*
X1510Y679D01*
X1512Y679D01*
X1512Y675D01*
X1514Y675D01*
X1514Y671D01*
X1516Y671D01*
X1516Y665D01*
X1518Y665D01*
X1518Y661D01*
X1520Y661D01*
X1520Y659D01*
X1522Y659D01*
X1522Y657D01*
X1526Y657D01*
X1526Y655D01*
X1528Y655D01*
X1528Y653D01*
X1532Y653D01*
X1532Y651D01*
X1536Y651D01*
X1536Y649D01*
X1538Y649D01*
X1538Y647D01*
X1542Y647D01*
X1542Y645D01*
X1546Y645D01*
X1546Y643D01*
X1550Y643D01*
X1550Y641D01*
X1782Y641D01*
X1782Y639D01*
X1792Y639D01*
X1792Y637D01*
X1796Y637D01*
X1796Y635D01*
X1800Y635D01*
X1800Y633D01*
X1804Y633D01*
X1804Y631D01*
X1806Y631D01*
X1806Y629D01*
X1808Y629D01*
X1808Y627D01*
X1810Y627D01*
X1810Y625D01*
X1812Y625D01*
X1812Y623D01*
X1814Y623D01*
X1814Y621D01*
X1816Y621D01*
X1816Y619D01*
X1818Y619D01*
X1818Y617D01*
X1820Y617D01*
X1820Y613D01*
X1822Y613D01*
X1822Y609D01*
X1824Y609D01*
X1824Y605D01*
X1826Y605D01*
X1826Y599D01*
X1828Y599D01*
X1828Y581D01*
X1826Y581D01*
X1826Y575D01*
X1824Y575D01*
X1824Y571D01*
X1822Y571D01*
X1822Y567D01*
X1820Y567D01*
X1820Y563D01*
X1818Y563D01*
X1818Y561D01*
X1816Y561D01*
X1816Y559D01*
X1814Y559D01*
X1814Y557D01*
X1812Y557D01*
X1812Y555D01*
X1810Y555D01*
X1810Y553D01*
X1808Y553D01*
X1808Y551D01*
X1806Y551D01*
X1806Y529D01*
X1808Y529D01*
X1808Y527D01*
X1810Y527D01*
X1810Y525D01*
X1812Y525D01*
X1812Y523D01*
X1814Y523D01*
X1814Y521D01*
X1816Y521D01*
X1816Y519D01*
X1818Y519D01*
X1818Y517D01*
X1820Y517D01*
X1820Y513D01*
X1822Y513D01*
X1822Y509D01*
X1824Y509D01*
X1824Y505D01*
X1826Y505D01*
X1826Y499D01*
X1828Y499D01*
X1828Y481D01*
X1826Y481D01*
X1826Y475D01*
X1824Y475D01*
X1824Y471D01*
X1822Y471D01*
X1822Y467D01*
X1820Y467D01*
X1820Y463D01*
X1818Y463D01*
X1818Y461D01*
X1816Y461D01*
X1816Y459D01*
X1814Y459D01*
X1814Y457D01*
X1812Y457D01*
X1812Y455D01*
X1810Y455D01*
X1810Y453D01*
X1808Y453D01*
X1808Y451D01*
X1806Y451D01*
X1806Y441D01*
X1826Y441D01*
X1826Y443D01*
X1830Y443D01*
X1830Y445D01*
X1834Y445D01*
X1834Y447D01*
X1836Y447D01*
X1836Y449D01*
X1840Y449D01*
X1840Y451D01*
X1844Y451D01*
X1844Y453D01*
X1848Y453D01*
X1848Y455D01*
X1852Y455D01*
X1852Y457D01*
X1854Y457D01*
X1854Y459D01*
X1858Y459D01*
X1858Y461D01*
X1862Y461D01*
X1862Y463D01*
X1866Y463D01*
X1866Y465D01*
X1868Y465D01*
X1868Y467D01*
X1872Y467D01*
X1872Y471D01*
X1874Y471D01*
X1874Y519D01*
X1876Y519D01*
X1876Y565D01*
X1878Y565D01*
X1878Y611D01*
X1880Y611D01*
X1880Y635D01*
X1878Y635D01*
X1878Y637D01*
X1876Y637D01*
X1876Y639D01*
X1874Y639D01*
X1874Y641D01*
X1872Y641D01*
X1872Y643D01*
X1868Y643D01*
X1868Y645D01*
X1866Y645D01*
X1866Y647D01*
X1864Y647D01*
X1864Y649D01*
X1862Y649D01*
X1862Y651D01*
X1860Y651D01*
X1860Y653D01*
X1858Y653D01*
X1858Y655D01*
X1854Y655D01*
X1854Y657D01*
X1852Y657D01*
X1852Y659D01*
X1850Y659D01*
X1850Y661D01*
X1848Y661D01*
X1848Y663D01*
X1846Y663D01*
X1846Y665D01*
X1844Y665D01*
X1844Y667D01*
X1830Y667D01*
X1830Y669D01*
X1812Y669D01*
X1812Y671D01*
X1796Y671D01*
X1796Y673D01*
X1778Y673D01*
X1778Y675D01*
X1762Y675D01*
X1762Y677D01*
X1744Y677D01*
X1744Y679D01*
X1726Y679D01*
X1726Y681D01*
X1710Y681D01*
X1710Y683D01*
X1692Y683D01*
X1692Y685D01*
X1676Y685D01*
X1676Y687D01*
X1658Y687D01*
X1658Y689D01*
X1652Y689D01*
X1652Y691D01*
X1648Y691D01*
X1648Y693D01*
X1646Y693D01*
X1646Y695D01*
X1642Y695D01*
X1642Y697D01*
X1640Y697D01*
X1640Y699D01*
X1636Y699D01*
X1636Y701D01*
X1632Y701D01*
X1632Y703D01*
X1630Y703D01*
X1630Y705D01*
X1626Y705D01*
X1626Y707D01*
X1624Y707D01*
X1624Y709D01*
X1620Y709D01*
X1620Y711D01*
X1616Y711D01*
X1616Y713D01*
X1614Y713D01*
X1614Y715D01*
X1610Y715D01*
X1610Y717D01*
X1608Y717D01*
X1608Y719D01*
X1604Y719D01*
X1604Y721D01*
X1602Y721D01*
X1602Y723D01*
X1598Y723D01*
X1598Y725D01*
X1594Y725D01*
X1594Y727D01*
X1592Y727D01*
X1592Y729D01*
X1590Y729D01*
X1590Y731D01*
X1588Y731D01*
X1588Y733D01*
X1586Y733D01*
X1586Y737D01*
X1584Y737D01*
X1584Y743D01*
X1582Y743D01*
X1582Y757D01*
X1580Y757D01*
X1580Y771D01*
X1578Y771D01*
X1578Y785D01*
X1576Y785D01*
X1576Y799D01*
X1574Y799D01*
X1574Y813D01*
X1572Y813D01*
X1572Y825D01*
X1570Y825D01*
X1570Y839D01*
X1568Y839D01*
X1568Y853D01*
X1566Y853D01*
X1566Y875D01*
X1564Y875D01*
X1564Y899D01*
X1562Y899D01*
X1562Y925D01*
X1560Y925D01*
X1560Y945D01*
X1556Y945D01*
X1556Y947D01*
X1554Y947D01*
X1554Y949D01*
X1550Y949D01*
X1550Y951D01*
X1548Y951D01*
X1548Y953D01*
X1546Y953D01*
X1546Y955D01*
X1544Y955D01*
X1544Y957D01*
X1542Y957D01*
X1542Y959D01*
X1540Y959D01*
X1540Y963D01*
X1538Y963D01*
X1538Y965D01*
X1536Y965D01*
X1536Y969D01*
X1534Y969D01*
X1534Y975D01*
X1532Y975D01*
X1532Y981D01*
X1530Y981D01*
X1530Y993D01*
X1532Y993D01*
X1532Y999D01*
X1534Y999D01*
X1534Y1005D01*
X1536Y1005D01*
X1536Y1009D01*
X1538Y1009D01*
X1538Y1011D01*
X1540Y1011D01*
X1540Y1033D01*
X1476Y1033D01*
G37*
D02*
G36*
X1552Y641D02*
X1552Y639D01*
X1556Y639D01*
X1556Y637D01*
X1560Y637D01*
X1560Y635D01*
X1562Y635D01*
X1562Y633D01*
X1566Y633D01*
X1566Y631D01*
X1570Y631D01*
X1570Y629D01*
X1574Y629D01*
X1574Y627D01*
X1576Y627D01*
X1576Y625D01*
X1580Y625D01*
X1580Y623D01*
X1584Y623D01*
X1584Y621D01*
X1586Y621D01*
X1586Y619D01*
X1590Y619D01*
X1590Y617D01*
X1594Y617D01*
X1594Y615D01*
X1684Y615D01*
X1684Y613D01*
X1736Y613D01*
X1736Y617D01*
X1738Y617D01*
X1738Y619D01*
X1740Y619D01*
X1740Y621D01*
X1742Y621D01*
X1742Y623D01*
X1744Y623D01*
X1744Y625D01*
X1746Y625D01*
X1746Y627D01*
X1748Y627D01*
X1748Y629D01*
X1750Y629D01*
X1750Y631D01*
X1754Y631D01*
X1754Y633D01*
X1756Y633D01*
X1756Y635D01*
X1760Y635D01*
X1760Y637D01*
X1766Y637D01*
X1766Y639D01*
X1774Y639D01*
X1774Y641D01*
X1552Y641D01*
G37*
D02*
G36*
X1338Y1027D02*
X1338Y1025D01*
X1332Y1025D01*
X1332Y1023D01*
X1326Y1023D01*
X1326Y1021D01*
X1320Y1021D01*
X1320Y1019D01*
X1314Y1019D01*
X1314Y1017D01*
X1306Y1017D01*
X1306Y1015D01*
X1300Y1015D01*
X1300Y1013D01*
X1294Y1013D01*
X1294Y1011D01*
X1288Y1011D01*
X1288Y1009D01*
X1282Y1009D01*
X1282Y1007D01*
X1278Y1007D01*
X1278Y1005D01*
X1274Y1005D01*
X1274Y1003D01*
X1268Y1003D01*
X1268Y1001D01*
X1264Y1001D01*
X1264Y999D01*
X1260Y999D01*
X1260Y997D01*
X1254Y997D01*
X1254Y995D01*
X1250Y995D01*
X1250Y993D01*
X1246Y993D01*
X1246Y991D01*
X1240Y991D01*
X1240Y989D01*
X1238Y989D01*
X1238Y987D01*
X1236Y987D01*
X1236Y979D01*
X1234Y979D01*
X1234Y975D01*
X1232Y975D01*
X1232Y971D01*
X1230Y971D01*
X1230Y967D01*
X1228Y967D01*
X1228Y965D01*
X1226Y965D01*
X1226Y963D01*
X1224Y963D01*
X1224Y961D01*
X1222Y961D01*
X1222Y959D01*
X1220Y959D01*
X1220Y957D01*
X1218Y957D01*
X1218Y955D01*
X1216Y955D01*
X1216Y953D01*
X1212Y953D01*
X1212Y933D01*
X1214Y933D01*
X1214Y931D01*
X1216Y931D01*
X1216Y929D01*
X1220Y929D01*
X1220Y927D01*
X1222Y927D01*
X1222Y925D01*
X1224Y925D01*
X1224Y923D01*
X1226Y923D01*
X1226Y919D01*
X1228Y919D01*
X1228Y917D01*
X1230Y917D01*
X1230Y913D01*
X1232Y913D01*
X1232Y911D01*
X1234Y911D01*
X1234Y905D01*
X1236Y905D01*
X1236Y897D01*
X1238Y897D01*
X1238Y885D01*
X1240Y885D01*
X1240Y883D01*
X1244Y883D01*
X1244Y881D01*
X1246Y881D01*
X1246Y879D01*
X1250Y879D01*
X1250Y877D01*
X1252Y877D01*
X1252Y875D01*
X1256Y875D01*
X1256Y873D01*
X1258Y873D01*
X1258Y871D01*
X1262Y871D01*
X1262Y869D01*
X1264Y869D01*
X1264Y867D01*
X1266Y867D01*
X1266Y865D01*
X1270Y865D01*
X1270Y863D01*
X1272Y863D01*
X1272Y861D01*
X1276Y861D01*
X1276Y859D01*
X1278Y859D01*
X1278Y857D01*
X1282Y857D01*
X1282Y855D01*
X1284Y855D01*
X1284Y853D01*
X1288Y853D01*
X1288Y851D01*
X1290Y851D01*
X1290Y849D01*
X1292Y849D01*
X1292Y847D01*
X1296Y847D01*
X1296Y845D01*
X1298Y845D01*
X1298Y843D01*
X1302Y843D01*
X1302Y841D01*
X1304Y841D01*
X1304Y839D01*
X1308Y839D01*
X1308Y837D01*
X1310Y837D01*
X1310Y835D01*
X1314Y835D01*
X1314Y833D01*
X1316Y833D01*
X1316Y831D01*
X1318Y831D01*
X1318Y829D01*
X1322Y829D01*
X1322Y827D01*
X1324Y827D01*
X1324Y825D01*
X1328Y825D01*
X1328Y823D01*
X1330Y823D01*
X1330Y821D01*
X1334Y821D01*
X1334Y819D01*
X1336Y819D01*
X1336Y817D01*
X1340Y817D01*
X1340Y815D01*
X1342Y815D01*
X1342Y813D01*
X1344Y813D01*
X1344Y811D01*
X1348Y811D01*
X1348Y809D01*
X1350Y809D01*
X1350Y807D01*
X1354Y807D01*
X1354Y805D01*
X1356Y805D01*
X1356Y803D01*
X1360Y803D01*
X1360Y801D01*
X1362Y801D01*
X1362Y799D01*
X1366Y799D01*
X1366Y797D01*
X1368Y797D01*
X1368Y795D01*
X1370Y795D01*
X1370Y793D01*
X1374Y793D01*
X1374Y791D01*
X1376Y791D01*
X1376Y789D01*
X1380Y789D01*
X1380Y787D01*
X1382Y787D01*
X1382Y785D01*
X1386Y785D01*
X1386Y783D01*
X1388Y783D01*
X1388Y781D01*
X1390Y781D01*
X1390Y779D01*
X1392Y779D01*
X1392Y777D01*
X1394Y777D01*
X1394Y773D01*
X1396Y773D01*
X1396Y767D01*
X1398Y767D01*
X1398Y763D01*
X1400Y763D01*
X1400Y757D01*
X1402Y757D01*
X1402Y753D01*
X1404Y753D01*
X1404Y747D01*
X1406Y747D01*
X1406Y743D01*
X1408Y743D01*
X1408Y737D01*
X1410Y737D01*
X1410Y731D01*
X1412Y731D01*
X1412Y727D01*
X1414Y727D01*
X1414Y721D01*
X1416Y721D01*
X1416Y717D01*
X1418Y717D01*
X1418Y711D01*
X1420Y711D01*
X1420Y707D01*
X1422Y707D01*
X1422Y701D01*
X1424Y701D01*
X1424Y695D01*
X1426Y695D01*
X1426Y691D01*
X1428Y691D01*
X1428Y685D01*
X1430Y685D01*
X1430Y681D01*
X1432Y681D01*
X1432Y675D01*
X1434Y675D01*
X1434Y671D01*
X1436Y671D01*
X1436Y665D01*
X1438Y665D01*
X1438Y661D01*
X1440Y661D01*
X1440Y655D01*
X1442Y655D01*
X1442Y649D01*
X1444Y649D01*
X1444Y645D01*
X1446Y645D01*
X1446Y639D01*
X1448Y639D01*
X1448Y635D01*
X1450Y635D01*
X1450Y629D01*
X1452Y629D01*
X1452Y625D01*
X1454Y625D01*
X1454Y619D01*
X1456Y619D01*
X1456Y615D01*
X1458Y615D01*
X1458Y609D01*
X1460Y609D01*
X1460Y603D01*
X1462Y603D01*
X1462Y599D01*
X1464Y599D01*
X1464Y593D01*
X1466Y593D01*
X1466Y589D01*
X1468Y589D01*
X1468Y583D01*
X1470Y583D01*
X1470Y579D01*
X1472Y579D01*
X1472Y573D01*
X1474Y573D01*
X1474Y569D01*
X1476Y569D01*
X1476Y563D01*
X1478Y563D01*
X1478Y557D01*
X1480Y557D01*
X1480Y555D01*
X1482Y555D01*
X1482Y553D01*
X1488Y553D01*
X1488Y551D01*
X1494Y551D01*
X1494Y549D01*
X1498Y549D01*
X1498Y547D01*
X1504Y547D01*
X1504Y545D01*
X1510Y545D01*
X1510Y543D01*
X1516Y543D01*
X1516Y541D01*
X1522Y541D01*
X1522Y539D01*
X1528Y539D01*
X1528Y537D01*
X1534Y537D01*
X1534Y535D01*
X1540Y535D01*
X1540Y533D01*
X1546Y533D01*
X1546Y531D01*
X1552Y531D01*
X1552Y529D01*
X1558Y529D01*
X1558Y527D01*
X1564Y527D01*
X1564Y525D01*
X1570Y525D01*
X1570Y523D01*
X1576Y523D01*
X1576Y521D01*
X1580Y521D01*
X1580Y519D01*
X1586Y519D01*
X1586Y517D01*
X1592Y517D01*
X1592Y515D01*
X1598Y515D01*
X1598Y513D01*
X1604Y513D01*
X1604Y511D01*
X1610Y511D01*
X1610Y509D01*
X1662Y509D01*
X1662Y511D01*
X1734Y511D01*
X1734Y513D01*
X1736Y513D01*
X1736Y517D01*
X1738Y517D01*
X1738Y519D01*
X1740Y519D01*
X1740Y521D01*
X1742Y521D01*
X1742Y523D01*
X1744Y523D01*
X1744Y525D01*
X1746Y525D01*
X1746Y527D01*
X1748Y527D01*
X1748Y529D01*
X1750Y529D01*
X1750Y551D01*
X1748Y551D01*
X1748Y553D01*
X1746Y553D01*
X1746Y555D01*
X1744Y555D01*
X1744Y557D01*
X1742Y557D01*
X1742Y559D01*
X1740Y559D01*
X1740Y561D01*
X1738Y561D01*
X1738Y565D01*
X1736Y565D01*
X1736Y567D01*
X1734Y567D01*
X1734Y569D01*
X1682Y569D01*
X1682Y571D01*
X1586Y571D01*
X1586Y573D01*
X1578Y573D01*
X1578Y575D01*
X1574Y575D01*
X1574Y577D01*
X1572Y577D01*
X1572Y579D01*
X1568Y579D01*
X1568Y581D01*
X1564Y581D01*
X1564Y583D01*
X1562Y583D01*
X1562Y585D01*
X1558Y585D01*
X1558Y587D01*
X1554Y587D01*
X1554Y589D01*
X1550Y589D01*
X1550Y591D01*
X1548Y591D01*
X1548Y593D01*
X1544Y593D01*
X1544Y595D01*
X1540Y595D01*
X1540Y597D01*
X1538Y597D01*
X1538Y599D01*
X1534Y599D01*
X1534Y601D01*
X1530Y601D01*
X1530Y603D01*
X1526Y603D01*
X1526Y605D01*
X1524Y605D01*
X1524Y607D01*
X1520Y607D01*
X1520Y609D01*
X1516Y609D01*
X1516Y611D01*
X1514Y611D01*
X1514Y613D01*
X1510Y613D01*
X1510Y615D01*
X1506Y615D01*
X1506Y617D01*
X1502Y617D01*
X1502Y619D01*
X1500Y619D01*
X1500Y621D01*
X1496Y621D01*
X1496Y623D01*
X1492Y623D01*
X1492Y625D01*
X1490Y625D01*
X1490Y627D01*
X1488Y627D01*
X1488Y629D01*
X1486Y629D01*
X1486Y631D01*
X1484Y631D01*
X1484Y633D01*
X1482Y633D01*
X1482Y639D01*
X1480Y639D01*
X1480Y643D01*
X1478Y643D01*
X1478Y647D01*
X1476Y647D01*
X1476Y651D01*
X1474Y651D01*
X1474Y657D01*
X1472Y657D01*
X1472Y661D01*
X1470Y661D01*
X1470Y665D01*
X1468Y665D01*
X1468Y669D01*
X1466Y669D01*
X1466Y675D01*
X1464Y675D01*
X1464Y679D01*
X1462Y679D01*
X1462Y683D01*
X1460Y683D01*
X1460Y689D01*
X1458Y689D01*
X1458Y693D01*
X1456Y693D01*
X1456Y697D01*
X1454Y697D01*
X1454Y701D01*
X1452Y701D01*
X1452Y707D01*
X1450Y707D01*
X1450Y711D01*
X1448Y711D01*
X1448Y715D01*
X1446Y715D01*
X1446Y719D01*
X1444Y719D01*
X1444Y725D01*
X1442Y725D01*
X1442Y729D01*
X1440Y729D01*
X1440Y733D01*
X1438Y733D01*
X1438Y737D01*
X1436Y737D01*
X1436Y743D01*
X1434Y743D01*
X1434Y747D01*
X1432Y747D01*
X1432Y751D01*
X1430Y751D01*
X1430Y755D01*
X1428Y755D01*
X1428Y761D01*
X1426Y761D01*
X1426Y765D01*
X1424Y765D01*
X1424Y769D01*
X1422Y769D01*
X1422Y773D01*
X1420Y773D01*
X1420Y779D01*
X1418Y779D01*
X1418Y783D01*
X1416Y783D01*
X1416Y787D01*
X1414Y787D01*
X1414Y793D01*
X1412Y793D01*
X1412Y797D01*
X1410Y797D01*
X1410Y801D01*
X1408Y801D01*
X1408Y805D01*
X1406Y805D01*
X1406Y811D01*
X1404Y811D01*
X1404Y815D01*
X1402Y815D01*
X1402Y819D01*
X1400Y819D01*
X1400Y825D01*
X1398Y825D01*
X1398Y841D01*
X1396Y841D01*
X1396Y855D01*
X1394Y855D01*
X1394Y869D01*
X1392Y869D01*
X1392Y883D01*
X1390Y883D01*
X1390Y897D01*
X1388Y897D01*
X1388Y911D01*
X1386Y911D01*
X1386Y925D01*
X1384Y925D01*
X1384Y939D01*
X1382Y939D01*
X1382Y943D01*
X1380Y943D01*
X1380Y945D01*
X1376Y945D01*
X1376Y947D01*
X1374Y947D01*
X1374Y949D01*
X1372Y949D01*
X1372Y951D01*
X1368Y951D01*
X1368Y953D01*
X1366Y953D01*
X1366Y955D01*
X1364Y955D01*
X1364Y957D01*
X1362Y957D01*
X1362Y961D01*
X1360Y961D01*
X1360Y963D01*
X1358Y963D01*
X1358Y967D01*
X1356Y967D01*
X1356Y969D01*
X1354Y969D01*
X1354Y975D01*
X1352Y975D01*
X1352Y999D01*
X1354Y999D01*
X1354Y1003D01*
X1356Y1003D01*
X1356Y1007D01*
X1358Y1007D01*
X1358Y1027D01*
X1338Y1027D01*
G37*
D02*
G36*
X1620Y969D02*
X1620Y965D01*
X1618Y965D01*
X1618Y963D01*
X1616Y963D01*
X1616Y959D01*
X1614Y959D01*
X1614Y957D01*
X1612Y957D01*
X1612Y955D01*
X1610Y955D01*
X1610Y953D01*
X1608Y953D01*
X1608Y951D01*
X1606Y951D01*
X1606Y949D01*
X1604Y949D01*
X1604Y927D01*
X1606Y927D01*
X1606Y901D01*
X1608Y901D01*
X1608Y877D01*
X1610Y877D01*
X1610Y857D01*
X1612Y857D01*
X1612Y843D01*
X1614Y843D01*
X1614Y829D01*
X1616Y829D01*
X1616Y815D01*
X1618Y815D01*
X1618Y801D01*
X1620Y801D01*
X1620Y787D01*
X1622Y787D01*
X1622Y775D01*
X1624Y775D01*
X1624Y761D01*
X1626Y761D01*
X1626Y757D01*
X1630Y757D01*
X1630Y755D01*
X1632Y755D01*
X1632Y753D01*
X1636Y753D01*
X1636Y751D01*
X1640Y751D01*
X1640Y749D01*
X1642Y749D01*
X1642Y747D01*
X1646Y747D01*
X1646Y745D01*
X1648Y745D01*
X1648Y743D01*
X1652Y743D01*
X1652Y741D01*
X1656Y741D01*
X1656Y739D01*
X1658Y739D01*
X1658Y737D01*
X1662Y737D01*
X1662Y735D01*
X1664Y735D01*
X1664Y733D01*
X1668Y733D01*
X1668Y731D01*
X1678Y731D01*
X1678Y729D01*
X1696Y729D01*
X1696Y727D01*
X1724Y727D01*
X1724Y841D01*
X1738Y841D01*
X1738Y861D01*
X1736Y861D01*
X1736Y865D01*
X1734Y865D01*
X1734Y867D01*
X1732Y867D01*
X1732Y871D01*
X1730Y871D01*
X1730Y875D01*
X1728Y875D01*
X1728Y879D01*
X1726Y879D01*
X1726Y891D01*
X1722Y891D01*
X1722Y893D01*
X1718Y893D01*
X1718Y895D01*
X1714Y895D01*
X1714Y897D01*
X1710Y897D01*
X1710Y899D01*
X1706Y899D01*
X1706Y901D01*
X1702Y901D01*
X1702Y903D01*
X1698Y903D01*
X1698Y905D01*
X1692Y905D01*
X1692Y907D01*
X1688Y907D01*
X1688Y909D01*
X1684Y909D01*
X1684Y911D01*
X1680Y911D01*
X1680Y913D01*
X1676Y913D01*
X1676Y915D01*
X1672Y915D01*
X1672Y917D01*
X1670Y917D01*
X1670Y919D01*
X1668Y919D01*
X1668Y921D01*
X1666Y921D01*
X1666Y923D01*
X1664Y923D01*
X1664Y927D01*
X1662Y927D01*
X1662Y931D01*
X1660Y931D01*
X1660Y935D01*
X1658Y935D01*
X1658Y939D01*
X1656Y939D01*
X1656Y943D01*
X1654Y943D01*
X1654Y947D01*
X1652Y947D01*
X1652Y951D01*
X1650Y951D01*
X1650Y955D01*
X1648Y955D01*
X1648Y959D01*
X1646Y959D01*
X1646Y963D01*
X1644Y963D01*
X1644Y967D01*
X1642Y967D01*
X1642Y969D01*
X1620Y969D01*
G37*
D02*
G36*
X1226Y827D02*
X1226Y819D01*
X1228Y819D01*
X1228Y817D01*
X1230Y817D01*
X1230Y813D01*
X1232Y813D01*
X1232Y811D01*
X1234Y811D01*
X1234Y805D01*
X1236Y805D01*
X1236Y797D01*
X1238Y797D01*
X1238Y785D01*
X1240Y785D01*
X1240Y783D01*
X1242Y783D01*
X1242Y781D01*
X1246Y781D01*
X1246Y779D01*
X1248Y779D01*
X1248Y777D01*
X1250Y777D01*
X1250Y775D01*
X1254Y775D01*
X1254Y773D01*
X1256Y773D01*
X1256Y771D01*
X1260Y771D01*
X1260Y769D01*
X1262Y769D01*
X1262Y767D01*
X1264Y767D01*
X1264Y765D01*
X1268Y765D01*
X1268Y763D01*
X1270Y763D01*
X1270Y761D01*
X1274Y761D01*
X1274Y759D01*
X1276Y759D01*
X1276Y757D01*
X1278Y757D01*
X1278Y755D01*
X1282Y755D01*
X1282Y753D01*
X1284Y753D01*
X1284Y751D01*
X1288Y751D01*
X1288Y749D01*
X1290Y749D01*
X1290Y747D01*
X1292Y747D01*
X1292Y745D01*
X1296Y745D01*
X1296Y743D01*
X1298Y743D01*
X1298Y741D01*
X1302Y741D01*
X1302Y739D01*
X1304Y739D01*
X1304Y737D01*
X1306Y737D01*
X1306Y735D01*
X1310Y735D01*
X1310Y733D01*
X1312Y733D01*
X1312Y731D01*
X1314Y731D01*
X1314Y729D01*
X1318Y729D01*
X1318Y727D01*
X1320Y727D01*
X1320Y725D01*
X1322Y725D01*
X1322Y721D01*
X1324Y721D01*
X1324Y717D01*
X1326Y717D01*
X1326Y711D01*
X1328Y711D01*
X1328Y707D01*
X1330Y707D01*
X1330Y703D01*
X1332Y703D01*
X1332Y697D01*
X1334Y697D01*
X1334Y693D01*
X1336Y693D01*
X1336Y689D01*
X1338Y689D01*
X1338Y683D01*
X1340Y683D01*
X1340Y679D01*
X1342Y679D01*
X1342Y675D01*
X1344Y675D01*
X1344Y669D01*
X1346Y669D01*
X1346Y665D01*
X1348Y665D01*
X1348Y661D01*
X1350Y661D01*
X1350Y655D01*
X1352Y655D01*
X1352Y651D01*
X1354Y651D01*
X1354Y647D01*
X1356Y647D01*
X1356Y641D01*
X1358Y641D01*
X1358Y637D01*
X1360Y637D01*
X1360Y633D01*
X1362Y633D01*
X1362Y627D01*
X1364Y627D01*
X1364Y623D01*
X1366Y623D01*
X1366Y619D01*
X1368Y619D01*
X1368Y613D01*
X1370Y613D01*
X1370Y609D01*
X1372Y609D01*
X1372Y603D01*
X1374Y603D01*
X1374Y599D01*
X1376Y599D01*
X1376Y595D01*
X1378Y595D01*
X1378Y589D01*
X1380Y589D01*
X1380Y585D01*
X1382Y585D01*
X1382Y581D01*
X1384Y581D01*
X1384Y575D01*
X1386Y575D01*
X1386Y571D01*
X1388Y571D01*
X1388Y567D01*
X1390Y567D01*
X1390Y561D01*
X1392Y561D01*
X1392Y557D01*
X1394Y557D01*
X1394Y553D01*
X1396Y553D01*
X1396Y547D01*
X1398Y547D01*
X1398Y543D01*
X1400Y543D01*
X1400Y539D01*
X1402Y539D01*
X1402Y533D01*
X1404Y533D01*
X1404Y529D01*
X1406Y529D01*
X1406Y525D01*
X1408Y525D01*
X1408Y519D01*
X1410Y519D01*
X1410Y515D01*
X1412Y515D01*
X1412Y511D01*
X1414Y511D01*
X1414Y507D01*
X1416Y507D01*
X1416Y505D01*
X1418Y505D01*
X1418Y501D01*
X1420Y501D01*
X1420Y499D01*
X1422Y499D01*
X1422Y497D01*
X1424Y497D01*
X1424Y495D01*
X1426Y495D01*
X1426Y493D01*
X1428Y493D01*
X1428Y491D01*
X1430Y491D01*
X1430Y489D01*
X1432Y489D01*
X1432Y487D01*
X1434Y487D01*
X1434Y485D01*
X1436Y485D01*
X1436Y483D01*
X1438Y483D01*
X1438Y481D01*
X1440Y481D01*
X1440Y479D01*
X1442Y479D01*
X1442Y477D01*
X1444Y477D01*
X1444Y475D01*
X1446Y475D01*
X1446Y473D01*
X1448Y473D01*
X1448Y471D01*
X1450Y471D01*
X1450Y469D01*
X1452Y469D01*
X1452Y467D01*
X1454Y467D01*
X1454Y465D01*
X1604Y465D01*
X1604Y467D01*
X1596Y467D01*
X1596Y469D01*
X1592Y469D01*
X1592Y471D01*
X1586Y471D01*
X1586Y473D01*
X1580Y473D01*
X1580Y475D01*
X1574Y475D01*
X1574Y477D01*
X1568Y477D01*
X1568Y479D01*
X1562Y479D01*
X1562Y481D01*
X1556Y481D01*
X1556Y483D01*
X1550Y483D01*
X1550Y485D01*
X1544Y485D01*
X1544Y487D01*
X1538Y487D01*
X1538Y489D01*
X1532Y489D01*
X1532Y491D01*
X1526Y491D01*
X1526Y493D01*
X1520Y493D01*
X1520Y495D01*
X1514Y495D01*
X1514Y497D01*
X1510Y497D01*
X1510Y499D01*
X1504Y499D01*
X1504Y501D01*
X1498Y501D01*
X1498Y503D01*
X1492Y503D01*
X1492Y505D01*
X1486Y505D01*
X1486Y507D01*
X1480Y507D01*
X1480Y509D01*
X1474Y509D01*
X1474Y511D01*
X1468Y511D01*
X1468Y513D01*
X1462Y513D01*
X1462Y515D01*
X1456Y515D01*
X1456Y517D01*
X1452Y517D01*
X1452Y519D01*
X1450Y519D01*
X1450Y521D01*
X1448Y521D01*
X1448Y523D01*
X1446Y523D01*
X1446Y525D01*
X1444Y525D01*
X1444Y529D01*
X1442Y529D01*
X1442Y535D01*
X1440Y535D01*
X1440Y539D01*
X1438Y539D01*
X1438Y545D01*
X1436Y545D01*
X1436Y549D01*
X1434Y549D01*
X1434Y555D01*
X1432Y555D01*
X1432Y559D01*
X1430Y559D01*
X1430Y565D01*
X1428Y565D01*
X1428Y569D01*
X1426Y569D01*
X1426Y575D01*
X1424Y575D01*
X1424Y581D01*
X1422Y581D01*
X1422Y585D01*
X1420Y585D01*
X1420Y591D01*
X1418Y591D01*
X1418Y595D01*
X1416Y595D01*
X1416Y601D01*
X1414Y601D01*
X1414Y605D01*
X1412Y605D01*
X1412Y611D01*
X1410Y611D01*
X1410Y615D01*
X1408Y615D01*
X1408Y621D01*
X1406Y621D01*
X1406Y627D01*
X1404Y627D01*
X1404Y631D01*
X1402Y631D01*
X1402Y637D01*
X1400Y637D01*
X1400Y641D01*
X1398Y641D01*
X1398Y647D01*
X1396Y647D01*
X1396Y651D01*
X1394Y651D01*
X1394Y657D01*
X1392Y657D01*
X1392Y663D01*
X1390Y663D01*
X1390Y667D01*
X1388Y667D01*
X1388Y673D01*
X1386Y673D01*
X1386Y677D01*
X1384Y677D01*
X1384Y683D01*
X1382Y683D01*
X1382Y687D01*
X1380Y687D01*
X1380Y693D01*
X1378Y693D01*
X1378Y697D01*
X1376Y697D01*
X1376Y703D01*
X1374Y703D01*
X1374Y709D01*
X1372Y709D01*
X1372Y713D01*
X1370Y713D01*
X1370Y719D01*
X1368Y719D01*
X1368Y723D01*
X1366Y723D01*
X1366Y729D01*
X1364Y729D01*
X1364Y733D01*
X1362Y733D01*
X1362Y739D01*
X1360Y739D01*
X1360Y743D01*
X1358Y743D01*
X1358Y749D01*
X1356Y749D01*
X1356Y751D01*
X1354Y751D01*
X1354Y753D01*
X1352Y753D01*
X1352Y755D01*
X1348Y755D01*
X1348Y757D01*
X1346Y757D01*
X1346Y759D01*
X1342Y759D01*
X1342Y761D01*
X1340Y761D01*
X1340Y763D01*
X1336Y763D01*
X1336Y765D01*
X1334Y765D01*
X1334Y767D01*
X1332Y767D01*
X1332Y769D01*
X1328Y769D01*
X1328Y771D01*
X1326Y771D01*
X1326Y773D01*
X1322Y773D01*
X1322Y775D01*
X1320Y775D01*
X1320Y777D01*
X1316Y777D01*
X1316Y779D01*
X1314Y779D01*
X1314Y781D01*
X1310Y781D01*
X1310Y783D01*
X1308Y783D01*
X1308Y785D01*
X1306Y785D01*
X1306Y787D01*
X1302Y787D01*
X1302Y789D01*
X1300Y789D01*
X1300Y791D01*
X1296Y791D01*
X1296Y793D01*
X1294Y793D01*
X1294Y795D01*
X1290Y795D01*
X1290Y797D01*
X1288Y797D01*
X1288Y799D01*
X1284Y799D01*
X1284Y801D01*
X1282Y801D01*
X1282Y803D01*
X1280Y803D01*
X1280Y805D01*
X1276Y805D01*
X1276Y807D01*
X1274Y807D01*
X1274Y809D01*
X1270Y809D01*
X1270Y811D01*
X1268Y811D01*
X1268Y813D01*
X1264Y813D01*
X1264Y815D01*
X1262Y815D01*
X1262Y817D01*
X1258Y817D01*
X1258Y819D01*
X1256Y819D01*
X1256Y821D01*
X1254Y821D01*
X1254Y823D01*
X1250Y823D01*
X1250Y825D01*
X1248Y825D01*
X1248Y827D01*
X1226Y827D01*
G37*
D02*
G36*
X1662Y467D02*
X1662Y465D01*
X1736Y465D01*
X1736Y467D01*
X1662Y467D01*
G37*
D02*
G36*
X1456Y465D02*
X1456Y463D01*
X1738Y463D01*
X1738Y465D01*
X1456Y465D01*
G37*
D02*
G36*
X1456Y465D02*
X1456Y463D01*
X1738Y463D01*
X1738Y465D01*
X1456Y465D01*
G37*
D02*
G36*
X1458Y463D02*
X1458Y461D01*
X1460Y461D01*
X1460Y459D01*
X1462Y459D01*
X1462Y457D01*
X1464Y457D01*
X1464Y455D01*
X1466Y455D01*
X1466Y453D01*
X1468Y453D01*
X1468Y451D01*
X1470Y451D01*
X1470Y449D01*
X1472Y449D01*
X1472Y447D01*
X1474Y447D01*
X1474Y445D01*
X1476Y445D01*
X1476Y443D01*
X1478Y443D01*
X1478Y441D01*
X1480Y441D01*
X1480Y439D01*
X1482Y439D01*
X1482Y437D01*
X1484Y437D01*
X1484Y435D01*
X1486Y435D01*
X1486Y433D01*
X1488Y433D01*
X1488Y431D01*
X1490Y431D01*
X1490Y429D01*
X1492Y429D01*
X1492Y427D01*
X1494Y427D01*
X1494Y425D01*
X1496Y425D01*
X1496Y423D01*
X1498Y423D01*
X1498Y421D01*
X1500Y421D01*
X1500Y419D01*
X1502Y419D01*
X1502Y417D01*
X1504Y417D01*
X1504Y415D01*
X1506Y415D01*
X1506Y413D01*
X1508Y413D01*
X1508Y409D01*
X1510Y409D01*
X1510Y407D01*
X1512Y407D01*
X1512Y405D01*
X1514Y405D01*
X1514Y403D01*
X1516Y403D01*
X1516Y401D01*
X1518Y401D01*
X1518Y399D01*
X1520Y399D01*
X1520Y397D01*
X1522Y397D01*
X1522Y395D01*
X1524Y395D01*
X1524Y393D01*
X1526Y393D01*
X1526Y391D01*
X1528Y391D01*
X1528Y389D01*
X1530Y389D01*
X1530Y387D01*
X1532Y387D01*
X1532Y385D01*
X1534Y385D01*
X1534Y383D01*
X1536Y383D01*
X1536Y381D01*
X1538Y381D01*
X1538Y379D01*
X1540Y379D01*
X1540Y377D01*
X1542Y377D01*
X1542Y375D01*
X1544Y375D01*
X1544Y373D01*
X1546Y373D01*
X1546Y371D01*
X1548Y371D01*
X1548Y369D01*
X1550Y369D01*
X1550Y367D01*
X1552Y367D01*
X1552Y365D01*
X1554Y365D01*
X1554Y363D01*
X1556Y363D01*
X1556Y361D01*
X1558Y361D01*
X1558Y359D01*
X1560Y359D01*
X1560Y357D01*
X1562Y357D01*
X1562Y355D01*
X1564Y355D01*
X1564Y353D01*
X1566Y353D01*
X1566Y351D01*
X1572Y351D01*
X1572Y349D01*
X1582Y349D01*
X1582Y347D01*
X1594Y347D01*
X1594Y345D01*
X1604Y345D01*
X1604Y343D01*
X1616Y343D01*
X1616Y341D01*
X1626Y341D01*
X1626Y339D01*
X1638Y339D01*
X1638Y337D01*
X1648Y337D01*
X1648Y335D01*
X1660Y335D01*
X1660Y333D01*
X1670Y333D01*
X1670Y331D01*
X1682Y331D01*
X1682Y329D01*
X1692Y329D01*
X1692Y327D01*
X1704Y327D01*
X1704Y325D01*
X1728Y325D01*
X1728Y341D01*
X1740Y341D01*
X1740Y361D01*
X1738Y361D01*
X1738Y365D01*
X1736Y365D01*
X1736Y367D01*
X1734Y367D01*
X1734Y371D01*
X1732Y371D01*
X1732Y375D01*
X1730Y375D01*
X1730Y383D01*
X1728Y383D01*
X1728Y399D01*
X1730Y399D01*
X1730Y405D01*
X1732Y405D01*
X1732Y409D01*
X1734Y409D01*
X1734Y413D01*
X1736Y413D01*
X1736Y417D01*
X1738Y417D01*
X1738Y419D01*
X1740Y419D01*
X1740Y421D01*
X1742Y421D01*
X1742Y423D01*
X1744Y423D01*
X1744Y425D01*
X1746Y425D01*
X1746Y427D01*
X1748Y427D01*
X1748Y429D01*
X1750Y429D01*
X1750Y451D01*
X1748Y451D01*
X1748Y453D01*
X1746Y453D01*
X1746Y455D01*
X1744Y455D01*
X1744Y457D01*
X1742Y457D01*
X1742Y459D01*
X1740Y459D01*
X1740Y461D01*
X1738Y461D01*
X1738Y463D01*
X1458Y463D01*
G37*
D02*
G36*
X134Y1929D02*
X134Y1909D01*
X136Y1909D01*
X136Y1905D01*
X138Y1905D01*
X138Y1901D01*
X140Y1901D01*
X140Y1895D01*
X142Y1895D01*
X142Y1869D01*
X140Y1869D01*
X140Y1863D01*
X138Y1863D01*
X138Y1859D01*
X136Y1859D01*
X136Y1857D01*
X134Y1857D01*
X134Y1853D01*
X132Y1853D01*
X132Y1851D01*
X130Y1851D01*
X130Y1847D01*
X128Y1847D01*
X128Y1845D01*
X126Y1845D01*
X126Y1843D01*
X122Y1843D01*
X122Y1841D01*
X636Y1841D01*
X636Y1839D01*
X1202Y1839D01*
X1202Y1837D01*
X1206Y1837D01*
X1206Y1835D01*
X1210Y1835D01*
X1210Y1833D01*
X1214Y1833D01*
X1214Y1831D01*
X1216Y1831D01*
X1216Y1829D01*
X1876Y1829D01*
X1876Y1831D01*
X1868Y1831D01*
X1868Y1833D01*
X1864Y1833D01*
X1864Y1835D01*
X1860Y1835D01*
X1860Y1837D01*
X1856Y1837D01*
X1856Y1839D01*
X1854Y1839D01*
X1854Y1841D01*
X1852Y1841D01*
X1852Y1843D01*
X1850Y1843D01*
X1850Y1845D01*
X1848Y1845D01*
X1848Y1847D01*
X1846Y1847D01*
X1846Y1849D01*
X1844Y1849D01*
X1844Y1851D01*
X1842Y1851D01*
X1842Y1853D01*
X1840Y1853D01*
X1840Y1857D01*
X1838Y1857D01*
X1838Y1861D01*
X1836Y1861D01*
X1836Y1865D01*
X1834Y1865D01*
X1834Y1873D01*
X1832Y1873D01*
X1832Y1893D01*
X1834Y1893D01*
X1834Y1899D01*
X1836Y1899D01*
X1836Y1903D01*
X1838Y1903D01*
X1838Y1907D01*
X1840Y1907D01*
X1840Y1929D01*
X134Y1929D01*
G37*
D02*
G36*
X120Y1841D02*
X120Y1839D01*
X118Y1839D01*
X118Y1837D01*
X114Y1837D01*
X114Y1835D01*
X110Y1835D01*
X110Y1833D01*
X106Y1833D01*
X106Y1831D01*
X98Y1831D01*
X98Y1829D01*
X542Y1829D01*
X542Y1839D01*
X544Y1839D01*
X544Y1841D01*
X120Y1841D01*
G37*
D02*
G36*
X40Y1839D02*
X40Y1829D01*
X80Y1829D01*
X80Y1831D01*
X72Y1831D01*
X72Y1833D01*
X68Y1833D01*
X68Y1835D01*
X64Y1835D01*
X64Y1837D01*
X62Y1837D01*
X62Y1839D01*
X40Y1839D01*
G37*
D02*
G36*
X638Y1839D02*
X638Y1745D01*
X622Y1745D01*
X622Y1725D01*
X624Y1725D01*
X624Y1723D01*
X626Y1723D01*
X626Y1719D01*
X628Y1719D01*
X628Y1717D01*
X630Y1717D01*
X630Y1713D01*
X632Y1713D01*
X632Y1711D01*
X634Y1711D01*
X634Y1705D01*
X636Y1705D01*
X636Y1697D01*
X638Y1697D01*
X638Y1687D01*
X636Y1687D01*
X636Y1679D01*
X634Y1679D01*
X634Y1675D01*
X632Y1675D01*
X632Y1671D01*
X630Y1671D01*
X630Y1667D01*
X628Y1667D01*
X628Y1665D01*
X626Y1665D01*
X626Y1663D01*
X624Y1663D01*
X624Y1661D01*
X622Y1661D01*
X622Y1659D01*
X620Y1659D01*
X620Y1657D01*
X618Y1657D01*
X618Y1655D01*
X616Y1655D01*
X616Y1653D01*
X612Y1653D01*
X612Y1633D01*
X614Y1633D01*
X614Y1631D01*
X616Y1631D01*
X616Y1629D01*
X620Y1629D01*
X620Y1627D01*
X622Y1627D01*
X622Y1625D01*
X624Y1625D01*
X624Y1623D01*
X626Y1623D01*
X626Y1619D01*
X628Y1619D01*
X628Y1617D01*
X630Y1617D01*
X630Y1613D01*
X632Y1613D01*
X632Y1611D01*
X634Y1611D01*
X634Y1605D01*
X636Y1605D01*
X636Y1597D01*
X638Y1597D01*
X638Y1587D01*
X636Y1587D01*
X636Y1579D01*
X634Y1579D01*
X634Y1575D01*
X632Y1575D01*
X632Y1571D01*
X630Y1571D01*
X630Y1567D01*
X628Y1567D01*
X628Y1565D01*
X626Y1565D01*
X626Y1563D01*
X624Y1563D01*
X624Y1561D01*
X622Y1561D01*
X622Y1559D01*
X620Y1559D01*
X620Y1557D01*
X618Y1557D01*
X618Y1555D01*
X616Y1555D01*
X616Y1553D01*
X612Y1553D01*
X612Y1533D01*
X614Y1533D01*
X614Y1531D01*
X616Y1531D01*
X616Y1529D01*
X620Y1529D01*
X620Y1527D01*
X622Y1527D01*
X622Y1525D01*
X624Y1525D01*
X624Y1523D01*
X626Y1523D01*
X626Y1519D01*
X628Y1519D01*
X628Y1517D01*
X630Y1517D01*
X630Y1513D01*
X632Y1513D01*
X632Y1511D01*
X634Y1511D01*
X634Y1505D01*
X636Y1505D01*
X636Y1497D01*
X638Y1497D01*
X638Y1487D01*
X636Y1487D01*
X636Y1479D01*
X634Y1479D01*
X634Y1475D01*
X632Y1475D01*
X632Y1471D01*
X630Y1471D01*
X630Y1467D01*
X628Y1467D01*
X628Y1465D01*
X626Y1465D01*
X626Y1463D01*
X624Y1463D01*
X624Y1461D01*
X622Y1461D01*
X622Y1459D01*
X620Y1459D01*
X620Y1457D01*
X618Y1457D01*
X618Y1455D01*
X616Y1455D01*
X616Y1453D01*
X612Y1453D01*
X612Y1433D01*
X614Y1433D01*
X614Y1431D01*
X616Y1431D01*
X616Y1429D01*
X620Y1429D01*
X620Y1427D01*
X622Y1427D01*
X622Y1425D01*
X624Y1425D01*
X624Y1423D01*
X626Y1423D01*
X626Y1419D01*
X628Y1419D01*
X628Y1417D01*
X630Y1417D01*
X630Y1413D01*
X632Y1413D01*
X632Y1411D01*
X634Y1411D01*
X634Y1405D01*
X636Y1405D01*
X636Y1397D01*
X638Y1397D01*
X638Y1387D01*
X636Y1387D01*
X636Y1379D01*
X634Y1379D01*
X634Y1375D01*
X632Y1375D01*
X632Y1371D01*
X630Y1371D01*
X630Y1367D01*
X628Y1367D01*
X628Y1365D01*
X626Y1365D01*
X626Y1363D01*
X624Y1363D01*
X624Y1361D01*
X622Y1361D01*
X622Y1359D01*
X620Y1359D01*
X620Y1357D01*
X618Y1357D01*
X618Y1355D01*
X616Y1355D01*
X616Y1353D01*
X612Y1353D01*
X612Y1333D01*
X614Y1333D01*
X614Y1331D01*
X616Y1331D01*
X616Y1329D01*
X620Y1329D01*
X620Y1327D01*
X622Y1327D01*
X622Y1325D01*
X624Y1325D01*
X624Y1323D01*
X626Y1323D01*
X626Y1319D01*
X628Y1319D01*
X628Y1317D01*
X630Y1317D01*
X630Y1313D01*
X632Y1313D01*
X632Y1311D01*
X634Y1311D01*
X634Y1305D01*
X636Y1305D01*
X636Y1297D01*
X638Y1297D01*
X638Y1287D01*
X636Y1287D01*
X636Y1279D01*
X634Y1279D01*
X634Y1275D01*
X632Y1275D01*
X632Y1271D01*
X630Y1271D01*
X630Y1267D01*
X628Y1267D01*
X628Y1265D01*
X626Y1265D01*
X626Y1263D01*
X624Y1263D01*
X624Y1261D01*
X622Y1261D01*
X622Y1259D01*
X620Y1259D01*
X620Y1257D01*
X618Y1257D01*
X618Y1255D01*
X616Y1255D01*
X616Y1253D01*
X612Y1253D01*
X612Y1233D01*
X614Y1233D01*
X614Y1231D01*
X616Y1231D01*
X616Y1229D01*
X620Y1229D01*
X620Y1227D01*
X622Y1227D01*
X622Y1225D01*
X624Y1225D01*
X624Y1223D01*
X626Y1223D01*
X626Y1219D01*
X628Y1219D01*
X628Y1217D01*
X630Y1217D01*
X630Y1213D01*
X632Y1213D01*
X632Y1211D01*
X634Y1211D01*
X634Y1205D01*
X636Y1205D01*
X636Y1197D01*
X638Y1197D01*
X638Y1187D01*
X636Y1187D01*
X636Y1179D01*
X634Y1179D01*
X634Y1175D01*
X632Y1175D01*
X632Y1171D01*
X630Y1171D01*
X630Y1167D01*
X628Y1167D01*
X628Y1165D01*
X626Y1165D01*
X626Y1163D01*
X624Y1163D01*
X624Y1161D01*
X622Y1161D01*
X622Y1159D01*
X620Y1159D01*
X620Y1157D01*
X618Y1157D01*
X618Y1155D01*
X616Y1155D01*
X616Y1153D01*
X612Y1153D01*
X612Y1133D01*
X614Y1133D01*
X614Y1131D01*
X616Y1131D01*
X616Y1129D01*
X620Y1129D01*
X620Y1127D01*
X622Y1127D01*
X622Y1125D01*
X624Y1125D01*
X624Y1123D01*
X626Y1123D01*
X626Y1119D01*
X628Y1119D01*
X628Y1117D01*
X630Y1117D01*
X630Y1113D01*
X632Y1113D01*
X632Y1111D01*
X634Y1111D01*
X634Y1105D01*
X636Y1105D01*
X636Y1097D01*
X638Y1097D01*
X638Y1087D01*
X636Y1087D01*
X636Y1079D01*
X634Y1079D01*
X634Y1075D01*
X632Y1075D01*
X632Y1071D01*
X630Y1071D01*
X630Y1067D01*
X628Y1067D01*
X628Y1065D01*
X626Y1065D01*
X626Y1063D01*
X624Y1063D01*
X624Y1061D01*
X622Y1061D01*
X622Y1059D01*
X620Y1059D01*
X620Y1057D01*
X618Y1057D01*
X618Y1055D01*
X616Y1055D01*
X616Y1053D01*
X612Y1053D01*
X612Y1033D01*
X614Y1033D01*
X614Y1031D01*
X616Y1031D01*
X616Y1029D01*
X620Y1029D01*
X620Y1027D01*
X622Y1027D01*
X622Y1025D01*
X624Y1025D01*
X624Y1023D01*
X626Y1023D01*
X626Y1019D01*
X628Y1019D01*
X628Y1017D01*
X630Y1017D01*
X630Y1013D01*
X632Y1013D01*
X632Y1011D01*
X634Y1011D01*
X634Y1005D01*
X636Y1005D01*
X636Y997D01*
X638Y997D01*
X638Y989D01*
X642Y989D01*
X642Y987D01*
X646Y987D01*
X646Y985D01*
X650Y985D01*
X650Y983D01*
X652Y983D01*
X652Y981D01*
X656Y981D01*
X656Y979D01*
X660Y979D01*
X660Y977D01*
X664Y977D01*
X664Y975D01*
X666Y975D01*
X666Y973D01*
X670Y973D01*
X670Y971D01*
X674Y971D01*
X674Y969D01*
X678Y969D01*
X678Y967D01*
X680Y967D01*
X680Y965D01*
X684Y965D01*
X684Y963D01*
X688Y963D01*
X688Y961D01*
X692Y961D01*
X692Y959D01*
X694Y959D01*
X694Y957D01*
X698Y957D01*
X698Y955D01*
X702Y955D01*
X702Y953D01*
X706Y953D01*
X706Y951D01*
X708Y951D01*
X708Y949D01*
X712Y949D01*
X712Y947D01*
X714Y947D01*
X714Y943D01*
X716Y943D01*
X716Y941D01*
X718Y941D01*
X718Y931D01*
X720Y931D01*
X720Y829D01*
X722Y829D01*
X722Y727D01*
X724Y727D01*
X724Y623D01*
X726Y623D01*
X726Y521D01*
X728Y521D01*
X728Y419D01*
X730Y419D01*
X730Y369D01*
X728Y369D01*
X728Y363D01*
X726Y363D01*
X726Y359D01*
X724Y359D01*
X724Y357D01*
X722Y357D01*
X722Y353D01*
X720Y353D01*
X720Y349D01*
X718Y349D01*
X718Y347D01*
X716Y347D01*
X716Y345D01*
X1182Y345D01*
X1182Y347D01*
X1176Y347D01*
X1176Y349D01*
X1172Y349D01*
X1172Y351D01*
X1168Y351D01*
X1168Y353D01*
X1164Y353D01*
X1164Y355D01*
X1162Y355D01*
X1162Y357D01*
X1160Y357D01*
X1160Y359D01*
X1158Y359D01*
X1158Y361D01*
X1156Y361D01*
X1156Y363D01*
X1154Y363D01*
X1154Y365D01*
X1152Y365D01*
X1152Y367D01*
X1150Y367D01*
X1150Y371D01*
X1148Y371D01*
X1148Y375D01*
X1146Y375D01*
X1146Y379D01*
X1144Y379D01*
X1144Y387D01*
X1142Y387D01*
X1142Y399D01*
X1144Y399D01*
X1144Y405D01*
X1146Y405D01*
X1146Y411D01*
X1148Y411D01*
X1148Y413D01*
X1150Y413D01*
X1150Y417D01*
X1152Y417D01*
X1152Y419D01*
X1154Y419D01*
X1154Y423D01*
X1156Y423D01*
X1156Y425D01*
X1158Y425D01*
X1158Y427D01*
X1160Y427D01*
X1160Y429D01*
X1164Y429D01*
X1164Y431D01*
X1166Y431D01*
X1166Y433D01*
X1168Y433D01*
X1168Y453D01*
X1164Y453D01*
X1164Y455D01*
X1162Y455D01*
X1162Y457D01*
X1160Y457D01*
X1160Y459D01*
X1158Y459D01*
X1158Y461D01*
X1156Y461D01*
X1156Y463D01*
X1154Y463D01*
X1154Y465D01*
X1152Y465D01*
X1152Y467D01*
X1150Y467D01*
X1150Y471D01*
X1148Y471D01*
X1148Y475D01*
X1146Y475D01*
X1146Y479D01*
X1144Y479D01*
X1144Y487D01*
X1142Y487D01*
X1142Y499D01*
X1144Y499D01*
X1144Y505D01*
X1146Y505D01*
X1146Y511D01*
X1148Y511D01*
X1148Y513D01*
X1150Y513D01*
X1150Y517D01*
X1152Y517D01*
X1152Y519D01*
X1154Y519D01*
X1154Y523D01*
X1156Y523D01*
X1156Y525D01*
X1158Y525D01*
X1158Y527D01*
X1160Y527D01*
X1160Y529D01*
X1164Y529D01*
X1164Y531D01*
X1166Y531D01*
X1166Y533D01*
X1168Y533D01*
X1168Y553D01*
X1164Y553D01*
X1164Y555D01*
X1162Y555D01*
X1162Y557D01*
X1160Y557D01*
X1160Y559D01*
X1158Y559D01*
X1158Y561D01*
X1156Y561D01*
X1156Y563D01*
X1154Y563D01*
X1154Y565D01*
X1152Y565D01*
X1152Y567D01*
X1150Y567D01*
X1150Y571D01*
X1148Y571D01*
X1148Y575D01*
X1146Y575D01*
X1146Y579D01*
X1144Y579D01*
X1144Y587D01*
X1142Y587D01*
X1142Y599D01*
X1144Y599D01*
X1144Y605D01*
X1146Y605D01*
X1146Y611D01*
X1148Y611D01*
X1148Y613D01*
X1150Y613D01*
X1150Y617D01*
X1152Y617D01*
X1152Y619D01*
X1154Y619D01*
X1154Y623D01*
X1156Y623D01*
X1156Y625D01*
X1158Y625D01*
X1158Y627D01*
X1160Y627D01*
X1160Y629D01*
X1164Y629D01*
X1164Y631D01*
X1166Y631D01*
X1166Y633D01*
X1168Y633D01*
X1168Y653D01*
X1164Y653D01*
X1164Y655D01*
X1162Y655D01*
X1162Y657D01*
X1160Y657D01*
X1160Y659D01*
X1158Y659D01*
X1158Y661D01*
X1156Y661D01*
X1156Y663D01*
X1154Y663D01*
X1154Y665D01*
X1152Y665D01*
X1152Y667D01*
X1150Y667D01*
X1150Y671D01*
X1148Y671D01*
X1148Y675D01*
X1146Y675D01*
X1146Y679D01*
X1144Y679D01*
X1144Y687D01*
X1142Y687D01*
X1142Y699D01*
X1144Y699D01*
X1144Y705D01*
X1146Y705D01*
X1146Y711D01*
X1148Y711D01*
X1148Y713D01*
X1150Y713D01*
X1150Y717D01*
X1152Y717D01*
X1152Y719D01*
X1154Y719D01*
X1154Y723D01*
X1156Y723D01*
X1156Y725D01*
X1158Y725D01*
X1158Y727D01*
X1160Y727D01*
X1160Y729D01*
X1164Y729D01*
X1164Y731D01*
X1166Y731D01*
X1166Y733D01*
X1168Y733D01*
X1168Y753D01*
X1164Y753D01*
X1164Y755D01*
X1162Y755D01*
X1162Y757D01*
X1160Y757D01*
X1160Y759D01*
X1158Y759D01*
X1158Y761D01*
X1156Y761D01*
X1156Y763D01*
X1154Y763D01*
X1154Y765D01*
X1152Y765D01*
X1152Y767D01*
X1150Y767D01*
X1150Y771D01*
X1148Y771D01*
X1148Y775D01*
X1146Y775D01*
X1146Y779D01*
X1144Y779D01*
X1144Y787D01*
X1142Y787D01*
X1142Y799D01*
X1144Y799D01*
X1144Y805D01*
X1146Y805D01*
X1146Y811D01*
X1148Y811D01*
X1148Y813D01*
X1150Y813D01*
X1150Y817D01*
X1152Y817D01*
X1152Y819D01*
X1154Y819D01*
X1154Y823D01*
X1156Y823D01*
X1156Y825D01*
X1158Y825D01*
X1158Y827D01*
X1160Y827D01*
X1160Y829D01*
X1164Y829D01*
X1164Y831D01*
X1166Y831D01*
X1166Y833D01*
X1168Y833D01*
X1168Y853D01*
X1164Y853D01*
X1164Y855D01*
X1162Y855D01*
X1162Y857D01*
X1160Y857D01*
X1160Y859D01*
X1158Y859D01*
X1158Y861D01*
X1156Y861D01*
X1156Y863D01*
X1154Y863D01*
X1154Y865D01*
X1152Y865D01*
X1152Y867D01*
X1150Y867D01*
X1150Y871D01*
X1148Y871D01*
X1148Y875D01*
X1146Y875D01*
X1146Y879D01*
X1144Y879D01*
X1144Y887D01*
X1142Y887D01*
X1142Y899D01*
X1144Y899D01*
X1144Y905D01*
X1146Y905D01*
X1146Y911D01*
X1148Y911D01*
X1148Y913D01*
X1150Y913D01*
X1150Y917D01*
X1152Y917D01*
X1152Y919D01*
X1154Y919D01*
X1154Y923D01*
X1156Y923D01*
X1156Y925D01*
X1158Y925D01*
X1158Y927D01*
X1160Y927D01*
X1160Y929D01*
X1164Y929D01*
X1164Y931D01*
X1166Y931D01*
X1166Y933D01*
X1168Y933D01*
X1168Y953D01*
X1164Y953D01*
X1164Y955D01*
X1162Y955D01*
X1162Y957D01*
X1160Y957D01*
X1160Y959D01*
X1158Y959D01*
X1158Y961D01*
X1156Y961D01*
X1156Y963D01*
X1154Y963D01*
X1154Y965D01*
X1152Y965D01*
X1152Y967D01*
X1150Y967D01*
X1150Y971D01*
X1148Y971D01*
X1148Y975D01*
X1146Y975D01*
X1146Y979D01*
X1144Y979D01*
X1144Y987D01*
X1142Y987D01*
X1142Y999D01*
X1144Y999D01*
X1144Y1005D01*
X1146Y1005D01*
X1146Y1011D01*
X1148Y1011D01*
X1148Y1013D01*
X1150Y1013D01*
X1150Y1017D01*
X1152Y1017D01*
X1152Y1019D01*
X1154Y1019D01*
X1154Y1023D01*
X1156Y1023D01*
X1156Y1025D01*
X1158Y1025D01*
X1158Y1027D01*
X1160Y1027D01*
X1160Y1029D01*
X1164Y1029D01*
X1164Y1031D01*
X1166Y1031D01*
X1166Y1033D01*
X1168Y1033D01*
X1168Y1053D01*
X1164Y1053D01*
X1164Y1055D01*
X1162Y1055D01*
X1162Y1057D01*
X1160Y1057D01*
X1160Y1059D01*
X1158Y1059D01*
X1158Y1061D01*
X1156Y1061D01*
X1156Y1063D01*
X1154Y1063D01*
X1154Y1065D01*
X1152Y1065D01*
X1152Y1067D01*
X1150Y1067D01*
X1150Y1071D01*
X1148Y1071D01*
X1148Y1075D01*
X1146Y1075D01*
X1146Y1079D01*
X1144Y1079D01*
X1144Y1087D01*
X1142Y1087D01*
X1142Y1099D01*
X1144Y1099D01*
X1144Y1105D01*
X1146Y1105D01*
X1146Y1111D01*
X1148Y1111D01*
X1148Y1113D01*
X1150Y1113D01*
X1150Y1117D01*
X1152Y1117D01*
X1152Y1119D01*
X1154Y1119D01*
X1154Y1123D01*
X1156Y1123D01*
X1156Y1125D01*
X1158Y1125D01*
X1158Y1127D01*
X1160Y1127D01*
X1160Y1129D01*
X1164Y1129D01*
X1164Y1131D01*
X1166Y1131D01*
X1166Y1133D01*
X1168Y1133D01*
X1168Y1153D01*
X1164Y1153D01*
X1164Y1155D01*
X1162Y1155D01*
X1162Y1157D01*
X1160Y1157D01*
X1160Y1159D01*
X1158Y1159D01*
X1158Y1161D01*
X1156Y1161D01*
X1156Y1163D01*
X1154Y1163D01*
X1154Y1165D01*
X1152Y1165D01*
X1152Y1167D01*
X1150Y1167D01*
X1150Y1171D01*
X1148Y1171D01*
X1148Y1175D01*
X1146Y1175D01*
X1146Y1179D01*
X1144Y1179D01*
X1144Y1187D01*
X1142Y1187D01*
X1142Y1199D01*
X1144Y1199D01*
X1144Y1205D01*
X1146Y1205D01*
X1146Y1211D01*
X1148Y1211D01*
X1148Y1213D01*
X1150Y1213D01*
X1150Y1217D01*
X1152Y1217D01*
X1152Y1219D01*
X1154Y1219D01*
X1154Y1223D01*
X1156Y1223D01*
X1156Y1225D01*
X1158Y1225D01*
X1158Y1227D01*
X1160Y1227D01*
X1160Y1229D01*
X1164Y1229D01*
X1164Y1231D01*
X1166Y1231D01*
X1166Y1233D01*
X1168Y1233D01*
X1168Y1253D01*
X1164Y1253D01*
X1164Y1255D01*
X1162Y1255D01*
X1162Y1257D01*
X1160Y1257D01*
X1160Y1259D01*
X1158Y1259D01*
X1158Y1261D01*
X1156Y1261D01*
X1156Y1263D01*
X1154Y1263D01*
X1154Y1265D01*
X1152Y1265D01*
X1152Y1267D01*
X1150Y1267D01*
X1150Y1271D01*
X1148Y1271D01*
X1148Y1275D01*
X1146Y1275D01*
X1146Y1279D01*
X1144Y1279D01*
X1144Y1287D01*
X1142Y1287D01*
X1142Y1299D01*
X1144Y1299D01*
X1144Y1305D01*
X1146Y1305D01*
X1146Y1311D01*
X1148Y1311D01*
X1148Y1313D01*
X1150Y1313D01*
X1150Y1317D01*
X1152Y1317D01*
X1152Y1319D01*
X1154Y1319D01*
X1154Y1323D01*
X1156Y1323D01*
X1156Y1325D01*
X1158Y1325D01*
X1158Y1327D01*
X1160Y1327D01*
X1160Y1329D01*
X1164Y1329D01*
X1164Y1331D01*
X1166Y1331D01*
X1166Y1333D01*
X1168Y1333D01*
X1168Y1353D01*
X1164Y1353D01*
X1164Y1355D01*
X1162Y1355D01*
X1162Y1357D01*
X1160Y1357D01*
X1160Y1359D01*
X1158Y1359D01*
X1158Y1361D01*
X1156Y1361D01*
X1156Y1363D01*
X1154Y1363D01*
X1154Y1365D01*
X1152Y1365D01*
X1152Y1367D01*
X1150Y1367D01*
X1150Y1371D01*
X1148Y1371D01*
X1148Y1375D01*
X1146Y1375D01*
X1146Y1379D01*
X1144Y1379D01*
X1144Y1387D01*
X1142Y1387D01*
X1142Y1399D01*
X1144Y1399D01*
X1144Y1405D01*
X1146Y1405D01*
X1146Y1411D01*
X1148Y1411D01*
X1148Y1413D01*
X1150Y1413D01*
X1150Y1417D01*
X1152Y1417D01*
X1152Y1419D01*
X1154Y1419D01*
X1154Y1423D01*
X1156Y1423D01*
X1156Y1425D01*
X1158Y1425D01*
X1158Y1427D01*
X1160Y1427D01*
X1160Y1429D01*
X1164Y1429D01*
X1164Y1431D01*
X1166Y1431D01*
X1166Y1433D01*
X1168Y1433D01*
X1168Y1453D01*
X1164Y1453D01*
X1164Y1455D01*
X1162Y1455D01*
X1162Y1457D01*
X1160Y1457D01*
X1160Y1459D01*
X1158Y1459D01*
X1158Y1461D01*
X1156Y1461D01*
X1156Y1463D01*
X1154Y1463D01*
X1154Y1465D01*
X1152Y1465D01*
X1152Y1467D01*
X1150Y1467D01*
X1150Y1471D01*
X1148Y1471D01*
X1148Y1475D01*
X1146Y1475D01*
X1146Y1479D01*
X1144Y1479D01*
X1144Y1487D01*
X1142Y1487D01*
X1142Y1499D01*
X1144Y1499D01*
X1144Y1505D01*
X1146Y1505D01*
X1146Y1511D01*
X1148Y1511D01*
X1148Y1513D01*
X1150Y1513D01*
X1150Y1517D01*
X1152Y1517D01*
X1152Y1519D01*
X1154Y1519D01*
X1154Y1523D01*
X1156Y1523D01*
X1156Y1525D01*
X1158Y1525D01*
X1158Y1527D01*
X1160Y1527D01*
X1160Y1529D01*
X1164Y1529D01*
X1164Y1531D01*
X1166Y1531D01*
X1166Y1533D01*
X1168Y1533D01*
X1168Y1553D01*
X1164Y1553D01*
X1164Y1555D01*
X1162Y1555D01*
X1162Y1557D01*
X1160Y1557D01*
X1160Y1559D01*
X1158Y1559D01*
X1158Y1561D01*
X1156Y1561D01*
X1156Y1563D01*
X1154Y1563D01*
X1154Y1565D01*
X1152Y1565D01*
X1152Y1567D01*
X1150Y1567D01*
X1150Y1571D01*
X1148Y1571D01*
X1148Y1575D01*
X1146Y1575D01*
X1146Y1579D01*
X1144Y1579D01*
X1144Y1587D01*
X1142Y1587D01*
X1142Y1599D01*
X1144Y1599D01*
X1144Y1605D01*
X1146Y1605D01*
X1146Y1611D01*
X1148Y1611D01*
X1148Y1613D01*
X1150Y1613D01*
X1150Y1617D01*
X1152Y1617D01*
X1152Y1619D01*
X1154Y1619D01*
X1154Y1623D01*
X1156Y1623D01*
X1156Y1625D01*
X1158Y1625D01*
X1158Y1627D01*
X1160Y1627D01*
X1160Y1629D01*
X1164Y1629D01*
X1164Y1631D01*
X1166Y1631D01*
X1166Y1633D01*
X1168Y1633D01*
X1168Y1653D01*
X1164Y1653D01*
X1164Y1655D01*
X1162Y1655D01*
X1162Y1657D01*
X1160Y1657D01*
X1160Y1659D01*
X1158Y1659D01*
X1158Y1661D01*
X1156Y1661D01*
X1156Y1663D01*
X1154Y1663D01*
X1154Y1665D01*
X1152Y1665D01*
X1152Y1667D01*
X1150Y1667D01*
X1150Y1671D01*
X1148Y1671D01*
X1148Y1675D01*
X1146Y1675D01*
X1146Y1679D01*
X1144Y1679D01*
X1144Y1687D01*
X1142Y1687D01*
X1142Y1699D01*
X1144Y1699D01*
X1144Y1705D01*
X1146Y1705D01*
X1146Y1711D01*
X1148Y1711D01*
X1148Y1713D01*
X1150Y1713D01*
X1150Y1717D01*
X1152Y1717D01*
X1152Y1719D01*
X1154Y1719D01*
X1154Y1723D01*
X1156Y1723D01*
X1156Y1725D01*
X1158Y1725D01*
X1158Y1727D01*
X1160Y1727D01*
X1160Y1729D01*
X1164Y1729D01*
X1164Y1731D01*
X1166Y1731D01*
X1166Y1733D01*
X1168Y1733D01*
X1168Y1753D01*
X1164Y1753D01*
X1164Y1755D01*
X1162Y1755D01*
X1162Y1757D01*
X1160Y1757D01*
X1160Y1759D01*
X1158Y1759D01*
X1158Y1761D01*
X1156Y1761D01*
X1156Y1763D01*
X1154Y1763D01*
X1154Y1765D01*
X1152Y1765D01*
X1152Y1767D01*
X1150Y1767D01*
X1150Y1771D01*
X1148Y1771D01*
X1148Y1775D01*
X1146Y1775D01*
X1146Y1779D01*
X1144Y1779D01*
X1144Y1787D01*
X1142Y1787D01*
X1142Y1799D01*
X1144Y1799D01*
X1144Y1805D01*
X1146Y1805D01*
X1146Y1811D01*
X1148Y1811D01*
X1148Y1813D01*
X1150Y1813D01*
X1150Y1817D01*
X1152Y1817D01*
X1152Y1819D01*
X1154Y1819D01*
X1154Y1823D01*
X1156Y1823D01*
X1156Y1825D01*
X1158Y1825D01*
X1158Y1827D01*
X1160Y1827D01*
X1160Y1829D01*
X1164Y1829D01*
X1164Y1831D01*
X1166Y1831D01*
X1166Y1833D01*
X1170Y1833D01*
X1170Y1835D01*
X1172Y1835D01*
X1172Y1837D01*
X1178Y1837D01*
X1178Y1839D01*
X638Y1839D01*
G37*
D02*
G36*
X1906Y1835D02*
X1906Y1833D01*
X1902Y1833D01*
X1902Y1831D01*
X1894Y1831D01*
X1894Y1829D01*
X1928Y1829D01*
X1928Y1835D01*
X1906Y1835D01*
G37*
D02*
G36*
X40Y1829D02*
X40Y1827D01*
X542Y1827D01*
X542Y1829D01*
X40Y1829D01*
G37*
D02*
G36*
X40Y1829D02*
X40Y1827D01*
X542Y1827D01*
X542Y1829D01*
X40Y1829D01*
G37*
D02*
G36*
X1220Y1829D02*
X1220Y1827D01*
X1928Y1827D01*
X1928Y1829D01*
X1220Y1829D01*
G37*
D02*
G36*
X1220Y1829D02*
X1220Y1827D01*
X1928Y1827D01*
X1928Y1829D01*
X1220Y1829D01*
G37*
D02*
G36*
X40Y1827D02*
X40Y1795D01*
X488Y1795D01*
X488Y1793D01*
X494Y1793D01*
X494Y1791D01*
X498Y1791D01*
X498Y1789D01*
X502Y1789D01*
X502Y1787D01*
X506Y1787D01*
X506Y1785D01*
X508Y1785D01*
X508Y1783D01*
X510Y1783D01*
X510Y1781D01*
X512Y1781D01*
X512Y1779D01*
X514Y1779D01*
X514Y1777D01*
X516Y1777D01*
X516Y1775D01*
X518Y1775D01*
X518Y1771D01*
X520Y1771D01*
X520Y1769D01*
X522Y1769D01*
X522Y1765D01*
X542Y1765D01*
X542Y1827D01*
X40Y1827D01*
G37*
D02*
G36*
X1222Y1827D02*
X1222Y1825D01*
X1224Y1825D01*
X1224Y1823D01*
X1226Y1823D01*
X1226Y1819D01*
X1228Y1819D01*
X1228Y1817D01*
X1230Y1817D01*
X1230Y1813D01*
X1232Y1813D01*
X1232Y1811D01*
X1234Y1811D01*
X1234Y1805D01*
X1236Y1805D01*
X1236Y1797D01*
X1238Y1797D01*
X1238Y1787D01*
X1236Y1787D01*
X1236Y1779D01*
X1234Y1779D01*
X1234Y1775D01*
X1232Y1775D01*
X1232Y1771D01*
X1230Y1771D01*
X1230Y1767D01*
X1228Y1767D01*
X1228Y1765D01*
X1226Y1765D01*
X1226Y1763D01*
X1224Y1763D01*
X1224Y1761D01*
X1222Y1761D01*
X1222Y1759D01*
X1220Y1759D01*
X1220Y1757D01*
X1218Y1757D01*
X1218Y1755D01*
X1216Y1755D01*
X1216Y1753D01*
X1212Y1753D01*
X1212Y1733D01*
X1214Y1733D01*
X1214Y1731D01*
X1216Y1731D01*
X1216Y1729D01*
X1220Y1729D01*
X1220Y1727D01*
X1222Y1727D01*
X1222Y1725D01*
X1224Y1725D01*
X1224Y1723D01*
X1226Y1723D01*
X1226Y1719D01*
X1228Y1719D01*
X1228Y1717D01*
X1230Y1717D01*
X1230Y1713D01*
X1232Y1713D01*
X1232Y1711D01*
X1234Y1711D01*
X1234Y1705D01*
X1236Y1705D01*
X1236Y1697D01*
X1238Y1697D01*
X1238Y1687D01*
X1236Y1687D01*
X1236Y1679D01*
X1234Y1679D01*
X1234Y1675D01*
X1232Y1675D01*
X1232Y1671D01*
X1230Y1671D01*
X1230Y1667D01*
X1228Y1667D01*
X1228Y1665D01*
X1226Y1665D01*
X1226Y1663D01*
X1224Y1663D01*
X1224Y1661D01*
X1222Y1661D01*
X1222Y1659D01*
X1220Y1659D01*
X1220Y1657D01*
X1218Y1657D01*
X1218Y1655D01*
X1216Y1655D01*
X1216Y1653D01*
X1212Y1653D01*
X1212Y1641D01*
X1490Y1641D01*
X1490Y1643D01*
X1484Y1643D01*
X1484Y1645D01*
X1478Y1645D01*
X1478Y1647D01*
X1474Y1647D01*
X1474Y1649D01*
X1472Y1649D01*
X1472Y1651D01*
X1470Y1651D01*
X1470Y1653D01*
X1468Y1653D01*
X1468Y1655D01*
X1466Y1655D01*
X1466Y1657D01*
X1464Y1657D01*
X1464Y1659D01*
X1462Y1659D01*
X1462Y1661D01*
X1460Y1661D01*
X1460Y1663D01*
X1458Y1663D01*
X1458Y1667D01*
X1456Y1667D01*
X1456Y1671D01*
X1454Y1671D01*
X1454Y1679D01*
X1452Y1679D01*
X1452Y1689D01*
X1454Y1689D01*
X1454Y1697D01*
X1456Y1697D01*
X1456Y1701D01*
X1458Y1701D01*
X1458Y1705D01*
X1460Y1705D01*
X1460Y1707D01*
X1462Y1707D01*
X1462Y1709D01*
X1464Y1709D01*
X1464Y1713D01*
X1466Y1713D01*
X1466Y1715D01*
X1470Y1715D01*
X1470Y1717D01*
X1472Y1717D01*
X1472Y1719D01*
X1474Y1719D01*
X1474Y1721D01*
X1478Y1721D01*
X1478Y1741D01*
X1452Y1741D01*
X1452Y1827D01*
X1222Y1827D01*
G37*
D02*
G36*
X1538Y1827D02*
X1538Y1825D01*
X1780Y1825D01*
X1780Y1823D01*
X1786Y1823D01*
X1786Y1821D01*
X1790Y1821D01*
X1790Y1819D01*
X1794Y1819D01*
X1794Y1817D01*
X1796Y1817D01*
X1796Y1815D01*
X1800Y1815D01*
X1800Y1813D01*
X1802Y1813D01*
X1802Y1811D01*
X1804Y1811D01*
X1804Y1809D01*
X1806Y1809D01*
X1806Y1807D01*
X1808Y1807D01*
X1808Y1805D01*
X1810Y1805D01*
X1810Y1803D01*
X1812Y1803D01*
X1812Y1799D01*
X1814Y1799D01*
X1814Y1795D01*
X1816Y1795D01*
X1816Y1791D01*
X1818Y1791D01*
X1818Y1785D01*
X1820Y1785D01*
X1820Y1765D01*
X1818Y1765D01*
X1818Y1759D01*
X1816Y1759D01*
X1816Y1755D01*
X1814Y1755D01*
X1814Y1751D01*
X1812Y1751D01*
X1812Y1747D01*
X1810Y1747D01*
X1810Y1745D01*
X1808Y1745D01*
X1808Y1725D01*
X1820Y1725D01*
X1820Y1625D01*
X1928Y1625D01*
X1928Y1827D01*
X1538Y1827D01*
G37*
D02*
G36*
X1538Y1825D02*
X1538Y1743D01*
X1536Y1743D01*
X1536Y1741D01*
X1512Y1741D01*
X1512Y1721D01*
X1516Y1721D01*
X1516Y1719D01*
X1518Y1719D01*
X1518Y1717D01*
X1520Y1717D01*
X1520Y1715D01*
X1522Y1715D01*
X1522Y1713D01*
X1524Y1713D01*
X1524Y1711D01*
X1526Y1711D01*
X1526Y1709D01*
X1528Y1709D01*
X1528Y1707D01*
X1530Y1707D01*
X1530Y1705D01*
X1532Y1705D01*
X1532Y1701D01*
X1534Y1701D01*
X1534Y1695D01*
X1536Y1695D01*
X1536Y1689D01*
X1538Y1689D01*
X1538Y1679D01*
X1536Y1679D01*
X1536Y1673D01*
X1534Y1673D01*
X1534Y1667D01*
X1532Y1667D01*
X1532Y1665D01*
X1530Y1665D01*
X1530Y1661D01*
X1528Y1661D01*
X1528Y1659D01*
X1526Y1659D01*
X1526Y1657D01*
X1524Y1657D01*
X1524Y1655D01*
X1522Y1655D01*
X1522Y1653D01*
X1520Y1653D01*
X1520Y1651D01*
X1518Y1651D01*
X1518Y1649D01*
X1514Y1649D01*
X1514Y1647D01*
X1512Y1647D01*
X1512Y1645D01*
X1506Y1645D01*
X1506Y1643D01*
X1500Y1643D01*
X1500Y1641D01*
X1720Y1641D01*
X1720Y1725D01*
X1734Y1725D01*
X1734Y1745D01*
X1732Y1745D01*
X1732Y1747D01*
X1730Y1747D01*
X1730Y1749D01*
X1728Y1749D01*
X1728Y1753D01*
X1726Y1753D01*
X1726Y1757D01*
X1724Y1757D01*
X1724Y1761D01*
X1722Y1761D01*
X1722Y1769D01*
X1720Y1769D01*
X1720Y1781D01*
X1722Y1781D01*
X1722Y1789D01*
X1724Y1789D01*
X1724Y1793D01*
X1726Y1793D01*
X1726Y1797D01*
X1728Y1797D01*
X1728Y1801D01*
X1730Y1801D01*
X1730Y1803D01*
X1732Y1803D01*
X1732Y1805D01*
X1734Y1805D01*
X1734Y1807D01*
X1736Y1807D01*
X1736Y1809D01*
X1738Y1809D01*
X1738Y1811D01*
X1740Y1811D01*
X1740Y1813D01*
X1742Y1813D01*
X1742Y1815D01*
X1744Y1815D01*
X1744Y1817D01*
X1748Y1817D01*
X1748Y1819D01*
X1752Y1819D01*
X1752Y1821D01*
X1756Y1821D01*
X1756Y1823D01*
X1762Y1823D01*
X1762Y1825D01*
X1538Y1825D01*
G37*
D02*
G36*
X40Y1795D02*
X40Y1789D01*
X60Y1789D01*
X60Y1791D01*
X64Y1791D01*
X64Y1793D01*
X70Y1793D01*
X70Y1795D01*
X40Y1795D01*
G37*
D02*
G36*
X88Y1795D02*
X88Y1793D01*
X94Y1793D01*
X94Y1791D01*
X98Y1791D01*
X98Y1789D01*
X102Y1789D01*
X102Y1787D01*
X106Y1787D01*
X106Y1785D01*
X108Y1785D01*
X108Y1783D01*
X110Y1783D01*
X110Y1781D01*
X112Y1781D01*
X112Y1779D01*
X114Y1779D01*
X114Y1777D01*
X116Y1777D01*
X116Y1775D01*
X118Y1775D01*
X118Y1771D01*
X120Y1771D01*
X120Y1769D01*
X122Y1769D01*
X122Y1765D01*
X124Y1765D01*
X124Y1759D01*
X126Y1759D01*
X126Y1737D01*
X124Y1737D01*
X124Y1731D01*
X122Y1731D01*
X122Y1727D01*
X120Y1727D01*
X120Y1723D01*
X118Y1723D01*
X118Y1721D01*
X116Y1721D01*
X116Y1719D01*
X114Y1719D01*
X114Y1717D01*
X112Y1717D01*
X112Y1715D01*
X110Y1715D01*
X110Y1713D01*
X108Y1713D01*
X108Y1711D01*
X106Y1711D01*
X106Y1709D01*
X102Y1709D01*
X102Y1707D01*
X100Y1707D01*
X100Y1705D01*
X96Y1705D01*
X96Y1703D01*
X90Y1703D01*
X90Y1701D01*
X422Y1701D01*
X422Y1703D01*
X424Y1703D01*
X424Y1705D01*
X426Y1705D01*
X426Y1709D01*
X428Y1709D01*
X428Y1711D01*
X430Y1711D01*
X430Y1715D01*
X432Y1715D01*
X432Y1717D01*
X434Y1717D01*
X434Y1739D01*
X432Y1739D01*
X432Y1757D01*
X434Y1757D01*
X434Y1763D01*
X436Y1763D01*
X436Y1767D01*
X438Y1767D01*
X438Y1771D01*
X440Y1771D01*
X440Y1773D01*
X442Y1773D01*
X442Y1775D01*
X444Y1775D01*
X444Y1779D01*
X446Y1779D01*
X446Y1781D01*
X448Y1781D01*
X448Y1783D01*
X452Y1783D01*
X452Y1785D01*
X454Y1785D01*
X454Y1787D01*
X456Y1787D01*
X456Y1789D01*
X460Y1789D01*
X460Y1791D01*
X464Y1791D01*
X464Y1793D01*
X470Y1793D01*
X470Y1795D01*
X88Y1795D01*
G37*
D02*
G36*
X40Y1707D02*
X40Y1701D01*
X68Y1701D01*
X68Y1703D01*
X64Y1703D01*
X64Y1705D01*
X60Y1705D01*
X60Y1707D01*
X40Y1707D01*
G37*
D02*
G36*
X40Y1701D02*
X40Y1699D01*
X422Y1699D01*
X422Y1701D01*
X40Y1701D01*
G37*
D02*
G36*
X40Y1701D02*
X40Y1699D01*
X422Y1699D01*
X422Y1701D01*
X40Y1701D01*
G37*
D02*
G36*
X40Y1699D02*
X40Y1653D01*
X290Y1653D01*
X290Y1651D01*
X298Y1651D01*
X298Y1649D01*
X302Y1649D01*
X302Y1647D01*
X306Y1647D01*
X306Y1645D01*
X308Y1645D01*
X308Y1643D01*
X330Y1643D01*
X330Y1653D01*
X390Y1653D01*
X390Y1655D01*
X392Y1655D01*
X392Y1659D01*
X394Y1659D01*
X394Y1661D01*
X396Y1661D01*
X396Y1665D01*
X398Y1665D01*
X398Y1667D01*
X400Y1667D01*
X400Y1671D01*
X402Y1671D01*
X402Y1673D01*
X404Y1673D01*
X404Y1677D01*
X406Y1677D01*
X406Y1679D01*
X408Y1679D01*
X408Y1681D01*
X410Y1681D01*
X410Y1685D01*
X412Y1685D01*
X412Y1687D01*
X414Y1687D01*
X414Y1691D01*
X416Y1691D01*
X416Y1693D01*
X418Y1693D01*
X418Y1697D01*
X420Y1697D01*
X420Y1699D01*
X40Y1699D01*
G37*
D02*
G36*
X40Y1653D02*
X40Y1551D01*
X174Y1551D01*
X174Y1553D01*
X166Y1553D01*
X166Y1555D01*
X162Y1555D01*
X162Y1557D01*
X158Y1557D01*
X158Y1559D01*
X156Y1559D01*
X156Y1561D01*
X152Y1561D01*
X152Y1563D01*
X150Y1563D01*
X150Y1565D01*
X148Y1565D01*
X148Y1567D01*
X146Y1567D01*
X146Y1569D01*
X144Y1569D01*
X144Y1571D01*
X142Y1571D01*
X142Y1573D01*
X140Y1573D01*
X140Y1577D01*
X138Y1577D01*
X138Y1581D01*
X136Y1581D01*
X136Y1585D01*
X134Y1585D01*
X134Y1589D01*
X132Y1589D01*
X132Y1601D01*
X130Y1601D01*
X130Y1603D01*
X132Y1603D01*
X132Y1615D01*
X134Y1615D01*
X134Y1619D01*
X136Y1619D01*
X136Y1623D01*
X138Y1623D01*
X138Y1627D01*
X140Y1627D01*
X140Y1629D01*
X142Y1629D01*
X142Y1633D01*
X144Y1633D01*
X144Y1635D01*
X146Y1635D01*
X146Y1637D01*
X148Y1637D01*
X148Y1639D01*
X150Y1639D01*
X150Y1641D01*
X152Y1641D01*
X152Y1643D01*
X156Y1643D01*
X156Y1645D01*
X158Y1645D01*
X158Y1647D01*
X162Y1647D01*
X162Y1649D01*
X166Y1649D01*
X166Y1651D01*
X174Y1651D01*
X174Y1653D01*
X40Y1653D01*
G37*
D02*
G36*
X190Y1653D02*
X190Y1651D01*
X198Y1651D01*
X198Y1649D01*
X202Y1649D01*
X202Y1647D01*
X206Y1647D01*
X206Y1645D01*
X208Y1645D01*
X208Y1643D01*
X212Y1643D01*
X212Y1641D01*
X214Y1641D01*
X214Y1639D01*
X216Y1639D01*
X216Y1637D01*
X218Y1637D01*
X218Y1635D01*
X220Y1635D01*
X220Y1633D01*
X222Y1633D01*
X222Y1629D01*
X242Y1629D01*
X242Y1633D01*
X244Y1633D01*
X244Y1635D01*
X246Y1635D01*
X246Y1637D01*
X248Y1637D01*
X248Y1639D01*
X250Y1639D01*
X250Y1641D01*
X252Y1641D01*
X252Y1643D01*
X256Y1643D01*
X256Y1645D01*
X258Y1645D01*
X258Y1647D01*
X262Y1647D01*
X262Y1649D01*
X266Y1649D01*
X266Y1651D01*
X274Y1651D01*
X274Y1653D01*
X190Y1653D01*
G37*
D02*
G36*
X1212Y1641D02*
X1212Y1639D01*
X1720Y1639D01*
X1720Y1641D01*
X1212Y1641D01*
G37*
D02*
G36*
X1212Y1641D02*
X1212Y1639D01*
X1720Y1639D01*
X1720Y1641D01*
X1212Y1641D01*
G37*
D02*
G36*
X1212Y1639D02*
X1212Y1633D01*
X1214Y1633D01*
X1214Y1631D01*
X1216Y1631D01*
X1216Y1629D01*
X1220Y1629D01*
X1220Y1627D01*
X1222Y1627D01*
X1222Y1625D01*
X1720Y1625D01*
X1720Y1639D01*
X1212Y1639D01*
G37*
D02*
G36*
X1224Y1625D02*
X1224Y1623D01*
X1928Y1623D01*
X1928Y1625D01*
X1224Y1625D01*
G37*
D02*
G36*
X1224Y1625D02*
X1224Y1623D01*
X1928Y1623D01*
X1928Y1625D01*
X1224Y1625D01*
G37*
D02*
G36*
X1226Y1623D02*
X1226Y1619D01*
X1228Y1619D01*
X1228Y1617D01*
X1230Y1617D01*
X1230Y1613D01*
X1232Y1613D01*
X1232Y1611D01*
X1234Y1611D01*
X1234Y1605D01*
X1236Y1605D01*
X1236Y1597D01*
X1238Y1597D01*
X1238Y1587D01*
X1236Y1587D01*
X1236Y1579D01*
X1234Y1579D01*
X1234Y1575D01*
X1232Y1575D01*
X1232Y1571D01*
X1230Y1571D01*
X1230Y1567D01*
X1228Y1567D01*
X1228Y1565D01*
X1226Y1565D01*
X1226Y1563D01*
X1224Y1563D01*
X1224Y1561D01*
X1222Y1561D01*
X1222Y1559D01*
X1220Y1559D01*
X1220Y1557D01*
X1218Y1557D01*
X1218Y1555D01*
X1216Y1555D01*
X1216Y1553D01*
X1212Y1553D01*
X1212Y1541D01*
X1786Y1541D01*
X1786Y1539D01*
X1792Y1539D01*
X1792Y1537D01*
X1796Y1537D01*
X1796Y1535D01*
X1800Y1535D01*
X1800Y1533D01*
X1802Y1533D01*
X1802Y1531D01*
X1804Y1531D01*
X1804Y1529D01*
X1808Y1529D01*
X1808Y1527D01*
X1810Y1527D01*
X1810Y1525D01*
X1812Y1525D01*
X1812Y1521D01*
X1814Y1521D01*
X1814Y1519D01*
X1816Y1519D01*
X1816Y1517D01*
X1818Y1517D01*
X1818Y1513D01*
X1820Y1513D01*
X1820Y1509D01*
X1822Y1509D01*
X1822Y1503D01*
X1824Y1503D01*
X1824Y1479D01*
X1822Y1479D01*
X1822Y1475D01*
X1820Y1475D01*
X1820Y1471D01*
X1818Y1471D01*
X1818Y1467D01*
X1816Y1467D01*
X1816Y1465D01*
X1814Y1465D01*
X1814Y1461D01*
X1812Y1461D01*
X1812Y1459D01*
X1810Y1459D01*
X1810Y1457D01*
X1808Y1457D01*
X1808Y1455D01*
X1806Y1455D01*
X1806Y1453D01*
X1802Y1453D01*
X1802Y1431D01*
X1804Y1431D01*
X1804Y1429D01*
X1808Y1429D01*
X1808Y1427D01*
X1810Y1427D01*
X1810Y1425D01*
X1812Y1425D01*
X1812Y1421D01*
X1814Y1421D01*
X1814Y1419D01*
X1816Y1419D01*
X1816Y1417D01*
X1818Y1417D01*
X1818Y1413D01*
X1820Y1413D01*
X1820Y1409D01*
X1822Y1409D01*
X1822Y1403D01*
X1824Y1403D01*
X1824Y1379D01*
X1822Y1379D01*
X1822Y1375D01*
X1820Y1375D01*
X1820Y1371D01*
X1818Y1371D01*
X1818Y1367D01*
X1816Y1367D01*
X1816Y1365D01*
X1814Y1365D01*
X1814Y1361D01*
X1812Y1361D01*
X1812Y1359D01*
X1810Y1359D01*
X1810Y1357D01*
X1808Y1357D01*
X1808Y1355D01*
X1806Y1355D01*
X1806Y1353D01*
X1802Y1353D01*
X1802Y1331D01*
X1804Y1331D01*
X1804Y1329D01*
X1808Y1329D01*
X1808Y1327D01*
X1810Y1327D01*
X1810Y1325D01*
X1812Y1325D01*
X1812Y1321D01*
X1814Y1321D01*
X1814Y1319D01*
X1816Y1319D01*
X1816Y1317D01*
X1818Y1317D01*
X1818Y1313D01*
X1820Y1313D01*
X1820Y1309D01*
X1822Y1309D01*
X1822Y1303D01*
X1824Y1303D01*
X1824Y1279D01*
X1822Y1279D01*
X1822Y1275D01*
X1820Y1275D01*
X1820Y1271D01*
X1818Y1271D01*
X1818Y1267D01*
X1816Y1267D01*
X1816Y1265D01*
X1814Y1265D01*
X1814Y1261D01*
X1812Y1261D01*
X1812Y1259D01*
X1810Y1259D01*
X1810Y1257D01*
X1808Y1257D01*
X1808Y1255D01*
X1806Y1255D01*
X1806Y1253D01*
X1802Y1253D01*
X1802Y1231D01*
X1804Y1231D01*
X1804Y1229D01*
X1808Y1229D01*
X1808Y1227D01*
X1810Y1227D01*
X1810Y1225D01*
X1812Y1225D01*
X1812Y1221D01*
X1814Y1221D01*
X1814Y1219D01*
X1816Y1219D01*
X1816Y1217D01*
X1818Y1217D01*
X1818Y1213D01*
X1820Y1213D01*
X1820Y1209D01*
X1822Y1209D01*
X1822Y1203D01*
X1824Y1203D01*
X1824Y1179D01*
X1822Y1179D01*
X1822Y1175D01*
X1820Y1175D01*
X1820Y1171D01*
X1818Y1171D01*
X1818Y1167D01*
X1816Y1167D01*
X1816Y1165D01*
X1814Y1165D01*
X1814Y1161D01*
X1812Y1161D01*
X1812Y1159D01*
X1810Y1159D01*
X1810Y1157D01*
X1808Y1157D01*
X1808Y1155D01*
X1806Y1155D01*
X1806Y1153D01*
X1802Y1153D01*
X1802Y1131D01*
X1804Y1131D01*
X1804Y1129D01*
X1808Y1129D01*
X1808Y1127D01*
X1810Y1127D01*
X1810Y1125D01*
X1812Y1125D01*
X1812Y1121D01*
X1814Y1121D01*
X1814Y1119D01*
X1816Y1119D01*
X1816Y1117D01*
X1818Y1117D01*
X1818Y1113D01*
X1820Y1113D01*
X1820Y1109D01*
X1822Y1109D01*
X1822Y1103D01*
X1824Y1103D01*
X1824Y1079D01*
X1822Y1079D01*
X1822Y1075D01*
X1820Y1075D01*
X1820Y1071D01*
X1818Y1071D01*
X1818Y1067D01*
X1816Y1067D01*
X1816Y1065D01*
X1814Y1065D01*
X1814Y1061D01*
X1812Y1061D01*
X1812Y1059D01*
X1810Y1059D01*
X1810Y1057D01*
X1808Y1057D01*
X1808Y1055D01*
X1806Y1055D01*
X1806Y1053D01*
X1802Y1053D01*
X1802Y1031D01*
X1804Y1031D01*
X1804Y1029D01*
X1808Y1029D01*
X1808Y1027D01*
X1810Y1027D01*
X1810Y1025D01*
X1812Y1025D01*
X1812Y1021D01*
X1814Y1021D01*
X1814Y1019D01*
X1816Y1019D01*
X1816Y1017D01*
X1818Y1017D01*
X1818Y1013D01*
X1820Y1013D01*
X1820Y1009D01*
X1822Y1009D01*
X1822Y1003D01*
X1824Y1003D01*
X1824Y979D01*
X1822Y979D01*
X1822Y975D01*
X1820Y975D01*
X1820Y971D01*
X1818Y971D01*
X1818Y967D01*
X1816Y967D01*
X1816Y965D01*
X1814Y965D01*
X1814Y961D01*
X1812Y961D01*
X1812Y959D01*
X1810Y959D01*
X1810Y957D01*
X1808Y957D01*
X1808Y955D01*
X1806Y955D01*
X1806Y953D01*
X1802Y953D01*
X1802Y931D01*
X1804Y931D01*
X1804Y929D01*
X1808Y929D01*
X1808Y927D01*
X1810Y927D01*
X1810Y925D01*
X1812Y925D01*
X1812Y921D01*
X1814Y921D01*
X1814Y919D01*
X1816Y919D01*
X1816Y917D01*
X1818Y917D01*
X1818Y913D01*
X1820Y913D01*
X1820Y909D01*
X1822Y909D01*
X1822Y903D01*
X1824Y903D01*
X1824Y879D01*
X1822Y879D01*
X1822Y875D01*
X1820Y875D01*
X1820Y871D01*
X1818Y871D01*
X1818Y867D01*
X1816Y867D01*
X1816Y865D01*
X1814Y865D01*
X1814Y861D01*
X1812Y861D01*
X1812Y841D01*
X1824Y841D01*
X1824Y741D01*
X1746Y741D01*
X1746Y721D01*
X1764Y721D01*
X1764Y719D01*
X1780Y719D01*
X1780Y717D01*
X1798Y717D01*
X1798Y715D01*
X1814Y715D01*
X1814Y713D01*
X1832Y713D01*
X1832Y711D01*
X1850Y711D01*
X1850Y709D01*
X1860Y709D01*
X1860Y707D01*
X1864Y707D01*
X1864Y705D01*
X1866Y705D01*
X1866Y703D01*
X1868Y703D01*
X1868Y701D01*
X1872Y701D01*
X1872Y699D01*
X1874Y699D01*
X1874Y697D01*
X1876Y697D01*
X1876Y695D01*
X1878Y695D01*
X1878Y693D01*
X1880Y693D01*
X1880Y691D01*
X1882Y691D01*
X1882Y689D01*
X1886Y689D01*
X1886Y687D01*
X1888Y687D01*
X1888Y685D01*
X1890Y685D01*
X1890Y683D01*
X1892Y683D01*
X1892Y681D01*
X1894Y681D01*
X1894Y679D01*
X1896Y679D01*
X1896Y677D01*
X1900Y677D01*
X1900Y675D01*
X1902Y675D01*
X1902Y673D01*
X1904Y673D01*
X1904Y671D01*
X1906Y671D01*
X1906Y669D01*
X1908Y669D01*
X1908Y667D01*
X1928Y667D01*
X1928Y1623D01*
X1226Y1623D01*
G37*
D02*
G36*
X222Y1573D02*
X222Y1571D01*
X220Y1571D01*
X220Y1569D01*
X218Y1569D01*
X218Y1567D01*
X216Y1567D01*
X216Y1565D01*
X214Y1565D01*
X214Y1563D01*
X212Y1563D01*
X212Y1561D01*
X208Y1561D01*
X208Y1559D01*
X206Y1559D01*
X206Y1557D01*
X202Y1557D01*
X202Y1555D01*
X198Y1555D01*
X198Y1553D01*
X190Y1553D01*
X190Y1551D01*
X258Y1551D01*
X258Y1559D01*
X256Y1559D01*
X256Y1561D01*
X252Y1561D01*
X252Y1563D01*
X250Y1563D01*
X250Y1565D01*
X248Y1565D01*
X248Y1567D01*
X246Y1567D01*
X246Y1569D01*
X244Y1569D01*
X244Y1571D01*
X242Y1571D01*
X242Y1573D01*
X222Y1573D01*
G37*
D02*
G36*
X40Y1551D02*
X40Y1549D01*
X258Y1549D01*
X258Y1551D01*
X40Y1551D01*
G37*
D02*
G36*
X40Y1551D02*
X40Y1549D01*
X258Y1549D01*
X258Y1551D01*
X40Y1551D01*
G37*
D02*
G36*
X40Y1549D02*
X40Y1387D01*
X264Y1387D01*
X264Y1271D01*
X318Y1271D01*
X318Y1273D01*
X320Y1273D01*
X320Y1277D01*
X322Y1277D01*
X322Y1279D01*
X324Y1279D01*
X324Y1283D01*
X326Y1283D01*
X326Y1285D01*
X328Y1285D01*
X328Y1287D01*
X330Y1287D01*
X330Y1291D01*
X332Y1291D01*
X332Y1293D01*
X334Y1293D01*
X334Y1297D01*
X336Y1297D01*
X336Y1299D01*
X338Y1299D01*
X338Y1301D01*
X340Y1301D01*
X340Y1305D01*
X342Y1305D01*
X342Y1307D01*
X344Y1307D01*
X344Y1309D01*
X346Y1309D01*
X346Y1313D01*
X348Y1313D01*
X348Y1315D01*
X350Y1315D01*
X350Y1319D01*
X352Y1319D01*
X352Y1349D01*
X350Y1349D01*
X350Y1367D01*
X348Y1367D01*
X348Y1387D01*
X346Y1387D01*
X346Y1407D01*
X344Y1407D01*
X344Y1417D01*
X342Y1417D01*
X342Y1419D01*
X340Y1419D01*
X340Y1421D01*
X338Y1421D01*
X338Y1423D01*
X334Y1423D01*
X334Y1425D01*
X332Y1425D01*
X332Y1427D01*
X330Y1427D01*
X330Y1429D01*
X328Y1429D01*
X328Y1431D01*
X324Y1431D01*
X324Y1433D01*
X322Y1433D01*
X322Y1435D01*
X320Y1435D01*
X320Y1437D01*
X318Y1437D01*
X318Y1439D01*
X316Y1439D01*
X316Y1441D01*
X312Y1441D01*
X312Y1443D01*
X310Y1443D01*
X310Y1445D01*
X308Y1445D01*
X308Y1447D01*
X306Y1447D01*
X306Y1449D01*
X304Y1449D01*
X304Y1451D01*
X300Y1451D01*
X300Y1453D01*
X298Y1453D01*
X298Y1455D01*
X296Y1455D01*
X296Y1457D01*
X294Y1457D01*
X294Y1459D01*
X290Y1459D01*
X290Y1461D01*
X288Y1461D01*
X288Y1463D01*
X286Y1463D01*
X286Y1465D01*
X284Y1465D01*
X284Y1467D01*
X282Y1467D01*
X282Y1469D01*
X280Y1469D01*
X280Y1471D01*
X278Y1471D01*
X278Y1473D01*
X276Y1473D01*
X276Y1477D01*
X274Y1477D01*
X274Y1481D01*
X272Y1481D01*
X272Y1491D01*
X270Y1491D01*
X270Y1499D01*
X268Y1499D01*
X268Y1509D01*
X266Y1509D01*
X266Y1519D01*
X264Y1519D01*
X264Y1527D01*
X262Y1527D01*
X262Y1537D01*
X260Y1537D01*
X260Y1547D01*
X258Y1547D01*
X258Y1549D01*
X40Y1549D01*
G37*
D02*
G36*
X1212Y1541D02*
X1212Y1533D01*
X1214Y1533D01*
X1214Y1531D01*
X1216Y1531D01*
X1216Y1529D01*
X1220Y1529D01*
X1220Y1527D01*
X1222Y1527D01*
X1222Y1525D01*
X1224Y1525D01*
X1224Y1523D01*
X1226Y1523D01*
X1226Y1519D01*
X1228Y1519D01*
X1228Y1517D01*
X1230Y1517D01*
X1230Y1513D01*
X1232Y1513D01*
X1232Y1511D01*
X1234Y1511D01*
X1234Y1505D01*
X1236Y1505D01*
X1236Y1497D01*
X1238Y1497D01*
X1238Y1493D01*
X1240Y1493D01*
X1240Y1491D01*
X1244Y1491D01*
X1244Y1489D01*
X1248Y1489D01*
X1248Y1487D01*
X1252Y1487D01*
X1252Y1485D01*
X1256Y1485D01*
X1256Y1483D01*
X1260Y1483D01*
X1260Y1481D01*
X1264Y1481D01*
X1264Y1479D01*
X1268Y1479D01*
X1268Y1477D01*
X1272Y1477D01*
X1272Y1475D01*
X1276Y1475D01*
X1276Y1473D01*
X1280Y1473D01*
X1280Y1471D01*
X1284Y1471D01*
X1284Y1469D01*
X1288Y1469D01*
X1288Y1467D01*
X1292Y1467D01*
X1292Y1465D01*
X1294Y1465D01*
X1294Y1463D01*
X1298Y1463D01*
X1298Y1461D01*
X1302Y1461D01*
X1302Y1459D01*
X1306Y1459D01*
X1306Y1457D01*
X1310Y1457D01*
X1310Y1455D01*
X1314Y1455D01*
X1314Y1453D01*
X1318Y1453D01*
X1318Y1451D01*
X1322Y1451D01*
X1322Y1449D01*
X1326Y1449D01*
X1326Y1447D01*
X1330Y1447D01*
X1330Y1445D01*
X1334Y1445D01*
X1334Y1443D01*
X1338Y1443D01*
X1338Y1441D01*
X1342Y1441D01*
X1342Y1439D01*
X1346Y1439D01*
X1346Y1437D01*
X1350Y1437D01*
X1350Y1435D01*
X1582Y1435D01*
X1582Y1433D01*
X1590Y1433D01*
X1590Y1431D01*
X1596Y1431D01*
X1596Y1429D01*
X1600Y1429D01*
X1600Y1427D01*
X1602Y1427D01*
X1602Y1425D01*
X1606Y1425D01*
X1606Y1423D01*
X1608Y1423D01*
X1608Y1421D01*
X1610Y1421D01*
X1610Y1419D01*
X1612Y1419D01*
X1612Y1417D01*
X1614Y1417D01*
X1614Y1415D01*
X1616Y1415D01*
X1616Y1411D01*
X1700Y1411D01*
X1700Y1413D01*
X1732Y1413D01*
X1732Y1417D01*
X1734Y1417D01*
X1734Y1419D01*
X1736Y1419D01*
X1736Y1421D01*
X1738Y1421D01*
X1738Y1425D01*
X1740Y1425D01*
X1740Y1427D01*
X1742Y1427D01*
X1742Y1429D01*
X1746Y1429D01*
X1746Y1431D01*
X1748Y1431D01*
X1748Y1453D01*
X1744Y1453D01*
X1744Y1455D01*
X1742Y1455D01*
X1742Y1457D01*
X1740Y1457D01*
X1740Y1459D01*
X1738Y1459D01*
X1738Y1461D01*
X1736Y1461D01*
X1736Y1465D01*
X1734Y1465D01*
X1734Y1467D01*
X1732Y1467D01*
X1732Y1471D01*
X1730Y1471D01*
X1730Y1475D01*
X1728Y1475D01*
X1728Y1479D01*
X1726Y1479D01*
X1726Y1491D01*
X1724Y1491D01*
X1724Y1493D01*
X1726Y1493D01*
X1726Y1505D01*
X1728Y1505D01*
X1728Y1509D01*
X1730Y1509D01*
X1730Y1513D01*
X1732Y1513D01*
X1732Y1517D01*
X1734Y1517D01*
X1734Y1519D01*
X1736Y1519D01*
X1736Y1521D01*
X1738Y1521D01*
X1738Y1525D01*
X1740Y1525D01*
X1740Y1527D01*
X1742Y1527D01*
X1742Y1529D01*
X1746Y1529D01*
X1746Y1531D01*
X1748Y1531D01*
X1748Y1533D01*
X1750Y1533D01*
X1750Y1535D01*
X1754Y1535D01*
X1754Y1537D01*
X1758Y1537D01*
X1758Y1539D01*
X1764Y1539D01*
X1764Y1541D01*
X1212Y1541D01*
G37*
D02*
G36*
X1354Y1435D02*
X1354Y1433D01*
X1358Y1433D01*
X1358Y1431D01*
X1386Y1431D01*
X1386Y1433D01*
X1394Y1433D01*
X1394Y1435D01*
X1354Y1435D01*
G37*
D02*
G36*
X1404Y1435D02*
X1404Y1433D01*
X1410Y1433D01*
X1410Y1431D01*
X1416Y1431D01*
X1416Y1429D01*
X1420Y1429D01*
X1420Y1427D01*
X1424Y1427D01*
X1424Y1425D01*
X1426Y1425D01*
X1426Y1423D01*
X1428Y1423D01*
X1428Y1421D01*
X1430Y1421D01*
X1430Y1419D01*
X1432Y1419D01*
X1432Y1417D01*
X1434Y1417D01*
X1434Y1415D01*
X1436Y1415D01*
X1436Y1413D01*
X1438Y1413D01*
X1438Y1409D01*
X1538Y1409D01*
X1538Y1411D01*
X1540Y1411D01*
X1540Y1415D01*
X1542Y1415D01*
X1542Y1417D01*
X1544Y1417D01*
X1544Y1419D01*
X1546Y1419D01*
X1546Y1421D01*
X1548Y1421D01*
X1548Y1423D01*
X1550Y1423D01*
X1550Y1425D01*
X1554Y1425D01*
X1554Y1427D01*
X1556Y1427D01*
X1556Y1429D01*
X1560Y1429D01*
X1560Y1431D01*
X1566Y1431D01*
X1566Y1433D01*
X1574Y1433D01*
X1574Y1435D01*
X1404Y1435D01*
G37*
D02*
G36*
X40Y1387D02*
X40Y787D01*
X204Y787D01*
X204Y789D01*
X198Y789D01*
X198Y791D01*
X194Y791D01*
X194Y793D01*
X190Y793D01*
X190Y795D01*
X188Y795D01*
X188Y797D01*
X184Y797D01*
X184Y799D01*
X182Y799D01*
X182Y801D01*
X180Y801D01*
X180Y803D01*
X178Y803D01*
X178Y805D01*
X176Y805D01*
X176Y809D01*
X174Y809D01*
X174Y811D01*
X172Y811D01*
X172Y815D01*
X170Y815D01*
X170Y817D01*
X168Y817D01*
X168Y823D01*
X166Y823D01*
X166Y831D01*
X164Y831D01*
X164Y843D01*
X166Y843D01*
X166Y851D01*
X168Y851D01*
X168Y855D01*
X170Y855D01*
X170Y859D01*
X172Y859D01*
X172Y861D01*
X174Y861D01*
X174Y865D01*
X176Y865D01*
X176Y867D01*
X178Y867D01*
X178Y869D01*
X180Y869D01*
X180Y871D01*
X182Y871D01*
X182Y873D01*
X184Y873D01*
X184Y875D01*
X186Y875D01*
X186Y877D01*
X188Y877D01*
X188Y897D01*
X184Y897D01*
X184Y899D01*
X182Y899D01*
X182Y901D01*
X180Y901D01*
X180Y903D01*
X178Y903D01*
X178Y905D01*
X176Y905D01*
X176Y909D01*
X174Y909D01*
X174Y911D01*
X172Y911D01*
X172Y915D01*
X170Y915D01*
X170Y917D01*
X168Y917D01*
X168Y923D01*
X166Y923D01*
X166Y931D01*
X164Y931D01*
X164Y943D01*
X166Y943D01*
X166Y951D01*
X168Y951D01*
X168Y955D01*
X170Y955D01*
X170Y959D01*
X172Y959D01*
X172Y961D01*
X174Y961D01*
X174Y965D01*
X176Y965D01*
X176Y967D01*
X178Y967D01*
X178Y969D01*
X180Y969D01*
X180Y971D01*
X182Y971D01*
X182Y973D01*
X184Y973D01*
X184Y975D01*
X186Y975D01*
X186Y977D01*
X188Y977D01*
X188Y997D01*
X184Y997D01*
X184Y999D01*
X182Y999D01*
X182Y1001D01*
X180Y1001D01*
X180Y1003D01*
X178Y1003D01*
X178Y1005D01*
X176Y1005D01*
X176Y1009D01*
X174Y1009D01*
X174Y1011D01*
X172Y1011D01*
X172Y1015D01*
X170Y1015D01*
X170Y1017D01*
X168Y1017D01*
X168Y1023D01*
X166Y1023D01*
X166Y1031D01*
X164Y1031D01*
X164Y1043D01*
X166Y1043D01*
X166Y1051D01*
X168Y1051D01*
X168Y1055D01*
X170Y1055D01*
X170Y1059D01*
X172Y1059D01*
X172Y1061D01*
X174Y1061D01*
X174Y1065D01*
X176Y1065D01*
X176Y1067D01*
X178Y1067D01*
X178Y1069D01*
X180Y1069D01*
X180Y1071D01*
X182Y1071D01*
X182Y1073D01*
X184Y1073D01*
X184Y1075D01*
X186Y1075D01*
X186Y1077D01*
X188Y1077D01*
X188Y1097D01*
X184Y1097D01*
X184Y1099D01*
X182Y1099D01*
X182Y1101D01*
X180Y1101D01*
X180Y1103D01*
X178Y1103D01*
X178Y1105D01*
X176Y1105D01*
X176Y1109D01*
X174Y1109D01*
X174Y1111D01*
X172Y1111D01*
X172Y1115D01*
X170Y1115D01*
X170Y1117D01*
X168Y1117D01*
X168Y1123D01*
X166Y1123D01*
X166Y1131D01*
X164Y1131D01*
X164Y1143D01*
X166Y1143D01*
X166Y1151D01*
X168Y1151D01*
X168Y1155D01*
X170Y1155D01*
X170Y1159D01*
X172Y1159D01*
X172Y1161D01*
X174Y1161D01*
X174Y1165D01*
X176Y1165D01*
X176Y1167D01*
X178Y1167D01*
X178Y1169D01*
X180Y1169D01*
X180Y1171D01*
X182Y1171D01*
X182Y1173D01*
X184Y1173D01*
X184Y1175D01*
X186Y1175D01*
X186Y1177D01*
X188Y1177D01*
X188Y1197D01*
X184Y1197D01*
X184Y1199D01*
X182Y1199D01*
X182Y1201D01*
X180Y1201D01*
X180Y1203D01*
X178Y1203D01*
X178Y1205D01*
X176Y1205D01*
X176Y1209D01*
X174Y1209D01*
X174Y1211D01*
X172Y1211D01*
X172Y1215D01*
X170Y1215D01*
X170Y1217D01*
X168Y1217D01*
X168Y1223D01*
X166Y1223D01*
X166Y1231D01*
X164Y1231D01*
X164Y1243D01*
X166Y1243D01*
X166Y1251D01*
X168Y1251D01*
X168Y1255D01*
X170Y1255D01*
X170Y1259D01*
X172Y1259D01*
X172Y1261D01*
X174Y1261D01*
X174Y1265D01*
X176Y1265D01*
X176Y1267D01*
X178Y1267D01*
X178Y1287D01*
X164Y1287D01*
X164Y1387D01*
X40Y1387D01*
G37*
D02*
G36*
X244Y999D02*
X244Y997D01*
X242Y997D01*
X242Y975D01*
X244Y975D01*
X244Y973D01*
X248Y973D01*
X248Y971D01*
X250Y971D01*
X250Y969D01*
X252Y969D01*
X252Y965D01*
X254Y965D01*
X254Y963D01*
X256Y963D01*
X256Y959D01*
X258Y959D01*
X258Y957D01*
X260Y957D01*
X260Y953D01*
X262Y953D01*
X262Y947D01*
X264Y947D01*
X264Y927D01*
X262Y927D01*
X262Y921D01*
X260Y921D01*
X260Y917D01*
X258Y917D01*
X258Y913D01*
X256Y913D01*
X256Y909D01*
X254Y909D01*
X254Y907D01*
X252Y907D01*
X252Y905D01*
X250Y905D01*
X250Y903D01*
X248Y903D01*
X248Y901D01*
X246Y901D01*
X246Y899D01*
X244Y899D01*
X244Y897D01*
X242Y897D01*
X242Y875D01*
X244Y875D01*
X244Y873D01*
X248Y873D01*
X248Y871D01*
X250Y871D01*
X250Y869D01*
X252Y869D01*
X252Y865D01*
X254Y865D01*
X254Y863D01*
X256Y863D01*
X256Y859D01*
X258Y859D01*
X258Y857D01*
X260Y857D01*
X260Y853D01*
X262Y853D01*
X262Y847D01*
X264Y847D01*
X264Y827D01*
X262Y827D01*
X262Y821D01*
X260Y821D01*
X260Y817D01*
X258Y817D01*
X258Y813D01*
X256Y813D01*
X256Y809D01*
X254Y809D01*
X254Y807D01*
X252Y807D01*
X252Y805D01*
X250Y805D01*
X250Y803D01*
X248Y803D01*
X248Y801D01*
X246Y801D01*
X246Y799D01*
X244Y799D01*
X244Y797D01*
X242Y797D01*
X242Y795D01*
X238Y795D01*
X238Y793D01*
X234Y793D01*
X234Y791D01*
X232Y791D01*
X232Y789D01*
X226Y789D01*
X226Y787D01*
X296Y787D01*
X296Y789D01*
X298Y789D01*
X298Y793D01*
X300Y793D01*
X300Y797D01*
X302Y797D01*
X302Y801D01*
X304Y801D01*
X304Y805D01*
X306Y805D01*
X306Y807D01*
X308Y807D01*
X308Y811D01*
X310Y811D01*
X310Y815D01*
X312Y815D01*
X312Y819D01*
X314Y819D01*
X314Y823D01*
X316Y823D01*
X316Y825D01*
X318Y825D01*
X318Y829D01*
X320Y829D01*
X320Y833D01*
X322Y833D01*
X322Y837D01*
X324Y837D01*
X324Y841D01*
X326Y841D01*
X326Y843D01*
X328Y843D01*
X328Y847D01*
X330Y847D01*
X330Y851D01*
X332Y851D01*
X332Y855D01*
X334Y855D01*
X334Y859D01*
X336Y859D01*
X336Y861D01*
X338Y861D01*
X338Y865D01*
X340Y865D01*
X340Y869D01*
X342Y869D01*
X342Y873D01*
X344Y873D01*
X344Y877D01*
X346Y877D01*
X346Y879D01*
X348Y879D01*
X348Y891D01*
X350Y891D01*
X350Y907D01*
X352Y907D01*
X352Y921D01*
X354Y921D01*
X354Y957D01*
X352Y957D01*
X352Y959D01*
X350Y959D01*
X350Y961D01*
X348Y961D01*
X348Y963D01*
X346Y963D01*
X346Y965D01*
X344Y965D01*
X344Y967D01*
X342Y967D01*
X342Y969D01*
X340Y969D01*
X340Y971D01*
X338Y971D01*
X338Y973D01*
X334Y973D01*
X334Y975D01*
X332Y975D01*
X332Y977D01*
X330Y977D01*
X330Y979D01*
X328Y979D01*
X328Y981D01*
X326Y981D01*
X326Y983D01*
X324Y983D01*
X324Y985D01*
X322Y985D01*
X322Y987D01*
X320Y987D01*
X320Y989D01*
X318Y989D01*
X318Y991D01*
X316Y991D01*
X316Y993D01*
X314Y993D01*
X314Y995D01*
X306Y995D01*
X306Y997D01*
X278Y997D01*
X278Y999D01*
X244Y999D01*
G37*
D02*
G36*
X612Y943D02*
X612Y933D01*
X614Y933D01*
X614Y931D01*
X616Y931D01*
X616Y929D01*
X620Y929D01*
X620Y927D01*
X622Y927D01*
X622Y925D01*
X624Y925D01*
X624Y923D01*
X626Y923D01*
X626Y919D01*
X628Y919D01*
X628Y917D01*
X630Y917D01*
X630Y913D01*
X632Y913D01*
X632Y911D01*
X634Y911D01*
X634Y905D01*
X636Y905D01*
X636Y897D01*
X638Y897D01*
X638Y887D01*
X636Y887D01*
X636Y879D01*
X634Y879D01*
X634Y875D01*
X632Y875D01*
X632Y871D01*
X630Y871D01*
X630Y867D01*
X628Y867D01*
X628Y865D01*
X626Y865D01*
X626Y863D01*
X624Y863D01*
X624Y861D01*
X622Y861D01*
X622Y859D01*
X620Y859D01*
X620Y857D01*
X618Y857D01*
X618Y855D01*
X616Y855D01*
X616Y853D01*
X612Y853D01*
X612Y833D01*
X614Y833D01*
X614Y831D01*
X616Y831D01*
X616Y829D01*
X620Y829D01*
X620Y827D01*
X622Y827D01*
X622Y825D01*
X624Y825D01*
X624Y823D01*
X626Y823D01*
X626Y819D01*
X628Y819D01*
X628Y817D01*
X630Y817D01*
X630Y813D01*
X632Y813D01*
X632Y811D01*
X634Y811D01*
X634Y805D01*
X636Y805D01*
X636Y797D01*
X638Y797D01*
X638Y787D01*
X636Y787D01*
X636Y779D01*
X634Y779D01*
X634Y775D01*
X632Y775D01*
X632Y771D01*
X630Y771D01*
X630Y767D01*
X628Y767D01*
X628Y765D01*
X626Y765D01*
X626Y763D01*
X624Y763D01*
X624Y761D01*
X622Y761D01*
X622Y759D01*
X620Y759D01*
X620Y757D01*
X618Y757D01*
X618Y755D01*
X616Y755D01*
X616Y753D01*
X612Y753D01*
X612Y733D01*
X614Y733D01*
X614Y731D01*
X616Y731D01*
X616Y729D01*
X620Y729D01*
X620Y727D01*
X622Y727D01*
X622Y725D01*
X624Y725D01*
X624Y723D01*
X626Y723D01*
X626Y719D01*
X628Y719D01*
X628Y717D01*
X630Y717D01*
X630Y713D01*
X632Y713D01*
X632Y711D01*
X634Y711D01*
X634Y705D01*
X636Y705D01*
X636Y697D01*
X638Y697D01*
X638Y687D01*
X636Y687D01*
X636Y679D01*
X634Y679D01*
X634Y675D01*
X632Y675D01*
X632Y671D01*
X630Y671D01*
X630Y667D01*
X628Y667D01*
X628Y665D01*
X626Y665D01*
X626Y663D01*
X624Y663D01*
X624Y661D01*
X622Y661D01*
X622Y659D01*
X620Y659D01*
X620Y657D01*
X618Y657D01*
X618Y655D01*
X616Y655D01*
X616Y653D01*
X612Y653D01*
X612Y633D01*
X614Y633D01*
X614Y631D01*
X616Y631D01*
X616Y629D01*
X620Y629D01*
X620Y627D01*
X622Y627D01*
X622Y625D01*
X624Y625D01*
X624Y623D01*
X626Y623D01*
X626Y619D01*
X628Y619D01*
X628Y617D01*
X630Y617D01*
X630Y613D01*
X632Y613D01*
X632Y611D01*
X634Y611D01*
X634Y605D01*
X636Y605D01*
X636Y597D01*
X638Y597D01*
X638Y587D01*
X636Y587D01*
X636Y579D01*
X634Y579D01*
X634Y575D01*
X632Y575D01*
X632Y571D01*
X630Y571D01*
X630Y567D01*
X628Y567D01*
X628Y565D01*
X626Y565D01*
X626Y563D01*
X624Y563D01*
X624Y561D01*
X622Y561D01*
X622Y559D01*
X620Y559D01*
X620Y557D01*
X618Y557D01*
X618Y555D01*
X616Y555D01*
X616Y553D01*
X612Y553D01*
X612Y533D01*
X614Y533D01*
X614Y531D01*
X616Y531D01*
X616Y529D01*
X620Y529D01*
X620Y527D01*
X622Y527D01*
X622Y525D01*
X624Y525D01*
X624Y523D01*
X626Y523D01*
X626Y519D01*
X628Y519D01*
X628Y517D01*
X630Y517D01*
X630Y513D01*
X632Y513D01*
X632Y511D01*
X634Y511D01*
X634Y505D01*
X636Y505D01*
X636Y497D01*
X638Y497D01*
X638Y487D01*
X636Y487D01*
X636Y479D01*
X634Y479D01*
X634Y475D01*
X632Y475D01*
X632Y471D01*
X630Y471D01*
X630Y467D01*
X628Y467D01*
X628Y465D01*
X626Y465D01*
X626Y463D01*
X624Y463D01*
X624Y461D01*
X622Y461D01*
X622Y459D01*
X620Y459D01*
X620Y457D01*
X618Y457D01*
X618Y455D01*
X616Y455D01*
X616Y453D01*
X612Y453D01*
X612Y433D01*
X614Y433D01*
X614Y431D01*
X616Y431D01*
X616Y429D01*
X620Y429D01*
X620Y427D01*
X622Y427D01*
X622Y425D01*
X624Y425D01*
X624Y423D01*
X626Y423D01*
X626Y419D01*
X628Y419D01*
X628Y417D01*
X630Y417D01*
X630Y413D01*
X632Y413D01*
X632Y411D01*
X634Y411D01*
X634Y405D01*
X636Y405D01*
X636Y397D01*
X638Y397D01*
X638Y387D01*
X636Y387D01*
X636Y379D01*
X634Y379D01*
X634Y375D01*
X632Y375D01*
X632Y371D01*
X630Y371D01*
X630Y367D01*
X628Y367D01*
X628Y365D01*
X626Y365D01*
X626Y363D01*
X624Y363D01*
X624Y361D01*
X622Y361D01*
X622Y359D01*
X620Y359D01*
X620Y357D01*
X618Y357D01*
X618Y355D01*
X616Y355D01*
X616Y353D01*
X612Y353D01*
X612Y351D01*
X608Y351D01*
X608Y349D01*
X604Y349D01*
X604Y347D01*
X598Y347D01*
X598Y345D01*
X666Y345D01*
X666Y349D01*
X668Y349D01*
X668Y353D01*
X670Y353D01*
X670Y355D01*
X672Y355D01*
X672Y359D01*
X674Y359D01*
X674Y363D01*
X676Y363D01*
X676Y365D01*
X678Y365D01*
X678Y369D01*
X680Y369D01*
X680Y373D01*
X682Y373D01*
X682Y375D01*
X684Y375D01*
X684Y379D01*
X686Y379D01*
X686Y417D01*
X684Y417D01*
X684Y519D01*
X682Y519D01*
X682Y623D01*
X680Y623D01*
X680Y725D01*
X678Y725D01*
X678Y827D01*
X676Y827D01*
X676Y919D01*
X672Y919D01*
X672Y921D01*
X670Y921D01*
X670Y923D01*
X666Y923D01*
X666Y925D01*
X662Y925D01*
X662Y927D01*
X658Y927D01*
X658Y929D01*
X656Y929D01*
X656Y931D01*
X652Y931D01*
X652Y933D01*
X648Y933D01*
X648Y935D01*
X644Y935D01*
X644Y937D01*
X642Y937D01*
X642Y939D01*
X638Y939D01*
X638Y941D01*
X634Y941D01*
X634Y943D01*
X612Y943D01*
G37*
D02*
G36*
X40Y787D02*
X40Y785D01*
X294Y785D01*
X294Y787D01*
X40Y787D01*
G37*
D02*
G36*
X40Y787D02*
X40Y785D01*
X294Y785D01*
X294Y787D01*
X40Y787D01*
G37*
D02*
G36*
X40Y785D02*
X40Y743D01*
X194Y743D01*
X194Y741D01*
X200Y741D01*
X200Y739D01*
X204Y739D01*
X204Y737D01*
X206Y737D01*
X206Y735D01*
X210Y735D01*
X210Y733D01*
X212Y733D01*
X212Y731D01*
X214Y731D01*
X214Y729D01*
X216Y729D01*
X216Y727D01*
X218Y727D01*
X218Y725D01*
X220Y725D01*
X220Y723D01*
X222Y723D01*
X222Y721D01*
X242Y721D01*
X242Y723D01*
X244Y723D01*
X244Y725D01*
X246Y725D01*
X246Y727D01*
X248Y727D01*
X248Y729D01*
X250Y729D01*
X250Y731D01*
X252Y731D01*
X252Y733D01*
X254Y733D01*
X254Y735D01*
X258Y735D01*
X258Y737D01*
X260Y737D01*
X260Y739D01*
X264Y739D01*
X264Y741D01*
X270Y741D01*
X270Y743D01*
X272Y743D01*
X272Y747D01*
X274Y747D01*
X274Y751D01*
X276Y751D01*
X276Y753D01*
X278Y753D01*
X278Y757D01*
X280Y757D01*
X280Y761D01*
X282Y761D01*
X282Y765D01*
X284Y765D01*
X284Y769D01*
X286Y769D01*
X286Y771D01*
X288Y771D01*
X288Y775D01*
X290Y775D01*
X290Y779D01*
X292Y779D01*
X292Y783D01*
X294Y783D01*
X294Y785D01*
X40Y785D01*
G37*
D02*
G36*
X40Y743D02*
X40Y641D01*
X180Y641D01*
X180Y643D01*
X170Y643D01*
X170Y645D01*
X164Y645D01*
X164Y647D01*
X160Y647D01*
X160Y649D01*
X156Y649D01*
X156Y651D01*
X154Y651D01*
X154Y653D01*
X152Y653D01*
X152Y655D01*
X150Y655D01*
X150Y657D01*
X146Y657D01*
X146Y661D01*
X144Y661D01*
X144Y663D01*
X142Y663D01*
X142Y665D01*
X140Y665D01*
X140Y667D01*
X138Y667D01*
X138Y671D01*
X136Y671D01*
X136Y675D01*
X134Y675D01*
X134Y681D01*
X132Y681D01*
X132Y705D01*
X134Y705D01*
X134Y711D01*
X136Y711D01*
X136Y715D01*
X138Y715D01*
X138Y717D01*
X140Y717D01*
X140Y721D01*
X142Y721D01*
X142Y723D01*
X144Y723D01*
X144Y725D01*
X146Y725D01*
X146Y727D01*
X148Y727D01*
X148Y729D01*
X150Y729D01*
X150Y731D01*
X152Y731D01*
X152Y733D01*
X154Y733D01*
X154Y735D01*
X158Y735D01*
X158Y737D01*
X160Y737D01*
X160Y739D01*
X164Y739D01*
X164Y741D01*
X170Y741D01*
X170Y743D01*
X40Y743D01*
G37*
D02*
G36*
X1226Y727D02*
X1226Y719D01*
X1228Y719D01*
X1228Y717D01*
X1230Y717D01*
X1230Y713D01*
X1232Y713D01*
X1232Y711D01*
X1234Y711D01*
X1234Y705D01*
X1236Y705D01*
X1236Y697D01*
X1238Y697D01*
X1238Y687D01*
X1236Y687D01*
X1236Y679D01*
X1234Y679D01*
X1234Y675D01*
X1232Y675D01*
X1232Y671D01*
X1230Y671D01*
X1230Y667D01*
X1228Y667D01*
X1228Y665D01*
X1226Y665D01*
X1226Y663D01*
X1224Y663D01*
X1224Y661D01*
X1222Y661D01*
X1222Y659D01*
X1220Y659D01*
X1220Y657D01*
X1218Y657D01*
X1218Y655D01*
X1216Y655D01*
X1216Y653D01*
X1212Y653D01*
X1212Y633D01*
X1214Y633D01*
X1214Y631D01*
X1216Y631D01*
X1216Y629D01*
X1220Y629D01*
X1220Y627D01*
X1222Y627D01*
X1222Y625D01*
X1224Y625D01*
X1224Y623D01*
X1226Y623D01*
X1226Y619D01*
X1228Y619D01*
X1228Y617D01*
X1230Y617D01*
X1230Y613D01*
X1232Y613D01*
X1232Y611D01*
X1234Y611D01*
X1234Y605D01*
X1236Y605D01*
X1236Y597D01*
X1238Y597D01*
X1238Y587D01*
X1236Y587D01*
X1236Y579D01*
X1234Y579D01*
X1234Y575D01*
X1232Y575D01*
X1232Y571D01*
X1230Y571D01*
X1230Y567D01*
X1228Y567D01*
X1228Y565D01*
X1226Y565D01*
X1226Y563D01*
X1224Y563D01*
X1224Y561D01*
X1222Y561D01*
X1222Y559D01*
X1220Y559D01*
X1220Y557D01*
X1218Y557D01*
X1218Y555D01*
X1216Y555D01*
X1216Y553D01*
X1212Y553D01*
X1212Y533D01*
X1214Y533D01*
X1214Y531D01*
X1216Y531D01*
X1216Y529D01*
X1220Y529D01*
X1220Y527D01*
X1222Y527D01*
X1222Y525D01*
X1224Y525D01*
X1224Y523D01*
X1226Y523D01*
X1226Y519D01*
X1228Y519D01*
X1228Y517D01*
X1230Y517D01*
X1230Y513D01*
X1232Y513D01*
X1232Y511D01*
X1234Y511D01*
X1234Y505D01*
X1236Y505D01*
X1236Y497D01*
X1238Y497D01*
X1238Y487D01*
X1236Y487D01*
X1236Y479D01*
X1234Y479D01*
X1234Y475D01*
X1232Y475D01*
X1232Y471D01*
X1230Y471D01*
X1230Y467D01*
X1228Y467D01*
X1228Y465D01*
X1226Y465D01*
X1226Y463D01*
X1224Y463D01*
X1224Y461D01*
X1222Y461D01*
X1222Y459D01*
X1220Y459D01*
X1220Y457D01*
X1218Y457D01*
X1218Y455D01*
X1216Y455D01*
X1216Y453D01*
X1212Y453D01*
X1212Y433D01*
X1214Y433D01*
X1214Y431D01*
X1216Y431D01*
X1216Y429D01*
X1220Y429D01*
X1220Y427D01*
X1222Y427D01*
X1222Y425D01*
X1224Y425D01*
X1224Y423D01*
X1226Y423D01*
X1226Y419D01*
X1228Y419D01*
X1228Y417D01*
X1230Y417D01*
X1230Y413D01*
X1232Y413D01*
X1232Y411D01*
X1234Y411D01*
X1234Y405D01*
X1236Y405D01*
X1236Y397D01*
X1238Y397D01*
X1238Y387D01*
X1236Y387D01*
X1236Y379D01*
X1234Y379D01*
X1234Y375D01*
X1232Y375D01*
X1232Y371D01*
X1230Y371D01*
X1230Y367D01*
X1228Y367D01*
X1228Y365D01*
X1226Y365D01*
X1226Y363D01*
X1224Y363D01*
X1224Y361D01*
X1222Y361D01*
X1222Y359D01*
X1220Y359D01*
X1220Y357D01*
X1218Y357D01*
X1218Y355D01*
X1216Y355D01*
X1216Y353D01*
X1212Y353D01*
X1212Y351D01*
X1208Y351D01*
X1208Y349D01*
X1436Y349D01*
X1436Y345D01*
X1450Y345D01*
X1450Y341D01*
X1458Y341D01*
X1458Y337D01*
X1462Y337D01*
X1462Y333D01*
X1466Y333D01*
X1466Y329D01*
X1470Y329D01*
X1470Y325D01*
X1472Y325D01*
X1472Y323D01*
X1476Y323D01*
X1476Y315D01*
X1480Y315D01*
X1480Y279D01*
X1478Y279D01*
X1478Y277D01*
X1476Y277D01*
X1476Y265D01*
X1470Y265D01*
X1470Y261D01*
X1466Y261D01*
X1466Y257D01*
X1462Y257D01*
X1462Y253D01*
X1728Y253D01*
X1728Y277D01*
X1722Y277D01*
X1722Y279D01*
X1710Y279D01*
X1710Y281D01*
X1700Y281D01*
X1700Y283D01*
X1688Y283D01*
X1688Y285D01*
X1678Y285D01*
X1678Y287D01*
X1666Y287D01*
X1666Y289D01*
X1656Y289D01*
X1656Y291D01*
X1644Y291D01*
X1644Y293D01*
X1634Y293D01*
X1634Y295D01*
X1622Y295D01*
X1622Y297D01*
X1612Y297D01*
X1612Y299D01*
X1600Y299D01*
X1600Y301D01*
X1590Y301D01*
X1590Y303D01*
X1578Y303D01*
X1578Y305D01*
X1568Y305D01*
X1568Y307D01*
X1556Y307D01*
X1556Y309D01*
X1548Y309D01*
X1548Y311D01*
X1544Y311D01*
X1544Y313D01*
X1542Y313D01*
X1542Y315D01*
X1540Y315D01*
X1540Y317D01*
X1538Y317D01*
X1538Y319D01*
X1536Y319D01*
X1536Y321D01*
X1534Y321D01*
X1534Y323D01*
X1532Y323D01*
X1532Y325D01*
X1530Y325D01*
X1530Y327D01*
X1528Y327D01*
X1528Y329D01*
X1526Y329D01*
X1526Y331D01*
X1524Y331D01*
X1524Y333D01*
X1522Y333D01*
X1522Y335D01*
X1520Y335D01*
X1520Y337D01*
X1518Y337D01*
X1518Y339D01*
X1516Y339D01*
X1516Y341D01*
X1514Y341D01*
X1514Y343D01*
X1512Y343D01*
X1512Y345D01*
X1510Y345D01*
X1510Y347D01*
X1508Y347D01*
X1508Y349D01*
X1506Y349D01*
X1506Y351D01*
X1504Y351D01*
X1504Y353D01*
X1502Y353D01*
X1502Y355D01*
X1500Y355D01*
X1500Y357D01*
X1498Y357D01*
X1498Y359D01*
X1496Y359D01*
X1496Y361D01*
X1494Y361D01*
X1494Y363D01*
X1492Y363D01*
X1492Y365D01*
X1490Y365D01*
X1490Y367D01*
X1488Y367D01*
X1488Y369D01*
X1486Y369D01*
X1486Y371D01*
X1484Y371D01*
X1484Y373D01*
X1482Y373D01*
X1482Y375D01*
X1480Y375D01*
X1480Y377D01*
X1478Y377D01*
X1478Y379D01*
X1476Y379D01*
X1476Y381D01*
X1474Y381D01*
X1474Y383D01*
X1472Y383D01*
X1472Y385D01*
X1470Y385D01*
X1470Y387D01*
X1468Y387D01*
X1468Y389D01*
X1466Y389D01*
X1466Y393D01*
X1464Y393D01*
X1464Y395D01*
X1462Y395D01*
X1462Y397D01*
X1460Y397D01*
X1460Y399D01*
X1458Y399D01*
X1458Y401D01*
X1456Y401D01*
X1456Y403D01*
X1454Y403D01*
X1454Y405D01*
X1452Y405D01*
X1452Y407D01*
X1450Y407D01*
X1450Y409D01*
X1448Y409D01*
X1448Y411D01*
X1446Y411D01*
X1446Y413D01*
X1444Y413D01*
X1444Y415D01*
X1442Y415D01*
X1442Y417D01*
X1440Y417D01*
X1440Y419D01*
X1438Y419D01*
X1438Y421D01*
X1436Y421D01*
X1436Y423D01*
X1434Y423D01*
X1434Y425D01*
X1432Y425D01*
X1432Y427D01*
X1430Y427D01*
X1430Y429D01*
X1428Y429D01*
X1428Y431D01*
X1426Y431D01*
X1426Y433D01*
X1424Y433D01*
X1424Y435D01*
X1422Y435D01*
X1422Y437D01*
X1420Y437D01*
X1420Y439D01*
X1418Y439D01*
X1418Y441D01*
X1416Y441D01*
X1416Y443D01*
X1414Y443D01*
X1414Y445D01*
X1412Y445D01*
X1412Y447D01*
X1410Y447D01*
X1410Y449D01*
X1408Y449D01*
X1408Y451D01*
X1406Y451D01*
X1406Y453D01*
X1404Y453D01*
X1404Y455D01*
X1402Y455D01*
X1402Y457D01*
X1400Y457D01*
X1400Y459D01*
X1398Y459D01*
X1398Y461D01*
X1396Y461D01*
X1396Y463D01*
X1394Y463D01*
X1394Y465D01*
X1392Y465D01*
X1392Y467D01*
X1390Y467D01*
X1390Y469D01*
X1388Y469D01*
X1388Y471D01*
X1386Y471D01*
X1386Y473D01*
X1384Y473D01*
X1384Y475D01*
X1382Y475D01*
X1382Y477D01*
X1380Y477D01*
X1380Y481D01*
X1378Y481D01*
X1378Y483D01*
X1376Y483D01*
X1376Y487D01*
X1374Y487D01*
X1374Y491D01*
X1372Y491D01*
X1372Y497D01*
X1370Y497D01*
X1370Y501D01*
X1368Y501D01*
X1368Y505D01*
X1366Y505D01*
X1366Y511D01*
X1364Y511D01*
X1364Y515D01*
X1362Y515D01*
X1362Y519D01*
X1360Y519D01*
X1360Y525D01*
X1358Y525D01*
X1358Y529D01*
X1356Y529D01*
X1356Y533D01*
X1354Y533D01*
X1354Y539D01*
X1352Y539D01*
X1352Y543D01*
X1350Y543D01*
X1350Y547D01*
X1348Y547D01*
X1348Y553D01*
X1346Y553D01*
X1346Y557D01*
X1344Y557D01*
X1344Y563D01*
X1342Y563D01*
X1342Y567D01*
X1340Y567D01*
X1340Y571D01*
X1338Y571D01*
X1338Y577D01*
X1336Y577D01*
X1336Y581D01*
X1334Y581D01*
X1334Y585D01*
X1332Y585D01*
X1332Y591D01*
X1330Y591D01*
X1330Y595D01*
X1328Y595D01*
X1328Y599D01*
X1326Y599D01*
X1326Y605D01*
X1324Y605D01*
X1324Y609D01*
X1322Y609D01*
X1322Y613D01*
X1320Y613D01*
X1320Y619D01*
X1318Y619D01*
X1318Y623D01*
X1316Y623D01*
X1316Y627D01*
X1314Y627D01*
X1314Y633D01*
X1312Y633D01*
X1312Y637D01*
X1310Y637D01*
X1310Y641D01*
X1308Y641D01*
X1308Y647D01*
X1306Y647D01*
X1306Y651D01*
X1304Y651D01*
X1304Y655D01*
X1302Y655D01*
X1302Y661D01*
X1300Y661D01*
X1300Y665D01*
X1298Y665D01*
X1298Y671D01*
X1296Y671D01*
X1296Y675D01*
X1294Y675D01*
X1294Y679D01*
X1292Y679D01*
X1292Y685D01*
X1290Y685D01*
X1290Y689D01*
X1288Y689D01*
X1288Y693D01*
X1286Y693D01*
X1286Y697D01*
X1284Y697D01*
X1284Y699D01*
X1282Y699D01*
X1282Y701D01*
X1278Y701D01*
X1278Y703D01*
X1276Y703D01*
X1276Y705D01*
X1272Y705D01*
X1272Y707D01*
X1270Y707D01*
X1270Y709D01*
X1268Y709D01*
X1268Y711D01*
X1264Y711D01*
X1264Y713D01*
X1262Y713D01*
X1262Y715D01*
X1258Y715D01*
X1258Y717D01*
X1256Y717D01*
X1256Y719D01*
X1254Y719D01*
X1254Y721D01*
X1250Y721D01*
X1250Y723D01*
X1248Y723D01*
X1248Y725D01*
X1246Y725D01*
X1246Y727D01*
X1226Y727D01*
G37*
D02*
G36*
X222Y665D02*
X222Y663D01*
X220Y663D01*
X220Y661D01*
X218Y661D01*
X218Y657D01*
X214Y657D01*
X214Y655D01*
X212Y655D01*
X212Y653D01*
X210Y653D01*
X210Y651D01*
X206Y651D01*
X206Y649D01*
X204Y649D01*
X204Y647D01*
X200Y647D01*
X200Y645D01*
X194Y645D01*
X194Y643D01*
X184Y643D01*
X184Y641D01*
X280Y641D01*
X280Y643D01*
X270Y643D01*
X270Y645D01*
X264Y645D01*
X264Y647D01*
X260Y647D01*
X260Y649D01*
X256Y649D01*
X256Y651D01*
X254Y651D01*
X254Y653D01*
X252Y653D01*
X252Y655D01*
X250Y655D01*
X250Y657D01*
X246Y657D01*
X246Y661D01*
X244Y661D01*
X244Y663D01*
X242Y663D01*
X242Y665D01*
X222Y665D01*
G37*
D02*
G36*
X310Y653D02*
X310Y651D01*
X306Y651D01*
X306Y649D01*
X304Y649D01*
X304Y647D01*
X300Y647D01*
X300Y645D01*
X294Y645D01*
X294Y643D01*
X284Y643D01*
X284Y641D01*
X332Y641D01*
X332Y643D01*
X330Y643D01*
X330Y653D01*
X310Y653D01*
G37*
D02*
G36*
X40Y641D02*
X40Y639D01*
X386Y639D01*
X386Y641D01*
X40Y641D01*
G37*
D02*
G36*
X40Y641D02*
X40Y639D01*
X386Y639D01*
X386Y641D01*
X40Y641D01*
G37*
D02*
G36*
X40Y641D02*
X40Y639D01*
X386Y639D01*
X386Y641D01*
X40Y641D01*
G37*
D02*
G36*
X40Y639D02*
X40Y561D01*
X86Y561D01*
X86Y559D01*
X92Y559D01*
X92Y557D01*
X98Y557D01*
X98Y555D01*
X100Y555D01*
X100Y553D01*
X104Y553D01*
X104Y551D01*
X106Y551D01*
X106Y549D01*
X110Y549D01*
X110Y547D01*
X112Y547D01*
X112Y545D01*
X114Y545D01*
X114Y543D01*
X116Y543D01*
X116Y539D01*
X118Y539D01*
X118Y537D01*
X120Y537D01*
X120Y533D01*
X122Y533D01*
X122Y529D01*
X124Y529D01*
X124Y525D01*
X126Y525D01*
X126Y501D01*
X124Y501D01*
X124Y497D01*
X122Y497D01*
X122Y493D01*
X120Y493D01*
X120Y489D01*
X118Y489D01*
X118Y487D01*
X116Y487D01*
X116Y485D01*
X114Y485D01*
X114Y481D01*
X112Y481D01*
X112Y479D01*
X110Y479D01*
X110Y477D01*
X106Y477D01*
X106Y475D01*
X104Y475D01*
X104Y473D01*
X100Y473D01*
X100Y471D01*
X98Y471D01*
X98Y469D01*
X92Y469D01*
X92Y467D01*
X84Y467D01*
X84Y465D01*
X474Y465D01*
X474Y467D01*
X466Y467D01*
X466Y469D01*
X462Y469D01*
X462Y471D01*
X458Y471D01*
X458Y473D01*
X454Y473D01*
X454Y475D01*
X452Y475D01*
X452Y477D01*
X450Y477D01*
X450Y479D01*
X448Y479D01*
X448Y481D01*
X446Y481D01*
X446Y483D01*
X444Y483D01*
X444Y485D01*
X442Y485D01*
X442Y487D01*
X440Y487D01*
X440Y491D01*
X438Y491D01*
X438Y495D01*
X436Y495D01*
X436Y499D01*
X434Y499D01*
X434Y505D01*
X432Y505D01*
X432Y521D01*
X434Y521D01*
X434Y527D01*
X436Y527D01*
X436Y549D01*
X434Y549D01*
X434Y553D01*
X432Y553D01*
X432Y557D01*
X430Y557D01*
X430Y559D01*
X428Y559D01*
X428Y563D01*
X426Y563D01*
X426Y567D01*
X424Y567D01*
X424Y571D01*
X422Y571D01*
X422Y575D01*
X420Y575D01*
X420Y579D01*
X418Y579D01*
X418Y583D01*
X416Y583D01*
X416Y585D01*
X414Y585D01*
X414Y589D01*
X412Y589D01*
X412Y593D01*
X410Y593D01*
X410Y597D01*
X408Y597D01*
X408Y601D01*
X406Y601D01*
X406Y605D01*
X404Y605D01*
X404Y607D01*
X402Y607D01*
X402Y611D01*
X400Y611D01*
X400Y615D01*
X398Y615D01*
X398Y619D01*
X396Y619D01*
X396Y623D01*
X394Y623D01*
X394Y627D01*
X392Y627D01*
X392Y631D01*
X390Y631D01*
X390Y633D01*
X388Y633D01*
X388Y637D01*
X386Y637D01*
X386Y639D01*
X40Y639D01*
G37*
D02*
G36*
X40Y561D02*
X40Y555D01*
X62Y555D01*
X62Y557D01*
X66Y557D01*
X66Y559D01*
X74Y559D01*
X74Y561D01*
X40Y561D01*
G37*
D02*
G36*
X522Y497D02*
X522Y493D01*
X520Y493D01*
X520Y489D01*
X518Y489D01*
X518Y487D01*
X516Y487D01*
X516Y485D01*
X514Y485D01*
X514Y481D01*
X512Y481D01*
X512Y479D01*
X510Y479D01*
X510Y477D01*
X506Y477D01*
X506Y475D01*
X504Y475D01*
X504Y473D01*
X500Y473D01*
X500Y471D01*
X498Y471D01*
X498Y469D01*
X492Y469D01*
X492Y467D01*
X484Y467D01*
X484Y465D01*
X552Y465D01*
X552Y467D01*
X550Y467D01*
X550Y471D01*
X548Y471D01*
X548Y475D01*
X546Y475D01*
X546Y479D01*
X544Y479D01*
X544Y487D01*
X542Y487D01*
X542Y497D01*
X522Y497D01*
G37*
D02*
G36*
X40Y471D02*
X40Y465D01*
X74Y465D01*
X74Y467D01*
X66Y467D01*
X66Y469D01*
X62Y469D01*
X62Y471D01*
X40Y471D01*
G37*
D02*
G36*
X40Y465D02*
X40Y463D01*
X554Y463D01*
X554Y465D01*
X40Y465D01*
G37*
D02*
G36*
X40Y465D02*
X40Y463D01*
X554Y463D01*
X554Y465D01*
X40Y465D01*
G37*
D02*
G36*
X40Y465D02*
X40Y463D01*
X554Y463D01*
X554Y465D01*
X40Y465D01*
G37*
D02*
G36*
X40Y463D02*
X40Y433D01*
X432Y433D01*
X432Y345D01*
X582Y345D01*
X582Y347D01*
X576Y347D01*
X576Y349D01*
X572Y349D01*
X572Y351D01*
X568Y351D01*
X568Y353D01*
X564Y353D01*
X564Y355D01*
X562Y355D01*
X562Y357D01*
X560Y357D01*
X560Y359D01*
X558Y359D01*
X558Y361D01*
X556Y361D01*
X556Y363D01*
X554Y363D01*
X554Y365D01*
X552Y365D01*
X552Y367D01*
X550Y367D01*
X550Y371D01*
X548Y371D01*
X548Y375D01*
X546Y375D01*
X546Y379D01*
X544Y379D01*
X544Y387D01*
X542Y387D01*
X542Y399D01*
X544Y399D01*
X544Y405D01*
X546Y405D01*
X546Y411D01*
X548Y411D01*
X548Y413D01*
X550Y413D01*
X550Y417D01*
X552Y417D01*
X552Y419D01*
X554Y419D01*
X554Y423D01*
X556Y423D01*
X556Y425D01*
X558Y425D01*
X558Y427D01*
X560Y427D01*
X560Y429D01*
X564Y429D01*
X564Y431D01*
X566Y431D01*
X566Y433D01*
X568Y433D01*
X568Y453D01*
X564Y453D01*
X564Y455D01*
X562Y455D01*
X562Y457D01*
X560Y457D01*
X560Y459D01*
X558Y459D01*
X558Y461D01*
X556Y461D01*
X556Y463D01*
X40Y463D01*
G37*
D02*
G36*
X1908Y439D02*
X1908Y437D01*
X1906Y437D01*
X1906Y435D01*
X1902Y435D01*
X1902Y433D01*
X1898Y433D01*
X1898Y431D01*
X1894Y431D01*
X1894Y429D01*
X1892Y429D01*
X1892Y427D01*
X1888Y427D01*
X1888Y425D01*
X1884Y425D01*
X1884Y423D01*
X1880Y423D01*
X1880Y421D01*
X1876Y421D01*
X1876Y419D01*
X1874Y419D01*
X1874Y417D01*
X1870Y417D01*
X1870Y415D01*
X1866Y415D01*
X1866Y413D01*
X1862Y413D01*
X1862Y411D01*
X1858Y411D01*
X1858Y409D01*
X1856Y409D01*
X1856Y407D01*
X1852Y407D01*
X1852Y405D01*
X1848Y405D01*
X1848Y403D01*
X1844Y403D01*
X1844Y401D01*
X1840Y401D01*
X1840Y399D01*
X1838Y399D01*
X1838Y397D01*
X1834Y397D01*
X1834Y395D01*
X1830Y395D01*
X1830Y393D01*
X1828Y393D01*
X1828Y381D01*
X1826Y381D01*
X1826Y375D01*
X1824Y375D01*
X1824Y371D01*
X1822Y371D01*
X1822Y367D01*
X1820Y367D01*
X1820Y363D01*
X1818Y363D01*
X1818Y361D01*
X1816Y361D01*
X1816Y341D01*
X1828Y341D01*
X1828Y241D01*
X1928Y241D01*
X1928Y439D01*
X1908Y439D01*
G37*
D02*
G36*
X40Y433D02*
X40Y331D01*
X170Y331D01*
X170Y333D01*
X164Y333D01*
X164Y335D01*
X160Y335D01*
X160Y337D01*
X158Y337D01*
X158Y339D01*
X154Y339D01*
X154Y341D01*
X152Y341D01*
X152Y343D01*
X150Y343D01*
X150Y345D01*
X148Y345D01*
X148Y347D01*
X146Y347D01*
X146Y349D01*
X144Y349D01*
X144Y351D01*
X142Y351D01*
X142Y353D01*
X140Y353D01*
X140Y357D01*
X138Y357D01*
X138Y359D01*
X136Y359D01*
X136Y363D01*
X134Y363D01*
X134Y369D01*
X132Y369D01*
X132Y393D01*
X134Y393D01*
X134Y399D01*
X136Y399D01*
X136Y403D01*
X138Y403D01*
X138Y407D01*
X140Y407D01*
X140Y409D01*
X142Y409D01*
X142Y411D01*
X144Y411D01*
X144Y413D01*
X146Y413D01*
X146Y417D01*
X150Y417D01*
X150Y419D01*
X152Y419D01*
X152Y421D01*
X154Y421D01*
X154Y423D01*
X156Y423D01*
X156Y425D01*
X160Y425D01*
X160Y427D01*
X164Y427D01*
X164Y429D01*
X168Y429D01*
X168Y431D01*
X178Y431D01*
X178Y433D01*
X40Y433D01*
G37*
D02*
G36*
X184Y433D02*
X184Y431D01*
X194Y431D01*
X194Y429D01*
X200Y429D01*
X200Y427D01*
X204Y427D01*
X204Y425D01*
X208Y425D01*
X208Y423D01*
X210Y423D01*
X210Y421D01*
X212Y421D01*
X212Y419D01*
X214Y419D01*
X214Y417D01*
X218Y417D01*
X218Y413D01*
X220Y413D01*
X220Y411D01*
X222Y411D01*
X222Y409D01*
X242Y409D01*
X242Y411D01*
X244Y411D01*
X244Y413D01*
X246Y413D01*
X246Y417D01*
X250Y417D01*
X250Y419D01*
X252Y419D01*
X252Y421D01*
X254Y421D01*
X254Y423D01*
X256Y423D01*
X256Y425D01*
X260Y425D01*
X260Y427D01*
X264Y427D01*
X264Y429D01*
X268Y429D01*
X268Y431D01*
X278Y431D01*
X278Y433D01*
X184Y433D01*
G37*
D02*
G36*
X284Y433D02*
X284Y431D01*
X294Y431D01*
X294Y429D01*
X300Y429D01*
X300Y427D01*
X304Y427D01*
X304Y425D01*
X308Y425D01*
X308Y423D01*
X310Y423D01*
X310Y421D01*
X330Y421D01*
X330Y431D01*
X332Y431D01*
X332Y433D01*
X284Y433D01*
G37*
D02*
G36*
X222Y353D02*
X222Y351D01*
X220Y351D01*
X220Y349D01*
X218Y349D01*
X218Y347D01*
X216Y347D01*
X216Y345D01*
X214Y345D01*
X214Y343D01*
X212Y343D01*
X212Y341D01*
X210Y341D01*
X210Y339D01*
X206Y339D01*
X206Y337D01*
X204Y337D01*
X204Y335D01*
X200Y335D01*
X200Y333D01*
X194Y333D01*
X194Y331D01*
X270Y331D01*
X270Y333D01*
X264Y333D01*
X264Y335D01*
X260Y335D01*
X260Y337D01*
X258Y337D01*
X258Y339D01*
X254Y339D01*
X254Y341D01*
X252Y341D01*
X252Y343D01*
X250Y343D01*
X250Y345D01*
X248Y345D01*
X248Y347D01*
X246Y347D01*
X246Y349D01*
X244Y349D01*
X244Y351D01*
X242Y351D01*
X242Y353D01*
X222Y353D01*
G37*
D02*
G36*
X1204Y349D02*
X1204Y347D01*
X1198Y347D01*
X1198Y345D01*
X1386Y345D01*
X1386Y349D01*
X1204Y349D01*
G37*
D02*
G36*
X432Y345D02*
X432Y343D01*
X664Y343D01*
X664Y345D01*
X432Y345D01*
G37*
D02*
G36*
X432Y345D02*
X432Y343D01*
X664Y343D01*
X664Y345D01*
X432Y345D01*
G37*
D02*
G36*
X716Y345D02*
X716Y343D01*
X1368Y343D01*
X1368Y345D01*
X716Y345D01*
G37*
D02*
G36*
X716Y345D02*
X716Y343D01*
X1368Y343D01*
X1368Y345D01*
X716Y345D01*
G37*
D02*
G36*
X432Y343D02*
X432Y335D01*
X434Y335D01*
X434Y331D01*
X436Y331D01*
X436Y327D01*
X438Y327D01*
X438Y325D01*
X440Y325D01*
X440Y321D01*
X442Y321D01*
X442Y317D01*
X444Y317D01*
X444Y313D01*
X446Y313D01*
X446Y309D01*
X448Y309D01*
X448Y307D01*
X450Y307D01*
X450Y303D01*
X452Y303D01*
X452Y299D01*
X454Y299D01*
X454Y295D01*
X456Y295D01*
X456Y291D01*
X458Y291D01*
X458Y289D01*
X460Y289D01*
X460Y285D01*
X462Y285D01*
X462Y281D01*
X464Y281D01*
X464Y277D01*
X466Y277D01*
X466Y273D01*
X468Y273D01*
X468Y271D01*
X470Y271D01*
X470Y267D01*
X472Y267D01*
X472Y263D01*
X474Y263D01*
X474Y259D01*
X476Y259D01*
X476Y255D01*
X478Y255D01*
X478Y253D01*
X490Y253D01*
X490Y251D01*
X496Y251D01*
X496Y249D01*
X500Y249D01*
X500Y247D01*
X504Y247D01*
X504Y245D01*
X506Y245D01*
X506Y243D01*
X526Y243D01*
X526Y245D01*
X534Y245D01*
X534Y247D01*
X542Y247D01*
X542Y249D01*
X548Y249D01*
X548Y251D01*
X556Y251D01*
X556Y253D01*
X564Y253D01*
X564Y255D01*
X570Y255D01*
X570Y257D01*
X578Y257D01*
X578Y259D01*
X586Y259D01*
X586Y261D01*
X592Y261D01*
X592Y263D01*
X600Y263D01*
X600Y265D01*
X608Y265D01*
X608Y267D01*
X614Y267D01*
X614Y269D01*
X620Y269D01*
X620Y271D01*
X622Y271D01*
X622Y275D01*
X624Y275D01*
X624Y279D01*
X626Y279D01*
X626Y281D01*
X628Y281D01*
X628Y285D01*
X630Y285D01*
X630Y289D01*
X632Y289D01*
X632Y291D01*
X634Y291D01*
X634Y295D01*
X636Y295D01*
X636Y299D01*
X638Y299D01*
X638Y301D01*
X640Y301D01*
X640Y305D01*
X642Y305D01*
X642Y309D01*
X644Y309D01*
X644Y311D01*
X646Y311D01*
X646Y315D01*
X648Y315D01*
X648Y319D01*
X650Y319D01*
X650Y321D01*
X652Y321D01*
X652Y325D01*
X654Y325D01*
X654Y329D01*
X656Y329D01*
X656Y331D01*
X658Y331D01*
X658Y335D01*
X660Y335D01*
X660Y339D01*
X662Y339D01*
X662Y341D01*
X664Y341D01*
X664Y343D01*
X432Y343D01*
G37*
D02*
G36*
X714Y343D02*
X714Y339D01*
X712Y339D01*
X712Y337D01*
X710Y337D01*
X710Y333D01*
X708Y333D01*
X708Y329D01*
X706Y329D01*
X706Y327D01*
X704Y327D01*
X704Y323D01*
X1256Y323D01*
X1256Y319D01*
X1276Y319D01*
X1276Y315D01*
X1300Y315D01*
X1300Y319D01*
X1312Y319D01*
X1312Y323D01*
X1320Y323D01*
X1320Y325D01*
X1322Y325D01*
X1322Y329D01*
X1334Y329D01*
X1334Y333D01*
X1348Y333D01*
X1348Y337D01*
X1356Y337D01*
X1356Y341D01*
X1368Y341D01*
X1368Y343D01*
X714Y343D01*
G37*
D02*
G36*
X310Y341D02*
X310Y339D01*
X306Y339D01*
X306Y337D01*
X304Y337D01*
X304Y335D01*
X300Y335D01*
X300Y333D01*
X294Y333D01*
X294Y331D01*
X330Y331D01*
X330Y341D01*
X310Y341D01*
G37*
D02*
G36*
X40Y331D02*
X40Y329D01*
X384Y329D01*
X384Y331D01*
X40Y331D01*
G37*
D02*
G36*
X40Y331D02*
X40Y329D01*
X384Y329D01*
X384Y331D01*
X40Y331D01*
G37*
D02*
G36*
X40Y331D02*
X40Y329D01*
X384Y329D01*
X384Y331D01*
X40Y331D01*
G37*
D02*
G36*
X40Y329D02*
X40Y253D01*
X90Y253D01*
X90Y251D01*
X96Y251D01*
X96Y249D01*
X100Y249D01*
X100Y247D01*
X104Y247D01*
X104Y245D01*
X106Y245D01*
X106Y243D01*
X108Y243D01*
X108Y241D01*
X110Y241D01*
X110Y239D01*
X112Y239D01*
X112Y237D01*
X114Y237D01*
X114Y235D01*
X116Y235D01*
X116Y233D01*
X118Y233D01*
X118Y231D01*
X120Y231D01*
X120Y227D01*
X122Y227D01*
X122Y223D01*
X124Y223D01*
X124Y217D01*
X126Y217D01*
X126Y195D01*
X124Y195D01*
X124Y189D01*
X122Y189D01*
X122Y185D01*
X120Y185D01*
X120Y183D01*
X118Y183D01*
X118Y179D01*
X116Y179D01*
X116Y177D01*
X114Y177D01*
X114Y175D01*
X112Y175D01*
X112Y173D01*
X110Y173D01*
X110Y171D01*
X108Y171D01*
X108Y169D01*
X106Y169D01*
X106Y167D01*
X102Y167D01*
X102Y165D01*
X98Y165D01*
X98Y163D01*
X94Y163D01*
X94Y161D01*
X88Y161D01*
X88Y159D01*
X470Y159D01*
X470Y161D01*
X464Y161D01*
X464Y163D01*
X460Y163D01*
X460Y165D01*
X456Y165D01*
X456Y167D01*
X454Y167D01*
X454Y169D01*
X452Y169D01*
X452Y171D01*
X450Y171D01*
X450Y173D01*
X446Y173D01*
X446Y177D01*
X444Y177D01*
X444Y179D01*
X442Y179D01*
X442Y181D01*
X440Y181D01*
X440Y185D01*
X438Y185D01*
X438Y187D01*
X436Y187D01*
X436Y191D01*
X434Y191D01*
X434Y197D01*
X432Y197D01*
X432Y215D01*
X434Y215D01*
X434Y235D01*
X432Y235D01*
X432Y239D01*
X430Y239D01*
X430Y243D01*
X428Y243D01*
X428Y247D01*
X426Y247D01*
X426Y251D01*
X424Y251D01*
X424Y253D01*
X422Y253D01*
X422Y257D01*
X420Y257D01*
X420Y261D01*
X418Y261D01*
X418Y265D01*
X416Y265D01*
X416Y269D01*
X414Y269D01*
X414Y273D01*
X412Y273D01*
X412Y277D01*
X410Y277D01*
X410Y281D01*
X408Y281D01*
X408Y285D01*
X406Y285D01*
X406Y289D01*
X404Y289D01*
X404Y293D01*
X402Y293D01*
X402Y297D01*
X400Y297D01*
X400Y301D01*
X398Y301D01*
X398Y305D01*
X396Y305D01*
X396Y309D01*
X394Y309D01*
X394Y311D01*
X392Y311D01*
X392Y315D01*
X390Y315D01*
X390Y319D01*
X388Y319D01*
X388Y323D01*
X386Y323D01*
X386Y327D01*
X384Y327D01*
X384Y329D01*
X40Y329D01*
G37*
D02*
G36*
X702Y323D02*
X702Y319D01*
X700Y319D01*
X700Y317D01*
X698Y317D01*
X698Y313D01*
X696Y313D01*
X696Y309D01*
X694Y309D01*
X694Y307D01*
X692Y307D01*
X692Y303D01*
X690Y303D01*
X690Y299D01*
X688Y299D01*
X688Y297D01*
X686Y297D01*
X686Y293D01*
X1028Y293D01*
X1028Y289D01*
X1036Y289D01*
X1036Y285D01*
X1044Y285D01*
X1044Y281D01*
X1064Y281D01*
X1064Y285D01*
X1068Y285D01*
X1068Y289D01*
X1098Y289D01*
X1098Y299D01*
X1102Y299D01*
X1102Y303D01*
X1106Y303D01*
X1106Y307D01*
X1114Y307D01*
X1114Y311D01*
X1124Y311D01*
X1124Y315D01*
X1136Y315D01*
X1136Y319D01*
X1152Y319D01*
X1152Y321D01*
X1154Y321D01*
X1154Y323D01*
X702Y323D01*
G37*
D02*
G36*
X1386Y313D02*
X1386Y311D01*
X1384Y311D01*
X1384Y309D01*
X1372Y309D01*
X1372Y305D01*
X1370Y305D01*
X1370Y303D01*
X1358Y303D01*
X1358Y281D01*
X1362Y281D01*
X1362Y279D01*
X1364Y279D01*
X1364Y277D01*
X1368Y277D01*
X1368Y273D01*
X1376Y273D01*
X1376Y267D01*
X1380Y267D01*
X1380Y263D01*
X1384Y263D01*
X1384Y259D01*
X1388Y259D01*
X1388Y255D01*
X1394Y255D01*
X1394Y253D01*
X1434Y253D01*
X1434Y277D01*
X1438Y277D01*
X1438Y303D01*
X1434Y303D01*
X1434Y307D01*
X1432Y307D01*
X1432Y309D01*
X1430Y309D01*
X1430Y311D01*
X1428Y311D01*
X1428Y313D01*
X1386Y313D01*
G37*
D02*
G36*
X684Y293D02*
X684Y289D01*
X682Y289D01*
X682Y287D01*
X680Y287D01*
X680Y283D01*
X678Y283D01*
X678Y279D01*
X676Y279D01*
X676Y277D01*
X674Y277D01*
X674Y273D01*
X672Y273D01*
X672Y269D01*
X670Y269D01*
X670Y267D01*
X668Y267D01*
X668Y263D01*
X666Y263D01*
X666Y259D01*
X664Y259D01*
X664Y257D01*
X662Y257D01*
X662Y255D01*
X876Y255D01*
X876Y241D01*
X896Y241D01*
X896Y243D01*
X900Y243D01*
X900Y247D01*
X904Y247D01*
X904Y251D01*
X908Y251D01*
X908Y255D01*
X994Y255D01*
X994Y257D01*
X990Y257D01*
X990Y289D01*
X994Y289D01*
X994Y293D01*
X684Y293D01*
G37*
D02*
G36*
X662Y255D02*
X662Y253D01*
X660Y253D01*
X660Y249D01*
X658Y249D01*
X658Y245D01*
X656Y245D01*
X656Y243D01*
X654Y243D01*
X654Y239D01*
X652Y239D01*
X652Y237D01*
X650Y237D01*
X650Y235D01*
X648Y235D01*
X648Y233D01*
X646Y233D01*
X646Y231D01*
X642Y231D01*
X642Y229D01*
X634Y229D01*
X634Y227D01*
X628Y227D01*
X628Y225D01*
X620Y225D01*
X620Y223D01*
X612Y223D01*
X612Y221D01*
X606Y221D01*
X606Y219D01*
X598Y219D01*
X598Y217D01*
X592Y217D01*
X592Y215D01*
X584Y215D01*
X584Y213D01*
X576Y213D01*
X576Y211D01*
X570Y211D01*
X570Y209D01*
X562Y209D01*
X562Y207D01*
X554Y207D01*
X554Y205D01*
X548Y205D01*
X548Y203D01*
X540Y203D01*
X540Y201D01*
X532Y201D01*
X532Y199D01*
X526Y199D01*
X526Y195D01*
X524Y195D01*
X524Y189D01*
X522Y189D01*
X522Y185D01*
X520Y185D01*
X520Y183D01*
X518Y183D01*
X518Y179D01*
X516Y179D01*
X516Y177D01*
X514Y177D01*
X514Y175D01*
X512Y175D01*
X512Y173D01*
X510Y173D01*
X510Y171D01*
X508Y171D01*
X508Y169D01*
X506Y169D01*
X506Y167D01*
X502Y167D01*
X502Y165D01*
X498Y165D01*
X498Y163D01*
X494Y163D01*
X494Y161D01*
X488Y161D01*
X488Y159D01*
X718Y159D01*
X718Y161D01*
X714Y161D01*
X714Y179D01*
X710Y179D01*
X710Y203D01*
X726Y203D01*
X726Y241D01*
X728Y241D01*
X728Y243D01*
X736Y243D01*
X736Y247D01*
X740Y247D01*
X740Y251D01*
X752Y251D01*
X752Y255D01*
X662Y255D01*
G37*
D02*
G36*
X794Y255D02*
X794Y251D01*
X808Y251D01*
X808Y247D01*
X830Y247D01*
X830Y255D01*
X794Y255D01*
G37*
D02*
G36*
X40Y253D02*
X40Y247D01*
X60Y247D01*
X60Y249D01*
X62Y249D01*
X62Y251D01*
X68Y251D01*
X68Y253D01*
X40Y253D01*
G37*
D02*
G36*
X1394Y253D02*
X1394Y251D01*
X1728Y251D01*
X1728Y253D01*
X1394Y253D01*
G37*
D02*
G36*
X1394Y253D02*
X1394Y251D01*
X1728Y251D01*
X1728Y253D01*
X1394Y253D01*
G37*
D02*
G36*
X1398Y251D02*
X1398Y247D01*
X1402Y247D01*
X1402Y243D01*
X1406Y243D01*
X1406Y241D01*
X1728Y241D01*
X1728Y251D01*
X1398Y251D01*
G37*
D02*
G36*
X1406Y241D02*
X1406Y239D01*
X1928Y239D01*
X1928Y241D01*
X1406Y241D01*
G37*
D02*
G36*
X1406Y241D02*
X1406Y239D01*
X1928Y239D01*
X1928Y241D01*
X1406Y241D01*
G37*
D02*
G36*
X1406Y239D02*
X1406Y237D01*
X1410Y237D01*
X1410Y229D01*
X1414Y229D01*
X1414Y225D01*
X1418Y225D01*
X1418Y223D01*
X1420Y223D01*
X1420Y221D01*
X1432Y221D01*
X1432Y217D01*
X1448Y217D01*
X1448Y215D01*
X1450Y215D01*
X1450Y211D01*
X1454Y211D01*
X1454Y177D01*
X1562Y177D01*
X1562Y173D01*
X1570Y173D01*
X1570Y169D01*
X1574Y169D01*
X1574Y165D01*
X1578Y165D01*
X1578Y157D01*
X1580Y157D01*
X1580Y155D01*
X1582Y155D01*
X1582Y137D01*
X1882Y137D01*
X1882Y135D01*
X1892Y135D01*
X1892Y133D01*
X1896Y133D01*
X1896Y131D01*
X1900Y131D01*
X1900Y129D01*
X1904Y129D01*
X1904Y127D01*
X1906Y127D01*
X1906Y125D01*
X1928Y125D01*
X1928Y239D01*
X1406Y239D01*
G37*
D02*
G36*
X1458Y177D02*
X1458Y173D01*
X1462Y173D01*
X1462Y165D01*
X1466Y165D01*
X1466Y161D01*
X1470Y161D01*
X1470Y157D01*
X1472Y157D01*
X1472Y155D01*
X1476Y155D01*
X1476Y151D01*
X1480Y151D01*
X1480Y147D01*
X1484Y147D01*
X1484Y143D01*
X1488Y143D01*
X1488Y139D01*
X1492Y139D01*
X1492Y135D01*
X1496Y135D01*
X1496Y131D01*
X1498Y131D01*
X1498Y129D01*
X1506Y129D01*
X1506Y125D01*
X1510Y125D01*
X1510Y121D01*
X1522Y121D01*
X1522Y117D01*
X1542Y117D01*
X1542Y121D01*
X1544Y121D01*
X1544Y141D01*
X1542Y141D01*
X1542Y143D01*
X1540Y143D01*
X1540Y145D01*
X1536Y145D01*
X1536Y149D01*
X1532Y149D01*
X1532Y177D01*
X1458Y177D01*
G37*
D02*
G36*
X40Y165D02*
X40Y159D01*
X70Y159D01*
X70Y161D01*
X64Y161D01*
X64Y163D01*
X60Y163D01*
X60Y165D01*
X40Y165D01*
G37*
D02*
G36*
X40Y159D02*
X40Y157D01*
X718Y157D01*
X718Y159D01*
X40Y159D01*
G37*
D02*
G36*
X40Y159D02*
X40Y157D01*
X718Y157D01*
X718Y159D01*
X40Y159D01*
G37*
D02*
G36*
X40Y159D02*
X40Y157D01*
X718Y157D01*
X718Y159D01*
X40Y159D01*
G37*
D02*
G36*
X40Y157D02*
X40Y137D01*
X86Y137D01*
X86Y135D01*
X96Y135D01*
X96Y133D01*
X100Y133D01*
X100Y131D01*
X104Y131D01*
X104Y129D01*
X108Y129D01*
X108Y127D01*
X112Y127D01*
X112Y125D01*
X114Y125D01*
X114Y123D01*
X116Y123D01*
X116Y121D01*
X118Y121D01*
X118Y119D01*
X120Y119D01*
X120Y117D01*
X122Y117D01*
X122Y115D01*
X124Y115D01*
X124Y111D01*
X126Y111D01*
X126Y109D01*
X128Y109D01*
X128Y105D01*
X130Y105D01*
X130Y99D01*
X132Y99D01*
X132Y93D01*
X134Y93D01*
X134Y73D01*
X132Y73D01*
X132Y67D01*
X130Y67D01*
X130Y61D01*
X128Y61D01*
X128Y41D01*
X702Y41D01*
X702Y55D01*
X704Y55D01*
X704Y59D01*
X706Y59D01*
X706Y61D01*
X708Y61D01*
X708Y63D01*
X712Y63D01*
X712Y65D01*
X716Y65D01*
X716Y117D01*
X718Y117D01*
X718Y121D01*
X720Y121D01*
X720Y123D01*
X722Y123D01*
X722Y125D01*
X726Y125D01*
X726Y149D01*
X722Y149D01*
X722Y153D01*
X718Y153D01*
X718Y157D01*
X40Y157D01*
G37*
D02*
G36*
X40Y137D02*
X40Y131D01*
X60Y131D01*
X60Y133D01*
X66Y133D01*
X66Y135D01*
X74Y135D01*
X74Y137D01*
X40Y137D01*
G37*
D02*
G36*
X1582Y137D02*
X1582Y101D01*
X1578Y101D01*
X1578Y97D01*
X1574Y97D01*
X1574Y93D01*
X1570Y93D01*
X1570Y89D01*
X1566Y89D01*
X1566Y85D01*
X1554Y85D01*
X1554Y83D01*
X1552Y83D01*
X1552Y79D01*
X1824Y79D01*
X1824Y97D01*
X1826Y97D01*
X1826Y101D01*
X1828Y101D01*
X1828Y105D01*
X1830Y105D01*
X1830Y109D01*
X1832Y109D01*
X1832Y113D01*
X1834Y113D01*
X1834Y115D01*
X1836Y115D01*
X1836Y117D01*
X1838Y117D01*
X1838Y119D01*
X1840Y119D01*
X1840Y121D01*
X1842Y121D01*
X1842Y123D01*
X1844Y123D01*
X1844Y125D01*
X1846Y125D01*
X1846Y127D01*
X1850Y127D01*
X1850Y129D01*
X1852Y129D01*
X1852Y131D01*
X1856Y131D01*
X1856Y133D01*
X1862Y133D01*
X1862Y135D01*
X1870Y135D01*
X1870Y137D01*
X1582Y137D01*
G37*
D02*
G36*
X1474Y85D02*
X1474Y83D01*
X1472Y83D01*
X1472Y81D01*
X1470Y81D01*
X1470Y79D01*
X1508Y79D01*
X1508Y81D01*
X1506Y81D01*
X1506Y85D01*
X1474Y85D01*
G37*
D02*
G36*
X1470Y79D02*
X1470Y77D01*
X1824Y77D01*
X1824Y79D01*
X1470Y79D01*
G37*
D02*
G36*
X1470Y79D02*
X1470Y77D01*
X1824Y77D01*
X1824Y79D01*
X1470Y79D01*
G37*
D02*
G36*
X1470Y77D02*
X1470Y41D01*
X1830Y41D01*
X1830Y61D01*
X1828Y61D01*
X1828Y65D01*
X1826Y65D01*
X1826Y71D01*
X1824Y71D01*
X1824Y77D01*
X1470Y77D01*
G37*
D02*
G36*
X538Y1515D02*
X570Y1515D01*
X570Y1472D01*
X538Y1472D01*
X538Y1515D01*
G37*
D02*
G36*
X604Y1515D02*
X638Y1515D01*
X638Y1472D01*
X604Y1472D01*
X604Y1515D01*
G37*
D02*
G36*
X1138Y1715D02*
X1170Y1715D01*
X1170Y1672D01*
X1138Y1672D01*
X1138Y1715D01*
G37*
D02*
G36*
X1204Y1715D02*
X1238Y1715D01*
X1238Y1672D01*
X1204Y1672D01*
X1204Y1715D01*
G37*
D02*
G36*
X1474Y1673D02*
X1513Y1673D01*
X1513Y1641D01*
X1474Y1641D01*
X1474Y1673D01*
G37*
D02*
G36*
X1448Y1705D02*
X1480Y1705D01*
X1480Y1666D01*
X1448Y1666D01*
X1448Y1705D01*
G37*
D02*
G36*
X1751Y1545D02*
X1796Y1545D01*
X1796Y1513D01*
X1751Y1513D01*
X1751Y1545D01*
G37*
D02*
G36*
X1720Y1516D02*
X1754Y1516D01*
X1754Y1471D01*
X1720Y1471D01*
X1720Y1516D01*
G37*
D02*
G36*
X1792Y1516D02*
X1824Y1516D01*
X1824Y1471D01*
X1792Y1471D01*
X1792Y1516D01*
G37*
D02*
G36*
X1747Y1659D02*
X1792Y1659D01*
X1792Y1625D01*
X1747Y1625D01*
X1747Y1659D01*
G37*
D02*
G36*
X156Y363D02*
X203Y363D01*
X203Y331D01*
X156Y331D01*
X156Y363D01*
G37*
D02*
G36*
X156Y675D02*
X203Y675D01*
X203Y641D01*
X156Y641D01*
X156Y675D01*
G37*
D02*
G36*
X156Y1583D02*
X203Y1583D01*
X203Y1551D01*
X156Y1551D01*
X156Y1583D01*
G37*
D02*
G36*
X56Y191D02*
X99Y191D01*
X99Y159D01*
X56Y159D01*
X56Y191D01*
G37*
D02*
G36*
X34Y229D02*
X60Y229D01*
X60Y186D01*
X34Y186D01*
X34Y229D01*
G37*
D02*
G36*
X94Y229D02*
X126Y229D01*
X126Y186D01*
X94Y186D01*
X94Y229D01*
G37*
D02*
G36*
X34Y537D02*
X60Y537D01*
X60Y494D01*
X34Y494D01*
X34Y537D01*
G37*
D02*
G36*
X56Y1799D02*
X99Y1799D01*
X99Y1767D01*
X56Y1767D01*
X56Y1799D01*
G37*
D02*
G36*
X34Y1771D02*
X60Y1771D01*
X60Y1728D01*
X34Y1728D01*
X34Y1771D01*
G37*
D02*
G36*
X1310Y253D02*
X1310Y249D01*
X1314Y249D01*
X1314Y236D01*
X1310Y236D01*
X1310Y231D01*
X1306Y231D01*
X1306Y227D01*
X1293Y227D01*
X1293Y231D01*
X1288Y231D01*
X1288Y236D01*
X1284Y236D01*
X1284Y244D01*
X1288Y244D01*
X1288Y249D01*
X1293Y249D01*
X1293Y253D01*
X1310Y253D01*
G37*
D02*
G36*
X978Y244D02*
X978Y141D01*
X952Y141D01*
X952Y244D01*
X978Y244D01*
G37*
D02*
G36*
X931Y244D02*
X931Y193D01*
X871Y193D01*
X871Y197D01*
X875Y197D01*
X875Y201D01*
X879Y201D01*
X879Y206D01*
X883Y206D01*
X883Y210D01*
X888Y210D01*
X888Y214D01*
X892Y214D01*
X892Y219D01*
X896Y219D01*
X896Y223D01*
X901Y223D01*
X901Y227D01*
X905Y227D01*
X905Y231D01*
X909Y231D01*
X909Y236D01*
X914Y236D01*
X914Y240D01*
X918Y240D01*
X918Y244D01*
X931Y244D01*
G37*
D02*
G36*
X866Y244D02*
X866Y193D01*
X840Y193D01*
X840Y244D01*
X866Y244D01*
G37*
D02*
G36*
X931Y193D02*
X931Y188D01*
X840Y188D01*
X840Y193D01*
X931Y193D01*
G37*
D02*
G36*
X931Y193D02*
X931Y188D01*
X840Y188D01*
X840Y193D01*
X931Y193D01*
G37*
D02*
G36*
X931Y188D02*
X931Y141D01*
X905Y141D01*
X905Y188D01*
X931Y188D01*
G37*
D02*
G36*
X896Y188D02*
X896Y184D01*
X892Y184D01*
X892Y180D01*
X888Y180D01*
X888Y175D01*
X883Y175D01*
X883Y171D01*
X879Y171D01*
X879Y167D01*
X875Y167D01*
X875Y163D01*
X871Y163D01*
X871Y158D01*
X866Y158D01*
X866Y154D01*
X862Y154D01*
X862Y150D01*
X858Y150D01*
X858Y145D01*
X853Y145D01*
X853Y141D01*
X840Y141D01*
X840Y188D01*
X896Y188D01*
G37*
D02*
G36*
X784Y244D02*
X784Y240D01*
X797Y240D01*
X797Y236D01*
X806Y236D01*
X806Y231D01*
X810Y231D01*
X810Y227D01*
X815Y227D01*
X815Y223D01*
X819Y223D01*
X819Y219D01*
X763Y219D01*
X763Y214D01*
X759Y214D01*
X759Y210D01*
X754Y210D01*
X754Y214D01*
X750Y214D01*
X750Y219D01*
X746Y219D01*
X746Y223D01*
X741Y223D01*
X741Y227D01*
X737Y227D01*
X737Y231D01*
X746Y231D01*
X746Y236D01*
X750Y236D01*
X750Y240D01*
X763Y240D01*
X763Y244D01*
X784Y244D01*
G37*
D02*
G36*
X819Y219D02*
X819Y214D01*
X823Y214D01*
X823Y201D01*
X827Y201D01*
X827Y184D01*
X823Y184D01*
X823Y171D01*
X819Y171D01*
X819Y167D01*
X789Y167D01*
X789Y171D01*
X793Y171D01*
X793Y175D01*
X797Y175D01*
X797Y184D01*
X802Y184D01*
X802Y201D01*
X797Y201D01*
X797Y210D01*
X793Y210D01*
X793Y214D01*
X784Y214D01*
X784Y219D01*
X819Y219D01*
G37*
D02*
G36*
X771Y193D02*
X771Y180D01*
X754Y180D01*
X754Y171D01*
X759Y171D01*
X759Y167D01*
X728Y167D01*
X728Y171D01*
X724Y171D01*
X724Y188D01*
X720Y188D01*
X720Y193D01*
X771Y193D01*
G37*
D02*
G36*
X819Y167D02*
X819Y163D01*
X728Y163D01*
X728Y167D01*
X819Y167D01*
G37*
D02*
G36*
X819Y167D02*
X819Y163D01*
X728Y163D01*
X728Y167D01*
X819Y167D01*
G37*
D02*
G36*
X815Y163D02*
X815Y158D01*
X810Y158D01*
X810Y154D01*
X806Y154D01*
X806Y150D01*
X802Y150D01*
X802Y145D01*
X793Y145D01*
X793Y141D01*
X754Y141D01*
X754Y145D01*
X746Y145D01*
X746Y150D01*
X741Y150D01*
X741Y154D01*
X737Y154D01*
X737Y158D01*
X733Y158D01*
X733Y163D01*
X815Y163D01*
G37*
D02*
G36*
X1426Y339D02*
X1426Y335D01*
X1439Y335D01*
X1439Y331D01*
X1448Y331D01*
X1448Y326D01*
X1392Y326D01*
X1392Y322D01*
X1375Y322D01*
X1375Y318D01*
X1362Y318D01*
X1362Y313D01*
X1349Y313D01*
X1349Y309D01*
X1336Y309D01*
X1336Y305D01*
X1327Y305D01*
X1327Y300D01*
X1293Y300D01*
X1293Y305D01*
X1310Y305D01*
X1310Y309D01*
X1323Y309D01*
X1323Y313D01*
X1332Y313D01*
X1332Y318D01*
X1344Y318D01*
X1344Y322D01*
X1357Y322D01*
X1357Y326D01*
X1366Y326D01*
X1366Y331D01*
X1379Y331D01*
X1379Y335D01*
X1396Y335D01*
X1396Y339D01*
X1426Y339D01*
G37*
D02*
G36*
X1452Y326D02*
X1452Y322D01*
X1457Y322D01*
X1457Y318D01*
X1461Y318D01*
X1461Y313D01*
X1465Y313D01*
X1465Y305D01*
X1469Y305D01*
X1469Y287D01*
X1465Y287D01*
X1465Y275D01*
X1461Y275D01*
X1461Y270D01*
X1457Y270D01*
X1457Y266D01*
X1452Y266D01*
X1452Y262D01*
X1444Y262D01*
X1444Y266D01*
X1448Y266D01*
X1448Y275D01*
X1452Y275D01*
X1452Y283D01*
X1457Y283D01*
X1457Y300D01*
X1452Y300D01*
X1452Y309D01*
X1448Y309D01*
X1448Y313D01*
X1444Y313D01*
X1444Y318D01*
X1439Y318D01*
X1439Y322D01*
X1431Y322D01*
X1431Y326D01*
X1452Y326D01*
G37*
D02*
G36*
X1245Y313D02*
X1245Y309D01*
X1267Y309D01*
X1267Y305D01*
X1172Y305D01*
X1172Y300D01*
X1151Y300D01*
X1151Y296D01*
X1138Y296D01*
X1138Y287D01*
X1112Y287D01*
X1112Y292D01*
X1116Y292D01*
X1116Y296D01*
X1125Y296D01*
X1125Y300D01*
X1133Y300D01*
X1133Y305D01*
X1146Y305D01*
X1146Y309D01*
X1164Y309D01*
X1164Y313D01*
X1245Y313D01*
G37*
D02*
G36*
X1280Y305D02*
X1280Y300D01*
X1237Y300D01*
X1237Y305D01*
X1280Y305D01*
G37*
D02*
G36*
X1314Y300D02*
X1314Y296D01*
X1258Y296D01*
X1258Y300D01*
X1314Y300D01*
G37*
D02*
G36*
X1314Y300D02*
X1314Y296D01*
X1258Y296D01*
X1258Y300D01*
X1314Y300D01*
G37*
D02*
G36*
X1310Y296D02*
X1310Y292D01*
X1314Y292D01*
X1314Y287D01*
X1323Y287D01*
X1323Y283D01*
X1332Y283D01*
X1332Y279D01*
X1340Y279D01*
X1340Y275D01*
X1349Y275D01*
X1349Y270D01*
X1353Y270D01*
X1353Y266D01*
X1357Y266D01*
X1357Y262D01*
X1366Y262D01*
X1366Y257D01*
X1370Y257D01*
X1370Y253D01*
X1375Y253D01*
X1375Y249D01*
X1379Y249D01*
X1379Y244D01*
X1383Y244D01*
X1383Y240D01*
X1388Y240D01*
X1388Y236D01*
X1392Y236D01*
X1392Y231D01*
X1396Y231D01*
X1396Y227D01*
X1400Y227D01*
X1400Y219D01*
X1405Y219D01*
X1405Y214D01*
X1388Y214D01*
X1388Y223D01*
X1383Y223D01*
X1383Y227D01*
X1379Y227D01*
X1379Y231D01*
X1375Y231D01*
X1375Y236D01*
X1370Y236D01*
X1370Y240D01*
X1366Y240D01*
X1366Y244D01*
X1362Y244D01*
X1362Y249D01*
X1357Y249D01*
X1357Y253D01*
X1349Y253D01*
X1349Y257D01*
X1344Y257D01*
X1344Y262D01*
X1336Y262D01*
X1336Y266D01*
X1332Y266D01*
X1332Y270D01*
X1323Y270D01*
X1323Y275D01*
X1314Y275D01*
X1314Y279D01*
X1306Y279D01*
X1306Y283D01*
X1297Y283D01*
X1297Y287D01*
X1220Y287D01*
X1220Y292D01*
X1254Y292D01*
X1254Y296D01*
X1310Y296D01*
G37*
D02*
G36*
X1271Y287D02*
X1271Y283D01*
X1108Y283D01*
X1108Y287D01*
X1271Y287D01*
G37*
D02*
G36*
X1271Y287D02*
X1271Y283D01*
X1108Y283D01*
X1108Y287D01*
X1271Y287D01*
G37*
D02*
G36*
X1254Y283D02*
X1254Y279D01*
X1228Y279D01*
X1228Y275D01*
X1133Y275D01*
X1133Y279D01*
X1116Y279D01*
X1116Y283D01*
X1254Y283D01*
G37*
D02*
G36*
X1017Y283D02*
X1017Y279D01*
X1026Y279D01*
X1026Y275D01*
X1034Y275D01*
X1034Y270D01*
X1013Y270D01*
X1013Y262D01*
X1017Y262D01*
X1017Y257D01*
X1021Y257D01*
X1021Y253D01*
X1026Y253D01*
X1026Y244D01*
X1030Y244D01*
X1030Y240D01*
X1034Y240D01*
X1034Y236D01*
X1039Y236D01*
X1039Y231D01*
X1043Y231D01*
X1043Y227D01*
X1047Y227D01*
X1047Y223D01*
X1051Y223D01*
X1051Y219D01*
X1056Y219D01*
X1056Y214D01*
X1060Y214D01*
X1060Y210D01*
X1064Y210D01*
X1064Y206D01*
X1051Y206D01*
X1051Y210D01*
X1047Y210D01*
X1047Y214D01*
X1043Y214D01*
X1043Y219D01*
X1039Y219D01*
X1039Y223D01*
X1034Y223D01*
X1034Y227D01*
X1030Y227D01*
X1030Y231D01*
X1026Y231D01*
X1026Y236D01*
X1021Y236D01*
X1021Y240D01*
X1017Y240D01*
X1017Y244D01*
X1013Y244D01*
X1013Y249D01*
X1008Y249D01*
X1008Y257D01*
X1004Y257D01*
X1004Y266D01*
X1000Y266D01*
X1000Y279D01*
X1004Y279D01*
X1004Y283D01*
X1017Y283D01*
G37*
D02*
G36*
X1099Y279D02*
X1099Y275D01*
X1108Y275D01*
X1108Y270D01*
X1086Y270D01*
X1086Y262D01*
X1090Y262D01*
X1090Y257D01*
X1095Y257D01*
X1095Y253D01*
X1099Y253D01*
X1099Y249D01*
X1103Y249D01*
X1103Y240D01*
X1108Y240D01*
X1108Y236D01*
X1112Y236D01*
X1112Y231D01*
X1116Y231D01*
X1116Y227D01*
X1120Y227D01*
X1120Y223D01*
X1125Y223D01*
X1125Y219D01*
X1129Y219D01*
X1129Y214D01*
X1133Y214D01*
X1133Y210D01*
X1138Y210D01*
X1138Y206D01*
X1142Y206D01*
X1142Y201D01*
X1146Y201D01*
X1146Y197D01*
X1129Y197D01*
X1129Y201D01*
X1125Y201D01*
X1125Y206D01*
X1120Y206D01*
X1120Y210D01*
X1116Y210D01*
X1116Y214D01*
X1112Y214D01*
X1112Y219D01*
X1108Y219D01*
X1108Y227D01*
X1103Y227D01*
X1103Y231D01*
X1099Y231D01*
X1099Y236D01*
X1095Y236D01*
X1095Y240D01*
X1090Y240D01*
X1090Y244D01*
X1086Y244D01*
X1086Y253D01*
X1082Y253D01*
X1082Y257D01*
X1077Y257D01*
X1077Y266D01*
X1073Y266D01*
X1073Y275D01*
X1077Y275D01*
X1077Y279D01*
X1099Y279D01*
G37*
D02*
G36*
X1116Y270D02*
X1116Y266D01*
X1120Y266D01*
X1120Y262D01*
X1129Y262D01*
X1129Y257D01*
X1133Y257D01*
X1133Y253D01*
X1138Y253D01*
X1138Y249D01*
X1142Y249D01*
X1142Y240D01*
X1146Y240D01*
X1146Y236D01*
X1151Y236D01*
X1151Y227D01*
X1155Y227D01*
X1155Y219D01*
X1159Y219D01*
X1159Y206D01*
X1164Y206D01*
X1164Y197D01*
X1151Y197D01*
X1151Y210D01*
X1146Y210D01*
X1146Y219D01*
X1142Y219D01*
X1142Y227D01*
X1138Y227D01*
X1138Y231D01*
X1133Y231D01*
X1133Y236D01*
X1129Y236D01*
X1129Y244D01*
X1125Y244D01*
X1125Y249D01*
X1120Y249D01*
X1120Y253D01*
X1116Y253D01*
X1116Y257D01*
X1108Y257D01*
X1108Y262D01*
X1103Y262D01*
X1103Y266D01*
X1095Y266D01*
X1095Y270D01*
X1116Y270D01*
G37*
D02*
G36*
X1039Y270D02*
X1039Y266D01*
X1047Y266D01*
X1047Y262D01*
X1051Y262D01*
X1051Y257D01*
X1056Y257D01*
X1056Y249D01*
X1060Y249D01*
X1060Y244D01*
X1064Y244D01*
X1064Y240D01*
X1069Y240D01*
X1069Y231D01*
X1073Y231D01*
X1073Y227D01*
X1077Y227D01*
X1077Y219D01*
X1082Y219D01*
X1082Y214D01*
X1086Y214D01*
X1086Y206D01*
X1073Y206D01*
X1073Y214D01*
X1069Y214D01*
X1069Y223D01*
X1064Y223D01*
X1064Y227D01*
X1060Y227D01*
X1060Y236D01*
X1056Y236D01*
X1056Y240D01*
X1051Y240D01*
X1051Y244D01*
X1047Y244D01*
X1047Y249D01*
X1043Y249D01*
X1043Y253D01*
X1039Y253D01*
X1039Y257D01*
X1034Y257D01*
X1034Y262D01*
X1026Y262D01*
X1026Y266D01*
X1021Y266D01*
X1021Y270D01*
X1039Y270D01*
G37*
D02*
G36*
X1375Y219D02*
X1375Y214D01*
X1344Y214D01*
X1344Y219D01*
X1375Y219D01*
G37*
D02*
G36*
X1409Y214D02*
X1409Y210D01*
X1336Y210D01*
X1336Y214D01*
X1409Y214D01*
G37*
D02*
G36*
X1409Y214D02*
X1409Y210D01*
X1336Y210D01*
X1336Y214D01*
X1409Y214D01*
G37*
D02*
G36*
X1422Y210D02*
X1422Y206D01*
X1344Y206D01*
X1344Y197D01*
X1349Y197D01*
X1349Y188D01*
X1353Y188D01*
X1353Y184D01*
X1357Y184D01*
X1357Y175D01*
X1362Y175D01*
X1362Y167D01*
X1366Y167D01*
X1366Y158D01*
X1370Y158D01*
X1370Y145D01*
X1353Y145D01*
X1353Y154D01*
X1349Y154D01*
X1349Y167D01*
X1344Y167D01*
X1344Y175D01*
X1340Y175D01*
X1340Y184D01*
X1336Y184D01*
X1336Y193D01*
X1332Y193D01*
X1332Y210D01*
X1422Y210D01*
G37*
D02*
G36*
X1439Y206D02*
X1439Y201D01*
X1422Y201D01*
X1422Y193D01*
X1426Y193D01*
X1426Y188D01*
X1431Y188D01*
X1431Y180D01*
X1435Y180D01*
X1435Y175D01*
X1439Y175D01*
X1439Y171D01*
X1444Y171D01*
X1444Y167D01*
X1448Y167D01*
X1448Y163D01*
X1452Y163D01*
X1452Y154D01*
X1457Y154D01*
X1457Y150D01*
X1461Y150D01*
X1461Y145D01*
X1465Y145D01*
X1465Y141D01*
X1469Y141D01*
X1469Y137D01*
X1474Y137D01*
X1474Y132D01*
X1478Y132D01*
X1478Y128D01*
X1482Y128D01*
X1482Y124D01*
X1487Y124D01*
X1487Y119D01*
X1495Y119D01*
X1495Y115D01*
X1500Y115D01*
X1500Y111D01*
X1513Y111D01*
X1513Y107D01*
X1530Y107D01*
X1530Y102D01*
X1487Y102D01*
X1487Y107D01*
X1482Y107D01*
X1482Y111D01*
X1478Y111D01*
X1478Y115D01*
X1474Y115D01*
X1474Y119D01*
X1469Y119D01*
X1469Y124D01*
X1465Y124D01*
X1465Y128D01*
X1461Y128D01*
X1461Y132D01*
X1457Y132D01*
X1457Y137D01*
X1452Y137D01*
X1452Y141D01*
X1448Y141D01*
X1448Y145D01*
X1444Y145D01*
X1444Y150D01*
X1439Y150D01*
X1439Y158D01*
X1435Y158D01*
X1435Y163D01*
X1431Y163D01*
X1431Y167D01*
X1426Y167D01*
X1426Y171D01*
X1422Y171D01*
X1422Y180D01*
X1418Y180D01*
X1418Y184D01*
X1413Y184D01*
X1413Y188D01*
X1409Y188D01*
X1409Y193D01*
X1405Y193D01*
X1405Y201D01*
X1400Y201D01*
X1400Y206D01*
X1439Y206D01*
G37*
D02*
G36*
X1086Y206D02*
X1086Y201D01*
X1056Y201D01*
X1056Y206D01*
X1086Y206D01*
G37*
D02*
G36*
X1086Y206D02*
X1086Y201D01*
X1056Y201D01*
X1056Y206D01*
X1086Y206D01*
G37*
D02*
G36*
X1444Y201D02*
X1444Y197D01*
X1426Y197D01*
X1426Y201D01*
X1444Y201D01*
G37*
D02*
G36*
X1090Y201D02*
X1090Y188D01*
X1095Y188D01*
X1095Y180D01*
X1103Y180D01*
X1103Y175D01*
X1108Y175D01*
X1108Y171D01*
X1112Y171D01*
X1112Y167D01*
X1095Y167D01*
X1095Y150D01*
X1082Y150D01*
X1082Y167D01*
X1086Y167D01*
X1086Y175D01*
X1082Y175D01*
X1082Y184D01*
X1077Y184D01*
X1077Y188D01*
X1073Y188D01*
X1073Y193D01*
X1064Y193D01*
X1064Y197D01*
X1060Y197D01*
X1060Y201D01*
X1090Y201D01*
G37*
D02*
G36*
X1194Y197D02*
X1194Y193D01*
X1168Y193D01*
X1168Y197D01*
X1194Y197D01*
G37*
D02*
G36*
X1164Y197D02*
X1164Y193D01*
X1133Y193D01*
X1133Y197D01*
X1164Y197D01*
G37*
D02*
G36*
X1164Y197D02*
X1164Y193D01*
X1133Y193D01*
X1133Y197D01*
X1164Y197D01*
G37*
D02*
G36*
X1202Y193D02*
X1202Y188D01*
X1138Y188D01*
X1138Y193D01*
X1202Y193D01*
G37*
D02*
G36*
X1202Y193D02*
X1202Y188D01*
X1138Y188D01*
X1138Y193D01*
X1202Y193D01*
G37*
D02*
G36*
X1211Y188D02*
X1211Y184D01*
X1215Y184D01*
X1215Y180D01*
X1220Y180D01*
X1220Y175D01*
X1224Y175D01*
X1224Y167D01*
X1228Y167D01*
X1228Y163D01*
X1232Y163D01*
X1232Y150D01*
X1220Y150D01*
X1220Y158D01*
X1215Y158D01*
X1215Y167D01*
X1211Y167D01*
X1211Y171D01*
X1207Y171D01*
X1207Y175D01*
X1202Y175D01*
X1202Y180D01*
X1198Y180D01*
X1198Y184D01*
X1189Y184D01*
X1189Y188D01*
X1211Y188D01*
G37*
D02*
G36*
X1172Y188D02*
X1172Y184D01*
X1168Y184D01*
X1168Y180D01*
X1172Y180D01*
X1172Y175D01*
X1176Y175D01*
X1176Y171D01*
X1181Y171D01*
X1181Y167D01*
X1164Y167D01*
X1164Y154D01*
X1151Y154D01*
X1151Y158D01*
X1155Y158D01*
X1155Y180D01*
X1146Y180D01*
X1146Y184D01*
X1142Y184D01*
X1142Y188D01*
X1172Y188D01*
G37*
D02*
G36*
X1301Y180D02*
X1301Y175D01*
X1306Y175D01*
X1306Y171D01*
X1314Y171D01*
X1314Y167D01*
X1319Y167D01*
X1319Y163D01*
X1293Y163D01*
X1293Y180D01*
X1301Y180D01*
G37*
D02*
G36*
X1267Y180D02*
X1267Y175D01*
X1276Y175D01*
X1276Y171D01*
X1284Y171D01*
X1284Y167D01*
X1254Y167D01*
X1254Y158D01*
X1250Y158D01*
X1250Y150D01*
X1241Y150D01*
X1241Y167D01*
X1245Y167D01*
X1245Y175D01*
X1250Y175D01*
X1250Y180D01*
X1267Y180D01*
G37*
D02*
G36*
X1551Y167D02*
X1551Y163D01*
X1560Y163D01*
X1560Y158D01*
X1564Y158D01*
X1564Y154D01*
X1569Y154D01*
X1569Y145D01*
X1573Y145D01*
X1573Y111D01*
X1569Y111D01*
X1569Y107D01*
X1564Y107D01*
X1564Y102D01*
X1543Y102D01*
X1543Y107D01*
X1551Y107D01*
X1551Y111D01*
X1556Y111D01*
X1556Y115D01*
X1560Y115D01*
X1560Y141D01*
X1556Y141D01*
X1556Y150D01*
X1551Y150D01*
X1551Y154D01*
X1547Y154D01*
X1547Y158D01*
X1543Y158D01*
X1543Y167D01*
X1551Y167D01*
G37*
D02*
G36*
X1288Y167D02*
X1288Y163D01*
X1263Y163D01*
X1263Y167D01*
X1288Y167D01*
G37*
D02*
G36*
X1185Y167D02*
X1185Y163D01*
X1189Y163D01*
X1189Y158D01*
X1198Y158D01*
X1198Y154D01*
X1202Y154D01*
X1202Y150D01*
X1211Y150D01*
X1211Y145D01*
X1215Y145D01*
X1215Y141D01*
X1198Y141D01*
X1198Y145D01*
X1189Y145D01*
X1189Y150D01*
X1185Y150D01*
X1185Y154D01*
X1181Y154D01*
X1181Y158D01*
X1172Y158D01*
X1172Y163D01*
X1168Y163D01*
X1168Y167D01*
X1185Y167D01*
G37*
D02*
G36*
X1120Y167D02*
X1120Y163D01*
X1129Y163D01*
X1129Y158D01*
X1133Y158D01*
X1133Y154D01*
X1116Y154D01*
X1116Y158D01*
X1108Y158D01*
X1108Y163D01*
X1103Y163D01*
X1103Y167D01*
X1120Y167D01*
G37*
D02*
G36*
X1327Y163D02*
X1327Y158D01*
X1271Y158D01*
X1271Y163D01*
X1327Y163D01*
G37*
D02*
G36*
X1327Y163D02*
X1327Y158D01*
X1271Y158D01*
X1271Y163D01*
X1327Y163D01*
G37*
D02*
G36*
X1060Y163D02*
X1060Y158D01*
X1064Y158D01*
X1064Y154D01*
X1073Y154D01*
X1073Y150D01*
X1051Y150D01*
X1051Y158D01*
X1047Y158D01*
X1047Y163D01*
X1060Y163D01*
G37*
D02*
G36*
X1332Y158D02*
X1332Y154D01*
X1314Y154D01*
X1314Y141D01*
X1319Y141D01*
X1319Y132D01*
X1306Y132D01*
X1306Y137D01*
X1301Y137D01*
X1301Y141D01*
X1293Y141D01*
X1293Y145D01*
X1288Y145D01*
X1288Y150D01*
X1284Y150D01*
X1284Y154D01*
X1276Y154D01*
X1276Y158D01*
X1332Y158D01*
G37*
D02*
G36*
X1340Y154D02*
X1340Y150D01*
X1349Y150D01*
X1349Y145D01*
X1327Y145D01*
X1327Y150D01*
X1323Y150D01*
X1323Y154D01*
X1340Y154D01*
G37*
D02*
G36*
X1164Y154D02*
X1164Y150D01*
X1120Y150D01*
X1120Y154D01*
X1164Y154D01*
G37*
D02*
G36*
X1164Y154D02*
X1164Y150D01*
X1120Y150D01*
X1120Y154D01*
X1164Y154D01*
G37*
D02*
G36*
X1250Y150D02*
X1250Y145D01*
X1224Y145D01*
X1224Y150D01*
X1250Y150D01*
G37*
D02*
G36*
X1250Y150D02*
X1250Y145D01*
X1224Y145D01*
X1224Y150D01*
X1250Y150D01*
G37*
D02*
G36*
X1159Y150D02*
X1159Y141D01*
X1155Y141D01*
X1155Y137D01*
X1146Y137D01*
X1146Y141D01*
X1133Y141D01*
X1133Y145D01*
X1129Y145D01*
X1129Y150D01*
X1159Y150D01*
G37*
D02*
G36*
X1095Y150D02*
X1095Y145D01*
X1060Y145D01*
X1060Y150D01*
X1095Y150D01*
G37*
D02*
G36*
X1095Y150D02*
X1095Y145D01*
X1060Y145D01*
X1060Y150D01*
X1095Y150D01*
G37*
D02*
G36*
X1370Y145D02*
X1370Y141D01*
X1336Y141D01*
X1336Y145D01*
X1370Y145D01*
G37*
D02*
G36*
X1370Y145D02*
X1370Y141D01*
X1336Y141D01*
X1336Y145D01*
X1370Y145D01*
G37*
D02*
G36*
X1245Y145D02*
X1245Y141D01*
X1224Y141D01*
X1224Y145D01*
X1245Y145D01*
G37*
D02*
G36*
X1095Y145D02*
X1095Y141D01*
X1090Y141D01*
X1090Y137D01*
X1073Y137D01*
X1073Y141D01*
X1064Y141D01*
X1064Y145D01*
X1095Y145D01*
G37*
D02*
G36*
X1370Y141D02*
X1370Y137D01*
X1366Y137D01*
X1366Y132D01*
X1357Y132D01*
X1357Y137D01*
X1344Y137D01*
X1344Y141D01*
X1370Y141D01*
G37*
D02*
G36*
X1245Y141D02*
X1245Y137D01*
X1202Y137D01*
X1202Y141D01*
X1245Y141D01*
G37*
D02*
G36*
X1245Y141D02*
X1245Y137D01*
X1202Y137D01*
X1202Y141D01*
X1245Y141D01*
G37*
D02*
G36*
X1241Y137D02*
X1241Y132D01*
X1237Y132D01*
X1237Y128D01*
X1220Y128D01*
X1220Y132D01*
X1211Y132D01*
X1211Y137D01*
X1241Y137D01*
G37*
D02*
G36*
X1560Y102D02*
X1560Y98D01*
X1495Y98D01*
X1495Y102D01*
X1560Y102D01*
G37*
D02*
G36*
X1560Y102D02*
X1560Y98D01*
X1495Y98D01*
X1495Y102D01*
X1560Y102D01*
G37*
D02*
G36*
X1556Y98D02*
X1556Y94D01*
X1543Y94D01*
X1543Y89D01*
X1517Y89D01*
X1517Y94D01*
X1504Y94D01*
X1504Y98D01*
X1556Y98D01*
G37*
D02*
G36*
X1021Y167D02*
X1021Y163D01*
X1026Y163D01*
X1026Y145D01*
X1021Y145D01*
X1021Y141D01*
X1004Y141D01*
X1004Y145D01*
X1000Y145D01*
X1000Y163D01*
X1008Y163D01*
X1008Y167D01*
X1021Y167D01*
G37*
D02*
G54D19*
X1462Y1817D02*
X1526Y1817D01*
X1462Y1816D02*
X1526Y1816D01*
X1462Y1815D02*
X1526Y1815D01*
X1462Y1814D02*
X1526Y1814D01*
X1462Y1813D02*
X1526Y1813D01*
X1462Y1812D02*
X1526Y1812D01*
X1462Y1811D02*
X1526Y1811D01*
X1462Y1810D02*
X1526Y1810D01*
X1462Y1809D02*
X1526Y1809D01*
X1462Y1808D02*
X1526Y1808D01*
X1462Y1807D02*
X1526Y1807D01*
X1462Y1806D02*
X1526Y1806D01*
X1462Y1805D02*
X1526Y1805D01*
X1462Y1804D02*
X1526Y1804D01*
X1462Y1803D02*
X1526Y1803D01*
X1462Y1802D02*
X1526Y1802D01*
X1462Y1801D02*
X1526Y1801D01*
X1462Y1800D02*
X1526Y1800D01*
X1462Y1799D02*
X1526Y1799D01*
X1462Y1798D02*
X1490Y1798D01*
X1498Y1798D02*
X1526Y1798D01*
X1462Y1797D02*
X1487Y1797D01*
X1501Y1797D02*
X1526Y1797D01*
X1462Y1796D02*
X1486Y1796D01*
X1502Y1796D02*
X1526Y1796D01*
X1462Y1795D02*
X1485Y1795D01*
X1504Y1795D02*
X1526Y1795D01*
X1462Y1794D02*
X1483Y1794D01*
X1505Y1794D02*
X1526Y1794D01*
X1462Y1793D02*
X1483Y1793D01*
X1505Y1793D02*
X1526Y1793D01*
X1462Y1792D02*
X1482Y1792D01*
X1506Y1792D02*
X1526Y1792D01*
X1462Y1791D02*
X1481Y1791D01*
X1507Y1791D02*
X1526Y1791D01*
X1462Y1790D02*
X1481Y1790D01*
X1507Y1790D02*
X1526Y1790D01*
X1462Y1789D02*
X1481Y1789D01*
X1508Y1789D02*
X1526Y1789D01*
X1462Y1788D02*
X1480Y1788D01*
X1508Y1788D02*
X1526Y1788D01*
X1462Y1787D02*
X1480Y1787D01*
X1508Y1787D02*
X1526Y1787D01*
X1462Y1786D02*
X1480Y1786D01*
X1508Y1786D02*
X1526Y1786D01*
X1462Y1785D02*
X1480Y1785D01*
X1508Y1785D02*
X1526Y1785D01*
X1462Y1784D02*
X1480Y1784D01*
X1508Y1784D02*
X1526Y1784D01*
X1462Y1783D02*
X1480Y1783D01*
X1508Y1783D02*
X1526Y1783D01*
X1462Y1782D02*
X1480Y1782D01*
X1508Y1782D02*
X1526Y1782D01*
X1462Y1781D02*
X1480Y1781D01*
X1508Y1781D02*
X1526Y1781D01*
X1462Y1780D02*
X1481Y1780D01*
X1507Y1780D02*
X1526Y1780D01*
X1462Y1779D02*
X1481Y1779D01*
X1507Y1779D02*
X1526Y1779D01*
X1462Y1778D02*
X1482Y1778D01*
X1506Y1778D02*
X1526Y1778D01*
X1462Y1777D02*
X1482Y1777D01*
X1506Y1777D02*
X1526Y1777D01*
X1462Y1776D02*
X1483Y1776D01*
X1505Y1776D02*
X1526Y1776D01*
X1462Y1775D02*
X1484Y1775D01*
X1504Y1775D02*
X1526Y1775D01*
X1462Y1774D02*
X1485Y1774D01*
X1503Y1774D02*
X1526Y1774D01*
X1462Y1773D02*
X1486Y1773D01*
X1502Y1773D02*
X1526Y1773D01*
X1462Y1772D02*
X1488Y1772D01*
X1500Y1772D02*
X1526Y1772D01*
X1462Y1771D02*
X1492Y1771D01*
X1496Y1771D02*
X1526Y1771D01*
X1462Y1770D02*
X1526Y1770D01*
X1462Y1769D02*
X1526Y1769D01*
X1462Y1768D02*
X1526Y1768D01*
X1462Y1767D02*
X1526Y1767D01*
X1462Y1766D02*
X1526Y1766D01*
X1462Y1765D02*
X1526Y1765D01*
X1462Y1764D02*
X1526Y1764D01*
X1462Y1763D02*
X1526Y1763D01*
X1462Y1762D02*
X1526Y1762D01*
X1462Y1761D02*
X1526Y1761D01*
X1462Y1760D02*
X1526Y1760D01*
X1462Y1759D02*
X1526Y1759D01*
X1462Y1758D02*
X1526Y1758D01*
X1462Y1757D02*
X1526Y1757D01*
X1462Y1756D02*
X1526Y1756D01*
X1462Y1755D02*
X1526Y1755D01*
X1462Y1754D02*
X1526Y1754D01*
X1462Y1753D02*
X1526Y1753D01*
X1055Y122D02*
X1062Y122D01*
X1382Y122D02*
X1389Y122D01*
X1053Y121D02*
X1063Y121D01*
X1380Y121D02*
X1390Y121D01*
X1053Y120D02*
X1064Y120D01*
X1380Y120D02*
X1391Y120D01*
X1052Y119D02*
X1064Y119D01*
X1379Y119D02*
X1391Y119D01*
X727Y118D02*
X744Y118D01*
X1052Y118D02*
X1065Y118D01*
X1185Y118D02*
X1202Y118D01*
X1233Y118D02*
X1236Y118D01*
X1379Y118D02*
X1392Y118D01*
X1431Y118D02*
X1447Y118D01*
X726Y117D02*
X745Y117D01*
X1052Y117D02*
X1065Y117D01*
X1184Y117D02*
X1203Y117D01*
X1231Y117D02*
X1237Y117D01*
X1379Y117D02*
X1392Y117D01*
X1430Y117D02*
X1450Y117D01*
X725Y116D02*
X746Y116D01*
X1052Y116D02*
X1065Y116D01*
X1183Y116D02*
X1204Y116D01*
X1231Y116D02*
X1238Y116D01*
X1379Y116D02*
X1392Y116D01*
X1429Y116D02*
X1452Y116D01*
X725Y115D02*
X746Y115D01*
X1052Y115D02*
X1065Y115D01*
X1183Y115D02*
X1204Y115D01*
X1230Y115D02*
X1238Y115D01*
X1379Y115D02*
X1392Y115D01*
X1429Y115D02*
X1453Y115D01*
X725Y114D02*
X747Y114D01*
X1052Y114D02*
X1065Y114D01*
X1183Y114D02*
X1204Y114D01*
X1230Y114D02*
X1238Y114D01*
X1379Y114D02*
X1392Y114D01*
X1429Y114D02*
X1454Y114D01*
X725Y113D02*
X746Y113D01*
X1052Y113D02*
X1064Y113D01*
X1183Y113D02*
X1204Y113D01*
X1230Y113D02*
X1238Y113D01*
X1379Y113D02*
X1391Y113D01*
X1429Y113D02*
X1455Y113D01*
X725Y112D02*
X746Y112D01*
X1052Y112D02*
X1064Y112D01*
X1183Y112D02*
X1204Y112D01*
X1230Y112D02*
X1238Y112D01*
X1379Y112D02*
X1391Y112D01*
X1429Y112D02*
X1456Y112D01*
X725Y111D02*
X745Y111D01*
X1053Y111D02*
X1063Y111D01*
X1183Y111D02*
X1203Y111D01*
X1230Y111D02*
X1238Y111D01*
X1380Y111D02*
X1390Y111D01*
X1430Y111D02*
X1457Y111D01*
X725Y110D02*
X744Y110D01*
X1054Y110D02*
X1062Y110D01*
X1183Y110D02*
X1202Y110D01*
X1230Y110D02*
X1238Y110D01*
X1381Y110D02*
X1389Y110D01*
X1431Y110D02*
X1457Y110D01*
X725Y109D02*
X733Y109D01*
X1183Y109D02*
X1191Y109D01*
X1230Y109D02*
X1238Y109D01*
X1446Y109D02*
X1458Y109D01*
X725Y108D02*
X733Y108D01*
X1183Y108D02*
X1191Y108D01*
X1230Y108D02*
X1238Y108D01*
X1448Y108D02*
X1458Y108D01*
X725Y107D02*
X733Y107D01*
X1183Y107D02*
X1191Y107D01*
X1230Y107D02*
X1238Y107D01*
X1449Y107D02*
X1459Y107D01*
X725Y106D02*
X733Y106D01*
X1183Y106D02*
X1191Y106D01*
X1230Y106D02*
X1238Y106D01*
X1450Y106D02*
X1459Y106D01*
X725Y105D02*
X733Y105D01*
X1183Y105D02*
X1191Y105D01*
X1230Y105D02*
X1238Y105D01*
X1451Y105D02*
X1459Y105D01*
X725Y104D02*
X733Y104D01*
X1183Y104D02*
X1191Y104D01*
X1230Y104D02*
X1238Y104D01*
X1451Y104D02*
X1459Y104D01*
X725Y103D02*
X733Y103D01*
X1183Y103D02*
X1191Y103D01*
X1230Y103D02*
X1238Y103D01*
X1451Y103D02*
X1459Y103D01*
X725Y102D02*
X733Y102D01*
X1183Y102D02*
X1191Y102D01*
X1230Y102D02*
X1238Y102D01*
X1451Y102D02*
X1459Y102D01*
X725Y101D02*
X733Y101D01*
X1183Y101D02*
X1191Y101D01*
X1230Y101D02*
X1238Y101D01*
X1451Y101D02*
X1459Y101D01*
X725Y100D02*
X733Y100D01*
X1183Y100D02*
X1191Y100D01*
X1230Y100D02*
X1238Y100D01*
X1451Y100D02*
X1459Y100D01*
X725Y99D02*
X733Y99D01*
X775Y99D02*
X777Y99D01*
X791Y99D02*
X802Y99D01*
X906Y99D02*
X908Y99D01*
X922Y99D02*
X933Y99D01*
X980Y99D02*
X990Y99D01*
X1008Y99D02*
X1010Y99D01*
X1055Y99D02*
X1070Y99D01*
X1183Y99D02*
X1191Y99D01*
X1230Y99D02*
X1238Y99D01*
X1249Y99D02*
X1260Y99D01*
X1307Y99D02*
X1317Y99D01*
X1335Y99D02*
X1336Y99D01*
X1382Y99D02*
X1397Y99D01*
X1441Y99D02*
X1465Y99D01*
X725Y98D02*
X733Y98D01*
X774Y98D02*
X779Y98D01*
X788Y98D02*
X805Y98D01*
X905Y98D02*
X910Y98D01*
X919Y98D02*
X936Y98D01*
X977Y98D02*
X993Y98D01*
X1006Y98D02*
X1011Y98D01*
X1053Y98D02*
X1072Y98D01*
X1183Y98D02*
X1191Y98D01*
X1230Y98D02*
X1238Y98D01*
X1246Y98D02*
X1263Y98D01*
X1304Y98D02*
X1320Y98D01*
X1333Y98D02*
X1338Y98D01*
X1380Y98D02*
X1399Y98D01*
X1439Y98D02*
X1467Y98D01*
X725Y97D02*
X733Y97D01*
X773Y97D02*
X780Y97D01*
X786Y97D02*
X807Y97D01*
X904Y97D02*
X910Y97D01*
X917Y97D02*
X938Y97D01*
X976Y97D02*
X995Y97D01*
X1005Y97D02*
X1012Y97D01*
X1053Y97D02*
X1073Y97D01*
X1183Y97D02*
X1191Y97D01*
X1230Y97D02*
X1238Y97D01*
X1244Y97D02*
X1265Y97D01*
X1303Y97D02*
X1322Y97D01*
X1332Y97D02*
X1339Y97D01*
X1380Y97D02*
X1400Y97D01*
X1438Y97D02*
X1468Y97D01*
X725Y96D02*
X733Y96D01*
X772Y96D02*
X780Y96D01*
X785Y96D02*
X808Y96D01*
X903Y96D02*
X911Y96D01*
X916Y96D02*
X939Y96D01*
X974Y96D02*
X996Y96D01*
X1005Y96D02*
X1012Y96D01*
X1052Y96D02*
X1073Y96D01*
X1183Y96D02*
X1191Y96D01*
X1230Y96D02*
X1238Y96D01*
X1243Y96D02*
X1266Y96D01*
X1301Y96D02*
X1323Y96D01*
X1332Y96D02*
X1339Y96D01*
X1379Y96D02*
X1400Y96D01*
X1438Y96D02*
X1468Y96D01*
X725Y95D02*
X733Y95D01*
X772Y95D02*
X780Y95D01*
X784Y95D02*
X810Y95D01*
X903Y95D02*
X911Y95D01*
X914Y95D02*
X940Y95D01*
X973Y95D02*
X998Y95D01*
X1005Y95D02*
X1013Y95D01*
X1052Y95D02*
X1074Y95D01*
X1183Y95D02*
X1191Y95D01*
X1230Y95D02*
X1238Y95D01*
X1241Y95D02*
X1267Y95D01*
X1300Y95D02*
X1325Y95D01*
X1332Y95D02*
X1340Y95D01*
X1379Y95D02*
X1401Y95D01*
X1438Y95D02*
X1468Y95D01*
X725Y94D02*
X733Y94D01*
X772Y94D02*
X780Y94D01*
X783Y94D02*
X811Y94D01*
X903Y94D02*
X911Y94D01*
X913Y94D02*
X942Y94D01*
X972Y94D02*
X1000Y94D01*
X1004Y94D02*
X1013Y94D01*
X1052Y94D02*
X1073Y94D01*
X1183Y94D02*
X1191Y94D01*
X1230Y94D02*
X1238Y94D01*
X1240Y94D02*
X1268Y94D01*
X1299Y94D02*
X1327Y94D01*
X1331Y94D02*
X1340Y94D01*
X1379Y94D02*
X1400Y94D01*
X1438Y94D02*
X1468Y94D01*
X725Y93D02*
X733Y93D01*
X772Y93D02*
X812Y93D01*
X903Y93D02*
X943Y93D01*
X972Y93D02*
X1001Y93D01*
X1004Y93D02*
X1013Y93D01*
X1052Y93D02*
X1073Y93D01*
X1183Y93D02*
X1191Y93D01*
X1230Y93D02*
X1270Y93D01*
X1299Y93D02*
X1328Y93D01*
X1331Y93D02*
X1340Y93D01*
X1379Y93D02*
X1400Y93D01*
X1438Y93D02*
X1468Y93D01*
X725Y92D02*
X733Y92D01*
X772Y92D02*
X813Y92D01*
X903Y92D02*
X944Y92D01*
X971Y92D02*
X1013Y92D01*
X1052Y92D02*
X1073Y92D01*
X1183Y92D02*
X1191Y92D01*
X1230Y92D02*
X1271Y92D01*
X1298Y92D02*
X1340Y92D01*
X1379Y92D02*
X1400Y92D01*
X1439Y92D02*
X1467Y92D01*
X725Y91D02*
X733Y91D01*
X772Y91D02*
X814Y91D01*
X903Y91D02*
X944Y91D01*
X971Y91D02*
X1013Y91D01*
X1052Y91D02*
X1072Y91D01*
X1183Y91D02*
X1191Y91D01*
X1230Y91D02*
X1271Y91D01*
X1298Y91D02*
X1340Y91D01*
X1379Y91D02*
X1399Y91D01*
X1440Y91D02*
X1466Y91D01*
X725Y90D02*
X733Y90D01*
X772Y90D02*
X792Y90D01*
X801Y90D02*
X814Y90D01*
X903Y90D02*
X923Y90D01*
X932Y90D02*
X945Y90D01*
X970Y90D02*
X982Y90D01*
X990Y90D02*
X1013Y90D01*
X1052Y90D02*
X1060Y90D01*
X1183Y90D02*
X1191Y90D01*
X1230Y90D02*
X1250Y90D01*
X1259Y90D02*
X1272Y90D01*
X1297Y90D02*
X1309Y90D01*
X1317Y90D02*
X1340Y90D01*
X1379Y90D02*
X1387Y90D01*
X1451Y90D02*
X1460Y90D01*
X725Y89D02*
X733Y89D01*
X772Y89D02*
X790Y89D01*
X804Y89D02*
X815Y89D01*
X903Y89D02*
X921Y89D01*
X934Y89D02*
X946Y89D01*
X970Y89D02*
X979Y89D01*
X991Y89D02*
X1013Y89D01*
X1052Y89D02*
X1060Y89D01*
X1183Y89D02*
X1191Y89D01*
X1230Y89D02*
X1248Y89D01*
X1261Y89D02*
X1273Y89D01*
X1297Y89D02*
X1306Y89D01*
X1318Y89D02*
X1340Y89D01*
X1379Y89D02*
X1387Y89D01*
X1451Y89D02*
X1459Y89D01*
X725Y88D02*
X733Y88D01*
X772Y88D02*
X789Y88D01*
X805Y88D02*
X815Y88D01*
X903Y88D02*
X919Y88D01*
X936Y88D02*
X946Y88D01*
X970Y88D02*
X979Y88D01*
X993Y88D02*
X1013Y88D01*
X1052Y88D02*
X1060Y88D01*
X1183Y88D02*
X1191Y88D01*
X1230Y88D02*
X1246Y88D01*
X1263Y88D02*
X1273Y88D01*
X1297Y88D02*
X1306Y88D01*
X1320Y88D02*
X1340Y88D01*
X1379Y88D02*
X1387Y88D01*
X1451Y88D02*
X1459Y88D01*
X725Y87D02*
X733Y87D01*
X772Y87D02*
X787Y87D01*
X806Y87D02*
X816Y87D01*
X903Y87D02*
X918Y87D01*
X937Y87D02*
X947Y87D01*
X970Y87D02*
X978Y87D01*
X994Y87D02*
X1013Y87D01*
X1052Y87D02*
X1060Y87D01*
X1183Y87D02*
X1191Y87D01*
X1230Y87D02*
X1245Y87D01*
X1264Y87D02*
X1274Y87D01*
X1297Y87D02*
X1305Y87D01*
X1321Y87D02*
X1340Y87D01*
X1379Y87D02*
X1387Y87D01*
X1451Y87D02*
X1459Y87D01*
X725Y86D02*
X733Y86D01*
X772Y86D02*
X786Y86D01*
X807Y86D02*
X816Y86D01*
X903Y86D02*
X917Y86D01*
X938Y86D02*
X947Y86D01*
X970Y86D02*
X978Y86D01*
X996Y86D02*
X1013Y86D01*
X1052Y86D02*
X1060Y86D01*
X1183Y86D02*
X1191Y86D01*
X1230Y86D02*
X1244Y86D01*
X1265Y86D02*
X1274Y86D01*
X1297Y86D02*
X1305Y86D01*
X1323Y86D02*
X1340Y86D01*
X1379Y86D02*
X1387Y86D01*
X1451Y86D02*
X1459Y86D01*
X725Y85D02*
X733Y85D01*
X772Y85D02*
X785Y85D01*
X808Y85D02*
X816Y85D01*
X903Y85D02*
X916Y85D01*
X938Y85D02*
X947Y85D01*
X970Y85D02*
X978Y85D01*
X998Y85D02*
X1013Y85D01*
X1052Y85D02*
X1060Y85D01*
X1183Y85D02*
X1191Y85D01*
X1230Y85D02*
X1243Y85D01*
X1265Y85D02*
X1274Y85D01*
X1297Y85D02*
X1305Y85D01*
X1325Y85D02*
X1340Y85D01*
X1379Y85D02*
X1387Y85D01*
X1451Y85D02*
X1459Y85D01*
X725Y84D02*
X733Y84D01*
X772Y84D02*
X784Y84D01*
X808Y84D02*
X816Y84D01*
X903Y84D02*
X915Y84D01*
X939Y84D02*
X947Y84D01*
X970Y84D02*
X978Y84D01*
X999Y84D02*
X1013Y84D01*
X1052Y84D02*
X1060Y84D01*
X1183Y84D02*
X1191Y84D01*
X1230Y84D02*
X1242Y84D01*
X1266Y84D02*
X1274Y84D01*
X1297Y84D02*
X1305Y84D01*
X1326Y84D02*
X1340Y84D01*
X1379Y84D02*
X1387Y84D01*
X1451Y84D02*
X1459Y84D01*
X725Y83D02*
X733Y83D01*
X772Y83D02*
X783Y83D01*
X808Y83D02*
X816Y83D01*
X903Y83D02*
X914Y83D01*
X939Y83D02*
X947Y83D01*
X969Y83D02*
X978Y83D01*
X1001Y83D02*
X1013Y83D01*
X1052Y83D02*
X1060Y83D01*
X1183Y83D02*
X1191Y83D01*
X1230Y83D02*
X1241Y83D01*
X1266Y83D02*
X1274Y83D01*
X1296Y83D02*
X1305Y83D01*
X1328Y83D02*
X1340Y83D01*
X1379Y83D02*
X1387Y83D01*
X1451Y83D02*
X1459Y83D01*
X725Y82D02*
X733Y82D01*
X772Y82D02*
X782Y82D01*
X808Y82D02*
X816Y82D01*
X903Y82D02*
X913Y82D01*
X939Y82D02*
X947Y82D01*
X969Y82D02*
X978Y82D01*
X1002Y82D02*
X1013Y82D01*
X1052Y82D02*
X1060Y82D01*
X1183Y82D02*
X1191Y82D01*
X1230Y82D02*
X1240Y82D01*
X1266Y82D02*
X1274Y82D01*
X1296Y82D02*
X1305Y82D01*
X1329Y82D02*
X1340Y82D01*
X1379Y82D02*
X1387Y82D01*
X1451Y82D02*
X1459Y82D01*
X725Y81D02*
X733Y81D01*
X772Y81D02*
X781Y81D01*
X808Y81D02*
X816Y81D01*
X903Y81D02*
X912Y81D01*
X939Y81D02*
X947Y81D01*
X969Y81D02*
X978Y81D01*
X1004Y81D02*
X1013Y81D01*
X1052Y81D02*
X1060Y81D01*
X1183Y81D02*
X1191Y81D01*
X1230Y81D02*
X1239Y81D01*
X1266Y81D02*
X1274Y81D01*
X1296Y81D02*
X1305Y81D01*
X1331Y81D02*
X1340Y81D01*
X1379Y81D02*
X1387Y81D01*
X1451Y81D02*
X1459Y81D01*
X725Y80D02*
X733Y80D01*
X772Y80D02*
X781Y80D01*
X808Y80D02*
X816Y80D01*
X903Y80D02*
X911Y80D01*
X939Y80D02*
X947Y80D01*
X969Y80D02*
X978Y80D01*
X1004Y80D02*
X1013Y80D01*
X1052Y80D02*
X1060Y80D01*
X1183Y80D02*
X1191Y80D01*
X1230Y80D02*
X1238Y80D01*
X1266Y80D02*
X1274Y80D01*
X1296Y80D02*
X1305Y80D01*
X1331Y80D02*
X1340Y80D01*
X1379Y80D02*
X1387Y80D01*
X1451Y80D02*
X1459Y80D01*
X725Y79D02*
X733Y79D01*
X772Y79D02*
X780Y79D01*
X808Y79D02*
X816Y79D01*
X903Y79D02*
X911Y79D01*
X939Y79D02*
X947Y79D01*
X969Y79D02*
X978Y79D01*
X1004Y79D02*
X1013Y79D01*
X1052Y79D02*
X1060Y79D01*
X1183Y79D02*
X1191Y79D01*
X1230Y79D02*
X1238Y79D01*
X1266Y79D02*
X1274Y79D01*
X1296Y79D02*
X1305Y79D01*
X1331Y79D02*
X1340Y79D01*
X1379Y79D02*
X1387Y79D01*
X1451Y79D02*
X1459Y79D01*
X725Y78D02*
X733Y78D01*
X772Y78D02*
X780Y78D01*
X808Y78D02*
X816Y78D01*
X903Y78D02*
X911Y78D01*
X939Y78D02*
X947Y78D01*
X969Y78D02*
X977Y78D01*
X1004Y78D02*
X1013Y78D01*
X1052Y78D02*
X1060Y78D01*
X1183Y78D02*
X1191Y78D01*
X1230Y78D02*
X1238Y78D01*
X1266Y78D02*
X1274Y78D01*
X1296Y78D02*
X1304Y78D01*
X1331Y78D02*
X1340Y78D01*
X1379Y78D02*
X1387Y78D01*
X1451Y78D02*
X1459Y78D01*
X725Y77D02*
X733Y77D01*
X772Y77D02*
X780Y77D01*
X808Y77D02*
X816Y77D01*
X903Y77D02*
X911Y77D01*
X939Y77D02*
X947Y77D01*
X969Y77D02*
X977Y77D01*
X1004Y77D02*
X1013Y77D01*
X1052Y77D02*
X1060Y77D01*
X1183Y77D02*
X1191Y77D01*
X1230Y77D02*
X1238Y77D01*
X1266Y77D02*
X1274Y77D01*
X1296Y77D02*
X1304Y77D01*
X1331Y77D02*
X1340Y77D01*
X1379Y77D02*
X1387Y77D01*
X1451Y77D02*
X1459Y77D01*
X725Y76D02*
X733Y76D01*
X772Y76D02*
X780Y76D01*
X808Y76D02*
X816Y76D01*
X855Y76D02*
X864Y76D01*
X903Y76D02*
X911Y76D01*
X939Y76D02*
X947Y76D01*
X969Y76D02*
X977Y76D01*
X1004Y76D02*
X1013Y76D01*
X1052Y76D02*
X1060Y76D01*
X1117Y76D02*
X1126Y76D01*
X1183Y76D02*
X1191Y76D01*
X1230Y76D02*
X1238Y76D01*
X1266Y76D02*
X1274Y76D01*
X1296Y76D02*
X1304Y76D01*
X1331Y76D02*
X1340Y76D01*
X1379Y76D02*
X1387Y76D01*
X1451Y76D02*
X1459Y76D01*
X725Y75D02*
X733Y75D01*
X772Y75D02*
X780Y75D01*
X808Y75D02*
X816Y75D01*
X853Y75D02*
X867Y75D01*
X903Y75D02*
X911Y75D01*
X939Y75D02*
X947Y75D01*
X969Y75D02*
X977Y75D01*
X1004Y75D02*
X1013Y75D01*
X1052Y75D02*
X1060Y75D01*
X1114Y75D02*
X1128Y75D01*
X1183Y75D02*
X1191Y75D01*
X1230Y75D02*
X1238Y75D01*
X1266Y75D02*
X1274Y75D01*
X1296Y75D02*
X1304Y75D01*
X1331Y75D02*
X1340Y75D01*
X1379Y75D02*
X1387Y75D01*
X1451Y75D02*
X1459Y75D01*
X725Y74D02*
X733Y74D01*
X772Y74D02*
X780Y74D01*
X808Y74D02*
X816Y74D01*
X852Y74D02*
X868Y74D01*
X903Y74D02*
X911Y74D01*
X939Y74D02*
X947Y74D01*
X969Y74D02*
X977Y74D01*
X1004Y74D02*
X1013Y74D01*
X1052Y74D02*
X1060Y74D01*
X1114Y74D02*
X1129Y74D01*
X1183Y74D02*
X1191Y74D01*
X1230Y74D02*
X1238Y74D01*
X1266Y74D02*
X1274Y74D01*
X1296Y74D02*
X1304Y74D01*
X1331Y74D02*
X1340Y74D01*
X1379Y74D02*
X1387Y74D01*
X1451Y74D02*
X1459Y74D01*
X725Y73D02*
X733Y73D01*
X772Y73D02*
X780Y73D01*
X808Y73D02*
X816Y73D01*
X851Y73D02*
X868Y73D01*
X903Y73D02*
X911Y73D01*
X939Y73D02*
X947Y73D01*
X969Y73D02*
X977Y73D01*
X1004Y73D02*
X1013Y73D01*
X1052Y73D02*
X1060Y73D01*
X1113Y73D02*
X1130Y73D01*
X1183Y73D02*
X1191Y73D01*
X1230Y73D02*
X1238Y73D01*
X1266Y73D02*
X1274Y73D01*
X1296Y73D02*
X1304Y73D01*
X1331Y73D02*
X1340Y73D01*
X1379Y73D02*
X1387Y73D01*
X1451Y73D02*
X1459Y73D01*
X725Y72D02*
X733Y72D01*
X772Y72D02*
X780Y72D01*
X808Y72D02*
X816Y72D01*
X851Y72D02*
X868Y72D01*
X903Y72D02*
X911Y72D01*
X939Y72D02*
X947Y72D01*
X969Y72D02*
X977Y72D01*
X1004Y72D02*
X1013Y72D01*
X1052Y72D02*
X1060Y72D01*
X1113Y72D02*
X1130Y72D01*
X1183Y72D02*
X1191Y72D01*
X1230Y72D02*
X1238Y72D01*
X1266Y72D02*
X1274Y72D01*
X1296Y72D02*
X1304Y72D01*
X1331Y72D02*
X1340Y72D01*
X1379Y72D02*
X1387Y72D01*
X1451Y72D02*
X1459Y72D01*
X725Y71D02*
X733Y71D01*
X772Y71D02*
X781Y71D01*
X808Y71D02*
X816Y71D01*
X851Y71D02*
X868Y71D01*
X903Y71D02*
X911Y71D01*
X939Y71D02*
X947Y71D01*
X969Y71D02*
X977Y71D01*
X1004Y71D02*
X1013Y71D01*
X1052Y71D02*
X1060Y71D01*
X1113Y71D02*
X1130Y71D01*
X1183Y71D02*
X1191Y71D01*
X1230Y71D02*
X1238Y71D01*
X1266Y71D02*
X1274Y71D01*
X1296Y71D02*
X1304Y71D01*
X1331Y71D02*
X1340Y71D01*
X1379Y71D02*
X1387Y71D01*
X1451Y71D02*
X1459Y71D01*
X725Y70D02*
X733Y70D01*
X772Y70D02*
X781Y70D01*
X808Y70D02*
X816Y70D01*
X851Y70D02*
X868Y70D01*
X903Y70D02*
X912Y70D01*
X939Y70D02*
X947Y70D01*
X969Y70D02*
X977Y70D01*
X1004Y70D02*
X1013Y70D01*
X1052Y70D02*
X1060Y70D01*
X1113Y70D02*
X1130Y70D01*
X1183Y70D02*
X1191Y70D01*
X1230Y70D02*
X1238Y70D01*
X1266Y70D02*
X1274Y70D01*
X1296Y70D02*
X1304Y70D01*
X1331Y70D02*
X1340Y70D01*
X1379Y70D02*
X1387Y70D01*
X1451Y70D02*
X1459Y70D01*
X725Y69D02*
X733Y69D01*
X772Y69D02*
X782Y69D01*
X808Y69D02*
X816Y69D01*
X851Y69D02*
X868Y69D01*
X903Y69D02*
X912Y69D01*
X939Y69D02*
X947Y69D01*
X969Y69D02*
X977Y69D01*
X1004Y69D02*
X1013Y69D01*
X1052Y69D02*
X1060Y69D01*
X1113Y69D02*
X1130Y69D01*
X1183Y69D02*
X1191Y69D01*
X1230Y69D02*
X1238Y69D01*
X1266Y69D02*
X1274Y69D01*
X1296Y69D02*
X1304Y69D01*
X1331Y69D02*
X1340Y69D01*
X1379Y69D02*
X1387Y69D01*
X1451Y69D02*
X1459Y69D01*
X725Y68D02*
X733Y68D01*
X772Y68D02*
X783Y68D01*
X808Y68D02*
X816Y68D01*
X851Y68D02*
X868Y68D01*
X903Y68D02*
X913Y68D01*
X939Y68D02*
X947Y68D01*
X969Y68D02*
X977Y68D01*
X1004Y68D02*
X1013Y68D01*
X1052Y68D02*
X1060Y68D01*
X1113Y68D02*
X1130Y68D01*
X1183Y68D02*
X1191Y68D01*
X1230Y68D02*
X1238Y68D01*
X1266Y68D02*
X1274Y68D01*
X1296Y68D02*
X1304Y68D01*
X1331Y68D02*
X1340Y68D01*
X1379Y68D02*
X1387Y68D01*
X1451Y68D02*
X1459Y68D01*
X725Y67D02*
X733Y67D01*
X772Y67D02*
X784Y67D01*
X808Y67D02*
X816Y67D01*
X851Y67D02*
X868Y67D01*
X903Y67D02*
X915Y67D01*
X939Y67D02*
X947Y67D01*
X969Y67D02*
X977Y67D01*
X1004Y67D02*
X1013Y67D01*
X1052Y67D02*
X1060Y67D01*
X1113Y67D02*
X1130Y67D01*
X1183Y67D02*
X1191Y67D01*
X1230Y67D02*
X1238Y67D01*
X1266Y67D02*
X1274Y67D01*
X1296Y67D02*
X1304Y67D01*
X1331Y67D02*
X1340Y67D01*
X1379Y67D02*
X1387Y67D01*
X1451Y67D02*
X1459Y67D01*
X725Y66D02*
X733Y66D01*
X772Y66D02*
X785Y66D01*
X808Y66D02*
X816Y66D01*
X851Y66D02*
X868Y66D01*
X903Y66D02*
X916Y66D01*
X939Y66D02*
X947Y66D01*
X969Y66D02*
X977Y66D01*
X1004Y66D02*
X1013Y66D01*
X1052Y66D02*
X1060Y66D01*
X1113Y66D02*
X1130Y66D01*
X1183Y66D02*
X1191Y66D01*
X1230Y66D02*
X1239Y66D01*
X1266Y66D02*
X1274Y66D01*
X1296Y66D02*
X1304Y66D01*
X1331Y66D02*
X1340Y66D01*
X1379Y66D02*
X1387Y66D01*
X1451Y66D02*
X1459Y66D01*
X725Y65D02*
X733Y65D01*
X772Y65D02*
X786Y65D01*
X807Y65D02*
X816Y65D01*
X851Y65D02*
X868Y65D01*
X903Y65D02*
X917Y65D01*
X938Y65D02*
X947Y65D01*
X969Y65D02*
X977Y65D01*
X1004Y65D02*
X1013Y65D01*
X1052Y65D02*
X1060Y65D01*
X1113Y65D02*
X1130Y65D01*
X1183Y65D02*
X1191Y65D01*
X1230Y65D02*
X1240Y65D01*
X1266Y65D02*
X1274Y65D01*
X1296Y65D02*
X1304Y65D01*
X1331Y65D02*
X1340Y65D01*
X1379Y65D02*
X1387Y65D01*
X1451Y65D02*
X1459Y65D01*
X725Y64D02*
X733Y64D01*
X772Y64D02*
X787Y64D01*
X806Y64D02*
X816Y64D01*
X851Y64D02*
X868Y64D01*
X903Y64D02*
X918Y64D01*
X937Y64D02*
X947Y64D01*
X969Y64D02*
X977Y64D01*
X1004Y64D02*
X1013Y64D01*
X1052Y64D02*
X1060Y64D01*
X1113Y64D02*
X1130Y64D01*
X1183Y64D02*
X1191Y64D01*
X1230Y64D02*
X1241Y64D01*
X1266Y64D02*
X1274Y64D01*
X1296Y64D02*
X1304Y64D01*
X1331Y64D02*
X1340Y64D01*
X1379Y64D02*
X1387Y64D01*
X1451Y64D02*
X1459Y64D01*
X725Y63D02*
X733Y63D01*
X772Y63D02*
X788Y63D01*
X805Y63D02*
X815Y63D01*
X851Y63D02*
X868Y63D01*
X903Y63D02*
X919Y63D01*
X936Y63D02*
X946Y63D01*
X969Y63D02*
X977Y63D01*
X1004Y63D02*
X1013Y63D01*
X1052Y63D02*
X1060Y63D01*
X1113Y63D02*
X1130Y63D01*
X1183Y63D02*
X1191Y63D01*
X1230Y63D02*
X1242Y63D01*
X1266Y63D02*
X1274Y63D01*
X1296Y63D02*
X1304Y63D01*
X1331Y63D02*
X1340Y63D01*
X1379Y63D02*
X1387Y63D01*
X1451Y63D02*
X1459Y63D01*
X725Y62D02*
X733Y62D01*
X772Y62D02*
X790Y62D01*
X804Y62D02*
X815Y62D01*
X852Y62D02*
X868Y62D01*
X903Y62D02*
X920Y62D01*
X935Y62D02*
X946Y62D01*
X969Y62D02*
X977Y62D01*
X1004Y62D02*
X1013Y62D01*
X1052Y62D02*
X1060Y62D01*
X1113Y62D02*
X1130Y62D01*
X1183Y62D02*
X1191Y62D01*
X1230Y62D02*
X1243Y62D01*
X1265Y62D02*
X1274Y62D01*
X1296Y62D02*
X1304Y62D01*
X1331Y62D02*
X1340Y62D01*
X1379Y62D02*
X1387Y62D01*
X1451Y62D02*
X1459Y62D01*
X725Y61D02*
X733Y61D01*
X772Y61D02*
X791Y61D01*
X802Y61D02*
X814Y61D01*
X852Y61D02*
X867Y61D01*
X903Y61D02*
X922Y61D01*
X933Y61D02*
X945Y61D01*
X969Y61D02*
X977Y61D01*
X1004Y61D02*
X1013Y61D01*
X1052Y61D02*
X1060Y61D01*
X1114Y61D02*
X1129Y61D01*
X1183Y61D02*
X1191Y61D01*
X1230Y61D02*
X1244Y61D01*
X1265Y61D02*
X1274Y61D01*
X1296Y61D02*
X1304Y61D01*
X1331Y61D02*
X1340Y61D01*
X1379Y61D02*
X1387Y61D01*
X1451Y61D02*
X1459Y61D01*
X725Y60D02*
X733Y60D01*
X772Y60D02*
X814Y60D01*
X853Y60D02*
X866Y60D01*
X903Y60D02*
X945Y60D01*
X969Y60D02*
X977Y60D01*
X1004Y60D02*
X1013Y60D01*
X1052Y60D02*
X1060Y60D01*
X1115Y60D02*
X1128Y60D01*
X1183Y60D02*
X1191Y60D01*
X1230Y60D02*
X1245Y60D01*
X1264Y60D02*
X1274Y60D01*
X1296Y60D02*
X1304Y60D01*
X1331Y60D02*
X1340Y60D01*
X1379Y60D02*
X1387Y60D01*
X1451Y60D02*
X1459Y60D01*
X725Y59D02*
X733Y59D01*
X772Y59D02*
X813Y59D01*
X903Y59D02*
X944Y59D01*
X969Y59D02*
X977Y59D01*
X1004Y59D02*
X1013Y59D01*
X1052Y59D02*
X1060Y59D01*
X1183Y59D02*
X1191Y59D01*
X1230Y59D02*
X1246Y59D01*
X1263Y59D02*
X1273Y59D01*
X1296Y59D02*
X1304Y59D01*
X1331Y59D02*
X1340Y59D01*
X1379Y59D02*
X1387Y59D01*
X1451Y59D02*
X1459Y59D01*
X725Y58D02*
X733Y58D01*
X772Y58D02*
X812Y58D01*
X903Y58D02*
X943Y58D01*
X969Y58D02*
X977Y58D01*
X1004Y58D02*
X1013Y58D01*
X1052Y58D02*
X1060Y58D01*
X1183Y58D02*
X1191Y58D01*
X1230Y58D02*
X1248Y58D01*
X1261Y58D02*
X1273Y58D01*
X1296Y58D02*
X1304Y58D01*
X1331Y58D02*
X1340Y58D01*
X1379Y58D02*
X1387Y58D01*
X1451Y58D02*
X1459Y58D01*
X725Y57D02*
X733Y57D01*
X772Y57D02*
X780Y57D01*
X782Y57D02*
X811Y57D01*
X903Y57D02*
X911Y57D01*
X913Y57D02*
X942Y57D01*
X969Y57D02*
X977Y57D01*
X1004Y57D02*
X1013Y57D01*
X1052Y57D02*
X1060Y57D01*
X1182Y57D02*
X1191Y57D01*
X1230Y57D02*
X1250Y57D01*
X1259Y57D02*
X1272Y57D01*
X1296Y57D02*
X1304Y57D01*
X1331Y57D02*
X1340Y57D01*
X1379Y57D02*
X1387Y57D01*
X1451Y57D02*
X1459Y57D01*
X713Y56D02*
X744Y56D01*
X772Y56D02*
X780Y56D01*
X783Y56D02*
X810Y56D01*
X903Y56D02*
X911Y56D01*
X914Y56D02*
X941Y56D01*
X969Y56D02*
X977Y56D01*
X1004Y56D02*
X1013Y56D01*
X1040Y56D02*
X1071Y56D01*
X1171Y56D02*
X1202Y56D01*
X1230Y56D02*
X1272Y56D01*
X1296Y56D02*
X1304Y56D01*
X1331Y56D02*
X1340Y56D01*
X1367Y56D02*
X1398Y56D01*
X1451Y56D02*
X1459Y56D01*
X712Y55D02*
X746Y55D01*
X772Y55D02*
X780Y55D01*
X784Y55D02*
X809Y55D01*
X903Y55D02*
X911Y55D01*
X915Y55D02*
X939Y55D01*
X969Y55D02*
X977Y55D01*
X1004Y55D02*
X1013Y55D01*
X1039Y55D02*
X1073Y55D01*
X1170Y55D02*
X1203Y55D01*
X1230Y55D02*
X1271Y55D01*
X1296Y55D02*
X1304Y55D01*
X1331Y55D02*
X1340Y55D01*
X1366Y55D02*
X1400Y55D01*
X1451Y55D02*
X1459Y55D01*
X712Y54D02*
X746Y54D01*
X772Y54D02*
X780Y54D01*
X786Y54D02*
X807Y54D01*
X903Y54D02*
X911Y54D01*
X917Y54D02*
X938Y54D01*
X969Y54D02*
X977Y54D01*
X1004Y54D02*
X1013Y54D01*
X1039Y54D02*
X1073Y54D01*
X1170Y54D02*
X1204Y54D01*
X1230Y54D02*
X1270Y54D01*
X1296Y54D02*
X1304Y54D01*
X1331Y54D02*
X1340Y54D01*
X1366Y54D02*
X1400Y54D01*
X1451Y54D02*
X1459Y54D01*
X711Y53D02*
X746Y53D01*
X772Y53D02*
X780Y53D01*
X788Y53D02*
X806Y53D01*
X903Y53D02*
X911Y53D01*
X918Y53D02*
X936Y53D01*
X969Y53D02*
X977Y53D01*
X1004Y53D02*
X1013Y53D01*
X1038Y53D02*
X1073Y53D01*
X1169Y53D02*
X1204Y53D01*
X1230Y53D02*
X1238Y53D01*
X1240Y53D02*
X1269Y53D01*
X1296Y53D02*
X1304Y53D01*
X1331Y53D02*
X1340Y53D01*
X1365Y53D02*
X1400Y53D01*
X1451Y53D02*
X1459Y53D01*
X711Y52D02*
X747Y52D01*
X772Y52D02*
X780Y52D01*
X790Y52D02*
X803Y52D01*
X903Y52D02*
X911Y52D01*
X921Y52D02*
X934Y52D01*
X969Y52D02*
X977Y52D01*
X1005Y52D02*
X1013Y52D01*
X1038Y52D02*
X1074Y52D01*
X1169Y52D02*
X1204Y52D01*
X1230Y52D02*
X1238Y52D01*
X1241Y52D02*
X1268Y52D01*
X1296Y52D02*
X1304Y52D01*
X1332Y52D02*
X1340Y52D01*
X1365Y52D02*
X1401Y52D01*
X1451Y52D02*
X1459Y52D01*
X712Y51D02*
X746Y51D01*
X772Y51D02*
X780Y51D01*
X903Y51D02*
X911Y51D01*
X969Y51D02*
X976Y51D01*
X1005Y51D02*
X1012Y51D01*
X1039Y51D02*
X1073Y51D01*
X1169Y51D02*
X1204Y51D01*
X1230Y51D02*
X1238Y51D01*
X1242Y51D02*
X1266Y51D01*
X1296Y51D02*
X1303Y51D01*
X1332Y51D02*
X1339Y51D01*
X1366Y51D02*
X1400Y51D01*
X1451Y51D02*
X1459Y51D01*
X712Y50D02*
X746Y50D01*
X772Y50D02*
X780Y50D01*
X903Y50D02*
X911Y50D01*
X969Y50D02*
X976Y50D01*
X1005Y50D02*
X1012Y50D01*
X1039Y50D02*
X1073Y50D01*
X1170Y50D02*
X1204Y50D01*
X1231Y50D02*
X1237Y50D01*
X1244Y50D02*
X1265Y50D01*
X1296Y50D02*
X1303Y50D01*
X1332Y50D02*
X1339Y50D01*
X1366Y50D02*
X1400Y50D01*
X1452Y50D02*
X1459Y50D01*
X713Y49D02*
X745Y49D01*
X772Y49D02*
X780Y49D01*
X903Y49D02*
X911Y49D01*
X970Y49D02*
X975Y49D01*
X1006Y49D02*
X1011Y49D01*
X1040Y49D02*
X1072Y49D01*
X1171Y49D02*
X1203Y49D01*
X1231Y49D02*
X1237Y49D01*
X1246Y49D02*
X1263Y49D01*
X1297Y49D02*
X1302Y49D01*
X1333Y49D02*
X1338Y49D01*
X1367Y49D02*
X1399Y49D01*
X1453Y49D02*
X1458Y49D01*
X714Y48D02*
X744Y48D01*
X772Y48D02*
X780Y48D01*
X903Y48D02*
X911Y48D01*
X971Y48D02*
X974Y48D01*
X1008Y48D02*
X1010Y48D01*
X1041Y48D02*
X1071Y48D01*
X1172Y48D02*
X1201Y48D01*
X1233Y48D02*
X1235Y48D01*
X1249Y48D02*
X1260Y48D01*
X1298Y48D02*
X1301Y48D01*
X1335Y48D02*
X1337Y48D01*
X1368Y48D02*
X1398Y48D01*
X1454Y48D02*
X1456Y48D01*
X772Y47D02*
X780Y47D01*
X903Y47D02*
X911Y47D01*
X772Y46D02*
X780Y46D01*
X903Y46D02*
X911Y46D01*
X772Y45D02*
X780Y45D01*
X903Y45D02*
X911Y45D01*
X772Y44D02*
X781Y44D01*
X903Y44D02*
X911Y44D01*
X772Y43D02*
X781Y43D01*
X903Y43D02*
X912Y43D01*
X772Y42D02*
X782Y42D01*
X903Y42D02*
X912Y42D01*
X773Y41D02*
X783Y41D01*
X904Y41D02*
X913Y41D01*
X773Y40D02*
X784Y40D01*
X904Y40D02*
X914Y40D01*
X774Y39D02*
X785Y39D01*
X904Y39D02*
X916Y39D01*
X774Y38D02*
X786Y38D01*
X905Y38D02*
X917Y38D01*
X775Y37D02*
X810Y37D01*
X906Y37D02*
X940Y37D01*
X776Y36D02*
X811Y36D01*
X907Y36D02*
X942Y36D01*
X777Y35D02*
X811Y35D01*
X907Y35D02*
X942Y35D01*
X778Y34D02*
X812Y34D01*
X909Y34D02*
X943Y34D01*
X779Y33D02*
X812Y33D01*
X910Y33D02*
X943Y33D01*
X780Y32D02*
X812Y32D01*
X911Y32D02*
X943Y32D01*
X781Y31D02*
X811Y31D01*
X912Y31D02*
X942Y31D01*
X783Y30D02*
X811Y30D01*
X914Y30D02*
X942Y30D01*
X785Y29D02*
X809Y29D01*
X916Y29D02*
X940Y29D01*
D02*
G04 End of Copper0*
M02*