; NON-PLATED HOLES START AT T1
; THROUGH (PLATED) HOLES START AT T100
M48
INCH
T100C0.035000
T101C0.043307
T102C0.036000
T103C0.040000
%
T100
X007089Y011588
X006949Y005745
X005598Y017350
X005871Y007925
X005598Y013350
X007089Y015588
X005871Y011925
X006949Y009744
T101
X002996Y014969
X002996Y012969
X002996Y017969
X002996Y015969
X002996Y013969
X002996Y016969
T102
X009907Y009585
X015907Y010585
X009907Y013585
X015907Y003585
X009907Y006585
X009907Y010585
X009907Y003585
X015907Y015585
X015907Y008585
X015907Y012585
X009907Y015585
X015907Y005585
X009907Y008585
X009907Y012585
X009907Y005585
X015907Y017585
X015907Y014585
X009907Y017585
X015907Y007585
X015907Y011585
X009907Y014585
X015907Y004585
X009907Y007585
X009907Y011585
X009907Y004585
X015907Y016585
X015907Y009585
X015907Y013585
X009907Y016585
X015907Y006585
T103
X003016Y003049
X004016Y003049
X003038Y005923
X003038Y006923
X003038Y010923
X005016Y003049
X006016Y003049
X003038Y007923
X017924Y017532
X003038Y008923
X007016Y003049
X017924Y018532
X008016Y003049
X001016Y003049
X003038Y009923
X002016Y003049
T00
M30
