G04 MADE WITH FRITZING*
G04 WWW.FRITZING.ORG*
G04 DOUBLE SIDED*
G04 HOLES PLATED*
G04 CONTOUR ON CENTER OF CONTOUR VECTOR*
%ASAXBY*%
%FSLAX23Y23*%
%MOIN*%
%OFA0B0*%
%SFA1.0B1.0*%
%ADD10C,0.080000*%
%ADD11C,0.090000*%
%ADD12C,0.093307*%
%ADD13C,0.085000*%
%ADD14R,0.079972X0.080000*%
%ADD15R,0.090000X0.090000*%
%ADD16R,0.093307X0.093307*%
%ADD17C,0.030000*%
%LNMASK1*%
G90*
G70*
G54D10*
X991Y1759D03*
X991Y1659D03*
X991Y1559D03*
X991Y1459D03*
X991Y1359D03*
X991Y1259D03*
X991Y1159D03*
X991Y1059D03*
X991Y959D03*
X991Y859D03*
X991Y759D03*
X991Y659D03*
X991Y559D03*
X991Y459D03*
X991Y359D03*
X1591Y1759D03*
X1591Y1659D03*
X1591Y1559D03*
X1591Y1459D03*
X1591Y1359D03*
X1591Y1259D03*
X1591Y1159D03*
X1591Y1059D03*
X1591Y959D03*
X1591Y859D03*
X1591Y759D03*
X1591Y659D03*
X1591Y559D03*
X1591Y459D03*
X1591Y359D03*
G54D11*
X304Y1092D03*
X304Y992D03*
X304Y892D03*
X304Y792D03*
X304Y692D03*
X304Y592D03*
X1792Y1753D03*
X1792Y1853D03*
G54D12*
X300Y1797D03*
X300Y1697D03*
X300Y1597D03*
X300Y1497D03*
X300Y1397D03*
X300Y1297D03*
G54D11*
X102Y305D03*
X202Y305D03*
X302Y305D03*
X402Y305D03*
X502Y305D03*
X602Y305D03*
X702Y305D03*
X802Y305D03*
G54D13*
X560Y1735D03*
X560Y1335D03*
X695Y974D03*
X695Y575D03*
X587Y1193D03*
X587Y793D03*
X709Y1559D03*
X709Y1159D03*
G54D14*
X991Y1759D03*
G54D15*
X304Y1092D03*
X1792Y1753D03*
G54D16*
X300Y1797D03*
G54D17*
G36*
X72Y335D02*
X132Y335D01*
X132Y275D01*
X72Y275D01*
X72Y335D01*
G37*
D02*
G04 End of Mask1*
M02*