G04 MADE WITH FRITZING*
G04 WWW.FRITZING.ORG*
G04 DOUBLE SIDED*
G04 HOLES PLATED*
G04 CONTOUR ON CENTER OF CONTOUR VECTOR*
%ASAXBY*%
%FSLAX23Y23*%
%MOIN*%
%OFA0B0*%
%SFA1.0B1.0*%
%ADD10C,0.070000*%
%ADD11C,0.080000*%
%ADD12C,0.082000*%
%ADD13C,0.075000*%
%ADD14C,0.065000*%
%ADD15C,0.039370*%
%ADD16R,0.069972X0.070000*%
%ADD17R,0.080000X0.080000*%
%ADD18R,0.082000X0.082000*%
%ADD19C,0.024000*%
%ADD20C,0.048000*%
%ADD21R,0.001000X0.001000*%
%LNCOPPER1*%
G90*
G70*
G54D10*
X1230Y456D03*
X1230Y556D03*
X1230Y656D03*
X1230Y756D03*
X1230Y856D03*
X1230Y956D03*
X1230Y1056D03*
X1230Y1156D03*
X1230Y1256D03*
X1230Y1356D03*
X1230Y1456D03*
X1230Y1556D03*
X1230Y1656D03*
X1230Y1756D03*
X1230Y1856D03*
X630Y456D03*
X630Y556D03*
X630Y656D03*
X630Y756D03*
X630Y856D03*
X630Y956D03*
X630Y1056D03*
X630Y1156D03*
X630Y1256D03*
X630Y1356D03*
X630Y1456D03*
X630Y1556D03*
X630Y1656D03*
X630Y1756D03*
X630Y1856D03*
G54D11*
X1827Y1674D03*
X1827Y1774D03*
X712Y171D03*
X812Y171D03*
X473Y171D03*
X573Y171D03*
X230Y171D03*
X330Y171D03*
X1634Y168D03*
X1734Y168D03*
X1409Y168D03*
X1509Y168D03*
X1185Y168D03*
X1285Y168D03*
X960Y168D03*
X1060Y168D03*
X1789Y1319D03*
X1789Y1419D03*
X1789Y1097D03*
X1789Y1197D03*
X1789Y874D03*
X1789Y974D03*
G54D12*
X1456Y1052D03*
X1456Y952D03*
X1456Y852D03*
X1456Y1474D03*
X1456Y1374D03*
X1456Y1274D03*
G54D13*
X810Y735D03*
X1010Y735D03*
X890Y799D03*
X1090Y799D03*
X1420Y702D03*
X1320Y702D03*
X1343Y1114D03*
X1343Y1014D03*
X1333Y1332D03*
X1333Y1232D03*
G54D14*
X1523Y1825D03*
X1594Y1754D03*
X1523Y1825D03*
X1594Y1754D03*
X1525Y1642D03*
X1425Y1642D03*
X1525Y1642D03*
X1425Y1642D03*
G54D13*
X719Y673D03*
X919Y673D03*
G54D11*
X273Y1814D03*
X273Y1714D03*
X273Y1586D03*
X273Y1486D03*
X273Y1358D03*
X273Y1258D03*
X273Y1125D03*
X273Y1025D03*
X273Y892D03*
X273Y792D03*
X273Y659D03*
X273Y559D03*
G54D13*
X493Y1260D03*
X493Y1160D03*
X484Y1550D03*
X484Y1450D03*
X486Y920D03*
X486Y820D03*
X486Y697D03*
X486Y597D03*
G54D15*
X696Y88D03*
X596Y86D03*
X1020Y517D03*
X948Y373D03*
X1332Y1693D03*
X1740Y1597D03*
X708Y325D03*
X372Y1693D03*
X804Y445D03*
G54D12*
X1495Y537D03*
X1595Y537D03*
X1695Y537D03*
G54D16*
X1230Y456D03*
G54D17*
X1827Y1674D03*
X712Y171D03*
X473Y171D03*
X230Y171D03*
X1634Y168D03*
X1409Y168D03*
X1185Y168D03*
X960Y168D03*
X1789Y1319D03*
X1789Y1097D03*
X1789Y874D03*
G54D18*
X1456Y1052D03*
X1456Y1474D03*
G54D17*
X273Y1814D03*
X273Y1586D03*
X273Y1358D03*
X273Y1125D03*
X273Y892D03*
X273Y659D03*
G54D18*
X1495Y537D03*
G54D19*
X1822Y83D02*
X1783Y47D01*
D02*
X1086Y42D02*
X641Y45D01*
D02*
X1889Y208D02*
X1825Y111D01*
D02*
X1825Y111D02*
X1822Y83D01*
D02*
X641Y45D02*
X648Y367D01*
D02*
X1894Y416D02*
X1889Y208D01*
D02*
X1843Y1647D02*
X1894Y1558D01*
D02*
X1894Y1558D02*
X1894Y416D01*
D02*
X1783Y47D02*
X1086Y42D01*
D02*
X648Y367D02*
X636Y427D01*
G54D20*
D02*
X1557Y1838D02*
X1600Y1855D01*
D02*
X1600Y1855D02*
X1788Y1788D01*
D02*
X1437Y1664D02*
X1512Y1803D01*
D02*
X1628Y1743D02*
X1787Y1688D01*
D02*
X1538Y1663D02*
X1581Y1733D01*
D02*
X1639Y1569D02*
X1553Y1608D01*
D02*
X1553Y1608D02*
X1548Y1614D01*
D02*
X1644Y908D02*
X1639Y1569D01*
D02*
X1759Y881D02*
X1644Y908D01*
D02*
X1650Y1580D02*
X1581Y1597D01*
D02*
X1581Y1597D02*
X1553Y1619D01*
D02*
X1664Y1108D02*
X1650Y1580D01*
D02*
X1747Y1100D02*
X1664Y1108D01*
D02*
X1747Y1325D02*
X1650Y1338D01*
D02*
X1650Y1338D02*
X1650Y1583D01*
D02*
X1650Y1583D02*
X1558Y1627D01*
D02*
X1556Y1524D02*
X1444Y1626D01*
D02*
X1561Y1263D02*
X1556Y1524D01*
D02*
X1487Y1271D02*
X1561Y1263D01*
D02*
X1556Y863D02*
X1499Y857D01*
D02*
X1561Y1263D02*
X1556Y863D01*
D02*
X1684Y578D02*
X1675Y611D01*
D02*
X1675Y611D02*
X1569Y666D01*
D02*
X1569Y666D02*
X1547Y849D01*
D02*
X1547Y849D02*
X1499Y851D01*
G54D19*
D02*
X489Y823D02*
X604Y768D01*
D02*
X304Y796D02*
X489Y823D01*
D02*
X786Y719D02*
X743Y689D01*
D02*
X868Y781D02*
X832Y753D01*
D02*
X458Y816D02*
X304Y796D01*
D02*
X465Y1156D02*
X304Y1130D01*
D02*
X456Y1455D02*
X304Y1481D01*
D02*
X1637Y93D02*
X1636Y137D01*
D02*
X715Y88D02*
X1637Y93D01*
D02*
X698Y692D02*
X652Y736D01*
D02*
X611Y734D02*
X505Y618D01*
D02*
X489Y604D02*
X497Y624D01*
D02*
X78Y1130D02*
X81Y774D01*
D02*
X81Y774D02*
X242Y789D01*
D02*
X242Y1126D02*
X78Y1130D01*
D02*
X70Y1130D02*
X242Y1126D01*
D02*
X242Y1484D02*
X70Y1471D01*
D02*
X70Y1471D02*
X70Y1130D01*
D02*
X114Y1822D02*
X72Y1791D01*
D02*
X74Y1471D02*
X242Y1484D01*
D02*
X72Y1791D02*
X74Y1471D01*
D02*
X242Y1816D02*
X114Y1822D01*
D02*
X301Y52D02*
X537Y60D01*
D02*
X133Y193D02*
X167Y56D01*
D02*
X59Y267D02*
X133Y193D01*
D02*
X81Y774D02*
X59Y267D01*
D02*
X167Y56D02*
X301Y52D01*
D02*
X537Y60D02*
X579Y78D01*
D02*
X1741Y174D02*
X1734Y168D01*
D02*
X304Y1258D02*
X464Y1260D01*
D02*
X304Y896D02*
X458Y916D01*
D02*
X304Y1581D02*
X456Y1555D01*
D02*
X1383Y184D02*
X1308Y229D01*
X1308Y229D02*
X1228Y338D01*
D02*
X1228Y338D02*
X1167Y408D01*
D02*
X1167Y408D02*
X1164Y1525D01*
X1164Y1525D02*
X1204Y1544D01*
D02*
X1529Y193D02*
X1764Y493D01*
X1764Y493D02*
X1860Y805D01*
X1860Y805D02*
X1860Y1501D01*
X1860Y1501D02*
X1755Y1585D01*
D02*
X1300Y1497D02*
X1260Y1477D01*
D02*
X1329Y1674D02*
X1300Y1497D01*
D02*
X1260Y1477D02*
X1254Y1473D01*
D02*
X299Y576D02*
X462Y682D01*
D02*
X1172Y197D02*
X1083Y405D01*
D02*
X1083Y405D02*
X823Y442D01*
D02*
X704Y343D02*
X694Y391D01*
D02*
X711Y444D02*
X875Y566D01*
D02*
X694Y391D02*
X711Y444D01*
D02*
X875Y566D02*
X967Y613D01*
D02*
X967Y613D02*
X1000Y708D01*
D02*
X653Y1338D02*
X660Y1333D01*
X660Y1333D02*
X948Y853D01*
X948Y853D02*
X948Y733D01*
X948Y733D02*
X936Y733D01*
X936Y733D02*
X927Y700D01*
D02*
X522Y1686D02*
X567Y1638D01*
D02*
X391Y1692D02*
X522Y1686D01*
D02*
X567Y1638D02*
X564Y1405D01*
X564Y1405D02*
X607Y1373D01*
D02*
X736Y191D02*
X934Y360D01*
D02*
X1025Y535D02*
X1083Y771D01*
G36*
X846Y1333D02*
X850Y1333D01*
X850Y1329D01*
X862Y1329D01*
X862Y1333D01*
X866Y1333D01*
X866Y1337D01*
X870Y1337D01*
X870Y1349D01*
X866Y1349D01*
X866Y1354D01*
X862Y1354D01*
X862Y1358D01*
X854Y1358D01*
X854Y1354D01*
X850Y1354D01*
X850Y1349D01*
X846Y1349D01*
X846Y1333D01*
G37*
D02*
G36*
X854Y1650D02*
X953Y1650D01*
X953Y1675D01*
X854Y1675D01*
X854Y1650D01*
G37*
D02*
G36*
X854Y1696D02*
X903Y1696D01*
X903Y1753D01*
X899Y1753D01*
X899Y1749D01*
X895Y1749D01*
X895Y1745D01*
X891Y1745D01*
X891Y1741D01*
X887Y1741D01*
X887Y1737D01*
X883Y1737D01*
X883Y1733D01*
X879Y1733D01*
X879Y1729D01*
X875Y1729D01*
X875Y1725D01*
X870Y1725D01*
X870Y1720D01*
X866Y1720D01*
X866Y1716D01*
X862Y1716D01*
X862Y1712D01*
X858Y1712D01*
X858Y1708D01*
X854Y1708D01*
X854Y1696D01*
G37*
D02*
G36*
X854Y1758D02*
X903Y1758D01*
X903Y1782D01*
X854Y1782D01*
X854Y1758D01*
G37*
D02*
G36*
X903Y1696D02*
X907Y1696D01*
X907Y1782D01*
X903Y1782D01*
X903Y1696D01*
G37*
D02*
G36*
X903Y1696D02*
X907Y1696D01*
X907Y1782D01*
X903Y1782D01*
X903Y1696D01*
G37*
D02*
G36*
X907Y1696D02*
X953Y1696D01*
X953Y1720D01*
X907Y1720D01*
X907Y1696D01*
G37*
D02*
G36*
X907Y1729D02*
X912Y1729D01*
X912Y1733D01*
X916Y1733D01*
X916Y1737D01*
X920Y1737D01*
X920Y1741D01*
X924Y1741D01*
X924Y1745D01*
X928Y1745D01*
X928Y1749D01*
X932Y1749D01*
X932Y1753D01*
X936Y1753D01*
X936Y1758D01*
X940Y1758D01*
X940Y1762D01*
X945Y1762D01*
X945Y1766D01*
X949Y1766D01*
X949Y1770D01*
X953Y1770D01*
X953Y1782D01*
X907Y1782D01*
X907Y1729D01*
G37*
D02*
G36*
X854Y1836D02*
X858Y1836D01*
X858Y1823D01*
X862Y1823D01*
X862Y1815D01*
X866Y1815D01*
X866Y1811D01*
X870Y1811D01*
X870Y1807D01*
X875Y1807D01*
X875Y1803D01*
X879Y1803D01*
X879Y1856D01*
X883Y1856D01*
X883Y1861D01*
X887Y1861D01*
X887Y1865D01*
X883Y1865D01*
X883Y1869D01*
X879Y1869D01*
X879Y1873D01*
X875Y1873D01*
X875Y1877D01*
X870Y1877D01*
X870Y1881D01*
X866Y1881D01*
X866Y1873D01*
X862Y1873D01*
X862Y1869D01*
X858Y1869D01*
X858Y1856D01*
X854Y1856D01*
X854Y1836D01*
G37*
D02*
G36*
X879Y1803D02*
X883Y1803D01*
X883Y1799D01*
X895Y1799D01*
X895Y1795D01*
X912Y1795D01*
X912Y1799D01*
X924Y1799D01*
X924Y1803D01*
X928Y1803D01*
X928Y1832D01*
X924Y1832D01*
X924Y1828D01*
X920Y1828D01*
X920Y1823D01*
X912Y1823D01*
X912Y1819D01*
X895Y1819D01*
X895Y1823D01*
X887Y1823D01*
X887Y1828D01*
X883Y1828D01*
X883Y1836D01*
X879Y1836D01*
X879Y1803D01*
G37*
D02*
G36*
X903Y1848D02*
X916Y1848D01*
X916Y1865D01*
X924Y1865D01*
X924Y1861D01*
X928Y1861D01*
X928Y1889D01*
X924Y1889D01*
X924Y1894D01*
X907Y1894D01*
X907Y1898D01*
X903Y1898D01*
X903Y1848D01*
G37*
D02*
G36*
X928Y1803D02*
X932Y1803D01*
X932Y1889D01*
X928Y1889D01*
X928Y1803D01*
G37*
D02*
G36*
X928Y1803D02*
X932Y1803D01*
X932Y1889D01*
X928Y1889D01*
X928Y1803D01*
G37*
D02*
G36*
X932Y1807D02*
X936Y1807D01*
X936Y1811D01*
X940Y1811D01*
X940Y1815D01*
X945Y1815D01*
X945Y1819D01*
X949Y1819D01*
X949Y1828D01*
X953Y1828D01*
X953Y1865D01*
X949Y1865D01*
X949Y1873D01*
X945Y1873D01*
X945Y1877D01*
X940Y1877D01*
X940Y1881D01*
X936Y1881D01*
X936Y1885D01*
X932Y1885D01*
X932Y1807D01*
G37*
D02*
G36*
X763Y1222D02*
X767Y1222D01*
X767Y1209D01*
X771Y1209D01*
X771Y1201D01*
X776Y1201D01*
X776Y1255D01*
X780Y1255D01*
X780Y1271D01*
X784Y1271D01*
X784Y1283D01*
X788Y1283D01*
X788Y1296D01*
X792Y1296D01*
X792Y1308D01*
X796Y1308D01*
X796Y1316D01*
X800Y1316D01*
X800Y1349D01*
X796Y1349D01*
X796Y1333D01*
X792Y1333D01*
X792Y1321D01*
X788Y1321D01*
X788Y1312D01*
X784Y1312D01*
X784Y1300D01*
X780Y1300D01*
X780Y1288D01*
X776Y1288D01*
X776Y1279D01*
X771Y1279D01*
X771Y1267D01*
X767Y1267D01*
X767Y1251D01*
X763Y1251D01*
X763Y1222D01*
G37*
D02*
G36*
X776Y1197D02*
X780Y1197D01*
X780Y1193D01*
X784Y1193D01*
X784Y1189D01*
X788Y1189D01*
X788Y1185D01*
X796Y1185D01*
X796Y1180D01*
X813Y1180D01*
X813Y1185D01*
X825Y1185D01*
X825Y1189D01*
X829Y1189D01*
X829Y1193D01*
X833Y1193D01*
X833Y1197D01*
X837Y1197D01*
X837Y1205D01*
X833Y1205D01*
X833Y1201D01*
X825Y1201D01*
X825Y1197D01*
X817Y1197D01*
X817Y1193D01*
X800Y1193D01*
X800Y1197D01*
X792Y1197D01*
X792Y1201D01*
X788Y1201D01*
X788Y1205D01*
X784Y1205D01*
X784Y1209D01*
X780Y1209D01*
X780Y1218D01*
X776Y1218D01*
X776Y1197D01*
G37*
D02*
G36*
X788Y1395D02*
X792Y1395D01*
X792Y1374D01*
X796Y1374D01*
X796Y1465D01*
X800Y1465D01*
X800Y1485D01*
X804Y1485D01*
X804Y1498D01*
X813Y1498D01*
X813Y1523D01*
X809Y1523D01*
X809Y1518D01*
X804Y1518D01*
X804Y1510D01*
X800Y1510D01*
X800Y1502D01*
X796Y1502D01*
X796Y1490D01*
X792Y1490D01*
X792Y1473D01*
X788Y1473D01*
X788Y1395D01*
G37*
D02*
G36*
X796Y1362D02*
X800Y1362D01*
X800Y1403D01*
X796Y1403D01*
X796Y1362D01*
G37*
D02*
G36*
X800Y1329D02*
X804Y1329D01*
X804Y1382D01*
X800Y1382D01*
X800Y1329D01*
G37*
D02*
G36*
X800Y1329D02*
X804Y1329D01*
X804Y1382D01*
X800Y1382D01*
X800Y1329D01*
G37*
D02*
G36*
X804Y1333D02*
X809Y1333D01*
X809Y1329D01*
X813Y1329D01*
X813Y1321D01*
X817Y1321D01*
X817Y1312D01*
X821Y1312D01*
X821Y1304D01*
X825Y1304D01*
X825Y1296D01*
X829Y1296D01*
X829Y1292D01*
X833Y1292D01*
X833Y1288D01*
X837Y1288D01*
X837Y1279D01*
X842Y1279D01*
X842Y1275D01*
X846Y1275D01*
X846Y1271D01*
X850Y1271D01*
X850Y1267D01*
X854Y1267D01*
X854Y1263D01*
X858Y1263D01*
X858Y1259D01*
X862Y1259D01*
X862Y1255D01*
X866Y1255D01*
X866Y1251D01*
X870Y1251D01*
X870Y1246D01*
X879Y1246D01*
X879Y1242D01*
X883Y1242D01*
X883Y1259D01*
X875Y1259D01*
X875Y1263D01*
X870Y1263D01*
X870Y1267D01*
X866Y1267D01*
X866Y1271D01*
X862Y1271D01*
X862Y1275D01*
X858Y1275D01*
X858Y1279D01*
X854Y1279D01*
X854Y1283D01*
X850Y1283D01*
X850Y1288D01*
X846Y1288D01*
X846Y1296D01*
X842Y1296D01*
X842Y1300D01*
X837Y1300D01*
X837Y1308D01*
X833Y1308D01*
X833Y1312D01*
X829Y1312D01*
X829Y1321D01*
X825Y1321D01*
X825Y1329D01*
X821Y1329D01*
X821Y1337D01*
X817Y1337D01*
X817Y1345D01*
X813Y1345D01*
X813Y1420D01*
X809Y1420D01*
X809Y1387D01*
X804Y1387D01*
X804Y1333D01*
G37*
D02*
G36*
X813Y1370D02*
X817Y1370D01*
X817Y1527D01*
X813Y1527D01*
X813Y1370D01*
G37*
D02*
G36*
X813Y1370D02*
X817Y1370D01*
X817Y1527D01*
X813Y1527D01*
X813Y1370D01*
G37*
D02*
G36*
X817Y1387D02*
X821Y1387D01*
X821Y1411D01*
X825Y1411D01*
X825Y1502D01*
X821Y1502D01*
X821Y1518D01*
X817Y1518D01*
X817Y1387D01*
G37*
D02*
G36*
X817Y1613D02*
X821Y1613D01*
X821Y1605D01*
X825Y1605D01*
X825Y1597D01*
X829Y1597D01*
X829Y1617D01*
X837Y1617D01*
X837Y1613D01*
X842Y1613D01*
X842Y1609D01*
X846Y1609D01*
X846Y1605D01*
X854Y1605D01*
X854Y1601D01*
X858Y1601D01*
X858Y1597D01*
X862Y1597D01*
X862Y1593D01*
X866Y1593D01*
X866Y1589D01*
X870Y1589D01*
X870Y1584D01*
X875Y1584D01*
X875Y1580D01*
X879Y1580D01*
X879Y1576D01*
X883Y1576D01*
X883Y1572D01*
X887Y1572D01*
X887Y1568D01*
X891Y1568D01*
X891Y1580D01*
X887Y1580D01*
X887Y1584D01*
X883Y1584D01*
X883Y1589D01*
X879Y1589D01*
X879Y1593D01*
X875Y1593D01*
X875Y1597D01*
X870Y1597D01*
X870Y1601D01*
X866Y1601D01*
X866Y1605D01*
X862Y1605D01*
X862Y1609D01*
X858Y1609D01*
X858Y1613D01*
X854Y1613D01*
X854Y1617D01*
X850Y1617D01*
X850Y1621D01*
X842Y1621D01*
X842Y1626D01*
X833Y1626D01*
X833Y1630D01*
X821Y1630D01*
X821Y1626D01*
X817Y1626D01*
X817Y1613D01*
G37*
D02*
G36*
X821Y1535D02*
X825Y1535D01*
X825Y1527D01*
X829Y1527D01*
X829Y1547D01*
X837Y1547D01*
X837Y1543D01*
X842Y1543D01*
X842Y1539D01*
X846Y1539D01*
X846Y1535D01*
X850Y1535D01*
X850Y1531D01*
X858Y1531D01*
X858Y1527D01*
X862Y1527D01*
X862Y1523D01*
X866Y1523D01*
X866Y1518D01*
X870Y1518D01*
X870Y1514D01*
X875Y1514D01*
X875Y1510D01*
X879Y1510D01*
X879Y1506D01*
X883Y1506D01*
X883Y1502D01*
X887Y1502D01*
X887Y1498D01*
X891Y1498D01*
X891Y1494D01*
X895Y1494D01*
X895Y1490D01*
X899Y1490D01*
X899Y1506D01*
X895Y1506D01*
X895Y1510D01*
X891Y1510D01*
X891Y1514D01*
X887Y1514D01*
X887Y1518D01*
X883Y1518D01*
X883Y1523D01*
X879Y1523D01*
X879Y1527D01*
X870Y1527D01*
X870Y1531D01*
X866Y1531D01*
X866Y1535D01*
X862Y1535D01*
X862Y1539D01*
X858Y1539D01*
X858Y1543D01*
X854Y1543D01*
X854Y1547D01*
X846Y1547D01*
X846Y1551D01*
X842Y1551D01*
X842Y1556D01*
X833Y1556D01*
X833Y1560D01*
X825Y1560D01*
X825Y1556D01*
X821Y1556D01*
X821Y1535D01*
G37*
D02*
G36*
X829Y1518D02*
X833Y1518D01*
X833Y1514D01*
X837Y1514D01*
X837Y1506D01*
X842Y1506D01*
X842Y1502D01*
X846Y1502D01*
X846Y1498D01*
X850Y1498D01*
X850Y1494D01*
X858Y1494D01*
X858Y1490D01*
X862Y1490D01*
X862Y1485D01*
X870Y1485D01*
X870Y1481D01*
X879Y1481D01*
X879Y1477D01*
X891Y1477D01*
X891Y1473D01*
X899Y1473D01*
X899Y1485D01*
X887Y1485D01*
X887Y1490D01*
X879Y1490D01*
X879Y1494D01*
X870Y1494D01*
X870Y1498D01*
X866Y1498D01*
X866Y1502D01*
X862Y1502D01*
X862Y1506D01*
X854Y1506D01*
X854Y1510D01*
X850Y1510D01*
X850Y1514D01*
X846Y1514D01*
X846Y1518D01*
X842Y1518D01*
X842Y1527D01*
X837Y1527D01*
X837Y1531D01*
X833Y1531D01*
X833Y1539D01*
X829Y1539D01*
X829Y1518D01*
G37*
D02*
G36*
X829Y1593D02*
X833Y1593D01*
X833Y1584D01*
X837Y1584D01*
X837Y1580D01*
X842Y1580D01*
X842Y1576D01*
X850Y1576D01*
X850Y1572D01*
X854Y1572D01*
X854Y1568D01*
X858Y1568D01*
X858Y1564D01*
X866Y1564D01*
X866Y1560D01*
X870Y1560D01*
X870Y1556D01*
X879Y1556D01*
X879Y1551D01*
X883Y1551D01*
X883Y1547D01*
X891Y1547D01*
X891Y1560D01*
X883Y1560D01*
X883Y1564D01*
X875Y1564D01*
X875Y1568D01*
X870Y1568D01*
X870Y1572D01*
X862Y1572D01*
X862Y1576D01*
X858Y1576D01*
X858Y1580D01*
X854Y1580D01*
X854Y1584D01*
X850Y1584D01*
X850Y1589D01*
X846Y1589D01*
X846Y1593D01*
X842Y1593D01*
X842Y1597D01*
X837Y1597D01*
X837Y1605D01*
X833Y1605D01*
X833Y1609D01*
X829Y1609D01*
X829Y1593D01*
G37*
D02*
G36*
X879Y1271D02*
X883Y1271D01*
X883Y1300D01*
X879Y1300D01*
X879Y1271D01*
G37*
D02*
G36*
X883Y1238D02*
X887Y1238D01*
X887Y1308D01*
X883Y1308D01*
X883Y1238D01*
G37*
D02*
G36*
X883Y1238D02*
X887Y1238D01*
X887Y1308D01*
X883Y1308D01*
X883Y1238D01*
G37*
D02*
G36*
X887Y1226D02*
X891Y1226D01*
X891Y1300D01*
X899Y1300D01*
X899Y1296D01*
X907Y1296D01*
X907Y1292D01*
X912Y1292D01*
X912Y1288D01*
X920Y1288D01*
X920Y1283D01*
X928Y1283D01*
X928Y1279D01*
X936Y1279D01*
X936Y1275D01*
X949Y1275D01*
X949Y1292D01*
X940Y1292D01*
X940Y1296D01*
X928Y1296D01*
X928Y1300D01*
X920Y1300D01*
X920Y1304D01*
X912Y1304D01*
X912Y1308D01*
X903Y1308D01*
X903Y1312D01*
X887Y1312D01*
X887Y1226D01*
G37*
D02*
G36*
X891Y1209D02*
X895Y1209D01*
X895Y1226D01*
X903Y1226D01*
X903Y1222D01*
X907Y1222D01*
X907Y1218D01*
X916Y1218D01*
X916Y1213D01*
X920Y1213D01*
X920Y1209D01*
X924Y1209D01*
X924Y1205D01*
X928Y1205D01*
X928Y1201D01*
X932Y1201D01*
X932Y1197D01*
X940Y1197D01*
X940Y1193D01*
X945Y1193D01*
X945Y1189D01*
X949Y1189D01*
X949Y1185D01*
X953Y1185D01*
X953Y1180D01*
X957Y1180D01*
X957Y1176D01*
X961Y1176D01*
X961Y1172D01*
X965Y1172D01*
X965Y1168D01*
X969Y1168D01*
X969Y1164D01*
X973Y1164D01*
X973Y1156D01*
X978Y1156D01*
X978Y1152D01*
X982Y1152D01*
X982Y1139D01*
X986Y1139D01*
X986Y1123D01*
X990Y1123D01*
X990Y1164D01*
X986Y1164D01*
X986Y1168D01*
X982Y1168D01*
X982Y1172D01*
X978Y1172D01*
X978Y1176D01*
X973Y1176D01*
X973Y1180D01*
X969Y1180D01*
X969Y1185D01*
X965Y1185D01*
X965Y1189D01*
X961Y1189D01*
X961Y1193D01*
X957Y1193D01*
X957Y1197D01*
X953Y1197D01*
X953Y1201D01*
X949Y1201D01*
X949Y1205D01*
X945Y1205D01*
X945Y1209D01*
X936Y1209D01*
X936Y1213D01*
X932Y1213D01*
X932Y1218D01*
X928Y1218D01*
X928Y1222D01*
X924Y1222D01*
X924Y1226D01*
X916Y1226D01*
X916Y1230D01*
X912Y1230D01*
X912Y1234D01*
X907Y1234D01*
X907Y1238D01*
X903Y1238D01*
X903Y1242D01*
X895Y1242D01*
X895Y1246D01*
X891Y1246D01*
X891Y1209D01*
G37*
D02*
G36*
X891Y1547D02*
X895Y1547D01*
X895Y1576D01*
X891Y1576D01*
X891Y1547D01*
G37*
D02*
G36*
X891Y1547D02*
X895Y1547D01*
X895Y1576D01*
X891Y1576D01*
X891Y1547D01*
G37*
D02*
G36*
X895Y1205D02*
X899Y1205D01*
X899Y1222D01*
X895Y1222D01*
X895Y1205D01*
G37*
D02*
G36*
X895Y1543D02*
X907Y1543D01*
X907Y1539D01*
X916Y1539D01*
X916Y1531D01*
X920Y1531D01*
X920Y1527D01*
X924Y1527D01*
X924Y1523D01*
X928Y1523D01*
X928Y1539D01*
X945Y1539D01*
X945Y1551D01*
X928Y1551D01*
X928Y1547D01*
X920Y1547D01*
X920Y1551D01*
X912Y1551D01*
X912Y1556D01*
X907Y1556D01*
X907Y1560D01*
X903Y1560D01*
X903Y1568D01*
X899Y1568D01*
X899Y1572D01*
X895Y1572D01*
X895Y1543D01*
G37*
D02*
G36*
X899Y1444D02*
X903Y1444D01*
X903Y1469D01*
X899Y1469D01*
X899Y1444D01*
G37*
D02*
G36*
X899Y1473D02*
X903Y1473D01*
X903Y1502D01*
X899Y1502D01*
X899Y1473D01*
G37*
D02*
G36*
X899Y1473D02*
X903Y1473D01*
X903Y1502D01*
X899Y1502D01*
X899Y1473D01*
G37*
D02*
G36*
X903Y1436D02*
X907Y1436D01*
X907Y1498D01*
X903Y1498D01*
X903Y1436D01*
G37*
D02*
G36*
X903Y1436D02*
X907Y1436D01*
X907Y1498D01*
X903Y1498D01*
X903Y1436D01*
G37*
D02*
G36*
X907Y1428D02*
X912Y1428D01*
X912Y1424D01*
X916Y1424D01*
X916Y1420D01*
X920Y1420D01*
X920Y1415D01*
X928Y1415D01*
X928Y1411D01*
X932Y1411D01*
X932Y1407D01*
X945Y1407D01*
X945Y1420D01*
X936Y1420D01*
X936Y1424D01*
X928Y1424D01*
X928Y1428D01*
X924Y1428D01*
X924Y1432D01*
X920Y1432D01*
X920Y1436D01*
X916Y1436D01*
X916Y1440D01*
X912Y1440D01*
X912Y1448D01*
X907Y1448D01*
X907Y1428D01*
G37*
D02*
G36*
X907Y1465D02*
X912Y1465D01*
X912Y1469D01*
X916Y1469D01*
X916Y1465D01*
X920Y1465D01*
X920Y1461D01*
X924Y1461D01*
X924Y1457D01*
X928Y1457D01*
X928Y1473D01*
X940Y1473D01*
X940Y1485D01*
X936Y1485D01*
X936Y1481D01*
X916Y1481D01*
X916Y1490D01*
X912Y1490D01*
X912Y1494D01*
X907Y1494D01*
X907Y1465D01*
G37*
D02*
G36*
X916Y1341D02*
X920Y1341D01*
X920Y1337D01*
X924Y1337D01*
X924Y1329D01*
X928Y1329D01*
X928Y1325D01*
X932Y1325D01*
X932Y1349D01*
X916Y1349D01*
X916Y1341D01*
G37*
D02*
G36*
X916Y1374D02*
X920Y1374D01*
X920Y1366D01*
X924Y1366D01*
X924Y1358D01*
X928Y1358D01*
X928Y1387D01*
X936Y1387D01*
X936Y1391D01*
X945Y1391D01*
X945Y1399D01*
X928Y1399D01*
X928Y1395D01*
X920Y1395D01*
X920Y1391D01*
X916Y1391D01*
X916Y1374D01*
G37*
D02*
G36*
X928Y1102D02*
X932Y1102D01*
X932Y1094D01*
X936Y1094D01*
X936Y1090D01*
X940Y1090D01*
X940Y1086D01*
X949Y1086D01*
X949Y1082D01*
X982Y1082D01*
X982Y1086D01*
X986Y1086D01*
X986Y1090D01*
X990Y1090D01*
X990Y1110D01*
X986Y1110D01*
X986Y1102D01*
X982Y1102D01*
X982Y1098D01*
X978Y1098D01*
X978Y1094D01*
X953Y1094D01*
X953Y1098D01*
X945Y1098D01*
X945Y1102D01*
X940Y1102D01*
X940Y1106D01*
X936Y1106D01*
X936Y1110D01*
X928Y1110D01*
X928Y1102D01*
G37*
D02*
G36*
X928Y1354D02*
X932Y1354D01*
X932Y1378D01*
X928Y1378D01*
X928Y1354D01*
G37*
D02*
G36*
X928Y1452D02*
X932Y1452D01*
X932Y1448D01*
X936Y1448D01*
X936Y1440D01*
X940Y1440D01*
X940Y1436D01*
X945Y1436D01*
X945Y1428D01*
X949Y1428D01*
X949Y1424D01*
X953Y1424D01*
X953Y1440D01*
X949Y1440D01*
X949Y1448D01*
X945Y1448D01*
X945Y1452D01*
X940Y1452D01*
X940Y1457D01*
X936Y1457D01*
X936Y1465D01*
X932Y1465D01*
X932Y1469D01*
X928Y1469D01*
X928Y1452D01*
G37*
D02*
G36*
X928Y1514D02*
X932Y1514D01*
X932Y1506D01*
X936Y1506D01*
X936Y1502D01*
X940Y1502D01*
X940Y1518D01*
X936Y1518D01*
X936Y1527D01*
X932Y1527D01*
X932Y1531D01*
X928Y1531D01*
X928Y1514D01*
G37*
D02*
G36*
X932Y1316D02*
X936Y1316D01*
X936Y1370D01*
X932Y1370D01*
X932Y1316D01*
G37*
D02*
G36*
X932Y1316D02*
X936Y1316D01*
X936Y1370D01*
X932Y1370D01*
X932Y1316D01*
G37*
D02*
G36*
X932Y1572D02*
X936Y1572D01*
X936Y1568D01*
X940Y1568D01*
X940Y1560D01*
X945Y1560D01*
X945Y1580D01*
X936Y1580D01*
X936Y1584D01*
X932Y1584D01*
X932Y1572D01*
G37*
D02*
G36*
X936Y1312D02*
X940Y1312D01*
X940Y1329D01*
X953Y1329D01*
X953Y1325D01*
X961Y1325D01*
X961Y1337D01*
X957Y1337D01*
X957Y1341D01*
X953Y1341D01*
X953Y1349D01*
X949Y1349D01*
X949Y1354D01*
X945Y1354D01*
X945Y1358D01*
X940Y1358D01*
X940Y1366D01*
X936Y1366D01*
X936Y1312D01*
G37*
D02*
G36*
X940Y1304D02*
X945Y1304D01*
X945Y1296D01*
X949Y1296D01*
X949Y1316D01*
X945Y1316D01*
X945Y1321D01*
X940Y1321D01*
X940Y1304D01*
G37*
D02*
G36*
X940Y1473D02*
X945Y1473D01*
X945Y1514D01*
X940Y1514D01*
X940Y1473D01*
G37*
D02*
G36*
X940Y1473D02*
X945Y1473D01*
X945Y1514D01*
X940Y1514D01*
X940Y1473D01*
G37*
D02*
G36*
X945Y1391D02*
X949Y1391D01*
X949Y1415D01*
X945Y1415D01*
X945Y1391D01*
G37*
D02*
G36*
X945Y1391D02*
X949Y1391D01*
X949Y1415D01*
X945Y1415D01*
X945Y1391D01*
G37*
D02*
G36*
X945Y1477D02*
X953Y1477D01*
X953Y1481D01*
X957Y1481D01*
X957Y1490D01*
X953Y1490D01*
X953Y1502D01*
X949Y1502D01*
X949Y1506D01*
X945Y1506D01*
X945Y1477D01*
G37*
D02*
G36*
X945Y1539D02*
X949Y1539D01*
X949Y1572D01*
X945Y1572D01*
X945Y1539D01*
G37*
D02*
G36*
X945Y1539D02*
X949Y1539D01*
X949Y1572D01*
X945Y1572D01*
X945Y1539D01*
G37*
D02*
G36*
X949Y1275D02*
X953Y1275D01*
X953Y1308D01*
X949Y1308D01*
X949Y1275D01*
G37*
D02*
G36*
X949Y1275D02*
X953Y1275D01*
X953Y1308D01*
X949Y1308D01*
X949Y1275D01*
G37*
D02*
G36*
X949Y1395D02*
X953Y1395D01*
X953Y1415D01*
X949Y1415D01*
X949Y1395D01*
G37*
D02*
G36*
X949Y1539D02*
X953Y1539D01*
X953Y1543D01*
X957Y1543D01*
X957Y1560D01*
X953Y1560D01*
X953Y1568D01*
X949Y1568D01*
X949Y1539D01*
G37*
D02*
G36*
X953Y1275D02*
X957Y1275D01*
X957Y1279D01*
X961Y1279D01*
X961Y1288D01*
X957Y1288D01*
X957Y1300D01*
X953Y1300D01*
X953Y1275D01*
G37*
D02*
G36*
X953Y1395D02*
X957Y1395D01*
X957Y1436D01*
X953Y1436D01*
X953Y1395D01*
G37*
D02*
G36*
X953Y1395D02*
X957Y1395D01*
X957Y1436D01*
X953Y1436D01*
X953Y1395D01*
G37*
D02*
G36*
X957Y1399D02*
X961Y1399D01*
X961Y1403D01*
X965Y1403D01*
X965Y1420D01*
X961Y1420D01*
X961Y1428D01*
X957Y1428D01*
X957Y1399D01*
G37*
D02*
G36*
X990Y1094D02*
X994Y1094D01*
X994Y1156D01*
X990Y1156D01*
X990Y1094D01*
G37*
D02*
G36*
X990Y1094D02*
X994Y1094D01*
X994Y1156D01*
X990Y1156D01*
X990Y1094D01*
G37*
D02*
G36*
X994Y1098D02*
X998Y1098D01*
X998Y1110D01*
X1002Y1110D01*
X1002Y1135D01*
X998Y1135D01*
X998Y1147D01*
X994Y1147D01*
X994Y1098D01*
G37*
D02*
G36*
X928Y1609D02*
X932Y1609D01*
X932Y1605D01*
X949Y1605D01*
X949Y1609D01*
X953Y1609D01*
X953Y1626D01*
X949Y1626D01*
X949Y1630D01*
X932Y1630D01*
X932Y1621D01*
X928Y1621D01*
X928Y1609D01*
G37*
D02*
G54D21*
X1032Y1895D02*
X1034Y1895D01*
X1030Y1894D02*
X1035Y1894D01*
X1030Y1893D02*
X1036Y1893D01*
X1030Y1892D02*
X1036Y1892D01*
X1029Y1891D02*
X1036Y1891D01*
X1029Y1890D02*
X1036Y1890D01*
X1029Y1889D02*
X1036Y1889D01*
X1029Y1888D02*
X1036Y1888D01*
X1029Y1887D02*
X1036Y1887D01*
X1029Y1886D02*
X1036Y1886D01*
X1029Y1885D02*
X1036Y1885D01*
X982Y1884D02*
X1036Y1884D01*
X979Y1883D02*
X1036Y1883D01*
X979Y1882D02*
X1036Y1882D01*
X978Y1881D02*
X1036Y1881D01*
X978Y1880D02*
X1036Y1880D01*
X978Y1879D02*
X1036Y1879D01*
X978Y1878D02*
X1036Y1878D01*
X978Y1877D02*
X1036Y1877D01*
X978Y1876D02*
X985Y1876D01*
X1029Y1876D02*
X1036Y1876D01*
X978Y1875D02*
X985Y1875D01*
X1029Y1875D02*
X1036Y1875D01*
X978Y1874D02*
X985Y1874D01*
X1029Y1874D02*
X1036Y1874D01*
X978Y1873D02*
X985Y1873D01*
X1029Y1873D02*
X1036Y1873D01*
X978Y1872D02*
X985Y1872D01*
X1029Y1872D02*
X1036Y1872D01*
X978Y1871D02*
X985Y1871D01*
X1029Y1871D02*
X1036Y1871D01*
X978Y1870D02*
X985Y1870D01*
X1029Y1870D02*
X1036Y1870D01*
X978Y1869D02*
X985Y1869D01*
X1029Y1869D02*
X1036Y1869D01*
X978Y1868D02*
X984Y1868D01*
X1030Y1868D02*
X1036Y1868D01*
X979Y1867D02*
X984Y1867D01*
X1030Y1867D02*
X1035Y1867D01*
X980Y1866D02*
X983Y1866D01*
X1031Y1866D02*
X1035Y1866D01*
X996Y1844D02*
X1042Y1844D01*
X995Y1843D02*
X1044Y1843D01*
X994Y1842D02*
X1045Y1842D01*
X994Y1841D02*
X1047Y1841D01*
X994Y1840D02*
X1047Y1840D01*
X995Y1839D02*
X1048Y1839D01*
X995Y1838D02*
X1049Y1838D01*
X998Y1837D02*
X1050Y1837D01*
X998Y1836D02*
X1008Y1836D01*
X1019Y1836D02*
X1029Y1836D01*
X1042Y1836D02*
X1051Y1836D01*
X998Y1835D02*
X1007Y1835D01*
X1020Y1835D02*
X1029Y1835D01*
X1043Y1835D02*
X1051Y1835D01*
X997Y1834D02*
X1006Y1834D01*
X1021Y1834D02*
X1030Y1834D01*
X1044Y1834D02*
X1052Y1834D01*
X996Y1833D02*
X1005Y1833D01*
X1022Y1833D02*
X1031Y1833D01*
X1044Y1833D02*
X1052Y1833D01*
X995Y1832D02*
X1004Y1832D01*
X1023Y1832D02*
X1031Y1832D01*
X1045Y1832D02*
X1052Y1832D01*
X995Y1831D02*
X1003Y1831D01*
X1024Y1831D02*
X1032Y1831D01*
X1045Y1831D02*
X1052Y1831D01*
X995Y1830D02*
X1002Y1830D01*
X1025Y1830D02*
X1032Y1830D01*
X1045Y1830D02*
X1052Y1830D01*
X994Y1829D02*
X1002Y1829D01*
X1025Y1829D02*
X1033Y1829D01*
X1045Y1829D02*
X1052Y1829D01*
X994Y1828D02*
X1001Y1828D01*
X1026Y1828D02*
X1033Y1828D01*
X1045Y1828D02*
X1052Y1828D01*
X994Y1827D02*
X1001Y1827D01*
X1026Y1827D02*
X1033Y1827D01*
X1045Y1827D02*
X1052Y1827D01*
X994Y1826D02*
X1001Y1826D01*
X1026Y1826D02*
X1033Y1826D01*
X1045Y1826D02*
X1052Y1826D01*
X994Y1825D02*
X1001Y1825D01*
X1026Y1825D02*
X1033Y1825D01*
X1045Y1825D02*
X1052Y1825D01*
X994Y1824D02*
X1001Y1824D01*
X1026Y1824D02*
X1033Y1824D01*
X1045Y1824D02*
X1052Y1824D01*
X994Y1823D02*
X1001Y1823D01*
X1026Y1823D02*
X1033Y1823D01*
X1045Y1823D02*
X1052Y1823D01*
X994Y1822D02*
X1001Y1822D01*
X1026Y1822D02*
X1033Y1822D01*
X1045Y1822D02*
X1052Y1822D01*
X994Y1821D02*
X1001Y1821D01*
X1026Y1821D02*
X1033Y1821D01*
X1045Y1821D02*
X1052Y1821D01*
X994Y1820D02*
X1001Y1820D01*
X1026Y1820D02*
X1033Y1820D01*
X1045Y1820D02*
X1052Y1820D01*
X994Y1819D02*
X1001Y1819D01*
X1026Y1819D02*
X1033Y1819D01*
X1045Y1819D02*
X1052Y1819D01*
X994Y1818D02*
X1002Y1818D01*
X1025Y1818D02*
X1032Y1818D01*
X1045Y1818D02*
X1052Y1818D01*
X995Y1817D02*
X1003Y1817D01*
X1024Y1817D02*
X1032Y1817D01*
X1045Y1817D02*
X1052Y1817D01*
X995Y1816D02*
X1004Y1816D01*
X1023Y1816D02*
X1032Y1816D01*
X1045Y1816D02*
X1052Y1816D01*
X996Y1815D02*
X1005Y1815D01*
X1022Y1815D02*
X1031Y1815D01*
X1045Y1815D02*
X1052Y1815D01*
X997Y1814D02*
X1030Y1814D01*
X1046Y1814D02*
X1052Y1814D01*
X997Y1813D02*
X1030Y1813D01*
X1046Y1813D02*
X1052Y1813D01*
X998Y1812D02*
X1029Y1812D01*
X1046Y1812D02*
X1051Y1812D01*
X999Y1811D02*
X1028Y1811D01*
X1048Y1811D02*
X1050Y1811D01*
X1000Y1810D02*
X1027Y1810D01*
X1001Y1809D02*
X1026Y1809D01*
X1003Y1808D02*
X1024Y1808D01*
X1006Y1807D02*
X1020Y1807D01*
X1593Y1801D02*
X1593Y1801D01*
X1592Y1800D02*
X1594Y1800D01*
X1591Y1799D02*
X1595Y1799D01*
X1590Y1798D02*
X1596Y1798D01*
X1589Y1797D02*
X1597Y1797D01*
X1588Y1796D02*
X1598Y1796D01*
X1587Y1795D02*
X1599Y1795D01*
X1586Y1794D02*
X1600Y1794D01*
X1585Y1793D02*
X1601Y1793D01*
X1584Y1792D02*
X1602Y1792D01*
X1583Y1791D02*
X1603Y1791D01*
X1582Y1790D02*
X1604Y1790D01*
X1581Y1789D02*
X1605Y1789D01*
X1580Y1788D02*
X1606Y1788D01*
X1579Y1787D02*
X1607Y1787D01*
X1578Y1786D02*
X1608Y1786D01*
X1577Y1785D02*
X1609Y1785D01*
X1576Y1784D02*
X1610Y1784D01*
X1575Y1783D02*
X1611Y1783D01*
X1574Y1782D02*
X1612Y1782D01*
X1573Y1781D02*
X1613Y1781D01*
X1572Y1780D02*
X1614Y1780D01*
X1571Y1779D02*
X1615Y1779D01*
X1015Y1778D02*
X1025Y1778D01*
X1570Y1778D02*
X1616Y1778D01*
X1014Y1777D02*
X1026Y1777D01*
X1569Y1777D02*
X1617Y1777D01*
X1014Y1776D02*
X1026Y1776D01*
X1568Y1776D02*
X1618Y1776D01*
X1013Y1775D02*
X1026Y1775D01*
X1567Y1775D02*
X1619Y1775D01*
X1013Y1774D02*
X1026Y1774D01*
X1566Y1774D02*
X1620Y1774D01*
X1013Y1773D02*
X1026Y1773D01*
X1565Y1773D02*
X1621Y1773D01*
X1013Y1772D02*
X1026Y1772D01*
X1564Y1772D02*
X1622Y1772D01*
X1013Y1771D02*
X1026Y1771D01*
X1563Y1771D02*
X1623Y1771D01*
X1013Y1770D02*
X1026Y1770D01*
X1562Y1770D02*
X1624Y1770D01*
X1013Y1769D02*
X1026Y1769D01*
X1561Y1769D02*
X1592Y1769D01*
X1595Y1769D02*
X1625Y1769D01*
X1013Y1768D02*
X1026Y1768D01*
X1560Y1768D02*
X1588Y1768D01*
X1599Y1768D02*
X1626Y1768D01*
X1013Y1767D02*
X1026Y1767D01*
X1559Y1767D02*
X1585Y1767D01*
X1601Y1767D02*
X1627Y1767D01*
X1014Y1766D02*
X1026Y1766D01*
X1558Y1766D02*
X1584Y1766D01*
X1602Y1766D02*
X1628Y1766D01*
X1014Y1765D02*
X1025Y1765D01*
X1557Y1765D02*
X1583Y1765D01*
X1604Y1765D02*
X1629Y1765D01*
X1016Y1764D02*
X1024Y1764D01*
X1556Y1764D02*
X1582Y1764D01*
X1604Y1764D02*
X1630Y1764D01*
X1555Y1763D02*
X1581Y1763D01*
X1605Y1763D02*
X1631Y1763D01*
X1554Y1762D02*
X1581Y1762D01*
X1606Y1762D02*
X1632Y1762D01*
X1553Y1761D02*
X1580Y1761D01*
X1606Y1761D02*
X1633Y1761D01*
X1552Y1760D02*
X1580Y1760D01*
X1607Y1760D02*
X1634Y1760D01*
X1551Y1759D02*
X1579Y1759D01*
X1607Y1759D02*
X1635Y1759D01*
X1550Y1758D02*
X1579Y1758D01*
X1607Y1758D02*
X1636Y1758D01*
X1549Y1757D02*
X1579Y1757D01*
X1607Y1757D02*
X1637Y1757D01*
X1548Y1756D02*
X1579Y1756D01*
X1607Y1756D02*
X1638Y1756D01*
X1548Y1755D02*
X1579Y1755D01*
X1607Y1755D02*
X1638Y1755D01*
X1549Y1754D02*
X1579Y1754D01*
X1607Y1754D02*
X1637Y1754D01*
X1550Y1753D02*
X1579Y1753D01*
X1607Y1753D02*
X1636Y1753D01*
X1551Y1752D02*
X1579Y1752D01*
X1607Y1752D02*
X1635Y1752D01*
X1552Y1751D02*
X1580Y1751D01*
X1607Y1751D02*
X1634Y1751D01*
X1553Y1750D02*
X1580Y1750D01*
X1606Y1750D02*
X1633Y1750D01*
X1554Y1749D02*
X1581Y1749D01*
X1606Y1749D02*
X1632Y1749D01*
X1555Y1748D02*
X1581Y1748D01*
X1605Y1748D02*
X1631Y1748D01*
X1556Y1747D02*
X1582Y1747D01*
X1605Y1747D02*
X1630Y1747D01*
X1557Y1746D02*
X1583Y1746D01*
X1604Y1746D02*
X1629Y1746D01*
X1558Y1745D02*
X1584Y1745D01*
X1603Y1745D02*
X1628Y1745D01*
X1559Y1744D02*
X1585Y1744D01*
X1601Y1744D02*
X1627Y1744D01*
X1560Y1743D02*
X1587Y1743D01*
X1600Y1743D02*
X1626Y1743D01*
X1561Y1742D02*
X1589Y1742D01*
X1597Y1742D02*
X1625Y1742D01*
X1562Y1741D02*
X1624Y1741D01*
X1563Y1740D02*
X1623Y1740D01*
X1564Y1739D02*
X1622Y1739D01*
X1565Y1738D02*
X1621Y1738D01*
X1566Y1737D02*
X1620Y1737D01*
X1567Y1736D02*
X1619Y1736D01*
X996Y1735D02*
X1042Y1735D01*
X1568Y1735D02*
X1618Y1735D01*
X995Y1734D02*
X1044Y1734D01*
X1569Y1734D02*
X1617Y1734D01*
X994Y1733D02*
X1045Y1733D01*
X1570Y1733D02*
X1616Y1733D01*
X994Y1732D02*
X1047Y1732D01*
X1571Y1732D02*
X1615Y1732D01*
X994Y1731D02*
X1047Y1731D01*
X1572Y1731D02*
X1614Y1731D01*
X995Y1730D02*
X1048Y1730D01*
X1573Y1730D02*
X1613Y1730D01*
X995Y1729D02*
X1049Y1729D01*
X1574Y1729D02*
X1612Y1729D01*
X998Y1728D02*
X1050Y1728D01*
X1575Y1728D02*
X1611Y1728D01*
X998Y1727D02*
X1008Y1727D01*
X1019Y1727D02*
X1029Y1727D01*
X1042Y1727D02*
X1051Y1727D01*
X1576Y1727D02*
X1610Y1727D01*
X998Y1726D02*
X1007Y1726D01*
X1020Y1726D02*
X1029Y1726D01*
X1043Y1726D02*
X1051Y1726D01*
X1577Y1726D02*
X1609Y1726D01*
X997Y1725D02*
X1006Y1725D01*
X1021Y1725D02*
X1030Y1725D01*
X1044Y1725D02*
X1052Y1725D01*
X1578Y1725D02*
X1608Y1725D01*
X996Y1724D02*
X1005Y1724D01*
X1022Y1724D02*
X1031Y1724D01*
X1044Y1724D02*
X1052Y1724D01*
X1579Y1724D02*
X1607Y1724D01*
X995Y1723D02*
X1004Y1723D01*
X1023Y1723D02*
X1031Y1723D01*
X1045Y1723D02*
X1052Y1723D01*
X1580Y1723D02*
X1606Y1723D01*
X995Y1722D02*
X1003Y1722D01*
X1024Y1722D02*
X1032Y1722D01*
X1045Y1722D02*
X1052Y1722D01*
X1581Y1722D02*
X1605Y1722D01*
X995Y1721D02*
X1002Y1721D01*
X1025Y1721D02*
X1032Y1721D01*
X1045Y1721D02*
X1052Y1721D01*
X1582Y1721D02*
X1604Y1721D01*
X994Y1720D02*
X1002Y1720D01*
X1025Y1720D02*
X1033Y1720D01*
X1045Y1720D02*
X1052Y1720D01*
X1583Y1720D02*
X1603Y1720D01*
X994Y1719D02*
X1001Y1719D01*
X1026Y1719D02*
X1033Y1719D01*
X1045Y1719D02*
X1052Y1719D01*
X1584Y1719D02*
X1602Y1719D01*
X994Y1718D02*
X1001Y1718D01*
X1026Y1718D02*
X1033Y1718D01*
X1045Y1718D02*
X1052Y1718D01*
X1585Y1718D02*
X1601Y1718D01*
X994Y1717D02*
X1001Y1717D01*
X1026Y1717D02*
X1033Y1717D01*
X1045Y1717D02*
X1052Y1717D01*
X1586Y1717D02*
X1600Y1717D01*
X994Y1716D02*
X1001Y1716D01*
X1026Y1716D02*
X1033Y1716D01*
X1045Y1716D02*
X1052Y1716D01*
X1587Y1716D02*
X1599Y1716D01*
X994Y1715D02*
X1001Y1715D01*
X1026Y1715D02*
X1033Y1715D01*
X1045Y1715D02*
X1052Y1715D01*
X1588Y1715D02*
X1598Y1715D01*
X994Y1714D02*
X1001Y1714D01*
X1026Y1714D02*
X1033Y1714D01*
X1045Y1714D02*
X1052Y1714D01*
X1589Y1714D02*
X1597Y1714D01*
X994Y1713D02*
X1001Y1713D01*
X1026Y1713D02*
X1033Y1713D01*
X1045Y1713D02*
X1052Y1713D01*
X1590Y1713D02*
X1596Y1713D01*
X994Y1712D02*
X1001Y1712D01*
X1026Y1712D02*
X1033Y1712D01*
X1045Y1712D02*
X1052Y1712D01*
X1591Y1712D02*
X1595Y1712D01*
X994Y1711D02*
X1001Y1711D01*
X1026Y1711D02*
X1033Y1711D01*
X1045Y1711D02*
X1052Y1711D01*
X1592Y1711D02*
X1594Y1711D01*
X994Y1710D02*
X1001Y1710D01*
X1026Y1710D02*
X1033Y1710D01*
X1045Y1710D02*
X1052Y1710D01*
X1593Y1710D02*
X1593Y1710D01*
X994Y1709D02*
X1002Y1709D01*
X1025Y1709D02*
X1032Y1709D01*
X1045Y1709D02*
X1052Y1709D01*
X995Y1708D02*
X1003Y1708D01*
X1024Y1708D02*
X1032Y1708D01*
X1045Y1708D02*
X1052Y1708D01*
X995Y1707D02*
X1004Y1707D01*
X1023Y1707D02*
X1032Y1707D01*
X1045Y1707D02*
X1052Y1707D01*
X996Y1706D02*
X1005Y1706D01*
X1022Y1706D02*
X1031Y1706D01*
X1045Y1706D02*
X1052Y1706D01*
X997Y1705D02*
X1030Y1705D01*
X1046Y1705D02*
X1052Y1705D01*
X997Y1704D02*
X1030Y1704D01*
X1046Y1704D02*
X1052Y1704D01*
X998Y1703D02*
X1029Y1703D01*
X1046Y1703D02*
X1051Y1703D01*
X999Y1702D02*
X1028Y1702D01*
X1048Y1702D02*
X1050Y1702D01*
X1000Y1701D02*
X1027Y1701D01*
X1001Y1700D02*
X1026Y1700D01*
X1003Y1699D02*
X1024Y1699D01*
X1006Y1698D02*
X1020Y1698D01*
X1004Y1680D02*
X1035Y1680D01*
X1001Y1679D02*
X1036Y1679D01*
X999Y1678D02*
X1036Y1678D01*
X998Y1677D02*
X1036Y1677D01*
X997Y1676D02*
X1036Y1676D01*
X996Y1675D02*
X1035Y1675D01*
X995Y1674D02*
X1034Y1674D01*
X995Y1673D02*
X1019Y1673D01*
X995Y1672D02*
X1003Y1672D01*
X994Y1671D02*
X1002Y1671D01*
X994Y1670D02*
X1001Y1670D01*
X994Y1669D02*
X1001Y1669D01*
X994Y1668D02*
X1001Y1668D01*
X994Y1667D02*
X1001Y1667D01*
X994Y1666D02*
X1001Y1666D01*
X994Y1665D02*
X1001Y1665D01*
X994Y1664D02*
X1001Y1664D01*
X994Y1663D02*
X1001Y1663D01*
X994Y1662D02*
X1002Y1662D01*
X995Y1661D02*
X1002Y1661D01*
X995Y1660D02*
X1003Y1660D01*
X996Y1659D02*
X1004Y1659D01*
X996Y1658D02*
X1004Y1658D01*
X997Y1657D02*
X1005Y1657D01*
X997Y1656D02*
X1005Y1656D01*
X998Y1655D02*
X1006Y1655D01*
X999Y1654D02*
X1007Y1654D01*
X999Y1653D02*
X1007Y1653D01*
X1000Y1652D02*
X1008Y1652D01*
X998Y1651D02*
X1032Y1651D01*
X995Y1650D02*
X1035Y1650D01*
X995Y1649D02*
X1036Y1649D01*
X994Y1648D02*
X1036Y1648D01*
X994Y1647D02*
X1036Y1647D01*
X994Y1646D02*
X1036Y1646D01*
X995Y1645D02*
X1035Y1645D01*
X996Y1644D02*
X1034Y1644D01*
X1031Y1622D02*
X1034Y1622D01*
X1030Y1621D02*
X1035Y1621D01*
X1030Y1620D02*
X1036Y1620D01*
X1029Y1619D02*
X1036Y1619D01*
X1029Y1618D02*
X1036Y1618D01*
X1029Y1617D02*
X1036Y1617D01*
X1029Y1616D02*
X1036Y1616D01*
X1029Y1615D02*
X1036Y1615D01*
X1029Y1614D02*
X1036Y1614D01*
X1029Y1613D02*
X1036Y1613D01*
X1029Y1612D02*
X1036Y1612D01*
X977Y1611D02*
X983Y1611D01*
X996Y1611D02*
X1036Y1611D01*
X976Y1610D02*
X984Y1610D01*
X995Y1610D02*
X1036Y1610D01*
X975Y1609D02*
X984Y1609D01*
X994Y1609D02*
X1036Y1609D01*
X975Y1608D02*
X985Y1608D01*
X994Y1608D02*
X1036Y1608D01*
X975Y1607D02*
X985Y1607D01*
X994Y1607D02*
X1036Y1607D01*
X975Y1606D02*
X985Y1606D01*
X994Y1606D02*
X1036Y1606D01*
X975Y1605D02*
X985Y1605D01*
X994Y1605D02*
X1036Y1605D01*
X975Y1604D02*
X985Y1604D01*
X994Y1604D02*
X1036Y1604D01*
X975Y1603D02*
X984Y1603D01*
X994Y1603D02*
X1001Y1603D01*
X1029Y1603D02*
X1036Y1603D01*
X975Y1602D02*
X984Y1602D01*
X994Y1602D02*
X1001Y1602D01*
X1029Y1602D02*
X1036Y1602D01*
X976Y1601D02*
X983Y1601D01*
X994Y1601D02*
X1001Y1601D01*
X1029Y1601D02*
X1036Y1601D01*
X994Y1600D02*
X1001Y1600D01*
X1029Y1600D02*
X1036Y1600D01*
X994Y1599D02*
X1001Y1599D01*
X1029Y1599D02*
X1036Y1599D01*
X994Y1598D02*
X1001Y1598D01*
X1029Y1598D02*
X1036Y1598D01*
X994Y1597D02*
X1001Y1597D01*
X1029Y1597D02*
X1036Y1597D01*
X994Y1596D02*
X1001Y1596D01*
X1030Y1596D02*
X1036Y1596D01*
X994Y1595D02*
X1000Y1595D01*
X1030Y1595D02*
X1036Y1595D01*
X995Y1594D02*
X1000Y1594D01*
X1030Y1594D02*
X1035Y1594D01*
X996Y1593D02*
X999Y1593D01*
X1032Y1593D02*
X1034Y1593D01*
X1015Y1560D02*
X1025Y1560D01*
X1014Y1559D02*
X1026Y1559D01*
X1014Y1558D02*
X1026Y1558D01*
X1013Y1557D02*
X1026Y1557D01*
X1013Y1556D02*
X1026Y1556D01*
X1013Y1555D02*
X1026Y1555D01*
X1013Y1554D02*
X1026Y1554D01*
X1013Y1553D02*
X1026Y1553D01*
X1013Y1552D02*
X1026Y1552D01*
X1013Y1551D02*
X1026Y1551D01*
X1013Y1550D02*
X1026Y1550D01*
X1013Y1549D02*
X1026Y1549D01*
X1014Y1548D02*
X1026Y1548D01*
X1014Y1547D02*
X1025Y1547D01*
X1016Y1546D02*
X1024Y1546D01*
X1031Y1513D02*
X1034Y1513D01*
X1030Y1512D02*
X1035Y1512D01*
X1030Y1511D02*
X1036Y1511D01*
X1029Y1510D02*
X1036Y1510D01*
X1029Y1509D02*
X1036Y1509D01*
X1029Y1508D02*
X1036Y1508D01*
X1029Y1507D02*
X1036Y1507D01*
X1029Y1506D02*
X1036Y1506D01*
X1029Y1505D02*
X1036Y1505D01*
X1029Y1504D02*
X1036Y1504D01*
X1029Y1503D02*
X1036Y1503D01*
X980Y1502D02*
X1036Y1502D01*
X979Y1501D02*
X1036Y1501D01*
X978Y1500D02*
X1036Y1500D01*
X978Y1499D02*
X1036Y1499D01*
X978Y1498D02*
X1036Y1498D01*
X978Y1497D02*
X1036Y1497D01*
X978Y1496D02*
X1036Y1496D01*
X978Y1495D02*
X1036Y1495D01*
X978Y1494D02*
X985Y1494D01*
X1029Y1494D02*
X1036Y1494D01*
X978Y1493D02*
X985Y1493D01*
X1029Y1493D02*
X1036Y1493D01*
X978Y1492D02*
X985Y1492D01*
X1029Y1492D02*
X1036Y1492D01*
X978Y1491D02*
X985Y1491D01*
X1029Y1491D02*
X1036Y1491D01*
X978Y1490D02*
X985Y1490D01*
X1029Y1490D02*
X1036Y1490D01*
X978Y1489D02*
X985Y1489D01*
X1029Y1489D02*
X1036Y1489D01*
X978Y1488D02*
X985Y1488D01*
X1029Y1488D02*
X1036Y1488D01*
X978Y1487D02*
X985Y1487D01*
X1030Y1487D02*
X1036Y1487D01*
X978Y1486D02*
X984Y1486D01*
X1030Y1486D02*
X1036Y1486D01*
X979Y1485D02*
X984Y1485D01*
X1030Y1485D02*
X1035Y1485D01*
X980Y1484D02*
X982Y1484D01*
X1032Y1484D02*
X1034Y1484D01*
X981Y1463D02*
X1033Y1463D01*
X979Y1462D02*
X1035Y1462D01*
X979Y1461D02*
X1036Y1461D01*
X978Y1460D02*
X1036Y1460D01*
X978Y1459D02*
X1036Y1459D01*
X978Y1458D02*
X1036Y1458D01*
X979Y1457D02*
X1035Y1457D01*
X980Y1456D02*
X1034Y1456D01*
X999Y1455D02*
X1008Y1455D01*
X1022Y1455D02*
X1031Y1455D01*
X998Y1454D02*
X1007Y1454D01*
X1023Y1454D02*
X1032Y1454D01*
X997Y1453D02*
X1006Y1453D01*
X1024Y1453D02*
X1033Y1453D01*
X996Y1452D02*
X1005Y1452D01*
X1025Y1452D02*
X1034Y1452D01*
X996Y1451D02*
X1005Y1451D01*
X1026Y1451D02*
X1034Y1451D01*
X995Y1450D02*
X1004Y1450D01*
X1026Y1450D02*
X1035Y1450D01*
X995Y1449D02*
X1003Y1449D01*
X1027Y1449D02*
X1035Y1449D01*
X994Y1448D02*
X1002Y1448D01*
X1028Y1448D02*
X1036Y1448D01*
X994Y1447D02*
X1001Y1447D01*
X1029Y1447D02*
X1036Y1447D01*
X994Y1446D02*
X1001Y1446D01*
X1029Y1446D02*
X1036Y1446D01*
X994Y1445D02*
X1001Y1445D01*
X1029Y1445D02*
X1036Y1445D01*
X994Y1444D02*
X1001Y1444D01*
X1029Y1444D02*
X1036Y1444D01*
X994Y1443D02*
X1001Y1443D01*
X1029Y1443D02*
X1036Y1443D01*
X994Y1442D02*
X1001Y1442D01*
X1029Y1442D02*
X1036Y1442D01*
X994Y1441D02*
X1001Y1441D01*
X1029Y1441D02*
X1036Y1441D01*
X994Y1440D02*
X1001Y1440D01*
X1029Y1440D02*
X1036Y1440D01*
X994Y1439D02*
X1001Y1439D01*
X1029Y1439D02*
X1036Y1439D01*
X994Y1438D02*
X1001Y1438D01*
X1029Y1438D02*
X1036Y1438D01*
X994Y1437D02*
X1002Y1437D01*
X1028Y1437D02*
X1036Y1437D01*
X995Y1436D02*
X1002Y1436D01*
X1028Y1436D02*
X1036Y1436D01*
X995Y1435D02*
X1003Y1435D01*
X1027Y1435D02*
X1035Y1435D01*
X996Y1434D02*
X1004Y1434D01*
X1026Y1434D02*
X1035Y1434D01*
X996Y1433D02*
X1034Y1433D01*
X997Y1432D02*
X1033Y1432D01*
X998Y1431D02*
X1032Y1431D01*
X999Y1430D02*
X1032Y1430D01*
X1000Y1429D02*
X1031Y1429D01*
X1001Y1428D02*
X1030Y1428D01*
X1002Y1427D02*
X1028Y1427D01*
X1004Y1426D02*
X1026Y1426D01*
X1017Y1408D02*
X1034Y1408D01*
X1002Y1407D02*
X1035Y1407D01*
X1000Y1406D02*
X1036Y1406D01*
X998Y1405D02*
X1036Y1405D01*
X997Y1404D02*
X1036Y1404D01*
X996Y1403D02*
X1036Y1403D01*
X996Y1402D02*
X1035Y1402D01*
X995Y1401D02*
X1033Y1401D01*
X995Y1400D02*
X1005Y1400D01*
X994Y1399D02*
X1002Y1399D01*
X994Y1398D02*
X1001Y1398D01*
X994Y1397D02*
X1001Y1397D01*
X994Y1396D02*
X1001Y1396D01*
X994Y1395D02*
X1001Y1395D01*
X994Y1394D02*
X1001Y1394D01*
X994Y1393D02*
X1001Y1393D01*
X994Y1392D02*
X1001Y1392D01*
X994Y1391D02*
X1001Y1391D01*
X994Y1390D02*
X1001Y1390D01*
X994Y1389D02*
X1002Y1389D01*
X995Y1388D02*
X1003Y1388D01*
X995Y1387D02*
X1003Y1387D01*
X996Y1386D02*
X1004Y1386D01*
X996Y1385D02*
X1005Y1385D01*
X997Y1384D02*
X1005Y1384D01*
X998Y1383D02*
X1006Y1383D01*
X998Y1382D02*
X1006Y1382D01*
X999Y1381D02*
X1007Y1381D01*
X1000Y1380D02*
X1008Y1380D01*
X1000Y1379D02*
X1008Y1379D01*
X996Y1378D02*
X1034Y1378D01*
X995Y1377D02*
X1035Y1377D01*
X994Y1376D02*
X1036Y1376D01*
X994Y1375D02*
X1036Y1375D01*
X994Y1374D02*
X1036Y1374D01*
X995Y1373D02*
X1036Y1373D01*
X995Y1372D02*
X1035Y1372D01*
X997Y1371D02*
X1033Y1371D01*
X1032Y1350D02*
X1034Y1350D01*
X1030Y1349D02*
X1035Y1349D01*
X1030Y1348D02*
X1036Y1348D01*
X1030Y1347D02*
X1036Y1347D01*
X1029Y1346D02*
X1036Y1346D01*
X1029Y1345D02*
X1036Y1345D01*
X1029Y1344D02*
X1036Y1344D01*
X1029Y1343D02*
X1036Y1343D01*
X1029Y1342D02*
X1036Y1342D01*
X1029Y1341D02*
X1036Y1341D01*
X1029Y1340D02*
X1036Y1340D01*
X978Y1339D02*
X981Y1339D01*
X998Y1339D02*
X1036Y1339D01*
X976Y1338D02*
X983Y1338D01*
X995Y1338D02*
X1036Y1338D01*
X975Y1337D02*
X984Y1337D01*
X995Y1337D02*
X1036Y1337D01*
X975Y1336D02*
X985Y1336D01*
X994Y1336D02*
X1036Y1336D01*
X975Y1335D02*
X985Y1335D01*
X994Y1335D02*
X1036Y1335D01*
X975Y1334D02*
X985Y1334D01*
X994Y1334D02*
X1036Y1334D01*
X975Y1333D02*
X985Y1333D01*
X994Y1333D02*
X1036Y1333D01*
X975Y1332D02*
X985Y1332D01*
X994Y1332D02*
X1036Y1332D01*
X975Y1331D02*
X985Y1331D01*
X994Y1331D02*
X1001Y1331D01*
X1029Y1331D02*
X1036Y1331D01*
X975Y1330D02*
X984Y1330D01*
X994Y1330D02*
X1001Y1330D01*
X1029Y1330D02*
X1036Y1330D01*
X976Y1329D02*
X984Y1329D01*
X994Y1329D02*
X1001Y1329D01*
X1029Y1329D02*
X1036Y1329D01*
X977Y1328D02*
X982Y1328D01*
X994Y1328D02*
X1001Y1328D01*
X1029Y1328D02*
X1036Y1328D01*
X994Y1327D02*
X1001Y1327D01*
X1029Y1327D02*
X1036Y1327D01*
X994Y1326D02*
X1001Y1326D01*
X1029Y1326D02*
X1036Y1326D01*
X994Y1325D02*
X1001Y1325D01*
X1029Y1325D02*
X1036Y1325D01*
X994Y1324D02*
X1001Y1324D01*
X1029Y1324D02*
X1036Y1324D01*
X994Y1323D02*
X1001Y1323D01*
X1030Y1323D02*
X1036Y1323D01*
X995Y1322D02*
X1000Y1322D01*
X1030Y1322D02*
X1035Y1322D01*
X996Y1321D02*
X999Y1321D01*
X1031Y1321D02*
X1035Y1321D01*
X980Y1297D02*
X983Y1297D01*
X979Y1296D02*
X984Y1296D01*
X978Y1295D02*
X984Y1295D01*
X978Y1294D02*
X985Y1294D01*
X978Y1293D02*
X985Y1293D01*
X978Y1292D02*
X985Y1292D01*
X978Y1291D02*
X985Y1291D01*
X978Y1290D02*
X985Y1290D01*
X997Y1290D02*
X998Y1290D01*
X978Y1289D02*
X985Y1289D01*
X995Y1289D02*
X1000Y1289D01*
X978Y1288D02*
X985Y1288D01*
X995Y1288D02*
X1000Y1288D01*
X978Y1287D02*
X985Y1287D01*
X994Y1287D02*
X1001Y1287D01*
X978Y1286D02*
X985Y1286D01*
X994Y1286D02*
X1001Y1286D01*
X978Y1285D02*
X985Y1285D01*
X994Y1285D02*
X1001Y1285D01*
X978Y1284D02*
X985Y1284D01*
X994Y1284D02*
X1001Y1284D01*
X978Y1283D02*
X985Y1283D01*
X994Y1283D02*
X1001Y1283D01*
X978Y1282D02*
X985Y1282D01*
X994Y1282D02*
X1001Y1282D01*
X979Y1281D02*
X986Y1281D01*
X994Y1281D02*
X1001Y1281D01*
X979Y1280D02*
X987Y1280D01*
X994Y1280D02*
X1001Y1280D01*
X979Y1279D02*
X989Y1279D01*
X994Y1279D02*
X1001Y1279D01*
X980Y1278D02*
X1035Y1278D01*
X980Y1277D02*
X1035Y1277D01*
X981Y1276D02*
X1036Y1276D01*
X982Y1275D02*
X1036Y1275D01*
X983Y1274D02*
X1036Y1274D01*
X985Y1273D02*
X1035Y1273D01*
X987Y1272D02*
X1034Y1272D01*
X994Y1271D02*
X1001Y1271D01*
X994Y1270D02*
X1001Y1270D01*
X994Y1269D02*
X1001Y1269D01*
X994Y1268D02*
X1001Y1268D01*
X994Y1267D02*
X1001Y1267D01*
X994Y1266D02*
X1000Y1266D01*
X995Y1265D02*
X1000Y1265D01*
X997Y1264D02*
X998Y1264D01*
D02*
G04 End of Copper1*
M02*