; NON-PLATED HOLES START AT T1
; THROUGH (PLATED) HOLES START AT T100
M48
INCH
T1C0.086614
T100C0.040000
T101C0.036000
T102C0.035000
T103C0.027559
T104C0.042000
T105C0.015748
%
T1
X000814Y018892
X018848Y000835
X018868Y018869
X000888Y000973
T100
X002729Y013581
X018273Y017743
X017888Y010966
X002729Y008918
X017888Y013188
X002729Y010254
X002729Y005588
X016344Y001683
X017344Y001683
X011845Y001683
X004730Y001709
X002295Y001709
X012845Y001683
X002729Y015860
X005730Y001709
X002729Y017143
X017888Y008744
X003295Y001709
X017888Y011966
X017888Y014188
X007118Y001709
X002729Y011254
X002729Y006588
X008118Y001709
X015094Y001683
X002729Y012581
X018273Y016743
X014094Y001683
X002729Y007918
X009595Y001683
X002729Y018143
X017888Y009744
X010595Y001683
X002729Y014860
T101
X006304Y017560
X012304Y018560
X006304Y014560
X006304Y007560
X012304Y015560
X006304Y011560
X012304Y008560
X006304Y004560
X012304Y012560
X012304Y005560
X006304Y016560
X006304Y009560
X012304Y017560
X006304Y013560
X006304Y006560
X012304Y014560
X006304Y010560
X012304Y007560
X012304Y011560
X012304Y004560
X006304Y018560
X006304Y015560
X006304Y008560
X012304Y016560
X006304Y012560
X012304Y009560
X006304Y005560
X012304Y013560
X012304Y006560
X012304Y010560
T102
X004859Y009195
X013331Y012321
X007189Y006727
X004859Y005973
X013196Y007020
X008098Y007352
X004837Y014502
X004859Y008195
X008904Y007990
X004930Y012599
X010904Y007990
X013428Y011144
X009189Y006727
X014196Y007020
X013331Y013321
X010098Y007352
X004859Y006973
X004930Y011599
X013428Y010144
X004837Y015502
T103
X015941Y017542
X015252Y016423
X014252Y016423
X015234Y018249
T104
X014555Y013744
X014555Y008522
X014555Y014744
X014952Y005367
X014555Y009522
X015952Y005367
X016952Y005367
X014555Y012744
X014555Y010522
T105
X003720Y016925
X010200Y005165
X017400Y015965
X007080Y003245
X013320Y016925
X006962Y000880
X009480Y003725
X008040Y004445
X005962Y000855
T00
M30
