G04 MADE WITH FRITZING*
G04 WWW.FRITZING.ORG*
G04 DOUBLE SIDED*
G04 HOLES PLATED*
G04 CONTOUR ON CENTER OF CONTOUR VECTOR*
%ASAXBY*%
%FSLAX23Y23*%
%MOIN*%
%OFA0B0*%
%SFA1.0B1.0*%
%ADD10C,0.080000*%
%ADD11C,0.090000*%
%ADD12C,0.092000*%
%ADD13C,0.085000*%
%ADD14C,0.075000*%
%ADD15C,0.096614*%
%ADD16C,0.049370*%
%ADD17R,0.079972X0.080000*%
%ADD18R,0.090000X0.090000*%
%ADD19R,0.092000X0.092000*%
%ADD20R,0.001000X0.001000*%
%LNMASK0*%
G90*
G70*
G54D10*
X1230Y456D03*
X1230Y556D03*
X1230Y656D03*
X1230Y756D03*
X1230Y856D03*
X1230Y956D03*
X1230Y1056D03*
X1230Y1156D03*
X1230Y1256D03*
X1230Y1356D03*
X1230Y1456D03*
X1230Y1556D03*
X1230Y1656D03*
X1230Y1756D03*
X1230Y1856D03*
X630Y456D03*
X630Y556D03*
X630Y656D03*
X630Y756D03*
X630Y856D03*
X630Y956D03*
X630Y1056D03*
X630Y1156D03*
X630Y1256D03*
X630Y1356D03*
X630Y1456D03*
X630Y1556D03*
X630Y1656D03*
X630Y1756D03*
X630Y1856D03*
G54D11*
X1827Y1674D03*
X1827Y1774D03*
X712Y171D03*
X812Y171D03*
X473Y171D03*
X573Y171D03*
X230Y171D03*
X330Y171D03*
X1634Y168D03*
X1734Y168D03*
X1409Y168D03*
X1509Y168D03*
X1185Y168D03*
X1285Y168D03*
X960Y168D03*
X1060Y168D03*
X1789Y1319D03*
X1789Y1419D03*
X1789Y1097D03*
X1789Y1197D03*
X1789Y874D03*
X1789Y974D03*
G54D12*
X1495Y537D03*
X1595Y537D03*
X1695Y537D03*
X1456Y1052D03*
X1456Y952D03*
X1456Y852D03*
X1456Y1474D03*
X1456Y1374D03*
X1456Y1274D03*
G54D13*
X719Y673D03*
X919Y673D03*
X810Y735D03*
X1010Y735D03*
X890Y799D03*
X1090Y799D03*
X1420Y702D03*
X1320Y702D03*
X1343Y1114D03*
X1343Y1014D03*
X1333Y1332D03*
X1333Y1232D03*
G54D14*
X1523Y1825D03*
X1594Y1754D03*
X1525Y1642D03*
X1425Y1642D03*
G54D11*
X273Y892D03*
X273Y792D03*
X273Y1125D03*
X273Y1025D03*
X273Y1814D03*
X273Y1714D03*
X273Y1586D03*
X273Y1486D03*
X273Y659D03*
X273Y559D03*
X273Y1358D03*
X273Y1258D03*
G54D15*
X89Y97D03*
X81Y1889D03*
X1887Y1887D03*
X1885Y84D03*
G54D13*
X493Y1260D03*
X493Y1160D03*
X484Y1550D03*
X484Y1450D03*
X486Y920D03*
X486Y820D03*
X486Y697D03*
X486Y597D03*
G54D16*
X696Y88D03*
X596Y86D03*
X1740Y1597D03*
X1332Y1693D03*
X804Y445D03*
X708Y325D03*
X372Y1693D03*
X948Y373D03*
X1020Y517D03*
G54D17*
X1230Y456D03*
G54D18*
X1827Y1674D03*
X712Y171D03*
X473Y171D03*
X230Y171D03*
X1634Y168D03*
X1409Y168D03*
X1185Y168D03*
X960Y168D03*
X1789Y1319D03*
X1789Y1097D03*
X1789Y874D03*
G54D19*
X1495Y537D03*
X1456Y1052D03*
X1456Y1474D03*
G54D18*
X273Y892D03*
X273Y1125D03*
X273Y1814D03*
X273Y1586D03*
X273Y659D03*
X273Y1358D03*
G54D20*
X1593Y1808D02*
X1593Y1808D01*
X1592Y1807D02*
X1594Y1807D01*
X1591Y1806D02*
X1595Y1806D01*
X1590Y1805D02*
X1596Y1805D01*
X1589Y1804D02*
X1597Y1804D01*
X1588Y1803D02*
X1598Y1803D01*
X1587Y1802D02*
X1599Y1802D01*
X1586Y1801D02*
X1600Y1801D01*
X1585Y1800D02*
X1601Y1800D01*
X1584Y1799D02*
X1602Y1799D01*
X1583Y1798D02*
X1603Y1798D01*
X1582Y1797D02*
X1604Y1797D01*
X1581Y1796D02*
X1605Y1796D01*
X1580Y1795D02*
X1606Y1795D01*
X1579Y1794D02*
X1607Y1794D01*
X1578Y1793D02*
X1608Y1793D01*
X1577Y1792D02*
X1609Y1792D01*
X1576Y1791D02*
X1610Y1791D01*
X1575Y1790D02*
X1611Y1790D01*
X1574Y1789D02*
X1612Y1789D01*
X1573Y1788D02*
X1613Y1788D01*
X1572Y1787D02*
X1614Y1787D01*
X1571Y1786D02*
X1615Y1786D01*
X1570Y1785D02*
X1616Y1785D01*
X1569Y1784D02*
X1617Y1784D01*
X1568Y1783D02*
X1618Y1783D01*
X1567Y1782D02*
X1619Y1782D01*
X1566Y1781D02*
X1620Y1781D01*
X1565Y1780D02*
X1621Y1780D01*
X1564Y1779D02*
X1622Y1779D01*
X1563Y1778D02*
X1623Y1778D01*
X1562Y1777D02*
X1624Y1777D01*
X1561Y1776D02*
X1625Y1776D01*
X1560Y1775D02*
X1626Y1775D01*
X1559Y1774D02*
X1627Y1774D01*
X1558Y1773D02*
X1628Y1773D01*
X1557Y1772D02*
X1629Y1772D01*
X1556Y1771D02*
X1630Y1771D01*
X1555Y1770D02*
X1631Y1770D01*
X1554Y1769D02*
X1632Y1769D01*
X1553Y1768D02*
X1633Y1768D01*
X1552Y1767D02*
X1634Y1767D01*
X1551Y1766D02*
X1635Y1766D01*
X1550Y1765D02*
X1636Y1765D01*
X1549Y1764D02*
X1591Y1764D01*
X1595Y1764D02*
X1637Y1764D01*
X1548Y1763D02*
X1588Y1763D01*
X1598Y1763D02*
X1638Y1763D01*
X1547Y1762D02*
X1587Y1762D01*
X1600Y1762D02*
X1639Y1762D01*
X1546Y1761D02*
X1586Y1761D01*
X1601Y1761D02*
X1640Y1761D01*
X1545Y1760D02*
X1585Y1760D01*
X1601Y1760D02*
X1641Y1760D01*
X1544Y1759D02*
X1585Y1759D01*
X1602Y1759D02*
X1642Y1759D01*
X1543Y1758D02*
X1584Y1758D01*
X1602Y1758D02*
X1643Y1758D01*
X1542Y1757D02*
X1584Y1757D01*
X1602Y1757D02*
X1644Y1757D01*
X1541Y1756D02*
X1584Y1756D01*
X1602Y1756D02*
X1645Y1756D01*
X1541Y1755D02*
X1584Y1755D01*
X1603Y1755D02*
X1645Y1755D01*
X1542Y1754D02*
X1584Y1754D01*
X1602Y1754D02*
X1644Y1754D01*
X1543Y1753D02*
X1584Y1753D01*
X1602Y1753D02*
X1643Y1753D01*
X1544Y1752D02*
X1585Y1752D01*
X1602Y1752D02*
X1642Y1752D01*
X1545Y1751D02*
X1585Y1751D01*
X1601Y1751D02*
X1641Y1751D01*
X1546Y1750D02*
X1586Y1750D01*
X1601Y1750D02*
X1640Y1750D01*
X1547Y1749D02*
X1586Y1749D01*
X1600Y1749D02*
X1639Y1749D01*
X1548Y1748D02*
X1588Y1748D01*
X1599Y1748D02*
X1638Y1748D01*
X1549Y1747D02*
X1590Y1747D01*
X1597Y1747D02*
X1637Y1747D01*
X1550Y1746D02*
X1636Y1746D01*
X1551Y1745D02*
X1635Y1745D01*
X1552Y1744D02*
X1634Y1744D01*
X1553Y1743D02*
X1633Y1743D01*
X1554Y1742D02*
X1632Y1742D01*
X1555Y1741D02*
X1631Y1741D01*
X1556Y1740D02*
X1630Y1740D01*
X1557Y1739D02*
X1629Y1739D01*
X1558Y1738D02*
X1628Y1738D01*
X1559Y1737D02*
X1627Y1737D01*
X1560Y1736D02*
X1626Y1736D01*
X1561Y1735D02*
X1625Y1735D01*
X1562Y1734D02*
X1624Y1734D01*
X1563Y1733D02*
X1623Y1733D01*
X1564Y1732D02*
X1622Y1732D01*
X1565Y1731D02*
X1621Y1731D01*
X1566Y1730D02*
X1620Y1730D01*
X1567Y1729D02*
X1619Y1729D01*
X1568Y1728D02*
X1618Y1728D01*
X1569Y1727D02*
X1617Y1727D01*
X1570Y1726D02*
X1616Y1726D01*
X1571Y1725D02*
X1615Y1725D01*
X1572Y1724D02*
X1614Y1724D01*
X1573Y1723D02*
X1613Y1723D01*
X1574Y1722D02*
X1612Y1722D01*
X1575Y1721D02*
X1611Y1721D01*
X1576Y1720D02*
X1610Y1720D01*
X1577Y1719D02*
X1609Y1719D01*
X1578Y1718D02*
X1608Y1718D01*
X1579Y1717D02*
X1607Y1717D01*
X1580Y1716D02*
X1606Y1716D01*
X1581Y1715D02*
X1605Y1715D01*
X1582Y1714D02*
X1604Y1714D01*
X1583Y1713D02*
X1603Y1713D01*
X1584Y1712D02*
X1602Y1712D01*
X1585Y1711D02*
X1601Y1711D01*
X1586Y1710D02*
X1600Y1710D01*
X1587Y1709D02*
X1599Y1709D01*
X1588Y1708D02*
X1598Y1708D01*
X1589Y1707D02*
X1597Y1707D01*
X1590Y1706D02*
X1596Y1706D01*
X1591Y1705D02*
X1595Y1705D01*
X1592Y1704D02*
X1594Y1704D01*
X1593Y1703D02*
X1593Y1703D01*
D02*
G04 End of Mask0*
M02*