G04 MADE WITH FRITZING*
G04 WWW.FRITZING.ORG*
G04 DOUBLE SIDED*
G04 HOLES PLATED*
G04 CONTOUR ON CENTER OF CONTOUR VECTOR*
%ASAXBY*%
%FSLAX23Y23*%
%MOIN*%
%OFA0B0*%
%SFA1.0B1.0*%
%ADD10C,0.075000*%
%ADD11C,0.070000*%
%ADD12C,0.080000*%
%ADD13C,0.082000*%
%ADD14C,0.065000*%
%ADD15C,0.039370*%
%ADD16R,0.069972X0.070000*%
%ADD17R,0.080000X0.080000*%
%ADD18R,0.082000X0.082000*%
%ADD19C,0.048000*%
%ADD20C,0.024000*%
%ADD21R,0.001000X0.001000*%
%LNCOPPER0*%
G90*
G70*
G54D10*
X535Y1710D03*
X504Y1049D03*
X394Y1857D03*
G54D11*
X1230Y456D03*
X1230Y556D03*
X1230Y656D03*
X1230Y756D03*
X1230Y856D03*
X1230Y956D03*
X1230Y1056D03*
X1230Y1156D03*
X1230Y1256D03*
X1230Y1356D03*
X1230Y1456D03*
X1230Y1556D03*
X1230Y1656D03*
X1230Y1756D03*
X1230Y1856D03*
X630Y456D03*
X630Y556D03*
X630Y656D03*
X630Y756D03*
X630Y856D03*
X630Y956D03*
X630Y1056D03*
X630Y1156D03*
X630Y1256D03*
X630Y1356D03*
X630Y1456D03*
X630Y1556D03*
X630Y1656D03*
X630Y1756D03*
X630Y1856D03*
G54D12*
X1827Y1674D03*
X1827Y1774D03*
X712Y171D03*
X812Y171D03*
X473Y171D03*
X573Y171D03*
X230Y171D03*
X330Y171D03*
X1634Y168D03*
X1734Y168D03*
X1409Y168D03*
X1509Y168D03*
X1185Y168D03*
X1285Y168D03*
X960Y168D03*
X1060Y168D03*
X1789Y1319D03*
X1789Y1419D03*
X1789Y1097D03*
X1789Y1197D03*
X1789Y874D03*
X1789Y974D03*
G54D13*
X1495Y537D03*
X1595Y537D03*
X1695Y537D03*
X1456Y1052D03*
X1456Y952D03*
X1456Y852D03*
X1456Y1474D03*
X1456Y1374D03*
X1456Y1274D03*
G54D10*
X719Y673D03*
X919Y673D03*
X810Y735D03*
X1010Y735D03*
X890Y799D03*
X1090Y799D03*
X1420Y702D03*
X1320Y702D03*
X1343Y1114D03*
X1343Y1014D03*
X1333Y1332D03*
X1333Y1232D03*
G54D14*
X1523Y1825D03*
X1594Y1754D03*
X1525Y1642D03*
X1425Y1642D03*
G54D12*
X273Y892D03*
X273Y792D03*
X273Y1814D03*
X273Y1714D03*
X273Y659D03*
X273Y559D03*
X273Y1358D03*
X273Y1258D03*
X273Y1125D03*
X273Y1025D03*
X273Y1586D03*
X273Y1486D03*
G54D10*
X493Y1260D03*
X493Y1160D03*
X484Y1550D03*
X484Y1450D03*
X486Y920D03*
X486Y820D03*
X486Y697D03*
X486Y597D03*
G54D15*
X696Y88D03*
X596Y86D03*
X1740Y1597D03*
X1332Y1693D03*
X804Y445D03*
X708Y325D03*
X372Y1693D03*
X948Y373D03*
X1020Y517D03*
G54D16*
X1230Y456D03*
G54D17*
X1827Y1674D03*
X712Y171D03*
X473Y171D03*
X230Y171D03*
X1634Y168D03*
X1409Y168D03*
X1185Y168D03*
X960Y168D03*
X1789Y1319D03*
X1789Y1097D03*
X1789Y874D03*
G54D18*
X1495Y537D03*
X1456Y1052D03*
X1456Y1474D03*
G54D17*
X273Y892D03*
X273Y1814D03*
X273Y659D03*
X273Y1358D03*
X273Y1125D03*
X273Y1586D03*
G54D19*
X1631Y1413D02*
X1758Y1418D01*
D02*
X1487Y1381D02*
X1631Y1413D01*
D02*
X1625Y1152D02*
X1759Y1189D01*
D02*
X1485Y964D02*
X1592Y1008D01*
D02*
X1592Y1008D02*
X1625Y1152D01*
D02*
X1567Y802D02*
X1704Y971D01*
D02*
X1704Y971D02*
X1747Y973D01*
D02*
X1591Y580D02*
X1567Y802D01*
G54D20*
D02*
X1333Y1208D02*
X1427Y1259D01*
D02*
X1378Y897D02*
X1428Y868D01*
D02*
X1351Y987D02*
X1378Y897D01*
D02*
X1867Y197D02*
X1886Y238D01*
D02*
X1897Y402D02*
X1897Y1552D01*
D02*
X1897Y1769D02*
X1825Y1774D01*
D02*
X1886Y238D02*
X1897Y402D01*
D02*
X1825Y1774D02*
X1796Y1775D01*
D02*
X1897Y1552D02*
X1897Y1769D01*
D02*
X889Y56D02*
X885Y326D01*
D02*
X878Y497D02*
X659Y549D01*
D02*
X885Y326D02*
X878Y497D01*
D02*
X1811Y52D02*
X889Y56D01*
D02*
X1867Y197D02*
X1811Y52D01*
D02*
X59Y1019D02*
X242Y1025D01*
D02*
X63Y1360D02*
X59Y1019D01*
D02*
X242Y1358D02*
X63Y1360D01*
D02*
X74Y1693D02*
X70Y1360D01*
D02*
X70Y1360D02*
X242Y1358D01*
D02*
X242Y1711D02*
X74Y1693D01*
D02*
X517Y44D02*
X561Y142D01*
D02*
X881Y52D02*
X517Y44D01*
D02*
X659Y549D02*
X874Y497D01*
D02*
X874Y497D02*
X881Y52D01*
D02*
X242Y659D02*
X59Y663D01*
D02*
X59Y663D02*
X63Y1019D01*
D02*
X63Y1019D02*
X242Y1024D01*
D02*
X172Y52D02*
X885Y49D01*
D02*
X48Y260D02*
X137Y189D01*
D02*
X59Y660D02*
X48Y260D01*
D02*
X137Y189D02*
X172Y52D01*
D02*
X242Y659D02*
X59Y660D01*
D02*
X878Y497D02*
X659Y549D01*
D02*
X885Y49D02*
X878Y497D01*
D02*
X515Y41D02*
X330Y60D01*
D02*
X560Y143D02*
X515Y41D01*
D02*
X330Y60D02*
X330Y140D01*
D02*
X811Y50D02*
X812Y140D01*
D02*
X514Y40D02*
X811Y50D01*
D02*
X560Y143D02*
X514Y40D01*
D02*
X1437Y679D02*
X1463Y645D01*
D02*
X1463Y645D02*
X1486Y568D01*
D02*
X1407Y728D02*
X1296Y952D01*
D02*
X1296Y952D02*
X1260Y954D01*
D02*
X1255Y741D02*
X1295Y717D01*
D02*
X1368Y1101D02*
X1427Y1068D01*
D02*
X1316Y1124D02*
X1258Y1146D01*
D02*
X1352Y1354D02*
X1435Y1450D01*
D02*
X1425Y1264D02*
X1360Y1242D01*
D02*
X1310Y1315D02*
X1254Y1273D01*
D02*
X615Y86D02*
X677Y88D01*
D02*
X1737Y52D02*
X810Y51D01*
D02*
X810Y51D02*
X811Y140D01*
D02*
X1735Y137D02*
X1737Y52D01*
D02*
X516Y1243D02*
X607Y1174D01*
D02*
X507Y939D02*
X609Y1036D01*
D02*
X604Y1267D02*
X564Y1285D01*
X564Y1285D02*
X564Y1477D01*
X564Y1477D02*
X505Y1531D01*
D02*
X1065Y199D02*
X1164Y757D01*
X1164Y757D02*
X1164Y1813D01*
X1164Y1813D02*
X1206Y1840D01*
D02*
X1267Y194D02*
X1260Y205D01*
X1260Y205D02*
X1764Y493D01*
X1764Y493D02*
X1860Y805D01*
X1860Y805D02*
X1860Y1501D01*
X1860Y1501D02*
X1260Y1621D01*
X1260Y1621D02*
X1249Y1634D01*
D02*
X1723Y1606D02*
X1548Y1705D01*
X1548Y1705D02*
X1351Y1694D01*
D02*
X604Y944D02*
X564Y925D01*
X564Y925D02*
X564Y781D01*
X564Y781D02*
X506Y718D01*
D02*
X804Y426D02*
X804Y397D01*
X804Y397D02*
X564Y397D01*
X564Y397D02*
X494Y474D01*
D02*
X494Y474D02*
X420Y541D01*
X420Y541D02*
X420Y1621D01*
D02*
X514Y1872D02*
X572Y1927D01*
D02*
X420Y1621D02*
X514Y1872D01*
D02*
X572Y1927D02*
X1242Y1927D01*
D02*
X1242Y1927D02*
X1303Y1897D01*
D02*
X1303Y1897D02*
X1311Y1819D01*
D02*
X1311Y1819D02*
X1253Y1774D01*
D02*
X488Y198D02*
X492Y205D01*
X492Y205D02*
X691Y315D01*
D02*
X652Y1436D02*
X660Y1429D01*
X660Y1429D02*
X997Y761D01*
D02*
X242Y199D02*
X372Y493D01*
X372Y493D02*
X372Y1674D01*
D02*
X956Y389D02*
X1012Y500D01*
D02*
X650Y1535D02*
X660Y1525D01*
X660Y1525D02*
X1076Y824D01*
G36*
X578Y1903D02*
X578Y1901D01*
X576Y1901D01*
X576Y1899D01*
X572Y1899D01*
X572Y1897D01*
X570Y1897D01*
X570Y1895D01*
X568Y1895D01*
X568Y1893D01*
X566Y1893D01*
X566Y1891D01*
X564Y1891D01*
X564Y1889D01*
X562Y1889D01*
X562Y1887D01*
X560Y1887D01*
X560Y1885D01*
X558Y1885D01*
X558Y1883D01*
X556Y1883D01*
X556Y1881D01*
X554Y1881D01*
X554Y1879D01*
X552Y1879D01*
X552Y1877D01*
X550Y1877D01*
X550Y1875D01*
X548Y1875D01*
X548Y1873D01*
X546Y1873D01*
X546Y1871D01*
X544Y1871D01*
X544Y1869D01*
X542Y1869D01*
X542Y1867D01*
X540Y1867D01*
X540Y1865D01*
X538Y1865D01*
X538Y1863D01*
X536Y1863D01*
X536Y1861D01*
X534Y1861D01*
X534Y1859D01*
X532Y1859D01*
X532Y1855D01*
X530Y1855D01*
X530Y1849D01*
X528Y1849D01*
X528Y1845D01*
X526Y1845D01*
X526Y1839D01*
X524Y1839D01*
X524Y1833D01*
X522Y1833D01*
X522Y1829D01*
X520Y1829D01*
X520Y1823D01*
X518Y1823D01*
X518Y1817D01*
X516Y1817D01*
X516Y1813D01*
X514Y1813D01*
X514Y1807D01*
X512Y1807D01*
X512Y1801D01*
X510Y1801D01*
X510Y1797D01*
X508Y1797D01*
X508Y1791D01*
X506Y1791D01*
X506Y1785D01*
X504Y1785D01*
X504Y1781D01*
X502Y1781D01*
X502Y1775D01*
X500Y1775D01*
X500Y1769D01*
X498Y1769D01*
X498Y1765D01*
X496Y1765D01*
X496Y1759D01*
X494Y1759D01*
X494Y1753D01*
X492Y1753D01*
X492Y1749D01*
X490Y1749D01*
X490Y1743D01*
X488Y1743D01*
X488Y1737D01*
X486Y1737D01*
X486Y1733D01*
X484Y1733D01*
X484Y1727D01*
X482Y1727D01*
X482Y1721D01*
X480Y1721D01*
X480Y1717D01*
X478Y1717D01*
X478Y1711D01*
X476Y1711D01*
X476Y1705D01*
X474Y1705D01*
X474Y1701D01*
X472Y1701D01*
X472Y1695D01*
X470Y1695D01*
X470Y1689D01*
X468Y1689D01*
X468Y1683D01*
X466Y1683D01*
X466Y1679D01*
X464Y1679D01*
X464Y1673D01*
X462Y1673D01*
X462Y1667D01*
X460Y1667D01*
X460Y1663D01*
X458Y1663D01*
X458Y1657D01*
X456Y1657D01*
X456Y1651D01*
X454Y1651D01*
X454Y1647D01*
X452Y1647D01*
X452Y1641D01*
X450Y1641D01*
X450Y1635D01*
X448Y1635D01*
X448Y1631D01*
X446Y1631D01*
X446Y1625D01*
X444Y1625D01*
X444Y1619D01*
X442Y1619D01*
X442Y1599D01*
X488Y1599D01*
X488Y1597D01*
X496Y1597D01*
X496Y1595D01*
X502Y1595D01*
X502Y1593D01*
X504Y1593D01*
X504Y1591D01*
X508Y1591D01*
X508Y1589D01*
X510Y1589D01*
X510Y1587D01*
X514Y1587D01*
X514Y1585D01*
X516Y1585D01*
X516Y1583D01*
X518Y1583D01*
X518Y1581D01*
X520Y1581D01*
X520Y1577D01*
X522Y1577D01*
X522Y1575D01*
X524Y1575D01*
X524Y1571D01*
X526Y1571D01*
X526Y1569D01*
X528Y1569D01*
X528Y1563D01*
X530Y1563D01*
X530Y1555D01*
X532Y1555D01*
X532Y1535D01*
X534Y1535D01*
X534Y1533D01*
X536Y1533D01*
X536Y1531D01*
X538Y1531D01*
X538Y1529D01*
X542Y1529D01*
X542Y1527D01*
X544Y1527D01*
X544Y1525D01*
X546Y1525D01*
X546Y1523D01*
X548Y1523D01*
X548Y1521D01*
X550Y1521D01*
X550Y1519D01*
X552Y1519D01*
X552Y1517D01*
X554Y1517D01*
X554Y1515D01*
X556Y1515D01*
X556Y1513D01*
X558Y1513D01*
X558Y1511D01*
X560Y1511D01*
X560Y1509D01*
X562Y1509D01*
X562Y1507D01*
X564Y1507D01*
X564Y1505D01*
X568Y1505D01*
X568Y1503D01*
X570Y1503D01*
X570Y1501D01*
X572Y1501D01*
X572Y1499D01*
X574Y1499D01*
X574Y1497D01*
X576Y1497D01*
X576Y1495D01*
X578Y1495D01*
X578Y1493D01*
X580Y1493D01*
X580Y1491D01*
X582Y1491D01*
X582Y1489D01*
X602Y1489D01*
X602Y1491D01*
X604Y1491D01*
X604Y1493D01*
X608Y1493D01*
X608Y1495D01*
X612Y1495D01*
X612Y1517D01*
X610Y1517D01*
X610Y1519D01*
X606Y1519D01*
X606Y1521D01*
X604Y1521D01*
X604Y1523D01*
X602Y1523D01*
X602Y1525D01*
X600Y1525D01*
X600Y1527D01*
X598Y1527D01*
X598Y1529D01*
X596Y1529D01*
X596Y1531D01*
X594Y1531D01*
X594Y1533D01*
X592Y1533D01*
X592Y1537D01*
X590Y1537D01*
X590Y1541D01*
X588Y1541D01*
X588Y1547D01*
X586Y1547D01*
X586Y1567D01*
X588Y1567D01*
X588Y1573D01*
X590Y1573D01*
X590Y1575D01*
X592Y1575D01*
X592Y1579D01*
X594Y1579D01*
X594Y1583D01*
X596Y1583D01*
X596Y1585D01*
X598Y1585D01*
X598Y1587D01*
X600Y1587D01*
X600Y1589D01*
X602Y1589D01*
X602Y1591D01*
X604Y1591D01*
X604Y1593D01*
X608Y1593D01*
X608Y1595D01*
X612Y1595D01*
X612Y1617D01*
X610Y1617D01*
X610Y1619D01*
X606Y1619D01*
X606Y1621D01*
X604Y1621D01*
X604Y1623D01*
X602Y1623D01*
X602Y1625D01*
X600Y1625D01*
X600Y1627D01*
X598Y1627D01*
X598Y1629D01*
X596Y1629D01*
X596Y1631D01*
X594Y1631D01*
X594Y1633D01*
X592Y1633D01*
X592Y1637D01*
X590Y1637D01*
X590Y1641D01*
X588Y1641D01*
X588Y1647D01*
X586Y1647D01*
X586Y1667D01*
X588Y1667D01*
X588Y1673D01*
X590Y1673D01*
X590Y1675D01*
X592Y1675D01*
X592Y1679D01*
X594Y1679D01*
X594Y1683D01*
X596Y1683D01*
X596Y1685D01*
X598Y1685D01*
X598Y1687D01*
X600Y1687D01*
X600Y1689D01*
X602Y1689D01*
X602Y1691D01*
X604Y1691D01*
X604Y1693D01*
X608Y1693D01*
X608Y1695D01*
X612Y1695D01*
X612Y1717D01*
X610Y1717D01*
X610Y1719D01*
X606Y1719D01*
X606Y1721D01*
X604Y1721D01*
X604Y1723D01*
X602Y1723D01*
X602Y1725D01*
X600Y1725D01*
X600Y1727D01*
X598Y1727D01*
X598Y1729D01*
X596Y1729D01*
X596Y1731D01*
X594Y1731D01*
X594Y1733D01*
X592Y1733D01*
X592Y1737D01*
X590Y1737D01*
X590Y1741D01*
X588Y1741D01*
X588Y1747D01*
X586Y1747D01*
X586Y1767D01*
X588Y1767D01*
X588Y1773D01*
X590Y1773D01*
X590Y1775D01*
X592Y1775D01*
X592Y1779D01*
X594Y1779D01*
X594Y1783D01*
X596Y1783D01*
X596Y1785D01*
X598Y1785D01*
X598Y1787D01*
X600Y1787D01*
X600Y1789D01*
X602Y1789D01*
X602Y1791D01*
X604Y1791D01*
X604Y1793D01*
X608Y1793D01*
X608Y1795D01*
X612Y1795D01*
X612Y1817D01*
X610Y1817D01*
X610Y1819D01*
X606Y1819D01*
X606Y1821D01*
X604Y1821D01*
X604Y1823D01*
X602Y1823D01*
X602Y1825D01*
X600Y1825D01*
X600Y1827D01*
X598Y1827D01*
X598Y1829D01*
X596Y1829D01*
X596Y1831D01*
X594Y1831D01*
X594Y1833D01*
X592Y1833D01*
X592Y1837D01*
X590Y1837D01*
X590Y1841D01*
X588Y1841D01*
X588Y1847D01*
X586Y1847D01*
X586Y1867D01*
X588Y1867D01*
X588Y1873D01*
X590Y1873D01*
X590Y1875D01*
X592Y1875D01*
X592Y1879D01*
X594Y1879D01*
X594Y1883D01*
X596Y1883D01*
X596Y1885D01*
X598Y1885D01*
X598Y1903D01*
X578Y1903D01*
G37*
D02*
G36*
X442Y1599D02*
X442Y1591D01*
X462Y1591D01*
X462Y1593D01*
X466Y1593D01*
X466Y1595D01*
X472Y1595D01*
X472Y1597D01*
X480Y1597D01*
X480Y1599D01*
X442Y1599D01*
G37*
D02*
G36*
X540Y1263D02*
X540Y1251D01*
X544Y1251D01*
X544Y1249D01*
X546Y1249D01*
X546Y1247D01*
X548Y1247D01*
X548Y1245D01*
X552Y1245D01*
X552Y1243D01*
X554Y1243D01*
X554Y1241D01*
X556Y1241D01*
X556Y1239D01*
X560Y1239D01*
X560Y1237D01*
X562Y1237D01*
X562Y1235D01*
X564Y1235D01*
X564Y1233D01*
X568Y1233D01*
X568Y1231D01*
X570Y1231D01*
X570Y1229D01*
X572Y1229D01*
X572Y1227D01*
X576Y1227D01*
X576Y1225D01*
X578Y1225D01*
X578Y1223D01*
X580Y1223D01*
X580Y1221D01*
X600Y1221D01*
X600Y1227D01*
X598Y1227D01*
X598Y1229D01*
X596Y1229D01*
X596Y1231D01*
X594Y1231D01*
X594Y1233D01*
X592Y1233D01*
X592Y1237D01*
X590Y1237D01*
X590Y1241D01*
X588Y1241D01*
X588Y1247D01*
X586Y1247D01*
X586Y1253D01*
X580Y1253D01*
X580Y1255D01*
X576Y1255D01*
X576Y1257D01*
X572Y1257D01*
X572Y1259D01*
X566Y1259D01*
X566Y1261D01*
X562Y1261D01*
X562Y1263D01*
X540Y1263D01*
G37*
D02*
G36*
X532Y1189D02*
X532Y1183D01*
X534Y1183D01*
X534Y1181D01*
X536Y1181D01*
X536Y1177D01*
X538Y1177D01*
X538Y1171D01*
X540Y1171D01*
X540Y1151D01*
X538Y1151D01*
X538Y1145D01*
X536Y1145D01*
X536Y1141D01*
X534Y1141D01*
X534Y1137D01*
X532Y1137D01*
X532Y1135D01*
X530Y1135D01*
X530Y1133D01*
X528Y1133D01*
X528Y1129D01*
X526Y1129D01*
X526Y1127D01*
X524Y1127D01*
X524Y1125D01*
X520Y1125D01*
X520Y1123D01*
X518Y1123D01*
X518Y1121D01*
X516Y1121D01*
X516Y1119D01*
X512Y1119D01*
X512Y1117D01*
X508Y1117D01*
X508Y1115D01*
X502Y1115D01*
X502Y1113D01*
X612Y1113D01*
X612Y1117D01*
X610Y1117D01*
X610Y1119D01*
X606Y1119D01*
X606Y1121D01*
X604Y1121D01*
X604Y1123D01*
X602Y1123D01*
X602Y1125D01*
X600Y1125D01*
X600Y1127D01*
X598Y1127D01*
X598Y1129D01*
X596Y1129D01*
X596Y1131D01*
X594Y1131D01*
X594Y1133D01*
X592Y1133D01*
X592Y1137D01*
X590Y1137D01*
X590Y1141D01*
X588Y1141D01*
X588Y1147D01*
X586Y1147D01*
X586Y1163D01*
X584Y1163D01*
X584Y1165D01*
X582Y1165D01*
X582Y1167D01*
X578Y1167D01*
X578Y1169D01*
X576Y1169D01*
X576Y1171D01*
X574Y1171D01*
X574Y1173D01*
X570Y1173D01*
X570Y1175D01*
X568Y1175D01*
X568Y1177D01*
X566Y1177D01*
X566Y1179D01*
X562Y1179D01*
X562Y1181D01*
X560Y1181D01*
X560Y1183D01*
X558Y1183D01*
X558Y1185D01*
X554Y1185D01*
X554Y1187D01*
X552Y1187D01*
X552Y1189D01*
X532Y1189D01*
G37*
D02*
G36*
X442Y1127D02*
X442Y1113D01*
X484Y1113D01*
X484Y1115D01*
X478Y1115D01*
X478Y1117D01*
X474Y1117D01*
X474Y1119D01*
X470Y1119D01*
X470Y1121D01*
X468Y1121D01*
X468Y1123D01*
X466Y1123D01*
X466Y1125D01*
X462Y1125D01*
X462Y1127D01*
X442Y1127D01*
G37*
D02*
G36*
X442Y1113D02*
X442Y1111D01*
X612Y1111D01*
X612Y1113D01*
X442Y1113D01*
G37*
D02*
G36*
X442Y1113D02*
X442Y1111D01*
X612Y1111D01*
X612Y1113D01*
X442Y1113D01*
G37*
D02*
G36*
X442Y1111D02*
X442Y959D01*
X462Y959D01*
X462Y961D01*
X466Y961D01*
X466Y963D01*
X470Y963D01*
X470Y965D01*
X476Y965D01*
X476Y967D01*
X504Y967D01*
X504Y969D01*
X506Y969D01*
X506Y971D01*
X508Y971D01*
X508Y973D01*
X510Y973D01*
X510Y975D01*
X514Y975D01*
X514Y977D01*
X516Y977D01*
X516Y979D01*
X518Y979D01*
X518Y981D01*
X520Y981D01*
X520Y983D01*
X522Y983D01*
X522Y985D01*
X524Y985D01*
X524Y987D01*
X526Y987D01*
X526Y989D01*
X528Y989D01*
X528Y991D01*
X530Y991D01*
X530Y993D01*
X532Y993D01*
X532Y995D01*
X534Y995D01*
X534Y997D01*
X536Y997D01*
X536Y999D01*
X538Y999D01*
X538Y1001D01*
X540Y1001D01*
X540Y1003D01*
X542Y1003D01*
X542Y1005D01*
X544Y1005D01*
X544Y1007D01*
X546Y1007D01*
X546Y1009D01*
X550Y1009D01*
X550Y1011D01*
X552Y1011D01*
X552Y1013D01*
X554Y1013D01*
X554Y1015D01*
X556Y1015D01*
X556Y1017D01*
X558Y1017D01*
X558Y1019D01*
X560Y1019D01*
X560Y1021D01*
X562Y1021D01*
X562Y1023D01*
X564Y1023D01*
X564Y1025D01*
X566Y1025D01*
X566Y1027D01*
X568Y1027D01*
X568Y1029D01*
X570Y1029D01*
X570Y1031D01*
X572Y1031D01*
X572Y1033D01*
X574Y1033D01*
X574Y1035D01*
X576Y1035D01*
X576Y1037D01*
X578Y1037D01*
X578Y1039D01*
X580Y1039D01*
X580Y1041D01*
X582Y1041D01*
X582Y1043D01*
X586Y1043D01*
X586Y1067D01*
X588Y1067D01*
X588Y1073D01*
X590Y1073D01*
X590Y1075D01*
X592Y1075D01*
X592Y1079D01*
X594Y1079D01*
X594Y1083D01*
X596Y1083D01*
X596Y1085D01*
X598Y1085D01*
X598Y1087D01*
X600Y1087D01*
X600Y1089D01*
X602Y1089D01*
X602Y1091D01*
X604Y1091D01*
X604Y1093D01*
X608Y1093D01*
X608Y1095D01*
X612Y1095D01*
X612Y1111D01*
X442Y1111D01*
G37*
D02*
G36*
X522Y793D02*
X522Y791D01*
X520Y791D01*
X520Y789D01*
X518Y789D01*
X518Y787D01*
X516Y787D01*
X516Y785D01*
X514Y785D01*
X514Y783D01*
X512Y783D01*
X512Y781D01*
X508Y781D01*
X508Y779D01*
X506Y779D01*
X506Y777D01*
X502Y777D01*
X502Y775D01*
X496Y775D01*
X496Y773D01*
X528Y773D01*
X528Y775D01*
X530Y775D01*
X530Y779D01*
X532Y779D01*
X532Y781D01*
X534Y781D01*
X534Y783D01*
X536Y783D01*
X536Y785D01*
X538Y785D01*
X538Y787D01*
X540Y787D01*
X540Y789D01*
X542Y789D01*
X542Y793D01*
X522Y793D01*
G37*
D02*
G36*
X442Y781D02*
X442Y773D01*
X476Y773D01*
X476Y775D01*
X470Y775D01*
X470Y777D01*
X466Y777D01*
X466Y779D01*
X462Y779D01*
X462Y781D01*
X442Y781D01*
G37*
D02*
G36*
X442Y773D02*
X442Y771D01*
X526Y771D01*
X526Y773D01*
X442Y773D01*
G37*
D02*
G36*
X442Y773D02*
X442Y771D01*
X526Y771D01*
X526Y773D01*
X442Y773D01*
G37*
D02*
G36*
X442Y771D02*
X442Y737D01*
X464Y737D01*
X464Y739D01*
X466Y739D01*
X466Y741D01*
X470Y741D01*
X470Y743D01*
X476Y743D01*
X476Y745D01*
X500Y745D01*
X500Y747D01*
X502Y747D01*
X502Y749D01*
X504Y749D01*
X504Y751D01*
X506Y751D01*
X506Y753D01*
X508Y753D01*
X508Y755D01*
X510Y755D01*
X510Y757D01*
X512Y757D01*
X512Y759D01*
X514Y759D01*
X514Y761D01*
X516Y761D01*
X516Y763D01*
X518Y763D01*
X518Y765D01*
X520Y765D01*
X520Y767D01*
X522Y767D01*
X522Y769D01*
X524Y769D01*
X524Y771D01*
X442Y771D01*
G37*
D02*
G36*
X1180Y727D02*
X1180Y715D01*
X1178Y715D01*
X1178Y705D01*
X1176Y705D01*
X1176Y693D01*
X1174Y693D01*
X1174Y681D01*
X1172Y681D01*
X1172Y675D01*
X1192Y675D01*
X1192Y679D01*
X1194Y679D01*
X1194Y683D01*
X1196Y683D01*
X1196Y685D01*
X1198Y685D01*
X1198Y687D01*
X1200Y687D01*
X1200Y689D01*
X1202Y689D01*
X1202Y691D01*
X1204Y691D01*
X1204Y693D01*
X1208Y693D01*
X1208Y695D01*
X1212Y695D01*
X1212Y717D01*
X1210Y717D01*
X1210Y719D01*
X1206Y719D01*
X1206Y721D01*
X1204Y721D01*
X1204Y723D01*
X1202Y723D01*
X1202Y725D01*
X1200Y725D01*
X1200Y727D01*
X1180Y727D01*
G37*
D02*
G36*
X130Y1929D02*
X130Y1909D01*
X132Y1909D01*
X132Y1903D01*
X134Y1903D01*
X134Y1877D01*
X132Y1877D01*
X132Y1871D01*
X130Y1871D01*
X130Y1867D01*
X128Y1867D01*
X128Y1865D01*
X322Y1865D01*
X322Y1765D01*
X310Y1765D01*
X310Y1745D01*
X312Y1745D01*
X312Y1743D01*
X314Y1743D01*
X314Y1739D01*
X316Y1739D01*
X316Y1735D01*
X318Y1735D01*
X318Y1733D01*
X320Y1733D01*
X320Y1727D01*
X322Y1727D01*
X322Y1723D01*
X378Y1723D01*
X378Y1721D01*
X382Y1721D01*
X382Y1719D01*
X386Y1719D01*
X386Y1717D01*
X388Y1717D01*
X388Y1715D01*
X392Y1715D01*
X392Y1713D01*
X394Y1713D01*
X394Y1709D01*
X396Y1709D01*
X396Y1707D01*
X398Y1707D01*
X398Y1703D01*
X400Y1703D01*
X400Y1697D01*
X402Y1697D01*
X402Y1689D01*
X400Y1689D01*
X400Y1683D01*
X398Y1683D01*
X398Y1679D01*
X396Y1679D01*
X396Y1677D01*
X394Y1677D01*
X394Y1665D01*
X414Y1665D01*
X414Y1671D01*
X416Y1671D01*
X416Y1675D01*
X418Y1675D01*
X418Y1681D01*
X420Y1681D01*
X420Y1687D01*
X422Y1687D01*
X422Y1691D01*
X424Y1691D01*
X424Y1697D01*
X426Y1697D01*
X426Y1703D01*
X428Y1703D01*
X428Y1707D01*
X430Y1707D01*
X430Y1713D01*
X432Y1713D01*
X432Y1719D01*
X434Y1719D01*
X434Y1725D01*
X436Y1725D01*
X436Y1729D01*
X438Y1729D01*
X438Y1735D01*
X440Y1735D01*
X440Y1741D01*
X442Y1741D01*
X442Y1745D01*
X444Y1745D01*
X444Y1751D01*
X446Y1751D01*
X446Y1757D01*
X448Y1757D01*
X448Y1761D01*
X450Y1761D01*
X450Y1767D01*
X452Y1767D01*
X452Y1773D01*
X454Y1773D01*
X454Y1777D01*
X456Y1777D01*
X456Y1783D01*
X458Y1783D01*
X458Y1789D01*
X460Y1789D01*
X460Y1793D01*
X462Y1793D01*
X462Y1799D01*
X464Y1799D01*
X464Y1805D01*
X466Y1805D01*
X466Y1809D01*
X468Y1809D01*
X468Y1815D01*
X470Y1815D01*
X470Y1821D01*
X472Y1821D01*
X472Y1825D01*
X474Y1825D01*
X474Y1831D01*
X476Y1831D01*
X476Y1837D01*
X478Y1837D01*
X478Y1841D01*
X480Y1841D01*
X480Y1847D01*
X482Y1847D01*
X482Y1853D01*
X484Y1853D01*
X484Y1857D01*
X486Y1857D01*
X486Y1863D01*
X488Y1863D01*
X488Y1869D01*
X490Y1869D01*
X490Y1873D01*
X492Y1873D01*
X492Y1879D01*
X494Y1879D01*
X494Y1883D01*
X496Y1883D01*
X496Y1887D01*
X498Y1887D01*
X498Y1889D01*
X500Y1889D01*
X500Y1891D01*
X502Y1891D01*
X502Y1893D01*
X504Y1893D01*
X504Y1895D01*
X506Y1895D01*
X506Y1897D01*
X510Y1897D01*
X510Y1899D01*
X512Y1899D01*
X512Y1901D01*
X514Y1901D01*
X514Y1903D01*
X516Y1903D01*
X516Y1905D01*
X518Y1905D01*
X518Y1907D01*
X520Y1907D01*
X520Y1909D01*
X522Y1909D01*
X522Y1929D01*
X130Y1929D01*
G37*
D02*
G36*
X1320Y1929D02*
X1320Y1909D01*
X1322Y1909D01*
X1322Y1905D01*
X1324Y1905D01*
X1324Y1897D01*
X1326Y1897D01*
X1326Y1877D01*
X1328Y1877D01*
X1328Y1867D01*
X1530Y1867D01*
X1530Y1865D01*
X1540Y1865D01*
X1540Y1863D01*
X1544Y1863D01*
X1544Y1861D01*
X1548Y1861D01*
X1548Y1859D01*
X1550Y1859D01*
X1550Y1857D01*
X1552Y1857D01*
X1552Y1855D01*
X1554Y1855D01*
X1554Y1853D01*
X1556Y1853D01*
X1556Y1851D01*
X1558Y1851D01*
X1558Y1847D01*
X1560Y1847D01*
X1560Y1843D01*
X1562Y1843D01*
X1562Y1837D01*
X1564Y1837D01*
X1564Y1835D01*
X1874Y1835D01*
X1874Y1837D01*
X1868Y1837D01*
X1868Y1839D01*
X1864Y1839D01*
X1864Y1841D01*
X1860Y1841D01*
X1860Y1843D01*
X1858Y1843D01*
X1858Y1845D01*
X1854Y1845D01*
X1854Y1847D01*
X1852Y1847D01*
X1852Y1849D01*
X1850Y1849D01*
X1850Y1851D01*
X1848Y1851D01*
X1848Y1853D01*
X1846Y1853D01*
X1846Y1855D01*
X1844Y1855D01*
X1844Y1859D01*
X1842Y1859D01*
X1842Y1861D01*
X1840Y1861D01*
X1840Y1865D01*
X1838Y1865D01*
X1838Y1869D01*
X1836Y1869D01*
X1836Y1875D01*
X1834Y1875D01*
X1834Y1899D01*
X1836Y1899D01*
X1836Y1905D01*
X1838Y1905D01*
X1838Y1909D01*
X1840Y1909D01*
X1840Y1929D01*
X1320Y1929D01*
G37*
D02*
G36*
X1328Y1867D02*
X1328Y1859D01*
X1330Y1859D01*
X1330Y1841D01*
X1332Y1841D01*
X1332Y1821D01*
X1334Y1821D01*
X1334Y1819D01*
X1332Y1819D01*
X1332Y1811D01*
X1330Y1811D01*
X1330Y1807D01*
X1328Y1807D01*
X1328Y1805D01*
X1326Y1805D01*
X1326Y1803D01*
X1324Y1803D01*
X1324Y1801D01*
X1322Y1801D01*
X1322Y1799D01*
X1320Y1799D01*
X1320Y1797D01*
X1316Y1797D01*
X1316Y1795D01*
X1314Y1795D01*
X1314Y1793D01*
X1312Y1793D01*
X1312Y1791D01*
X1310Y1791D01*
X1310Y1789D01*
X1306Y1789D01*
X1306Y1787D01*
X1304Y1787D01*
X1304Y1785D01*
X1512Y1785D01*
X1512Y1787D01*
X1506Y1787D01*
X1506Y1789D01*
X1500Y1789D01*
X1500Y1791D01*
X1498Y1791D01*
X1498Y1793D01*
X1496Y1793D01*
X1496Y1795D01*
X1492Y1795D01*
X1492Y1799D01*
X1490Y1799D01*
X1490Y1801D01*
X1488Y1801D01*
X1488Y1805D01*
X1486Y1805D01*
X1486Y1809D01*
X1484Y1809D01*
X1484Y1817D01*
X1482Y1817D01*
X1482Y1833D01*
X1484Y1833D01*
X1484Y1841D01*
X1486Y1841D01*
X1486Y1847D01*
X1488Y1847D01*
X1488Y1851D01*
X1490Y1851D01*
X1490Y1853D01*
X1492Y1853D01*
X1492Y1855D01*
X1494Y1855D01*
X1494Y1857D01*
X1496Y1857D01*
X1496Y1859D01*
X1498Y1859D01*
X1498Y1861D01*
X1502Y1861D01*
X1502Y1863D01*
X1508Y1863D01*
X1508Y1865D01*
X1516Y1865D01*
X1516Y1867D01*
X1328Y1867D01*
G37*
D02*
G36*
X128Y1865D02*
X128Y1863D01*
X126Y1863D01*
X126Y1861D01*
X124Y1861D01*
X124Y1857D01*
X122Y1857D01*
X122Y1855D01*
X120Y1855D01*
X120Y1853D01*
X118Y1853D01*
X118Y1851D01*
X116Y1851D01*
X116Y1849D01*
X114Y1849D01*
X114Y1847D01*
X110Y1847D01*
X110Y1845D01*
X108Y1845D01*
X108Y1843D01*
X104Y1843D01*
X104Y1841D01*
X100Y1841D01*
X100Y1839D01*
X94Y1839D01*
X94Y1837D01*
X222Y1837D01*
X222Y1865D01*
X128Y1865D01*
G37*
D02*
G36*
X40Y1843D02*
X40Y1837D01*
X70Y1837D01*
X70Y1839D01*
X64Y1839D01*
X64Y1841D01*
X60Y1841D01*
X60Y1843D01*
X40Y1843D01*
G37*
D02*
G36*
X1906Y1839D02*
X1906Y1837D01*
X1900Y1837D01*
X1900Y1835D01*
X1928Y1835D01*
X1928Y1839D01*
X1906Y1839D01*
G37*
D02*
G36*
X40Y1837D02*
X40Y1835D01*
X222Y1835D01*
X222Y1837D01*
X40Y1837D01*
G37*
D02*
G36*
X40Y1837D02*
X40Y1835D01*
X222Y1835D01*
X222Y1837D01*
X40Y1837D01*
G37*
D02*
G36*
X40Y1835D02*
X40Y1665D01*
X264Y1665D01*
X264Y1667D01*
X258Y1667D01*
X258Y1669D01*
X254Y1669D01*
X254Y1671D01*
X250Y1671D01*
X250Y1673D01*
X246Y1673D01*
X246Y1675D01*
X244Y1675D01*
X244Y1677D01*
X242Y1677D01*
X242Y1679D01*
X240Y1679D01*
X240Y1681D01*
X238Y1681D01*
X238Y1683D01*
X236Y1683D01*
X236Y1685D01*
X234Y1685D01*
X234Y1687D01*
X232Y1687D01*
X232Y1691D01*
X230Y1691D01*
X230Y1693D01*
X228Y1693D01*
X228Y1697D01*
X226Y1697D01*
X226Y1703D01*
X224Y1703D01*
X224Y1713D01*
X222Y1713D01*
X222Y1717D01*
X224Y1717D01*
X224Y1727D01*
X226Y1727D01*
X226Y1733D01*
X228Y1733D01*
X228Y1737D01*
X230Y1737D01*
X230Y1739D01*
X232Y1739D01*
X232Y1743D01*
X234Y1743D01*
X234Y1745D01*
X236Y1745D01*
X236Y1765D01*
X222Y1765D01*
X222Y1835D01*
X40Y1835D01*
G37*
D02*
G36*
X1564Y1835D02*
X1564Y1833D01*
X1928Y1833D01*
X1928Y1835D01*
X1564Y1835D01*
G37*
D02*
G36*
X1564Y1835D02*
X1564Y1833D01*
X1928Y1833D01*
X1928Y1835D01*
X1564Y1835D01*
G37*
D02*
G36*
X1564Y1833D02*
X1564Y1825D01*
X1836Y1825D01*
X1836Y1823D01*
X1842Y1823D01*
X1842Y1821D01*
X1846Y1821D01*
X1846Y1819D01*
X1850Y1819D01*
X1850Y1817D01*
X1854Y1817D01*
X1854Y1815D01*
X1856Y1815D01*
X1856Y1813D01*
X1858Y1813D01*
X1858Y1811D01*
X1860Y1811D01*
X1860Y1809D01*
X1862Y1809D01*
X1862Y1807D01*
X1864Y1807D01*
X1864Y1805D01*
X1866Y1805D01*
X1866Y1803D01*
X1868Y1803D01*
X1868Y1799D01*
X1870Y1799D01*
X1870Y1797D01*
X1872Y1797D01*
X1872Y1793D01*
X1874Y1793D01*
X1874Y1789D01*
X1876Y1789D01*
X1876Y1779D01*
X1878Y1779D01*
X1878Y1771D01*
X1876Y1771D01*
X1876Y1761D01*
X1874Y1761D01*
X1874Y1757D01*
X1872Y1757D01*
X1872Y1753D01*
X1870Y1753D01*
X1870Y1749D01*
X1868Y1749D01*
X1868Y1747D01*
X1866Y1747D01*
X1866Y1745D01*
X1864Y1745D01*
X1864Y1725D01*
X1878Y1725D01*
X1878Y1625D01*
X1928Y1625D01*
X1928Y1833D01*
X1564Y1833D01*
G37*
D02*
G36*
X1564Y1825D02*
X1564Y1815D01*
X1596Y1815D01*
X1596Y1813D01*
X1598Y1813D01*
X1598Y1811D01*
X1600Y1811D01*
X1600Y1809D01*
X1602Y1809D01*
X1602Y1807D01*
X1604Y1807D01*
X1604Y1805D01*
X1606Y1805D01*
X1606Y1803D01*
X1608Y1803D01*
X1608Y1801D01*
X1610Y1801D01*
X1610Y1799D01*
X1612Y1799D01*
X1612Y1797D01*
X1614Y1797D01*
X1614Y1795D01*
X1616Y1795D01*
X1616Y1793D01*
X1618Y1793D01*
X1618Y1791D01*
X1620Y1791D01*
X1620Y1789D01*
X1622Y1789D01*
X1622Y1787D01*
X1624Y1787D01*
X1624Y1785D01*
X1626Y1785D01*
X1626Y1783D01*
X1628Y1783D01*
X1628Y1781D01*
X1630Y1781D01*
X1630Y1779D01*
X1632Y1779D01*
X1632Y1777D01*
X1634Y1777D01*
X1634Y1775D01*
X1636Y1775D01*
X1636Y1773D01*
X1638Y1773D01*
X1638Y1771D01*
X1640Y1771D01*
X1640Y1769D01*
X1642Y1769D01*
X1642Y1767D01*
X1644Y1767D01*
X1644Y1765D01*
X1646Y1765D01*
X1646Y1763D01*
X1648Y1763D01*
X1648Y1761D01*
X1650Y1761D01*
X1650Y1759D01*
X1652Y1759D01*
X1652Y1757D01*
X1654Y1757D01*
X1654Y1753D01*
X1652Y1753D01*
X1652Y1751D01*
X1650Y1751D01*
X1650Y1749D01*
X1648Y1749D01*
X1648Y1747D01*
X1646Y1747D01*
X1646Y1745D01*
X1644Y1745D01*
X1644Y1743D01*
X1642Y1743D01*
X1642Y1741D01*
X1640Y1741D01*
X1640Y1739D01*
X1638Y1739D01*
X1638Y1737D01*
X1636Y1737D01*
X1636Y1735D01*
X1634Y1735D01*
X1634Y1733D01*
X1632Y1733D01*
X1632Y1731D01*
X1630Y1731D01*
X1630Y1729D01*
X1628Y1729D01*
X1628Y1727D01*
X1626Y1727D01*
X1626Y1725D01*
X1624Y1725D01*
X1624Y1723D01*
X1622Y1723D01*
X1622Y1721D01*
X1620Y1721D01*
X1620Y1719D01*
X1618Y1719D01*
X1618Y1717D01*
X1616Y1717D01*
X1616Y1715D01*
X1614Y1715D01*
X1614Y1713D01*
X1612Y1713D01*
X1612Y1693D01*
X1616Y1693D01*
X1616Y1691D01*
X1620Y1691D01*
X1620Y1689D01*
X1624Y1689D01*
X1624Y1687D01*
X1626Y1687D01*
X1626Y1685D01*
X1630Y1685D01*
X1630Y1683D01*
X1634Y1683D01*
X1634Y1681D01*
X1638Y1681D01*
X1638Y1679D01*
X1640Y1679D01*
X1640Y1677D01*
X1644Y1677D01*
X1644Y1675D01*
X1648Y1675D01*
X1648Y1673D01*
X1652Y1673D01*
X1652Y1671D01*
X1656Y1671D01*
X1656Y1669D01*
X1658Y1669D01*
X1658Y1667D01*
X1662Y1667D01*
X1662Y1665D01*
X1666Y1665D01*
X1666Y1663D01*
X1670Y1663D01*
X1670Y1661D01*
X1672Y1661D01*
X1672Y1659D01*
X1676Y1659D01*
X1676Y1657D01*
X1680Y1657D01*
X1680Y1655D01*
X1684Y1655D01*
X1684Y1653D01*
X1688Y1653D01*
X1688Y1651D01*
X1690Y1651D01*
X1690Y1649D01*
X1694Y1649D01*
X1694Y1647D01*
X1698Y1647D01*
X1698Y1645D01*
X1702Y1645D01*
X1702Y1643D01*
X1704Y1643D01*
X1704Y1641D01*
X1708Y1641D01*
X1708Y1639D01*
X1712Y1639D01*
X1712Y1637D01*
X1716Y1637D01*
X1716Y1635D01*
X1720Y1635D01*
X1720Y1633D01*
X1722Y1633D01*
X1722Y1631D01*
X1726Y1631D01*
X1726Y1629D01*
X1730Y1629D01*
X1730Y1627D01*
X1746Y1627D01*
X1746Y1625D01*
X1778Y1625D01*
X1778Y1725D01*
X1790Y1725D01*
X1790Y1745D01*
X1788Y1745D01*
X1788Y1747D01*
X1786Y1747D01*
X1786Y1751D01*
X1784Y1751D01*
X1784Y1755D01*
X1782Y1755D01*
X1782Y1759D01*
X1780Y1759D01*
X1780Y1763D01*
X1778Y1763D01*
X1778Y1787D01*
X1780Y1787D01*
X1780Y1791D01*
X1782Y1791D01*
X1782Y1795D01*
X1784Y1795D01*
X1784Y1799D01*
X1786Y1799D01*
X1786Y1803D01*
X1788Y1803D01*
X1788Y1805D01*
X1790Y1805D01*
X1790Y1807D01*
X1792Y1807D01*
X1792Y1809D01*
X1794Y1809D01*
X1794Y1811D01*
X1796Y1811D01*
X1796Y1813D01*
X1798Y1813D01*
X1798Y1815D01*
X1802Y1815D01*
X1802Y1817D01*
X1804Y1817D01*
X1804Y1819D01*
X1808Y1819D01*
X1808Y1821D01*
X1812Y1821D01*
X1812Y1823D01*
X1820Y1823D01*
X1820Y1825D01*
X1564Y1825D01*
G37*
D02*
G36*
X1564Y1815D02*
X1564Y1813D01*
X1562Y1813D01*
X1562Y1807D01*
X1560Y1807D01*
X1560Y1803D01*
X1558Y1803D01*
X1558Y1799D01*
X1556Y1799D01*
X1556Y1797D01*
X1554Y1797D01*
X1554Y1795D01*
X1552Y1795D01*
X1552Y1793D01*
X1550Y1793D01*
X1550Y1791D01*
X1546Y1791D01*
X1546Y1789D01*
X1542Y1789D01*
X1542Y1787D01*
X1536Y1787D01*
X1536Y1785D01*
X1566Y1785D01*
X1566Y1787D01*
X1568Y1787D01*
X1568Y1789D01*
X1570Y1789D01*
X1570Y1791D01*
X1572Y1791D01*
X1572Y1793D01*
X1574Y1793D01*
X1574Y1795D01*
X1576Y1795D01*
X1576Y1797D01*
X1578Y1797D01*
X1578Y1799D01*
X1580Y1799D01*
X1580Y1801D01*
X1582Y1801D01*
X1582Y1803D01*
X1584Y1803D01*
X1584Y1805D01*
X1586Y1805D01*
X1586Y1807D01*
X1588Y1807D01*
X1588Y1809D01*
X1590Y1809D01*
X1590Y1811D01*
X1592Y1811D01*
X1592Y1813D01*
X1594Y1813D01*
X1594Y1815D01*
X1564Y1815D01*
G37*
D02*
G36*
X1302Y1785D02*
X1302Y1783D01*
X1564Y1783D01*
X1564Y1785D01*
X1302Y1785D01*
G37*
D02*
G36*
X1302Y1785D02*
X1302Y1783D01*
X1564Y1783D01*
X1564Y1785D01*
X1302Y1785D01*
G37*
D02*
G36*
X1298Y1783D02*
X1298Y1781D01*
X1296Y1781D01*
X1296Y1779D01*
X1294Y1779D01*
X1294Y1777D01*
X1292Y1777D01*
X1292Y1775D01*
X1288Y1775D01*
X1288Y1773D01*
X1286Y1773D01*
X1286Y1771D01*
X1284Y1771D01*
X1284Y1769D01*
X1280Y1769D01*
X1280Y1767D01*
X1278Y1767D01*
X1278Y1765D01*
X1276Y1765D01*
X1276Y1751D01*
X1274Y1751D01*
X1274Y1745D01*
X1272Y1745D01*
X1272Y1739D01*
X1270Y1739D01*
X1270Y1735D01*
X1268Y1735D01*
X1268Y1733D01*
X1266Y1733D01*
X1266Y1731D01*
X1264Y1731D01*
X1264Y1727D01*
X1262Y1727D01*
X1262Y1725D01*
X1260Y1725D01*
X1260Y1723D01*
X1338Y1723D01*
X1338Y1721D01*
X1342Y1721D01*
X1342Y1719D01*
X1346Y1719D01*
X1346Y1717D01*
X1386Y1717D01*
X1386Y1719D01*
X1422Y1719D01*
X1422Y1721D01*
X1458Y1721D01*
X1458Y1723D01*
X1494Y1723D01*
X1494Y1725D01*
X1530Y1725D01*
X1530Y1727D01*
X1542Y1727D01*
X1542Y1747D01*
X1540Y1747D01*
X1540Y1749D01*
X1538Y1749D01*
X1538Y1751D01*
X1536Y1751D01*
X1536Y1753D01*
X1534Y1753D01*
X1534Y1755D01*
X1536Y1755D01*
X1536Y1757D01*
X1538Y1757D01*
X1538Y1759D01*
X1540Y1759D01*
X1540Y1761D01*
X1542Y1761D01*
X1542Y1763D01*
X1544Y1763D01*
X1544Y1765D01*
X1546Y1765D01*
X1546Y1767D01*
X1548Y1767D01*
X1548Y1769D01*
X1550Y1769D01*
X1550Y1771D01*
X1552Y1771D01*
X1552Y1773D01*
X1554Y1773D01*
X1554Y1775D01*
X1556Y1775D01*
X1556Y1777D01*
X1558Y1777D01*
X1558Y1779D01*
X1560Y1779D01*
X1560Y1781D01*
X1562Y1781D01*
X1562Y1783D01*
X1298Y1783D01*
G37*
D02*
G36*
X322Y1723D02*
X322Y1703D01*
X320Y1703D01*
X320Y1697D01*
X318Y1697D01*
X318Y1693D01*
X316Y1693D01*
X316Y1691D01*
X314Y1691D01*
X314Y1687D01*
X312Y1687D01*
X312Y1685D01*
X310Y1685D01*
X310Y1683D01*
X308Y1683D01*
X308Y1681D01*
X306Y1681D01*
X306Y1679D01*
X304Y1679D01*
X304Y1677D01*
X302Y1677D01*
X302Y1675D01*
X300Y1675D01*
X300Y1673D01*
X296Y1673D01*
X296Y1671D01*
X292Y1671D01*
X292Y1669D01*
X288Y1669D01*
X288Y1667D01*
X282Y1667D01*
X282Y1665D01*
X350Y1665D01*
X350Y1677D01*
X348Y1677D01*
X348Y1679D01*
X346Y1679D01*
X346Y1683D01*
X344Y1683D01*
X344Y1687D01*
X342Y1687D01*
X342Y1699D01*
X344Y1699D01*
X344Y1703D01*
X346Y1703D01*
X346Y1707D01*
X348Y1707D01*
X348Y1709D01*
X350Y1709D01*
X350Y1713D01*
X352Y1713D01*
X352Y1715D01*
X356Y1715D01*
X356Y1717D01*
X358Y1717D01*
X358Y1719D01*
X362Y1719D01*
X362Y1721D01*
X366Y1721D01*
X366Y1723D01*
X322Y1723D01*
G37*
D02*
G36*
X1256Y1723D02*
X1256Y1721D01*
X1254Y1721D01*
X1254Y1719D01*
X1252Y1719D01*
X1252Y1717D01*
X1248Y1717D01*
X1248Y1697D01*
X1250Y1697D01*
X1250Y1695D01*
X1254Y1695D01*
X1254Y1693D01*
X1256Y1693D01*
X1256Y1691D01*
X1258Y1691D01*
X1258Y1689D01*
X1260Y1689D01*
X1260Y1687D01*
X1262Y1687D01*
X1262Y1685D01*
X1264Y1685D01*
X1264Y1683D01*
X1266Y1683D01*
X1266Y1681D01*
X1268Y1681D01*
X1268Y1677D01*
X1270Y1677D01*
X1270Y1673D01*
X1272Y1673D01*
X1272Y1669D01*
X1274Y1669D01*
X1274Y1663D01*
X1328Y1663D01*
X1328Y1665D01*
X1322Y1665D01*
X1322Y1667D01*
X1318Y1667D01*
X1318Y1669D01*
X1316Y1669D01*
X1316Y1671D01*
X1312Y1671D01*
X1312Y1673D01*
X1310Y1673D01*
X1310Y1677D01*
X1308Y1677D01*
X1308Y1679D01*
X1306Y1679D01*
X1306Y1683D01*
X1304Y1683D01*
X1304Y1687D01*
X1302Y1687D01*
X1302Y1699D01*
X1304Y1699D01*
X1304Y1703D01*
X1306Y1703D01*
X1306Y1707D01*
X1308Y1707D01*
X1308Y1709D01*
X1310Y1709D01*
X1310Y1713D01*
X1312Y1713D01*
X1312Y1715D01*
X1316Y1715D01*
X1316Y1717D01*
X1318Y1717D01*
X1318Y1719D01*
X1322Y1719D01*
X1322Y1721D01*
X1326Y1721D01*
X1326Y1723D01*
X1256Y1723D01*
G37*
D02*
G36*
X1352Y1673D02*
X1352Y1671D01*
X1348Y1671D01*
X1348Y1669D01*
X1346Y1669D01*
X1346Y1667D01*
X1342Y1667D01*
X1342Y1665D01*
X1336Y1665D01*
X1336Y1663D01*
X1384Y1663D01*
X1384Y1673D01*
X1352Y1673D01*
G37*
D02*
G36*
X40Y1665D02*
X40Y1663D01*
X350Y1663D01*
X350Y1665D01*
X40Y1665D01*
G37*
D02*
G36*
X40Y1665D02*
X40Y1663D01*
X350Y1663D01*
X350Y1665D01*
X40Y1665D01*
G37*
D02*
G36*
X40Y1663D02*
X40Y1637D01*
X322Y1637D01*
X322Y1537D01*
X310Y1537D01*
X310Y1517D01*
X312Y1517D01*
X312Y1515D01*
X314Y1515D01*
X314Y1511D01*
X316Y1511D01*
X316Y1507D01*
X318Y1507D01*
X318Y1503D01*
X320Y1503D01*
X320Y1499D01*
X322Y1499D01*
X322Y1475D01*
X320Y1475D01*
X320Y1469D01*
X318Y1469D01*
X318Y1465D01*
X316Y1465D01*
X316Y1463D01*
X314Y1463D01*
X314Y1459D01*
X312Y1459D01*
X312Y1457D01*
X310Y1457D01*
X310Y1455D01*
X308Y1455D01*
X308Y1453D01*
X306Y1453D01*
X306Y1451D01*
X304Y1451D01*
X304Y1449D01*
X302Y1449D01*
X302Y1447D01*
X300Y1447D01*
X300Y1445D01*
X296Y1445D01*
X296Y1443D01*
X294Y1443D01*
X294Y1441D01*
X288Y1441D01*
X288Y1439D01*
X284Y1439D01*
X284Y1437D01*
X350Y1437D01*
X350Y1663D01*
X40Y1663D01*
G37*
D02*
G36*
X1274Y1663D02*
X1274Y1661D01*
X1384Y1661D01*
X1384Y1663D01*
X1274Y1663D01*
G37*
D02*
G36*
X1274Y1663D02*
X1274Y1661D01*
X1384Y1661D01*
X1384Y1663D01*
X1274Y1663D01*
G37*
D02*
G36*
X1276Y1661D02*
X1276Y1641D01*
X1278Y1641D01*
X1278Y1639D01*
X1288Y1639D01*
X1288Y1637D01*
X1298Y1637D01*
X1298Y1635D01*
X1308Y1635D01*
X1308Y1633D01*
X1318Y1633D01*
X1318Y1631D01*
X1328Y1631D01*
X1328Y1629D01*
X1338Y1629D01*
X1338Y1627D01*
X1348Y1627D01*
X1348Y1625D01*
X1358Y1625D01*
X1358Y1623D01*
X1384Y1623D01*
X1384Y1639D01*
X1382Y1639D01*
X1382Y1647D01*
X1384Y1647D01*
X1384Y1661D01*
X1276Y1661D01*
G37*
D02*
G36*
X40Y1637D02*
X40Y1437D01*
X262Y1437D01*
X262Y1439D01*
X256Y1439D01*
X256Y1441D01*
X252Y1441D01*
X252Y1443D01*
X250Y1443D01*
X250Y1445D01*
X246Y1445D01*
X246Y1447D01*
X244Y1447D01*
X244Y1449D01*
X242Y1449D01*
X242Y1451D01*
X238Y1451D01*
X238Y1455D01*
X236Y1455D01*
X236Y1457D01*
X234Y1457D01*
X234Y1459D01*
X232Y1459D01*
X232Y1461D01*
X230Y1461D01*
X230Y1465D01*
X228Y1465D01*
X228Y1469D01*
X226Y1469D01*
X226Y1475D01*
X224Y1475D01*
X224Y1485D01*
X222Y1485D01*
X222Y1489D01*
X224Y1489D01*
X224Y1499D01*
X226Y1499D01*
X226Y1505D01*
X228Y1505D01*
X228Y1507D01*
X230Y1507D01*
X230Y1511D01*
X232Y1511D01*
X232Y1515D01*
X234Y1515D01*
X234Y1517D01*
X236Y1517D01*
X236Y1537D01*
X222Y1537D01*
X222Y1635D01*
X224Y1635D01*
X224Y1637D01*
X40Y1637D01*
G37*
D02*
G36*
X1750Y1625D02*
X1750Y1623D01*
X1928Y1623D01*
X1928Y1625D01*
X1750Y1625D01*
G37*
D02*
G36*
X1750Y1625D02*
X1750Y1623D01*
X1928Y1623D01*
X1928Y1625D01*
X1750Y1625D01*
G37*
D02*
G36*
X1754Y1623D02*
X1754Y1621D01*
X1756Y1621D01*
X1756Y1619D01*
X1760Y1619D01*
X1760Y1617D01*
X1762Y1617D01*
X1762Y1613D01*
X1764Y1613D01*
X1764Y1611D01*
X1766Y1611D01*
X1766Y1607D01*
X1768Y1607D01*
X1768Y1601D01*
X1770Y1601D01*
X1770Y1593D01*
X1768Y1593D01*
X1768Y1587D01*
X1766Y1587D01*
X1766Y1583D01*
X1764Y1583D01*
X1764Y1581D01*
X1762Y1581D01*
X1762Y1577D01*
X1760Y1577D01*
X1760Y1575D01*
X1756Y1575D01*
X1756Y1573D01*
X1754Y1573D01*
X1754Y1571D01*
X1750Y1571D01*
X1750Y1569D01*
X1744Y1569D01*
X1744Y1567D01*
X1738Y1567D01*
X1738Y1547D01*
X1748Y1547D01*
X1748Y1545D01*
X1758Y1545D01*
X1758Y1543D01*
X1768Y1543D01*
X1768Y1541D01*
X1778Y1541D01*
X1778Y1539D01*
X1788Y1539D01*
X1788Y1537D01*
X1798Y1537D01*
X1798Y1535D01*
X1808Y1535D01*
X1808Y1533D01*
X1818Y1533D01*
X1818Y1531D01*
X1828Y1531D01*
X1828Y1529D01*
X1838Y1529D01*
X1838Y1527D01*
X1848Y1527D01*
X1848Y1525D01*
X1858Y1525D01*
X1858Y1523D01*
X1866Y1523D01*
X1866Y1521D01*
X1870Y1521D01*
X1870Y1519D01*
X1874Y1519D01*
X1874Y1517D01*
X1876Y1517D01*
X1876Y1515D01*
X1878Y1515D01*
X1878Y1511D01*
X1880Y1511D01*
X1880Y1507D01*
X1882Y1507D01*
X1882Y799D01*
X1880Y799D01*
X1880Y793D01*
X1878Y793D01*
X1878Y785D01*
X1876Y785D01*
X1876Y779D01*
X1874Y779D01*
X1874Y773D01*
X1872Y773D01*
X1872Y767D01*
X1870Y767D01*
X1870Y759D01*
X1868Y759D01*
X1868Y753D01*
X1866Y753D01*
X1866Y747D01*
X1864Y747D01*
X1864Y741D01*
X1862Y741D01*
X1862Y733D01*
X1860Y733D01*
X1860Y727D01*
X1858Y727D01*
X1858Y721D01*
X1856Y721D01*
X1856Y715D01*
X1854Y715D01*
X1854Y707D01*
X1852Y707D01*
X1852Y701D01*
X1850Y701D01*
X1850Y695D01*
X1848Y695D01*
X1848Y689D01*
X1846Y689D01*
X1846Y681D01*
X1844Y681D01*
X1844Y675D01*
X1842Y675D01*
X1842Y669D01*
X1840Y669D01*
X1840Y663D01*
X1838Y663D01*
X1838Y655D01*
X1836Y655D01*
X1836Y649D01*
X1834Y649D01*
X1834Y643D01*
X1832Y643D01*
X1832Y637D01*
X1830Y637D01*
X1830Y629D01*
X1828Y629D01*
X1828Y623D01*
X1826Y623D01*
X1826Y617D01*
X1824Y617D01*
X1824Y611D01*
X1822Y611D01*
X1822Y603D01*
X1820Y603D01*
X1820Y597D01*
X1818Y597D01*
X1818Y591D01*
X1816Y591D01*
X1816Y585D01*
X1814Y585D01*
X1814Y577D01*
X1812Y577D01*
X1812Y571D01*
X1810Y571D01*
X1810Y565D01*
X1808Y565D01*
X1808Y559D01*
X1806Y559D01*
X1806Y551D01*
X1804Y551D01*
X1804Y545D01*
X1802Y545D01*
X1802Y539D01*
X1800Y539D01*
X1800Y533D01*
X1798Y533D01*
X1798Y525D01*
X1796Y525D01*
X1796Y519D01*
X1794Y519D01*
X1794Y513D01*
X1792Y513D01*
X1792Y507D01*
X1790Y507D01*
X1790Y499D01*
X1788Y499D01*
X1788Y493D01*
X1786Y493D01*
X1786Y487D01*
X1784Y487D01*
X1784Y483D01*
X1782Y483D01*
X1782Y479D01*
X1780Y479D01*
X1780Y477D01*
X1778Y477D01*
X1778Y475D01*
X1776Y475D01*
X1776Y473D01*
X1772Y473D01*
X1772Y471D01*
X1768Y471D01*
X1768Y469D01*
X1764Y469D01*
X1764Y467D01*
X1762Y467D01*
X1762Y465D01*
X1758Y465D01*
X1758Y463D01*
X1754Y463D01*
X1754Y461D01*
X1750Y461D01*
X1750Y459D01*
X1748Y459D01*
X1748Y457D01*
X1744Y457D01*
X1744Y455D01*
X1740Y455D01*
X1740Y453D01*
X1736Y453D01*
X1736Y451D01*
X1734Y451D01*
X1734Y449D01*
X1730Y449D01*
X1730Y447D01*
X1726Y447D01*
X1726Y445D01*
X1722Y445D01*
X1722Y443D01*
X1720Y443D01*
X1720Y441D01*
X1716Y441D01*
X1716Y439D01*
X1712Y439D01*
X1712Y437D01*
X1708Y437D01*
X1708Y435D01*
X1706Y435D01*
X1706Y433D01*
X1702Y433D01*
X1702Y431D01*
X1698Y431D01*
X1698Y429D01*
X1694Y429D01*
X1694Y427D01*
X1692Y427D01*
X1692Y425D01*
X1688Y425D01*
X1688Y423D01*
X1684Y423D01*
X1684Y421D01*
X1680Y421D01*
X1680Y419D01*
X1678Y419D01*
X1678Y417D01*
X1674Y417D01*
X1674Y415D01*
X1670Y415D01*
X1670Y413D01*
X1666Y413D01*
X1666Y411D01*
X1664Y411D01*
X1664Y409D01*
X1660Y409D01*
X1660Y407D01*
X1656Y407D01*
X1656Y405D01*
X1652Y405D01*
X1652Y403D01*
X1650Y403D01*
X1650Y401D01*
X1646Y401D01*
X1646Y399D01*
X1642Y399D01*
X1642Y397D01*
X1638Y397D01*
X1638Y395D01*
X1636Y395D01*
X1636Y393D01*
X1632Y393D01*
X1632Y391D01*
X1628Y391D01*
X1628Y389D01*
X1624Y389D01*
X1624Y387D01*
X1622Y387D01*
X1622Y385D01*
X1618Y385D01*
X1618Y383D01*
X1614Y383D01*
X1614Y381D01*
X1610Y381D01*
X1610Y379D01*
X1608Y379D01*
X1608Y377D01*
X1604Y377D01*
X1604Y375D01*
X1600Y375D01*
X1600Y373D01*
X1596Y373D01*
X1596Y371D01*
X1594Y371D01*
X1594Y369D01*
X1590Y369D01*
X1590Y367D01*
X1586Y367D01*
X1586Y365D01*
X1582Y365D01*
X1582Y363D01*
X1580Y363D01*
X1580Y361D01*
X1576Y361D01*
X1576Y359D01*
X1572Y359D01*
X1572Y357D01*
X1568Y357D01*
X1568Y355D01*
X1566Y355D01*
X1566Y353D01*
X1562Y353D01*
X1562Y351D01*
X1558Y351D01*
X1558Y349D01*
X1554Y349D01*
X1554Y347D01*
X1552Y347D01*
X1552Y345D01*
X1548Y345D01*
X1548Y343D01*
X1544Y343D01*
X1544Y341D01*
X1540Y341D01*
X1540Y339D01*
X1538Y339D01*
X1538Y337D01*
X1534Y337D01*
X1534Y335D01*
X1530Y335D01*
X1530Y333D01*
X1526Y333D01*
X1526Y331D01*
X1524Y331D01*
X1524Y329D01*
X1520Y329D01*
X1520Y327D01*
X1516Y327D01*
X1516Y325D01*
X1512Y325D01*
X1512Y323D01*
X1510Y323D01*
X1510Y321D01*
X1506Y321D01*
X1506Y319D01*
X1502Y319D01*
X1502Y317D01*
X1498Y317D01*
X1498Y315D01*
X1496Y315D01*
X1496Y313D01*
X1492Y313D01*
X1492Y311D01*
X1488Y311D01*
X1488Y309D01*
X1484Y309D01*
X1484Y307D01*
X1482Y307D01*
X1482Y305D01*
X1478Y305D01*
X1478Y303D01*
X1474Y303D01*
X1474Y301D01*
X1470Y301D01*
X1470Y299D01*
X1468Y299D01*
X1468Y297D01*
X1464Y297D01*
X1464Y295D01*
X1460Y295D01*
X1460Y293D01*
X1456Y293D01*
X1456Y291D01*
X1454Y291D01*
X1454Y289D01*
X1450Y289D01*
X1450Y287D01*
X1446Y287D01*
X1446Y285D01*
X1442Y285D01*
X1442Y283D01*
X1440Y283D01*
X1440Y281D01*
X1436Y281D01*
X1436Y279D01*
X1432Y279D01*
X1432Y277D01*
X1428Y277D01*
X1428Y275D01*
X1426Y275D01*
X1426Y273D01*
X1422Y273D01*
X1422Y271D01*
X1418Y271D01*
X1418Y269D01*
X1414Y269D01*
X1414Y267D01*
X1412Y267D01*
X1412Y265D01*
X1408Y265D01*
X1408Y263D01*
X1404Y263D01*
X1404Y261D01*
X1400Y261D01*
X1400Y259D01*
X1398Y259D01*
X1398Y257D01*
X1394Y257D01*
X1394Y255D01*
X1390Y255D01*
X1390Y253D01*
X1386Y253D01*
X1386Y251D01*
X1384Y251D01*
X1384Y249D01*
X1380Y249D01*
X1380Y247D01*
X1376Y247D01*
X1376Y245D01*
X1372Y245D01*
X1372Y243D01*
X1370Y243D01*
X1370Y241D01*
X1366Y241D01*
X1366Y239D01*
X1362Y239D01*
X1362Y219D01*
X1742Y219D01*
X1742Y217D01*
X1750Y217D01*
X1750Y215D01*
X1754Y215D01*
X1754Y213D01*
X1758Y213D01*
X1758Y211D01*
X1760Y211D01*
X1760Y209D01*
X1764Y209D01*
X1764Y207D01*
X1766Y207D01*
X1766Y205D01*
X1768Y205D01*
X1768Y203D01*
X1770Y203D01*
X1770Y201D01*
X1772Y201D01*
X1772Y199D01*
X1774Y199D01*
X1774Y195D01*
X1776Y195D01*
X1776Y193D01*
X1778Y193D01*
X1778Y189D01*
X1780Y189D01*
X1780Y185D01*
X1782Y185D01*
X1782Y179D01*
X1784Y179D01*
X1784Y159D01*
X1782Y159D01*
X1782Y153D01*
X1780Y153D01*
X1780Y149D01*
X1778Y149D01*
X1778Y145D01*
X1776Y145D01*
X1776Y141D01*
X1774Y141D01*
X1774Y139D01*
X1772Y139D01*
X1772Y137D01*
X1896Y137D01*
X1896Y135D01*
X1902Y135D01*
X1902Y133D01*
X1906Y133D01*
X1906Y131D01*
X1928Y131D01*
X1928Y1623D01*
X1754Y1623D01*
G37*
D02*
G36*
X40Y1437D02*
X40Y1435D01*
X350Y1435D01*
X350Y1437D01*
X40Y1437D01*
G37*
D02*
G36*
X40Y1437D02*
X40Y1435D01*
X350Y1435D01*
X350Y1437D01*
X40Y1437D01*
G37*
D02*
G36*
X40Y1435D02*
X40Y1409D01*
X322Y1409D01*
X322Y1309D01*
X310Y1309D01*
X310Y1289D01*
X312Y1289D01*
X312Y1287D01*
X314Y1287D01*
X314Y1283D01*
X316Y1283D01*
X316Y1279D01*
X318Y1279D01*
X318Y1275D01*
X320Y1275D01*
X320Y1271D01*
X322Y1271D01*
X322Y1247D01*
X320Y1247D01*
X320Y1241D01*
X318Y1241D01*
X318Y1237D01*
X316Y1237D01*
X316Y1235D01*
X314Y1235D01*
X314Y1231D01*
X312Y1231D01*
X312Y1229D01*
X310Y1229D01*
X310Y1227D01*
X308Y1227D01*
X308Y1225D01*
X306Y1225D01*
X306Y1223D01*
X304Y1223D01*
X304Y1221D01*
X302Y1221D01*
X302Y1219D01*
X300Y1219D01*
X300Y1217D01*
X296Y1217D01*
X296Y1215D01*
X292Y1215D01*
X292Y1213D01*
X288Y1213D01*
X288Y1211D01*
X282Y1211D01*
X282Y1209D01*
X350Y1209D01*
X350Y1435D01*
X40Y1435D01*
G37*
D02*
G36*
X40Y1409D02*
X40Y1209D01*
X262Y1209D01*
X262Y1211D01*
X256Y1211D01*
X256Y1213D01*
X252Y1213D01*
X252Y1215D01*
X250Y1215D01*
X250Y1217D01*
X246Y1217D01*
X246Y1219D01*
X244Y1219D01*
X244Y1221D01*
X242Y1221D01*
X242Y1223D01*
X240Y1223D01*
X240Y1225D01*
X238Y1225D01*
X238Y1227D01*
X236Y1227D01*
X236Y1229D01*
X234Y1229D01*
X234Y1231D01*
X232Y1231D01*
X232Y1233D01*
X230Y1233D01*
X230Y1237D01*
X228Y1237D01*
X228Y1241D01*
X226Y1241D01*
X226Y1247D01*
X224Y1247D01*
X224Y1257D01*
X222Y1257D01*
X222Y1261D01*
X224Y1261D01*
X224Y1271D01*
X226Y1271D01*
X226Y1277D01*
X228Y1277D01*
X228Y1279D01*
X230Y1279D01*
X230Y1283D01*
X232Y1283D01*
X232Y1287D01*
X234Y1287D01*
X234Y1289D01*
X236Y1289D01*
X236Y1309D01*
X222Y1309D01*
X222Y1407D01*
X224Y1407D01*
X224Y1409D01*
X40Y1409D01*
G37*
D02*
G36*
X664Y1331D02*
X664Y1327D01*
X662Y1327D01*
X662Y1325D01*
X660Y1325D01*
X660Y1323D01*
X656Y1323D01*
X656Y1321D01*
X654Y1321D01*
X654Y1319D01*
X652Y1319D01*
X652Y1317D01*
X648Y1317D01*
X648Y1297D01*
X650Y1297D01*
X650Y1295D01*
X654Y1295D01*
X654Y1293D01*
X656Y1293D01*
X656Y1291D01*
X658Y1291D01*
X658Y1289D01*
X660Y1289D01*
X660Y1287D01*
X662Y1287D01*
X662Y1285D01*
X664Y1285D01*
X664Y1283D01*
X666Y1283D01*
X666Y1281D01*
X668Y1281D01*
X668Y1277D01*
X670Y1277D01*
X670Y1273D01*
X672Y1273D01*
X672Y1269D01*
X674Y1269D01*
X674Y1261D01*
X676Y1261D01*
X676Y1251D01*
X674Y1251D01*
X674Y1245D01*
X672Y1245D01*
X672Y1239D01*
X670Y1239D01*
X670Y1235D01*
X668Y1235D01*
X668Y1233D01*
X666Y1233D01*
X666Y1231D01*
X664Y1231D01*
X664Y1227D01*
X662Y1227D01*
X662Y1225D01*
X660Y1225D01*
X660Y1223D01*
X656Y1223D01*
X656Y1221D01*
X654Y1221D01*
X654Y1219D01*
X652Y1219D01*
X652Y1217D01*
X648Y1217D01*
X648Y1197D01*
X650Y1197D01*
X650Y1195D01*
X654Y1195D01*
X654Y1193D01*
X656Y1193D01*
X656Y1191D01*
X658Y1191D01*
X658Y1189D01*
X660Y1189D01*
X660Y1187D01*
X662Y1187D01*
X662Y1185D01*
X664Y1185D01*
X664Y1183D01*
X666Y1183D01*
X666Y1181D01*
X668Y1181D01*
X668Y1177D01*
X670Y1177D01*
X670Y1173D01*
X672Y1173D01*
X672Y1169D01*
X674Y1169D01*
X674Y1161D01*
X676Y1161D01*
X676Y1151D01*
X674Y1151D01*
X674Y1145D01*
X672Y1145D01*
X672Y1139D01*
X670Y1139D01*
X670Y1135D01*
X668Y1135D01*
X668Y1133D01*
X666Y1133D01*
X666Y1131D01*
X664Y1131D01*
X664Y1127D01*
X662Y1127D01*
X662Y1125D01*
X660Y1125D01*
X660Y1123D01*
X656Y1123D01*
X656Y1121D01*
X654Y1121D01*
X654Y1119D01*
X652Y1119D01*
X652Y1117D01*
X648Y1117D01*
X648Y1097D01*
X650Y1097D01*
X650Y1095D01*
X654Y1095D01*
X654Y1093D01*
X656Y1093D01*
X656Y1091D01*
X658Y1091D01*
X658Y1089D01*
X660Y1089D01*
X660Y1087D01*
X662Y1087D01*
X662Y1085D01*
X664Y1085D01*
X664Y1083D01*
X666Y1083D01*
X666Y1081D01*
X668Y1081D01*
X668Y1077D01*
X670Y1077D01*
X670Y1073D01*
X672Y1073D01*
X672Y1069D01*
X674Y1069D01*
X674Y1061D01*
X676Y1061D01*
X676Y1051D01*
X674Y1051D01*
X674Y1045D01*
X672Y1045D01*
X672Y1039D01*
X670Y1039D01*
X670Y1035D01*
X668Y1035D01*
X668Y1033D01*
X666Y1033D01*
X666Y1031D01*
X664Y1031D01*
X664Y1027D01*
X662Y1027D01*
X662Y1025D01*
X660Y1025D01*
X660Y1023D01*
X656Y1023D01*
X656Y1021D01*
X654Y1021D01*
X654Y1019D01*
X652Y1019D01*
X652Y1017D01*
X648Y1017D01*
X648Y997D01*
X650Y997D01*
X650Y995D01*
X654Y995D01*
X654Y993D01*
X656Y993D01*
X656Y991D01*
X658Y991D01*
X658Y989D01*
X660Y989D01*
X660Y987D01*
X662Y987D01*
X662Y985D01*
X664Y985D01*
X664Y983D01*
X666Y983D01*
X666Y981D01*
X668Y981D01*
X668Y977D01*
X670Y977D01*
X670Y973D01*
X672Y973D01*
X672Y969D01*
X674Y969D01*
X674Y961D01*
X676Y961D01*
X676Y951D01*
X674Y951D01*
X674Y945D01*
X672Y945D01*
X672Y939D01*
X670Y939D01*
X670Y935D01*
X668Y935D01*
X668Y933D01*
X666Y933D01*
X666Y931D01*
X664Y931D01*
X664Y927D01*
X662Y927D01*
X662Y925D01*
X660Y925D01*
X660Y923D01*
X656Y923D01*
X656Y921D01*
X654Y921D01*
X654Y919D01*
X652Y919D01*
X652Y917D01*
X648Y917D01*
X648Y897D01*
X650Y897D01*
X650Y895D01*
X654Y895D01*
X654Y893D01*
X656Y893D01*
X656Y891D01*
X658Y891D01*
X658Y889D01*
X660Y889D01*
X660Y887D01*
X662Y887D01*
X662Y885D01*
X664Y885D01*
X664Y883D01*
X666Y883D01*
X666Y881D01*
X668Y881D01*
X668Y877D01*
X670Y877D01*
X670Y873D01*
X672Y873D01*
X672Y869D01*
X674Y869D01*
X674Y861D01*
X676Y861D01*
X676Y851D01*
X674Y851D01*
X674Y847D01*
X900Y847D01*
X900Y845D01*
X904Y845D01*
X904Y843D01*
X910Y843D01*
X910Y841D01*
X912Y841D01*
X912Y839D01*
X932Y839D01*
X932Y843D01*
X930Y843D01*
X930Y847D01*
X928Y847D01*
X928Y851D01*
X926Y851D01*
X926Y855D01*
X924Y855D01*
X924Y859D01*
X922Y859D01*
X922Y863D01*
X920Y863D01*
X920Y867D01*
X918Y867D01*
X918Y871D01*
X916Y871D01*
X916Y875D01*
X914Y875D01*
X914Y879D01*
X912Y879D01*
X912Y883D01*
X910Y883D01*
X910Y887D01*
X908Y887D01*
X908Y891D01*
X906Y891D01*
X906Y895D01*
X904Y895D01*
X904Y899D01*
X902Y899D01*
X902Y903D01*
X900Y903D01*
X900Y907D01*
X898Y907D01*
X898Y911D01*
X896Y911D01*
X896Y915D01*
X894Y915D01*
X894Y919D01*
X892Y919D01*
X892Y923D01*
X890Y923D01*
X890Y927D01*
X888Y927D01*
X888Y931D01*
X886Y931D01*
X886Y935D01*
X884Y935D01*
X884Y939D01*
X882Y939D01*
X882Y943D01*
X880Y943D01*
X880Y947D01*
X878Y947D01*
X878Y951D01*
X876Y951D01*
X876Y955D01*
X874Y955D01*
X874Y959D01*
X872Y959D01*
X872Y963D01*
X870Y963D01*
X870Y967D01*
X868Y967D01*
X868Y969D01*
X866Y969D01*
X866Y973D01*
X864Y973D01*
X864Y977D01*
X862Y977D01*
X862Y981D01*
X860Y981D01*
X860Y985D01*
X858Y985D01*
X858Y989D01*
X856Y989D01*
X856Y993D01*
X854Y993D01*
X854Y997D01*
X852Y997D01*
X852Y1001D01*
X850Y1001D01*
X850Y1005D01*
X848Y1005D01*
X848Y1009D01*
X846Y1009D01*
X846Y1013D01*
X844Y1013D01*
X844Y1017D01*
X842Y1017D01*
X842Y1021D01*
X840Y1021D01*
X840Y1025D01*
X838Y1025D01*
X838Y1029D01*
X836Y1029D01*
X836Y1033D01*
X834Y1033D01*
X834Y1037D01*
X832Y1037D01*
X832Y1041D01*
X830Y1041D01*
X830Y1045D01*
X828Y1045D01*
X828Y1049D01*
X826Y1049D01*
X826Y1053D01*
X824Y1053D01*
X824Y1057D01*
X822Y1057D01*
X822Y1061D01*
X820Y1061D01*
X820Y1065D01*
X818Y1065D01*
X818Y1069D01*
X816Y1069D01*
X816Y1073D01*
X814Y1073D01*
X814Y1077D01*
X812Y1077D01*
X812Y1081D01*
X810Y1081D01*
X810Y1085D01*
X808Y1085D01*
X808Y1089D01*
X806Y1089D01*
X806Y1093D01*
X804Y1093D01*
X804Y1097D01*
X802Y1097D01*
X802Y1101D01*
X800Y1101D01*
X800Y1105D01*
X798Y1105D01*
X798Y1109D01*
X796Y1109D01*
X796Y1113D01*
X794Y1113D01*
X794Y1117D01*
X792Y1117D01*
X792Y1121D01*
X790Y1121D01*
X790Y1125D01*
X788Y1125D01*
X788Y1129D01*
X786Y1129D01*
X786Y1133D01*
X784Y1133D01*
X784Y1137D01*
X782Y1137D01*
X782Y1141D01*
X780Y1141D01*
X780Y1145D01*
X778Y1145D01*
X778Y1149D01*
X776Y1149D01*
X776Y1153D01*
X774Y1153D01*
X774Y1157D01*
X772Y1157D01*
X772Y1161D01*
X770Y1161D01*
X770Y1165D01*
X768Y1165D01*
X768Y1169D01*
X766Y1169D01*
X766Y1173D01*
X764Y1173D01*
X764Y1177D01*
X762Y1177D01*
X762Y1181D01*
X760Y1181D01*
X760Y1183D01*
X758Y1183D01*
X758Y1187D01*
X756Y1187D01*
X756Y1191D01*
X754Y1191D01*
X754Y1195D01*
X752Y1195D01*
X752Y1199D01*
X750Y1199D01*
X750Y1203D01*
X748Y1203D01*
X748Y1207D01*
X746Y1207D01*
X746Y1211D01*
X744Y1211D01*
X744Y1215D01*
X742Y1215D01*
X742Y1219D01*
X740Y1219D01*
X740Y1223D01*
X738Y1223D01*
X738Y1227D01*
X736Y1227D01*
X736Y1231D01*
X734Y1231D01*
X734Y1235D01*
X732Y1235D01*
X732Y1239D01*
X730Y1239D01*
X730Y1243D01*
X728Y1243D01*
X728Y1247D01*
X726Y1247D01*
X726Y1251D01*
X724Y1251D01*
X724Y1255D01*
X722Y1255D01*
X722Y1259D01*
X720Y1259D01*
X720Y1263D01*
X718Y1263D01*
X718Y1267D01*
X716Y1267D01*
X716Y1271D01*
X714Y1271D01*
X714Y1275D01*
X712Y1275D01*
X712Y1279D01*
X710Y1279D01*
X710Y1283D01*
X708Y1283D01*
X708Y1287D01*
X706Y1287D01*
X706Y1291D01*
X704Y1291D01*
X704Y1295D01*
X702Y1295D01*
X702Y1299D01*
X700Y1299D01*
X700Y1303D01*
X698Y1303D01*
X698Y1307D01*
X696Y1307D01*
X696Y1311D01*
X694Y1311D01*
X694Y1315D01*
X692Y1315D01*
X692Y1319D01*
X690Y1319D01*
X690Y1323D01*
X688Y1323D01*
X688Y1327D01*
X686Y1327D01*
X686Y1331D01*
X664Y1331D01*
G37*
D02*
G36*
X40Y1209D02*
X40Y1207D01*
X350Y1207D01*
X350Y1209D01*
X40Y1209D01*
G37*
D02*
G36*
X40Y1209D02*
X40Y1207D01*
X350Y1207D01*
X350Y1209D01*
X40Y1209D01*
G37*
D02*
G36*
X40Y1207D02*
X40Y1177D01*
X322Y1177D01*
X322Y1075D01*
X310Y1075D01*
X310Y1055D01*
X312Y1055D01*
X312Y1053D01*
X314Y1053D01*
X314Y1051D01*
X316Y1051D01*
X316Y1047D01*
X318Y1047D01*
X318Y1043D01*
X320Y1043D01*
X320Y1037D01*
X322Y1037D01*
X322Y1015D01*
X320Y1015D01*
X320Y1009D01*
X318Y1009D01*
X318Y1005D01*
X316Y1005D01*
X316Y1001D01*
X314Y1001D01*
X314Y999D01*
X312Y999D01*
X312Y997D01*
X310Y997D01*
X310Y993D01*
X308Y993D01*
X308Y991D01*
X306Y991D01*
X306Y989D01*
X302Y989D01*
X302Y987D01*
X300Y987D01*
X300Y985D01*
X298Y985D01*
X298Y983D01*
X294Y983D01*
X294Y981D01*
X290Y981D01*
X290Y979D01*
X286Y979D01*
X286Y977D01*
X350Y977D01*
X350Y1207D01*
X40Y1207D01*
G37*
D02*
G36*
X40Y1177D02*
X40Y977D01*
X260Y977D01*
X260Y979D01*
X256Y979D01*
X256Y981D01*
X252Y981D01*
X252Y983D01*
X248Y983D01*
X248Y985D01*
X246Y985D01*
X246Y987D01*
X242Y987D01*
X242Y989D01*
X240Y989D01*
X240Y991D01*
X238Y991D01*
X238Y993D01*
X236Y993D01*
X236Y995D01*
X234Y995D01*
X234Y999D01*
X232Y999D01*
X232Y1001D01*
X230Y1001D01*
X230Y1005D01*
X228Y1005D01*
X228Y1009D01*
X226Y1009D01*
X226Y1013D01*
X224Y1013D01*
X224Y1025D01*
X222Y1025D01*
X222Y1027D01*
X224Y1027D01*
X224Y1039D01*
X226Y1039D01*
X226Y1043D01*
X228Y1043D01*
X228Y1047D01*
X230Y1047D01*
X230Y1051D01*
X232Y1051D01*
X232Y1053D01*
X234Y1053D01*
X234Y1075D01*
X224Y1075D01*
X224Y1077D01*
X222Y1077D01*
X222Y1175D01*
X224Y1175D01*
X224Y1177D01*
X40Y1177D01*
G37*
D02*
G36*
X40Y977D02*
X40Y975D01*
X350Y975D01*
X350Y977D01*
X40Y977D01*
G37*
D02*
G36*
X40Y977D02*
X40Y975D01*
X350Y975D01*
X350Y977D01*
X40Y977D01*
G37*
D02*
G36*
X40Y975D02*
X40Y943D01*
X322Y943D01*
X322Y843D01*
X310Y843D01*
X310Y823D01*
X312Y823D01*
X312Y819D01*
X314Y819D01*
X314Y817D01*
X316Y817D01*
X316Y813D01*
X318Y813D01*
X318Y809D01*
X320Y809D01*
X320Y805D01*
X322Y805D01*
X322Y781D01*
X320Y781D01*
X320Y775D01*
X318Y775D01*
X318Y771D01*
X316Y771D01*
X316Y767D01*
X314Y767D01*
X314Y765D01*
X312Y765D01*
X312Y763D01*
X310Y763D01*
X310Y761D01*
X308Y761D01*
X308Y757D01*
X304Y757D01*
X304Y755D01*
X302Y755D01*
X302Y753D01*
X300Y753D01*
X300Y751D01*
X296Y751D01*
X296Y749D01*
X294Y749D01*
X294Y747D01*
X290Y747D01*
X290Y745D01*
X284Y745D01*
X284Y743D01*
X350Y743D01*
X350Y975D01*
X40Y975D01*
G37*
D02*
G36*
X40Y943D02*
X40Y743D01*
X262Y743D01*
X262Y745D01*
X256Y745D01*
X256Y747D01*
X252Y747D01*
X252Y749D01*
X248Y749D01*
X248Y751D01*
X246Y751D01*
X246Y753D01*
X244Y753D01*
X244Y755D01*
X240Y755D01*
X240Y757D01*
X238Y757D01*
X238Y759D01*
X236Y759D01*
X236Y763D01*
X234Y763D01*
X234Y765D01*
X232Y765D01*
X232Y767D01*
X230Y767D01*
X230Y771D01*
X228Y771D01*
X228Y775D01*
X226Y775D01*
X226Y779D01*
X224Y779D01*
X224Y791D01*
X222Y791D01*
X222Y795D01*
X224Y795D01*
X224Y805D01*
X226Y805D01*
X226Y811D01*
X228Y811D01*
X228Y813D01*
X230Y813D01*
X230Y817D01*
X232Y817D01*
X232Y821D01*
X234Y821D01*
X234Y823D01*
X236Y823D01*
X236Y843D01*
X222Y843D01*
X222Y941D01*
X224Y941D01*
X224Y943D01*
X40Y943D01*
G37*
D02*
G36*
X674Y847D02*
X674Y845D01*
X672Y845D01*
X672Y839D01*
X670Y839D01*
X670Y835D01*
X668Y835D01*
X668Y833D01*
X666Y833D01*
X666Y831D01*
X664Y831D01*
X664Y827D01*
X662Y827D01*
X662Y825D01*
X660Y825D01*
X660Y823D01*
X656Y823D01*
X656Y821D01*
X654Y821D01*
X654Y819D01*
X652Y819D01*
X652Y817D01*
X648Y817D01*
X648Y797D01*
X650Y797D01*
X650Y795D01*
X654Y795D01*
X654Y793D01*
X656Y793D01*
X656Y791D01*
X658Y791D01*
X658Y789D01*
X660Y789D01*
X660Y787D01*
X662Y787D01*
X662Y785D01*
X664Y785D01*
X664Y783D01*
X820Y783D01*
X820Y781D01*
X824Y781D01*
X824Y779D01*
X848Y779D01*
X848Y783D01*
X846Y783D01*
X846Y787D01*
X844Y787D01*
X844Y797D01*
X842Y797D01*
X842Y801D01*
X844Y801D01*
X844Y811D01*
X846Y811D01*
X846Y817D01*
X848Y817D01*
X848Y821D01*
X850Y821D01*
X850Y823D01*
X852Y823D01*
X852Y827D01*
X854Y827D01*
X854Y829D01*
X856Y829D01*
X856Y831D01*
X858Y831D01*
X858Y833D01*
X860Y833D01*
X860Y835D01*
X862Y835D01*
X862Y837D01*
X864Y837D01*
X864Y839D01*
X868Y839D01*
X868Y841D01*
X872Y841D01*
X872Y843D01*
X876Y843D01*
X876Y845D01*
X882Y845D01*
X882Y847D01*
X674Y847D01*
G37*
D02*
G36*
X936Y791D02*
X936Y785D01*
X934Y785D01*
X934Y781D01*
X932Y781D01*
X932Y777D01*
X930Y777D01*
X930Y775D01*
X928Y775D01*
X928Y771D01*
X926Y771D01*
X926Y769D01*
X924Y769D01*
X924Y767D01*
X922Y767D01*
X922Y765D01*
X920Y765D01*
X920Y763D01*
X918Y763D01*
X918Y761D01*
X914Y761D01*
X914Y759D01*
X910Y759D01*
X910Y757D01*
X908Y757D01*
X908Y755D01*
X902Y755D01*
X902Y753D01*
X966Y753D01*
X966Y775D01*
X964Y775D01*
X964Y779D01*
X962Y779D01*
X962Y783D01*
X960Y783D01*
X960Y787D01*
X958Y787D01*
X958Y791D01*
X936Y791D01*
G37*
D02*
G36*
X666Y783D02*
X666Y781D01*
X668Y781D01*
X668Y777D01*
X670Y777D01*
X670Y773D01*
X672Y773D01*
X672Y769D01*
X674Y769D01*
X674Y761D01*
X676Y761D01*
X676Y751D01*
X674Y751D01*
X674Y745D01*
X672Y745D01*
X672Y739D01*
X670Y739D01*
X670Y735D01*
X668Y735D01*
X668Y733D01*
X666Y733D01*
X666Y731D01*
X664Y731D01*
X664Y727D01*
X662Y727D01*
X662Y725D01*
X660Y725D01*
X660Y723D01*
X656Y723D01*
X656Y721D01*
X726Y721D01*
X726Y719D01*
X732Y719D01*
X732Y717D01*
X738Y717D01*
X738Y715D01*
X740Y715D01*
X740Y713D01*
X744Y713D01*
X744Y711D01*
X746Y711D01*
X746Y709D01*
X748Y709D01*
X748Y707D01*
X752Y707D01*
X752Y705D01*
X754Y705D01*
X754Y701D01*
X756Y701D01*
X756Y699D01*
X758Y699D01*
X758Y697D01*
X760Y697D01*
X760Y693D01*
X762Y693D01*
X762Y689D01*
X800Y689D01*
X800Y691D01*
X794Y691D01*
X794Y693D01*
X790Y693D01*
X790Y695D01*
X786Y695D01*
X786Y697D01*
X784Y697D01*
X784Y699D01*
X782Y699D01*
X782Y701D01*
X778Y701D01*
X778Y703D01*
X776Y703D01*
X776Y705D01*
X774Y705D01*
X774Y709D01*
X772Y709D01*
X772Y711D01*
X770Y711D01*
X770Y715D01*
X768Y715D01*
X768Y717D01*
X766Y717D01*
X766Y723D01*
X764Y723D01*
X764Y729D01*
X762Y729D01*
X762Y743D01*
X764Y743D01*
X764Y749D01*
X766Y749D01*
X766Y755D01*
X768Y755D01*
X768Y757D01*
X770Y757D01*
X770Y761D01*
X772Y761D01*
X772Y763D01*
X774Y763D01*
X774Y765D01*
X776Y765D01*
X776Y767D01*
X778Y767D01*
X778Y769D01*
X780Y769D01*
X780Y771D01*
X782Y771D01*
X782Y773D01*
X784Y773D01*
X784Y775D01*
X788Y775D01*
X788Y777D01*
X790Y777D01*
X790Y779D01*
X794Y779D01*
X794Y781D01*
X800Y781D01*
X800Y783D01*
X666Y783D01*
G37*
D02*
G36*
X1122Y767D02*
X1122Y765D01*
X1120Y765D01*
X1120Y763D01*
X1118Y763D01*
X1118Y761D01*
X1114Y761D01*
X1114Y759D01*
X1110Y759D01*
X1110Y757D01*
X1108Y757D01*
X1108Y755D01*
X1102Y755D01*
X1102Y753D01*
X1142Y753D01*
X1142Y767D01*
X1122Y767D01*
G37*
D02*
G36*
X852Y757D02*
X852Y753D01*
X880Y753D01*
X880Y755D01*
X874Y755D01*
X874Y757D01*
X852Y757D01*
G37*
D02*
G36*
X1052Y757D02*
X1052Y753D01*
X1080Y753D01*
X1080Y755D01*
X1074Y755D01*
X1074Y757D01*
X1052Y757D01*
G37*
D02*
G36*
X854Y753D02*
X854Y751D01*
X966Y751D01*
X966Y753D01*
X854Y753D01*
G37*
D02*
G36*
X854Y753D02*
X854Y751D01*
X966Y751D01*
X966Y753D01*
X854Y753D01*
G37*
D02*
G36*
X1054Y753D02*
X1054Y751D01*
X1140Y751D01*
X1140Y753D01*
X1054Y753D01*
G37*
D02*
G36*
X1054Y753D02*
X1054Y751D01*
X1140Y751D01*
X1140Y753D01*
X1054Y753D01*
G37*
D02*
G36*
X854Y751D02*
X854Y749D01*
X856Y749D01*
X856Y741D01*
X858Y741D01*
X858Y731D01*
X856Y731D01*
X856Y723D01*
X854Y723D01*
X854Y721D01*
X926Y721D01*
X926Y719D01*
X932Y719D01*
X932Y717D01*
X938Y717D01*
X938Y715D01*
X940Y715D01*
X940Y713D01*
X944Y713D01*
X944Y711D01*
X946Y711D01*
X946Y709D01*
X948Y709D01*
X948Y707D01*
X952Y707D01*
X952Y705D01*
X954Y705D01*
X954Y701D01*
X956Y701D01*
X956Y699D01*
X958Y699D01*
X958Y697D01*
X960Y697D01*
X960Y693D01*
X962Y693D01*
X962Y689D01*
X1000Y689D01*
X1000Y691D01*
X994Y691D01*
X994Y693D01*
X990Y693D01*
X990Y695D01*
X986Y695D01*
X986Y697D01*
X984Y697D01*
X984Y699D01*
X982Y699D01*
X982Y701D01*
X978Y701D01*
X978Y703D01*
X976Y703D01*
X976Y705D01*
X974Y705D01*
X974Y709D01*
X972Y709D01*
X972Y711D01*
X970Y711D01*
X970Y715D01*
X968Y715D01*
X968Y717D01*
X966Y717D01*
X966Y723D01*
X964Y723D01*
X964Y729D01*
X962Y729D01*
X962Y743D01*
X964Y743D01*
X964Y749D01*
X966Y749D01*
X966Y751D01*
X854Y751D01*
G37*
D02*
G36*
X1054Y751D02*
X1054Y749D01*
X1056Y749D01*
X1056Y741D01*
X1058Y741D01*
X1058Y731D01*
X1056Y731D01*
X1056Y723D01*
X1054Y723D01*
X1054Y719D01*
X1052Y719D01*
X1052Y715D01*
X1050Y715D01*
X1050Y711D01*
X1048Y711D01*
X1048Y709D01*
X1046Y709D01*
X1046Y707D01*
X1044Y707D01*
X1044Y703D01*
X1040Y703D01*
X1040Y701D01*
X1038Y701D01*
X1038Y699D01*
X1036Y699D01*
X1036Y697D01*
X1034Y697D01*
X1034Y695D01*
X1030Y695D01*
X1030Y693D01*
X1026Y693D01*
X1026Y691D01*
X1020Y691D01*
X1020Y689D01*
X1130Y689D01*
X1130Y697D01*
X1132Y697D01*
X1132Y709D01*
X1134Y709D01*
X1134Y719D01*
X1136Y719D01*
X1136Y731D01*
X1138Y731D01*
X1138Y743D01*
X1140Y743D01*
X1140Y751D01*
X1054Y751D01*
G37*
D02*
G36*
X40Y743D02*
X40Y741D01*
X350Y741D01*
X350Y743D01*
X40Y743D01*
G37*
D02*
G36*
X40Y743D02*
X40Y741D01*
X350Y741D01*
X350Y743D01*
X40Y743D01*
G37*
D02*
G36*
X40Y741D02*
X40Y709D01*
X322Y709D01*
X322Y609D01*
X310Y609D01*
X310Y589D01*
X312Y589D01*
X312Y587D01*
X314Y587D01*
X314Y583D01*
X316Y583D01*
X316Y581D01*
X318Y581D01*
X318Y577D01*
X320Y577D01*
X320Y571D01*
X322Y571D01*
X322Y547D01*
X320Y547D01*
X320Y541D01*
X318Y541D01*
X318Y539D01*
X316Y539D01*
X316Y535D01*
X314Y535D01*
X314Y531D01*
X312Y531D01*
X312Y529D01*
X310Y529D01*
X310Y527D01*
X308Y527D01*
X308Y525D01*
X306Y525D01*
X306Y523D01*
X304Y523D01*
X304Y521D01*
X302Y521D01*
X302Y519D01*
X298Y519D01*
X298Y517D01*
X296Y517D01*
X296Y515D01*
X292Y515D01*
X292Y513D01*
X288Y513D01*
X288Y511D01*
X280Y511D01*
X280Y509D01*
X350Y509D01*
X350Y741D01*
X40Y741D01*
G37*
D02*
G36*
X654Y721D02*
X654Y719D01*
X652Y719D01*
X652Y717D01*
X648Y717D01*
X648Y697D01*
X650Y697D01*
X650Y695D01*
X654Y695D01*
X654Y693D01*
X656Y693D01*
X656Y691D01*
X676Y691D01*
X676Y693D01*
X678Y693D01*
X678Y697D01*
X680Y697D01*
X680Y699D01*
X682Y699D01*
X682Y701D01*
X684Y701D01*
X684Y705D01*
X686Y705D01*
X686Y707D01*
X688Y707D01*
X688Y709D01*
X692Y709D01*
X692Y711D01*
X694Y711D01*
X694Y713D01*
X698Y713D01*
X698Y715D01*
X700Y715D01*
X700Y717D01*
X706Y717D01*
X706Y719D01*
X712Y719D01*
X712Y721D01*
X654Y721D01*
G37*
D02*
G36*
X854Y721D02*
X854Y719D01*
X852Y719D01*
X852Y715D01*
X850Y715D01*
X850Y711D01*
X848Y711D01*
X848Y709D01*
X846Y709D01*
X846Y707D01*
X844Y707D01*
X844Y703D01*
X840Y703D01*
X840Y701D01*
X838Y701D01*
X838Y699D01*
X836Y699D01*
X836Y697D01*
X834Y697D01*
X834Y695D01*
X830Y695D01*
X830Y693D01*
X826Y693D01*
X826Y691D01*
X820Y691D01*
X820Y689D01*
X876Y689D01*
X876Y693D01*
X878Y693D01*
X878Y697D01*
X880Y697D01*
X880Y699D01*
X882Y699D01*
X882Y701D01*
X884Y701D01*
X884Y705D01*
X886Y705D01*
X886Y707D01*
X888Y707D01*
X888Y709D01*
X892Y709D01*
X892Y711D01*
X894Y711D01*
X894Y713D01*
X898Y713D01*
X898Y715D01*
X900Y715D01*
X900Y717D01*
X906Y717D01*
X906Y719D01*
X912Y719D01*
X912Y721D01*
X854Y721D01*
G37*
D02*
G36*
X40Y709D02*
X40Y509D01*
X266Y509D01*
X266Y511D01*
X258Y511D01*
X258Y513D01*
X254Y513D01*
X254Y515D01*
X250Y515D01*
X250Y517D01*
X248Y517D01*
X248Y519D01*
X244Y519D01*
X244Y521D01*
X242Y521D01*
X242Y523D01*
X240Y523D01*
X240Y525D01*
X238Y525D01*
X238Y527D01*
X236Y527D01*
X236Y529D01*
X234Y529D01*
X234Y531D01*
X232Y531D01*
X232Y535D01*
X230Y535D01*
X230Y537D01*
X228Y537D01*
X228Y541D01*
X226Y541D01*
X226Y547D01*
X224Y547D01*
X224Y557D01*
X222Y557D01*
X222Y561D01*
X224Y561D01*
X224Y571D01*
X226Y571D01*
X226Y577D01*
X228Y577D01*
X228Y581D01*
X230Y581D01*
X230Y585D01*
X232Y585D01*
X232Y587D01*
X234Y587D01*
X234Y589D01*
X236Y589D01*
X236Y609D01*
X224Y609D01*
X224Y611D01*
X222Y611D01*
X222Y709D01*
X40Y709D01*
G37*
D02*
G36*
X764Y689D02*
X764Y687D01*
X874Y687D01*
X874Y689D01*
X764Y689D01*
G37*
D02*
G36*
X764Y689D02*
X764Y687D01*
X874Y687D01*
X874Y689D01*
X764Y689D01*
G37*
D02*
G36*
X964Y689D02*
X964Y687D01*
X1130Y687D01*
X1130Y689D01*
X964Y689D01*
G37*
D02*
G36*
X964Y689D02*
X964Y687D01*
X1130Y687D01*
X1130Y689D01*
X964Y689D01*
G37*
D02*
G36*
X764Y687D02*
X764Y683D01*
X766Y683D01*
X766Y663D01*
X764Y663D01*
X764Y657D01*
X762Y657D01*
X762Y653D01*
X760Y653D01*
X760Y651D01*
X758Y651D01*
X758Y647D01*
X756Y647D01*
X756Y645D01*
X754Y645D01*
X754Y643D01*
X752Y643D01*
X752Y641D01*
X750Y641D01*
X750Y639D01*
X748Y639D01*
X748Y637D01*
X746Y637D01*
X746Y635D01*
X744Y635D01*
X744Y633D01*
X740Y633D01*
X740Y631D01*
X736Y631D01*
X736Y629D01*
X730Y629D01*
X730Y627D01*
X722Y627D01*
X722Y625D01*
X916Y625D01*
X916Y627D01*
X906Y627D01*
X906Y629D01*
X902Y629D01*
X902Y631D01*
X898Y631D01*
X898Y633D01*
X894Y633D01*
X894Y635D01*
X892Y635D01*
X892Y637D01*
X890Y637D01*
X890Y639D01*
X888Y639D01*
X888Y641D01*
X886Y641D01*
X886Y643D01*
X884Y643D01*
X884Y645D01*
X882Y645D01*
X882Y647D01*
X880Y647D01*
X880Y651D01*
X878Y651D01*
X878Y653D01*
X876Y653D01*
X876Y657D01*
X874Y657D01*
X874Y663D01*
X872Y663D01*
X872Y683D01*
X874Y683D01*
X874Y687D01*
X764Y687D01*
G37*
D02*
G36*
X964Y687D02*
X964Y683D01*
X966Y683D01*
X966Y663D01*
X964Y663D01*
X964Y657D01*
X962Y657D01*
X962Y653D01*
X960Y653D01*
X960Y651D01*
X958Y651D01*
X958Y647D01*
X956Y647D01*
X956Y645D01*
X954Y645D01*
X954Y643D01*
X952Y643D01*
X952Y641D01*
X950Y641D01*
X950Y639D01*
X948Y639D01*
X948Y637D01*
X946Y637D01*
X946Y635D01*
X944Y635D01*
X944Y633D01*
X940Y633D01*
X940Y631D01*
X936Y631D01*
X936Y629D01*
X930Y629D01*
X930Y627D01*
X922Y627D01*
X922Y625D01*
X1118Y625D01*
X1118Y629D01*
X1120Y629D01*
X1120Y641D01*
X1122Y641D01*
X1122Y653D01*
X1124Y653D01*
X1124Y663D01*
X1126Y663D01*
X1126Y675D01*
X1128Y675D01*
X1128Y685D01*
X1130Y685D01*
X1130Y687D01*
X964Y687D01*
G37*
D02*
G36*
X1360Y681D02*
X1360Y679D01*
X1358Y679D01*
X1358Y675D01*
X1356Y675D01*
X1356Y673D01*
X1354Y673D01*
X1354Y671D01*
X1352Y671D01*
X1352Y669D01*
X1350Y669D01*
X1350Y667D01*
X1348Y667D01*
X1348Y665D01*
X1346Y665D01*
X1346Y663D01*
X1342Y663D01*
X1342Y661D01*
X1338Y661D01*
X1338Y659D01*
X1334Y659D01*
X1334Y657D01*
X1328Y657D01*
X1328Y655D01*
X1412Y655D01*
X1412Y657D01*
X1406Y657D01*
X1406Y659D01*
X1400Y659D01*
X1400Y661D01*
X1398Y661D01*
X1398Y663D01*
X1394Y663D01*
X1394Y665D01*
X1392Y665D01*
X1392Y667D01*
X1390Y667D01*
X1390Y669D01*
X1388Y669D01*
X1388Y671D01*
X1386Y671D01*
X1386Y673D01*
X1384Y673D01*
X1384Y675D01*
X1382Y675D01*
X1382Y677D01*
X1380Y677D01*
X1380Y681D01*
X1360Y681D01*
G37*
D02*
G36*
X1274Y665D02*
X1274Y661D01*
X1276Y661D01*
X1276Y655D01*
X1312Y655D01*
X1312Y657D01*
X1306Y657D01*
X1306Y659D01*
X1300Y659D01*
X1300Y661D01*
X1298Y661D01*
X1298Y663D01*
X1294Y663D01*
X1294Y665D01*
X1274Y665D01*
G37*
D02*
G36*
X1276Y655D02*
X1276Y653D01*
X1428Y653D01*
X1428Y655D01*
X1276Y655D01*
G37*
D02*
G36*
X1276Y655D02*
X1276Y653D01*
X1428Y653D01*
X1428Y655D01*
X1276Y655D01*
G37*
D02*
G36*
X1276Y653D02*
X1276Y651D01*
X1274Y651D01*
X1274Y645D01*
X1272Y645D01*
X1272Y639D01*
X1270Y639D01*
X1270Y635D01*
X1268Y635D01*
X1268Y633D01*
X1266Y633D01*
X1266Y631D01*
X1264Y631D01*
X1264Y627D01*
X1262Y627D01*
X1262Y625D01*
X1260Y625D01*
X1260Y623D01*
X1256Y623D01*
X1256Y621D01*
X1254Y621D01*
X1254Y619D01*
X1252Y619D01*
X1252Y617D01*
X1248Y617D01*
X1248Y597D01*
X1250Y597D01*
X1250Y595D01*
X1254Y595D01*
X1254Y593D01*
X1256Y593D01*
X1256Y591D01*
X1258Y591D01*
X1258Y589D01*
X1260Y589D01*
X1260Y587D01*
X1262Y587D01*
X1262Y585D01*
X1264Y585D01*
X1264Y583D01*
X1266Y583D01*
X1266Y581D01*
X1268Y581D01*
X1268Y577D01*
X1270Y577D01*
X1270Y573D01*
X1272Y573D01*
X1272Y569D01*
X1274Y569D01*
X1274Y561D01*
X1276Y561D01*
X1276Y551D01*
X1274Y551D01*
X1274Y545D01*
X1272Y545D01*
X1272Y539D01*
X1270Y539D01*
X1270Y535D01*
X1268Y535D01*
X1268Y533D01*
X1266Y533D01*
X1266Y531D01*
X1264Y531D01*
X1264Y527D01*
X1262Y527D01*
X1262Y525D01*
X1260Y525D01*
X1260Y523D01*
X1256Y523D01*
X1256Y521D01*
X1254Y521D01*
X1254Y501D01*
X1276Y501D01*
X1276Y487D01*
X1444Y487D01*
X1444Y589D01*
X1452Y589D01*
X1452Y609D01*
X1450Y609D01*
X1450Y615D01*
X1448Y615D01*
X1448Y621D01*
X1446Y621D01*
X1446Y629D01*
X1444Y629D01*
X1444Y635D01*
X1442Y635D01*
X1442Y637D01*
X1440Y637D01*
X1440Y641D01*
X1438Y641D01*
X1438Y643D01*
X1436Y643D01*
X1436Y645D01*
X1434Y645D01*
X1434Y649D01*
X1432Y649D01*
X1432Y651D01*
X1430Y651D01*
X1430Y653D01*
X1276Y653D01*
G37*
D02*
G36*
X1166Y649D02*
X1166Y637D01*
X1164Y637D01*
X1164Y625D01*
X1162Y625D01*
X1162Y615D01*
X1160Y615D01*
X1160Y603D01*
X1158Y603D01*
X1158Y591D01*
X1156Y591D01*
X1156Y581D01*
X1154Y581D01*
X1154Y569D01*
X1152Y569D01*
X1152Y557D01*
X1150Y557D01*
X1150Y547D01*
X1148Y547D01*
X1148Y535D01*
X1146Y535D01*
X1146Y525D01*
X1144Y525D01*
X1144Y513D01*
X1142Y513D01*
X1142Y501D01*
X1140Y501D01*
X1140Y491D01*
X1138Y491D01*
X1138Y479D01*
X1136Y479D01*
X1136Y467D01*
X1134Y467D01*
X1134Y457D01*
X1132Y457D01*
X1132Y445D01*
X1130Y445D01*
X1130Y435D01*
X1128Y435D01*
X1128Y423D01*
X1126Y423D01*
X1126Y411D01*
X1186Y411D01*
X1186Y501D01*
X1206Y501D01*
X1206Y521D01*
X1204Y521D01*
X1204Y523D01*
X1202Y523D01*
X1202Y525D01*
X1200Y525D01*
X1200Y527D01*
X1198Y527D01*
X1198Y529D01*
X1196Y529D01*
X1196Y531D01*
X1194Y531D01*
X1194Y533D01*
X1192Y533D01*
X1192Y537D01*
X1190Y537D01*
X1190Y541D01*
X1188Y541D01*
X1188Y547D01*
X1186Y547D01*
X1186Y567D01*
X1188Y567D01*
X1188Y573D01*
X1190Y573D01*
X1190Y575D01*
X1192Y575D01*
X1192Y579D01*
X1194Y579D01*
X1194Y583D01*
X1196Y583D01*
X1196Y585D01*
X1198Y585D01*
X1198Y587D01*
X1200Y587D01*
X1200Y589D01*
X1202Y589D01*
X1202Y591D01*
X1204Y591D01*
X1204Y593D01*
X1208Y593D01*
X1208Y595D01*
X1212Y595D01*
X1212Y617D01*
X1210Y617D01*
X1210Y619D01*
X1206Y619D01*
X1206Y621D01*
X1204Y621D01*
X1204Y623D01*
X1202Y623D01*
X1202Y625D01*
X1200Y625D01*
X1200Y627D01*
X1198Y627D01*
X1198Y629D01*
X1196Y629D01*
X1196Y631D01*
X1194Y631D01*
X1194Y633D01*
X1192Y633D01*
X1192Y637D01*
X1190Y637D01*
X1190Y641D01*
X1188Y641D01*
X1188Y647D01*
X1186Y647D01*
X1186Y649D01*
X1166Y649D01*
G37*
D02*
G36*
X670Y639D02*
X670Y635D01*
X668Y635D01*
X668Y633D01*
X666Y633D01*
X666Y631D01*
X664Y631D01*
X664Y627D01*
X662Y627D01*
X662Y625D01*
X716Y625D01*
X716Y627D01*
X706Y627D01*
X706Y629D01*
X702Y629D01*
X702Y631D01*
X698Y631D01*
X698Y633D01*
X694Y633D01*
X694Y635D01*
X692Y635D01*
X692Y637D01*
X690Y637D01*
X690Y639D01*
X670Y639D01*
G37*
D02*
G36*
X660Y625D02*
X660Y623D01*
X1118Y623D01*
X1118Y625D01*
X660Y625D01*
G37*
D02*
G36*
X660Y625D02*
X660Y623D01*
X1118Y623D01*
X1118Y625D01*
X660Y625D01*
G37*
D02*
G36*
X660Y625D02*
X660Y623D01*
X1118Y623D01*
X1118Y625D01*
X660Y625D01*
G37*
D02*
G36*
X656Y623D02*
X656Y621D01*
X654Y621D01*
X654Y619D01*
X652Y619D01*
X652Y617D01*
X648Y617D01*
X648Y597D01*
X650Y597D01*
X650Y595D01*
X654Y595D01*
X654Y593D01*
X656Y593D01*
X656Y591D01*
X658Y591D01*
X658Y589D01*
X660Y589D01*
X660Y587D01*
X662Y587D01*
X662Y585D01*
X664Y585D01*
X664Y583D01*
X666Y583D01*
X666Y581D01*
X668Y581D01*
X668Y577D01*
X670Y577D01*
X670Y573D01*
X672Y573D01*
X672Y569D01*
X674Y569D01*
X674Y561D01*
X676Y561D01*
X676Y551D01*
X674Y551D01*
X674Y547D01*
X1026Y547D01*
X1026Y545D01*
X1030Y545D01*
X1030Y543D01*
X1034Y543D01*
X1034Y541D01*
X1036Y541D01*
X1036Y539D01*
X1040Y539D01*
X1040Y537D01*
X1042Y537D01*
X1042Y533D01*
X1044Y533D01*
X1044Y531D01*
X1046Y531D01*
X1046Y527D01*
X1048Y527D01*
X1048Y521D01*
X1050Y521D01*
X1050Y513D01*
X1048Y513D01*
X1048Y507D01*
X1046Y507D01*
X1046Y503D01*
X1044Y503D01*
X1044Y501D01*
X1042Y501D01*
X1042Y497D01*
X1040Y497D01*
X1040Y495D01*
X1036Y495D01*
X1036Y493D01*
X1034Y493D01*
X1034Y491D01*
X1032Y491D01*
X1032Y489D01*
X1030Y489D01*
X1030Y485D01*
X1028Y485D01*
X1028Y481D01*
X1026Y481D01*
X1026Y477D01*
X1024Y477D01*
X1024Y473D01*
X1022Y473D01*
X1022Y469D01*
X1020Y469D01*
X1020Y465D01*
X1018Y465D01*
X1018Y461D01*
X1016Y461D01*
X1016Y457D01*
X1014Y457D01*
X1014Y453D01*
X1012Y453D01*
X1012Y449D01*
X1010Y449D01*
X1010Y445D01*
X1008Y445D01*
X1008Y441D01*
X1006Y441D01*
X1006Y437D01*
X1004Y437D01*
X1004Y433D01*
X1002Y433D01*
X1002Y429D01*
X1000Y429D01*
X1000Y425D01*
X998Y425D01*
X998Y421D01*
X996Y421D01*
X996Y417D01*
X994Y417D01*
X994Y413D01*
X992Y413D01*
X992Y409D01*
X990Y409D01*
X990Y405D01*
X988Y405D01*
X988Y401D01*
X986Y401D01*
X986Y397D01*
X984Y397D01*
X984Y393D01*
X982Y393D01*
X982Y389D01*
X980Y389D01*
X980Y385D01*
X978Y385D01*
X978Y369D01*
X976Y369D01*
X976Y363D01*
X974Y363D01*
X974Y359D01*
X972Y359D01*
X972Y357D01*
X970Y357D01*
X970Y353D01*
X968Y353D01*
X968Y351D01*
X964Y351D01*
X964Y349D01*
X962Y349D01*
X962Y347D01*
X958Y347D01*
X958Y345D01*
X952Y345D01*
X952Y343D01*
X1068Y343D01*
X1068Y347D01*
X1070Y347D01*
X1070Y359D01*
X1072Y359D01*
X1072Y371D01*
X1074Y371D01*
X1074Y381D01*
X1076Y381D01*
X1076Y393D01*
X1078Y393D01*
X1078Y405D01*
X1080Y405D01*
X1080Y415D01*
X1082Y415D01*
X1082Y427D01*
X1084Y427D01*
X1084Y439D01*
X1086Y439D01*
X1086Y449D01*
X1088Y449D01*
X1088Y461D01*
X1090Y461D01*
X1090Y471D01*
X1092Y471D01*
X1092Y483D01*
X1094Y483D01*
X1094Y495D01*
X1096Y495D01*
X1096Y505D01*
X1098Y505D01*
X1098Y517D01*
X1100Y517D01*
X1100Y529D01*
X1102Y529D01*
X1102Y539D01*
X1104Y539D01*
X1104Y551D01*
X1106Y551D01*
X1106Y561D01*
X1108Y561D01*
X1108Y573D01*
X1110Y573D01*
X1110Y585D01*
X1112Y585D01*
X1112Y595D01*
X1114Y595D01*
X1114Y607D01*
X1116Y607D01*
X1116Y619D01*
X1118Y619D01*
X1118Y623D01*
X656Y623D01*
G37*
D02*
G36*
X674Y547D02*
X674Y545D01*
X672Y545D01*
X672Y539D01*
X670Y539D01*
X670Y535D01*
X668Y535D01*
X668Y533D01*
X666Y533D01*
X666Y531D01*
X664Y531D01*
X664Y527D01*
X662Y527D01*
X662Y525D01*
X660Y525D01*
X660Y523D01*
X656Y523D01*
X656Y521D01*
X654Y521D01*
X654Y519D01*
X652Y519D01*
X652Y517D01*
X648Y517D01*
X648Y497D01*
X650Y497D01*
X650Y495D01*
X654Y495D01*
X654Y493D01*
X656Y493D01*
X656Y491D01*
X658Y491D01*
X658Y489D01*
X660Y489D01*
X660Y487D01*
X662Y487D01*
X662Y485D01*
X664Y485D01*
X664Y483D01*
X666Y483D01*
X666Y481D01*
X668Y481D01*
X668Y477D01*
X670Y477D01*
X670Y475D01*
X810Y475D01*
X810Y473D01*
X814Y473D01*
X814Y471D01*
X818Y471D01*
X818Y469D01*
X820Y469D01*
X820Y467D01*
X824Y467D01*
X824Y465D01*
X826Y465D01*
X826Y461D01*
X828Y461D01*
X828Y459D01*
X830Y459D01*
X830Y455D01*
X832Y455D01*
X832Y449D01*
X834Y449D01*
X834Y441D01*
X832Y441D01*
X832Y435D01*
X830Y435D01*
X830Y431D01*
X828Y431D01*
X828Y429D01*
X826Y429D01*
X826Y391D01*
X824Y391D01*
X824Y387D01*
X822Y387D01*
X822Y383D01*
X820Y383D01*
X820Y381D01*
X818Y381D01*
X818Y379D01*
X814Y379D01*
X814Y377D01*
X810Y377D01*
X810Y375D01*
X918Y375D01*
X918Y379D01*
X920Y379D01*
X920Y383D01*
X922Y383D01*
X922Y387D01*
X924Y387D01*
X924Y389D01*
X926Y389D01*
X926Y393D01*
X928Y393D01*
X928Y395D01*
X932Y395D01*
X932Y397D01*
X934Y397D01*
X934Y399D01*
X936Y399D01*
X936Y401D01*
X938Y401D01*
X938Y405D01*
X940Y405D01*
X940Y409D01*
X942Y409D01*
X942Y413D01*
X944Y413D01*
X944Y417D01*
X946Y417D01*
X946Y421D01*
X948Y421D01*
X948Y425D01*
X950Y425D01*
X950Y429D01*
X952Y429D01*
X952Y433D01*
X954Y433D01*
X954Y437D01*
X956Y437D01*
X956Y441D01*
X958Y441D01*
X958Y445D01*
X960Y445D01*
X960Y449D01*
X962Y449D01*
X962Y453D01*
X964Y453D01*
X964Y457D01*
X966Y457D01*
X966Y461D01*
X968Y461D01*
X968Y465D01*
X970Y465D01*
X970Y469D01*
X972Y469D01*
X972Y473D01*
X974Y473D01*
X974Y477D01*
X976Y477D01*
X976Y481D01*
X978Y481D01*
X978Y485D01*
X980Y485D01*
X980Y489D01*
X982Y489D01*
X982Y493D01*
X984Y493D01*
X984Y497D01*
X986Y497D01*
X986Y501D01*
X988Y501D01*
X988Y505D01*
X990Y505D01*
X990Y523D01*
X992Y523D01*
X992Y527D01*
X994Y527D01*
X994Y531D01*
X996Y531D01*
X996Y533D01*
X998Y533D01*
X998Y537D01*
X1000Y537D01*
X1000Y539D01*
X1004Y539D01*
X1004Y541D01*
X1006Y541D01*
X1006Y543D01*
X1010Y543D01*
X1010Y545D01*
X1014Y545D01*
X1014Y547D01*
X674Y547D01*
G37*
D02*
G36*
X394Y517D02*
X394Y487D01*
X392Y487D01*
X392Y481D01*
X390Y481D01*
X390Y477D01*
X388Y477D01*
X388Y473D01*
X386Y473D01*
X386Y469D01*
X384Y469D01*
X384Y463D01*
X382Y463D01*
X382Y459D01*
X380Y459D01*
X380Y455D01*
X378Y455D01*
X378Y451D01*
X376Y451D01*
X376Y445D01*
X374Y445D01*
X374Y441D01*
X372Y441D01*
X372Y437D01*
X370Y437D01*
X370Y431D01*
X368Y431D01*
X368Y427D01*
X366Y427D01*
X366Y423D01*
X364Y423D01*
X364Y419D01*
X362Y419D01*
X362Y413D01*
X360Y413D01*
X360Y409D01*
X358Y409D01*
X358Y405D01*
X356Y405D01*
X356Y401D01*
X354Y401D01*
X354Y395D01*
X352Y395D01*
X352Y391D01*
X350Y391D01*
X350Y387D01*
X348Y387D01*
X348Y383D01*
X346Y383D01*
X346Y377D01*
X344Y377D01*
X344Y375D01*
X558Y375D01*
X558Y377D01*
X554Y377D01*
X554Y379D01*
X550Y379D01*
X550Y381D01*
X548Y381D01*
X548Y383D01*
X546Y383D01*
X546Y385D01*
X544Y385D01*
X544Y387D01*
X542Y387D01*
X542Y389D01*
X540Y389D01*
X540Y391D01*
X538Y391D01*
X538Y395D01*
X536Y395D01*
X536Y397D01*
X534Y397D01*
X534Y399D01*
X532Y399D01*
X532Y401D01*
X530Y401D01*
X530Y403D01*
X528Y403D01*
X528Y405D01*
X526Y405D01*
X526Y407D01*
X524Y407D01*
X524Y409D01*
X522Y409D01*
X522Y413D01*
X520Y413D01*
X520Y415D01*
X518Y415D01*
X518Y417D01*
X516Y417D01*
X516Y419D01*
X514Y419D01*
X514Y421D01*
X512Y421D01*
X512Y423D01*
X510Y423D01*
X510Y425D01*
X508Y425D01*
X508Y427D01*
X506Y427D01*
X506Y431D01*
X504Y431D01*
X504Y433D01*
X502Y433D01*
X502Y435D01*
X500Y435D01*
X500Y437D01*
X498Y437D01*
X498Y439D01*
X496Y439D01*
X496Y441D01*
X494Y441D01*
X494Y443D01*
X492Y443D01*
X492Y445D01*
X490Y445D01*
X490Y447D01*
X488Y447D01*
X488Y451D01*
X486Y451D01*
X486Y453D01*
X484Y453D01*
X484Y455D01*
X482Y455D01*
X482Y457D01*
X480Y457D01*
X480Y459D01*
X478Y459D01*
X478Y461D01*
X476Y461D01*
X476Y463D01*
X474Y463D01*
X474Y465D01*
X472Y465D01*
X472Y467D01*
X470Y467D01*
X470Y469D01*
X466Y469D01*
X466Y471D01*
X464Y471D01*
X464Y473D01*
X462Y473D01*
X462Y475D01*
X460Y475D01*
X460Y477D01*
X458Y477D01*
X458Y479D01*
X456Y479D01*
X456Y481D01*
X454Y481D01*
X454Y483D01*
X452Y483D01*
X452Y485D01*
X448Y485D01*
X448Y487D01*
X446Y487D01*
X446Y489D01*
X444Y489D01*
X444Y491D01*
X442Y491D01*
X442Y493D01*
X440Y493D01*
X440Y495D01*
X438Y495D01*
X438Y497D01*
X436Y497D01*
X436Y499D01*
X434Y499D01*
X434Y501D01*
X430Y501D01*
X430Y503D01*
X428Y503D01*
X428Y505D01*
X426Y505D01*
X426Y507D01*
X424Y507D01*
X424Y509D01*
X422Y509D01*
X422Y511D01*
X420Y511D01*
X420Y513D01*
X418Y513D01*
X418Y515D01*
X416Y515D01*
X416Y517D01*
X394Y517D01*
G37*
D02*
G36*
X40Y509D02*
X40Y507D01*
X350Y507D01*
X350Y509D01*
X40Y509D01*
G37*
D02*
G36*
X40Y509D02*
X40Y507D01*
X350Y507D01*
X350Y509D01*
X40Y509D01*
G37*
D02*
G36*
X1636Y509D02*
X1636Y507D01*
X1634Y507D01*
X1634Y505D01*
X1632Y505D01*
X1632Y503D01*
X1630Y503D01*
X1630Y501D01*
X1628Y501D01*
X1628Y499D01*
X1626Y499D01*
X1626Y497D01*
X1622Y497D01*
X1622Y495D01*
X1620Y495D01*
X1620Y493D01*
X1616Y493D01*
X1616Y491D01*
X1612Y491D01*
X1612Y489D01*
X1606Y489D01*
X1606Y487D01*
X1680Y487D01*
X1680Y489D01*
X1678Y489D01*
X1678Y491D01*
X1674Y491D01*
X1674Y493D01*
X1670Y493D01*
X1670Y495D01*
X1668Y495D01*
X1668Y497D01*
X1666Y497D01*
X1666Y499D01*
X1662Y499D01*
X1662Y501D01*
X1660Y501D01*
X1660Y503D01*
X1658Y503D01*
X1658Y505D01*
X1656Y505D01*
X1656Y509D01*
X1636Y509D01*
G37*
D02*
G36*
X40Y507D02*
X40Y151D01*
X100Y151D01*
X100Y149D01*
X106Y149D01*
X106Y147D01*
X110Y147D01*
X110Y145D01*
X114Y145D01*
X114Y143D01*
X118Y143D01*
X118Y141D01*
X120Y141D01*
X120Y139D01*
X122Y139D01*
X122Y137D01*
X124Y137D01*
X124Y135D01*
X126Y135D01*
X126Y133D01*
X128Y133D01*
X128Y131D01*
X130Y131D01*
X130Y129D01*
X132Y129D01*
X132Y127D01*
X134Y127D01*
X134Y123D01*
X136Y123D01*
X136Y121D01*
X180Y121D01*
X180Y221D01*
X228Y221D01*
X228Y225D01*
X230Y225D01*
X230Y229D01*
X232Y229D01*
X232Y233D01*
X234Y233D01*
X234Y239D01*
X236Y239D01*
X236Y243D01*
X238Y243D01*
X238Y247D01*
X240Y247D01*
X240Y251D01*
X242Y251D01*
X242Y257D01*
X244Y257D01*
X244Y261D01*
X246Y261D01*
X246Y265D01*
X248Y265D01*
X248Y269D01*
X250Y269D01*
X250Y275D01*
X252Y275D01*
X252Y279D01*
X254Y279D01*
X254Y283D01*
X256Y283D01*
X256Y287D01*
X258Y287D01*
X258Y293D01*
X260Y293D01*
X260Y297D01*
X262Y297D01*
X262Y301D01*
X264Y301D01*
X264Y305D01*
X266Y305D01*
X266Y311D01*
X268Y311D01*
X268Y315D01*
X270Y315D01*
X270Y319D01*
X272Y319D01*
X272Y323D01*
X274Y323D01*
X274Y329D01*
X276Y329D01*
X276Y333D01*
X278Y333D01*
X278Y337D01*
X280Y337D01*
X280Y341D01*
X282Y341D01*
X282Y347D01*
X284Y347D01*
X284Y351D01*
X286Y351D01*
X286Y355D01*
X288Y355D01*
X288Y359D01*
X290Y359D01*
X290Y365D01*
X292Y365D01*
X292Y369D01*
X294Y369D01*
X294Y373D01*
X296Y373D01*
X296Y379D01*
X298Y379D01*
X298Y383D01*
X300Y383D01*
X300Y387D01*
X302Y387D01*
X302Y391D01*
X304Y391D01*
X304Y397D01*
X306Y397D01*
X306Y401D01*
X308Y401D01*
X308Y405D01*
X310Y405D01*
X310Y409D01*
X312Y409D01*
X312Y415D01*
X314Y415D01*
X314Y419D01*
X316Y419D01*
X316Y423D01*
X318Y423D01*
X318Y427D01*
X320Y427D01*
X320Y433D01*
X322Y433D01*
X322Y437D01*
X324Y437D01*
X324Y441D01*
X326Y441D01*
X326Y445D01*
X328Y445D01*
X328Y451D01*
X330Y451D01*
X330Y455D01*
X332Y455D01*
X332Y459D01*
X334Y459D01*
X334Y463D01*
X336Y463D01*
X336Y469D01*
X338Y469D01*
X338Y473D01*
X340Y473D01*
X340Y477D01*
X342Y477D01*
X342Y481D01*
X344Y481D01*
X344Y487D01*
X346Y487D01*
X346Y491D01*
X348Y491D01*
X348Y495D01*
X350Y495D01*
X350Y507D01*
X40Y507D01*
G37*
D02*
G36*
X1546Y499D02*
X1546Y487D01*
X1584Y487D01*
X1584Y489D01*
X1578Y489D01*
X1578Y491D01*
X1574Y491D01*
X1574Y493D01*
X1570Y493D01*
X1570Y495D01*
X1568Y495D01*
X1568Y497D01*
X1566Y497D01*
X1566Y499D01*
X1546Y499D01*
G37*
D02*
G36*
X1276Y487D02*
X1276Y485D01*
X1680Y485D01*
X1680Y487D01*
X1276Y487D01*
G37*
D02*
G36*
X1276Y487D02*
X1276Y485D01*
X1680Y485D01*
X1680Y487D01*
X1276Y487D01*
G37*
D02*
G36*
X1276Y487D02*
X1276Y485D01*
X1680Y485D01*
X1680Y487D01*
X1276Y487D01*
G37*
D02*
G36*
X1276Y485D02*
X1276Y411D01*
X1578Y411D01*
X1578Y413D01*
X1582Y413D01*
X1582Y415D01*
X1584Y415D01*
X1584Y417D01*
X1588Y417D01*
X1588Y419D01*
X1592Y419D01*
X1592Y421D01*
X1596Y421D01*
X1596Y423D01*
X1598Y423D01*
X1598Y425D01*
X1602Y425D01*
X1602Y427D01*
X1606Y427D01*
X1606Y429D01*
X1610Y429D01*
X1610Y431D01*
X1612Y431D01*
X1612Y433D01*
X1616Y433D01*
X1616Y435D01*
X1620Y435D01*
X1620Y437D01*
X1624Y437D01*
X1624Y439D01*
X1626Y439D01*
X1626Y441D01*
X1630Y441D01*
X1630Y443D01*
X1634Y443D01*
X1634Y445D01*
X1638Y445D01*
X1638Y447D01*
X1640Y447D01*
X1640Y449D01*
X1644Y449D01*
X1644Y451D01*
X1648Y451D01*
X1648Y453D01*
X1652Y453D01*
X1652Y455D01*
X1654Y455D01*
X1654Y457D01*
X1658Y457D01*
X1658Y459D01*
X1662Y459D01*
X1662Y461D01*
X1666Y461D01*
X1666Y463D01*
X1668Y463D01*
X1668Y465D01*
X1672Y465D01*
X1672Y467D01*
X1676Y467D01*
X1676Y469D01*
X1680Y469D01*
X1680Y485D01*
X1276Y485D01*
G37*
D02*
G36*
X670Y475D02*
X670Y473D01*
X672Y473D01*
X672Y469D01*
X674Y469D01*
X674Y461D01*
X676Y461D01*
X676Y451D01*
X674Y451D01*
X674Y445D01*
X672Y445D01*
X672Y439D01*
X670Y439D01*
X670Y419D01*
X776Y419D01*
X776Y439D01*
X774Y439D01*
X774Y451D01*
X776Y451D01*
X776Y455D01*
X778Y455D01*
X778Y459D01*
X780Y459D01*
X780Y461D01*
X782Y461D01*
X782Y465D01*
X784Y465D01*
X784Y467D01*
X788Y467D01*
X788Y469D01*
X790Y469D01*
X790Y471D01*
X794Y471D01*
X794Y473D01*
X798Y473D01*
X798Y475D01*
X670Y475D01*
G37*
D02*
G36*
X1124Y411D02*
X1124Y409D01*
X1574Y409D01*
X1574Y411D01*
X1124Y411D01*
G37*
D02*
G36*
X1124Y411D02*
X1124Y409D01*
X1574Y409D01*
X1574Y411D01*
X1124Y411D01*
G37*
D02*
G36*
X1124Y409D02*
X1124Y401D01*
X1122Y401D01*
X1122Y389D01*
X1120Y389D01*
X1120Y377D01*
X1118Y377D01*
X1118Y367D01*
X1116Y367D01*
X1116Y355D01*
X1114Y355D01*
X1114Y343D01*
X1112Y343D01*
X1112Y333D01*
X1110Y333D01*
X1110Y321D01*
X1108Y321D01*
X1108Y311D01*
X1106Y311D01*
X1106Y299D01*
X1104Y299D01*
X1104Y287D01*
X1102Y287D01*
X1102Y277D01*
X1100Y277D01*
X1100Y265D01*
X1098Y265D01*
X1098Y253D01*
X1096Y253D01*
X1096Y243D01*
X1094Y243D01*
X1094Y231D01*
X1092Y231D01*
X1092Y203D01*
X1094Y203D01*
X1094Y201D01*
X1096Y201D01*
X1096Y199D01*
X1098Y199D01*
X1098Y197D01*
X1100Y197D01*
X1100Y195D01*
X1102Y195D01*
X1102Y191D01*
X1104Y191D01*
X1104Y187D01*
X1106Y187D01*
X1106Y183D01*
X1108Y183D01*
X1108Y175D01*
X1110Y175D01*
X1110Y163D01*
X1108Y163D01*
X1108Y155D01*
X1106Y155D01*
X1106Y151D01*
X1104Y151D01*
X1104Y147D01*
X1102Y147D01*
X1102Y143D01*
X1100Y143D01*
X1100Y141D01*
X1098Y141D01*
X1098Y139D01*
X1096Y139D01*
X1096Y135D01*
X1094Y135D01*
X1094Y133D01*
X1090Y133D01*
X1090Y131D01*
X1088Y131D01*
X1088Y129D01*
X1086Y129D01*
X1086Y127D01*
X1082Y127D01*
X1082Y125D01*
X1080Y125D01*
X1080Y123D01*
X1074Y123D01*
X1074Y121D01*
X1068Y121D01*
X1068Y119D01*
X1134Y119D01*
X1134Y219D01*
X1244Y219D01*
X1244Y221D01*
X1246Y221D01*
X1246Y223D01*
X1248Y223D01*
X1248Y225D01*
X1252Y225D01*
X1252Y227D01*
X1256Y227D01*
X1256Y229D01*
X1260Y229D01*
X1260Y231D01*
X1262Y231D01*
X1262Y233D01*
X1266Y233D01*
X1266Y235D01*
X1270Y235D01*
X1270Y237D01*
X1274Y237D01*
X1274Y239D01*
X1276Y239D01*
X1276Y241D01*
X1280Y241D01*
X1280Y243D01*
X1284Y243D01*
X1284Y245D01*
X1288Y245D01*
X1288Y247D01*
X1290Y247D01*
X1290Y249D01*
X1294Y249D01*
X1294Y251D01*
X1298Y251D01*
X1298Y253D01*
X1302Y253D01*
X1302Y255D01*
X1304Y255D01*
X1304Y257D01*
X1308Y257D01*
X1308Y259D01*
X1312Y259D01*
X1312Y261D01*
X1316Y261D01*
X1316Y263D01*
X1318Y263D01*
X1318Y265D01*
X1322Y265D01*
X1322Y267D01*
X1326Y267D01*
X1326Y269D01*
X1330Y269D01*
X1330Y271D01*
X1332Y271D01*
X1332Y273D01*
X1336Y273D01*
X1336Y275D01*
X1340Y275D01*
X1340Y277D01*
X1344Y277D01*
X1344Y279D01*
X1346Y279D01*
X1346Y281D01*
X1350Y281D01*
X1350Y283D01*
X1354Y283D01*
X1354Y285D01*
X1358Y285D01*
X1358Y287D01*
X1360Y287D01*
X1360Y289D01*
X1364Y289D01*
X1364Y291D01*
X1368Y291D01*
X1368Y293D01*
X1372Y293D01*
X1372Y295D01*
X1374Y295D01*
X1374Y297D01*
X1378Y297D01*
X1378Y299D01*
X1382Y299D01*
X1382Y301D01*
X1386Y301D01*
X1386Y303D01*
X1388Y303D01*
X1388Y305D01*
X1392Y305D01*
X1392Y307D01*
X1396Y307D01*
X1396Y309D01*
X1400Y309D01*
X1400Y311D01*
X1402Y311D01*
X1402Y313D01*
X1406Y313D01*
X1406Y315D01*
X1410Y315D01*
X1410Y317D01*
X1414Y317D01*
X1414Y319D01*
X1416Y319D01*
X1416Y321D01*
X1420Y321D01*
X1420Y323D01*
X1424Y323D01*
X1424Y325D01*
X1428Y325D01*
X1428Y327D01*
X1430Y327D01*
X1430Y329D01*
X1434Y329D01*
X1434Y331D01*
X1438Y331D01*
X1438Y333D01*
X1442Y333D01*
X1442Y335D01*
X1444Y335D01*
X1444Y337D01*
X1448Y337D01*
X1448Y339D01*
X1452Y339D01*
X1452Y341D01*
X1456Y341D01*
X1456Y343D01*
X1458Y343D01*
X1458Y345D01*
X1462Y345D01*
X1462Y347D01*
X1466Y347D01*
X1466Y349D01*
X1470Y349D01*
X1470Y351D01*
X1472Y351D01*
X1472Y353D01*
X1476Y353D01*
X1476Y355D01*
X1480Y355D01*
X1480Y357D01*
X1484Y357D01*
X1484Y359D01*
X1486Y359D01*
X1486Y361D01*
X1490Y361D01*
X1490Y363D01*
X1494Y363D01*
X1494Y365D01*
X1498Y365D01*
X1498Y367D01*
X1500Y367D01*
X1500Y369D01*
X1504Y369D01*
X1504Y371D01*
X1508Y371D01*
X1508Y373D01*
X1512Y373D01*
X1512Y375D01*
X1514Y375D01*
X1514Y377D01*
X1518Y377D01*
X1518Y379D01*
X1522Y379D01*
X1522Y381D01*
X1526Y381D01*
X1526Y383D01*
X1528Y383D01*
X1528Y385D01*
X1532Y385D01*
X1532Y387D01*
X1536Y387D01*
X1536Y389D01*
X1540Y389D01*
X1540Y391D01*
X1542Y391D01*
X1542Y393D01*
X1546Y393D01*
X1546Y395D01*
X1550Y395D01*
X1550Y397D01*
X1554Y397D01*
X1554Y399D01*
X1556Y399D01*
X1556Y401D01*
X1560Y401D01*
X1560Y403D01*
X1564Y403D01*
X1564Y405D01*
X1568Y405D01*
X1568Y407D01*
X1570Y407D01*
X1570Y409D01*
X1124Y409D01*
G37*
D02*
G36*
X344Y375D02*
X344Y373D01*
X918Y373D01*
X918Y375D01*
X344Y375D01*
G37*
D02*
G36*
X344Y375D02*
X344Y373D01*
X918Y373D01*
X918Y375D01*
X344Y375D01*
G37*
D02*
G36*
X342Y373D02*
X342Y369D01*
X340Y369D01*
X340Y365D01*
X338Y365D01*
X338Y359D01*
X336Y359D01*
X336Y355D01*
X714Y355D01*
X714Y353D01*
X718Y353D01*
X718Y351D01*
X722Y351D01*
X722Y349D01*
X724Y349D01*
X724Y347D01*
X728Y347D01*
X728Y345D01*
X730Y345D01*
X730Y343D01*
X944Y343D01*
X944Y345D01*
X938Y345D01*
X938Y347D01*
X934Y347D01*
X934Y349D01*
X932Y349D01*
X932Y351D01*
X928Y351D01*
X928Y353D01*
X926Y353D01*
X926Y357D01*
X924Y357D01*
X924Y359D01*
X922Y359D01*
X922Y363D01*
X920Y363D01*
X920Y367D01*
X918Y367D01*
X918Y373D01*
X342Y373D01*
G37*
D02*
G36*
X334Y355D02*
X334Y351D01*
X332Y351D01*
X332Y347D01*
X330Y347D01*
X330Y341D01*
X328Y341D01*
X328Y337D01*
X326Y337D01*
X326Y333D01*
X324Y333D01*
X324Y329D01*
X322Y329D01*
X322Y323D01*
X320Y323D01*
X320Y319D01*
X318Y319D01*
X318Y315D01*
X316Y315D01*
X316Y311D01*
X314Y311D01*
X314Y305D01*
X312Y305D01*
X312Y301D01*
X310Y301D01*
X310Y297D01*
X308Y297D01*
X308Y291D01*
X306Y291D01*
X306Y287D01*
X304Y287D01*
X304Y283D01*
X302Y283D01*
X302Y279D01*
X300Y279D01*
X300Y273D01*
X298Y273D01*
X298Y269D01*
X296Y269D01*
X296Y265D01*
X294Y265D01*
X294Y261D01*
X292Y261D01*
X292Y255D01*
X290Y255D01*
X290Y251D01*
X288Y251D01*
X288Y247D01*
X286Y247D01*
X286Y243D01*
X284Y243D01*
X284Y237D01*
X282Y237D01*
X282Y233D01*
X280Y233D01*
X280Y221D01*
X340Y221D01*
X340Y219D01*
X346Y219D01*
X346Y217D01*
X350Y217D01*
X350Y215D01*
X354Y215D01*
X354Y213D01*
X356Y213D01*
X356Y211D01*
X358Y211D01*
X358Y209D01*
X362Y209D01*
X362Y207D01*
X364Y207D01*
X364Y205D01*
X366Y205D01*
X366Y203D01*
X368Y203D01*
X368Y199D01*
X370Y199D01*
X370Y197D01*
X372Y197D01*
X372Y193D01*
X374Y193D01*
X374Y191D01*
X376Y191D01*
X376Y185D01*
X378Y185D01*
X378Y177D01*
X380Y177D01*
X380Y165D01*
X378Y165D01*
X378Y157D01*
X376Y157D01*
X376Y153D01*
X374Y153D01*
X374Y149D01*
X372Y149D01*
X372Y145D01*
X370Y145D01*
X370Y143D01*
X368Y143D01*
X368Y141D01*
X366Y141D01*
X366Y139D01*
X364Y139D01*
X364Y137D01*
X362Y137D01*
X362Y135D01*
X360Y135D01*
X360Y133D01*
X358Y133D01*
X358Y131D01*
X356Y131D01*
X356Y129D01*
X352Y129D01*
X352Y127D01*
X348Y127D01*
X348Y125D01*
X344Y125D01*
X344Y123D01*
X336Y123D01*
X336Y121D01*
X424Y121D01*
X424Y221D01*
X478Y221D01*
X478Y223D01*
X480Y223D01*
X480Y225D01*
X484Y225D01*
X484Y227D01*
X488Y227D01*
X488Y229D01*
X492Y229D01*
X492Y231D01*
X496Y231D01*
X496Y233D01*
X498Y233D01*
X498Y235D01*
X502Y235D01*
X502Y237D01*
X506Y237D01*
X506Y239D01*
X510Y239D01*
X510Y241D01*
X514Y241D01*
X514Y243D01*
X516Y243D01*
X516Y245D01*
X520Y245D01*
X520Y247D01*
X524Y247D01*
X524Y249D01*
X528Y249D01*
X528Y251D01*
X532Y251D01*
X532Y253D01*
X534Y253D01*
X534Y255D01*
X538Y255D01*
X538Y257D01*
X542Y257D01*
X542Y259D01*
X546Y259D01*
X546Y261D01*
X550Y261D01*
X550Y263D01*
X552Y263D01*
X552Y265D01*
X556Y265D01*
X556Y267D01*
X560Y267D01*
X560Y269D01*
X564Y269D01*
X564Y271D01*
X568Y271D01*
X568Y273D01*
X570Y273D01*
X570Y275D01*
X574Y275D01*
X574Y277D01*
X578Y277D01*
X578Y279D01*
X582Y279D01*
X582Y281D01*
X586Y281D01*
X586Y283D01*
X588Y283D01*
X588Y285D01*
X592Y285D01*
X592Y287D01*
X596Y287D01*
X596Y289D01*
X600Y289D01*
X600Y291D01*
X604Y291D01*
X604Y293D01*
X606Y293D01*
X606Y295D01*
X610Y295D01*
X610Y297D01*
X614Y297D01*
X614Y299D01*
X618Y299D01*
X618Y301D01*
X622Y301D01*
X622Y303D01*
X624Y303D01*
X624Y305D01*
X628Y305D01*
X628Y307D01*
X632Y307D01*
X632Y309D01*
X636Y309D01*
X636Y311D01*
X640Y311D01*
X640Y313D01*
X642Y313D01*
X642Y315D01*
X646Y315D01*
X646Y317D01*
X650Y317D01*
X650Y319D01*
X654Y319D01*
X654Y321D01*
X658Y321D01*
X658Y323D01*
X660Y323D01*
X660Y325D01*
X664Y325D01*
X664Y327D01*
X668Y327D01*
X668Y329D01*
X672Y329D01*
X672Y331D01*
X676Y331D01*
X676Y333D01*
X678Y333D01*
X678Y335D01*
X682Y335D01*
X682Y339D01*
X684Y339D01*
X684Y341D01*
X686Y341D01*
X686Y345D01*
X688Y345D01*
X688Y347D01*
X692Y347D01*
X692Y349D01*
X694Y349D01*
X694Y351D01*
X698Y351D01*
X698Y353D01*
X702Y353D01*
X702Y355D01*
X334Y355D01*
G37*
D02*
G36*
X730Y343D02*
X730Y341D01*
X1068Y341D01*
X1068Y343D01*
X730Y343D01*
G37*
D02*
G36*
X730Y343D02*
X730Y341D01*
X1068Y341D01*
X1068Y343D01*
X730Y343D01*
G37*
D02*
G36*
X732Y341D02*
X732Y339D01*
X734Y339D01*
X734Y335D01*
X736Y335D01*
X736Y329D01*
X738Y329D01*
X738Y321D01*
X736Y321D01*
X736Y315D01*
X734Y315D01*
X734Y311D01*
X732Y311D01*
X732Y309D01*
X730Y309D01*
X730Y305D01*
X728Y305D01*
X728Y303D01*
X724Y303D01*
X724Y301D01*
X722Y301D01*
X722Y299D01*
X718Y299D01*
X718Y297D01*
X712Y297D01*
X712Y295D01*
X698Y295D01*
X698Y293D01*
X694Y293D01*
X694Y291D01*
X690Y291D01*
X690Y289D01*
X686Y289D01*
X686Y287D01*
X684Y287D01*
X684Y285D01*
X680Y285D01*
X680Y283D01*
X676Y283D01*
X676Y281D01*
X672Y281D01*
X672Y279D01*
X668Y279D01*
X668Y277D01*
X666Y277D01*
X666Y275D01*
X662Y275D01*
X662Y273D01*
X658Y273D01*
X658Y271D01*
X654Y271D01*
X654Y269D01*
X650Y269D01*
X650Y267D01*
X648Y267D01*
X648Y265D01*
X644Y265D01*
X644Y263D01*
X640Y263D01*
X640Y261D01*
X636Y261D01*
X636Y259D01*
X632Y259D01*
X632Y257D01*
X630Y257D01*
X630Y255D01*
X626Y255D01*
X626Y253D01*
X622Y253D01*
X622Y251D01*
X618Y251D01*
X618Y249D01*
X614Y249D01*
X614Y247D01*
X612Y247D01*
X612Y245D01*
X608Y245D01*
X608Y243D01*
X604Y243D01*
X604Y241D01*
X600Y241D01*
X600Y239D01*
X596Y239D01*
X596Y237D01*
X594Y237D01*
X594Y221D01*
X822Y221D01*
X822Y219D01*
X1010Y219D01*
X1010Y207D01*
X1030Y207D01*
X1030Y209D01*
X1034Y209D01*
X1034Y211D01*
X1036Y211D01*
X1036Y213D01*
X1040Y213D01*
X1040Y215D01*
X1044Y215D01*
X1044Y217D01*
X1046Y217D01*
X1046Y223D01*
X1048Y223D01*
X1048Y235D01*
X1050Y235D01*
X1050Y247D01*
X1052Y247D01*
X1052Y257D01*
X1054Y257D01*
X1054Y269D01*
X1056Y269D01*
X1056Y281D01*
X1058Y281D01*
X1058Y291D01*
X1060Y291D01*
X1060Y303D01*
X1062Y303D01*
X1062Y315D01*
X1064Y315D01*
X1064Y325D01*
X1066Y325D01*
X1066Y337D01*
X1068Y337D01*
X1068Y341D01*
X732Y341D01*
G37*
D02*
G36*
X1338Y225D02*
X1338Y223D01*
X1334Y223D01*
X1334Y221D01*
X1330Y221D01*
X1330Y219D01*
X1328Y219D01*
X1328Y217D01*
X1324Y217D01*
X1324Y195D01*
X1326Y195D01*
X1326Y193D01*
X1328Y193D01*
X1328Y189D01*
X1330Y189D01*
X1330Y185D01*
X1332Y185D01*
X1332Y179D01*
X1334Y179D01*
X1334Y159D01*
X1332Y159D01*
X1332Y153D01*
X1330Y153D01*
X1330Y149D01*
X1328Y149D01*
X1328Y145D01*
X1326Y145D01*
X1326Y141D01*
X1324Y141D01*
X1324Y139D01*
X1322Y139D01*
X1322Y137D01*
X1320Y137D01*
X1320Y135D01*
X1318Y135D01*
X1318Y133D01*
X1316Y133D01*
X1316Y131D01*
X1314Y131D01*
X1314Y129D01*
X1310Y129D01*
X1310Y127D01*
X1308Y127D01*
X1308Y125D01*
X1304Y125D01*
X1304Y123D01*
X1300Y123D01*
X1300Y121D01*
X1294Y121D01*
X1294Y119D01*
X1360Y119D01*
X1360Y225D01*
X1338Y225D01*
G37*
D02*
G36*
X280Y221D02*
X280Y209D01*
X300Y209D01*
X300Y211D01*
X302Y211D01*
X302Y213D01*
X306Y213D01*
X306Y215D01*
X310Y215D01*
X310Y217D01*
X314Y217D01*
X314Y219D01*
X320Y219D01*
X320Y221D01*
X280Y221D01*
G37*
D02*
G36*
X594Y221D02*
X594Y215D01*
X596Y215D01*
X596Y213D01*
X600Y213D01*
X600Y211D01*
X602Y211D01*
X602Y209D01*
X604Y209D01*
X604Y207D01*
X608Y207D01*
X608Y203D01*
X610Y203D01*
X610Y201D01*
X612Y201D01*
X612Y199D01*
X614Y199D01*
X614Y197D01*
X616Y197D01*
X616Y193D01*
X618Y193D01*
X618Y189D01*
X620Y189D01*
X620Y183D01*
X622Y183D01*
X622Y173D01*
X624Y173D01*
X624Y171D01*
X622Y171D01*
X622Y159D01*
X620Y159D01*
X620Y153D01*
X618Y153D01*
X618Y151D01*
X616Y151D01*
X616Y147D01*
X614Y147D01*
X614Y143D01*
X612Y143D01*
X612Y141D01*
X610Y141D01*
X610Y139D01*
X608Y139D01*
X608Y137D01*
X606Y137D01*
X606Y135D01*
X604Y135D01*
X604Y113D01*
X608Y113D01*
X608Y111D01*
X612Y111D01*
X612Y109D01*
X662Y109D01*
X662Y221D01*
X594Y221D01*
G37*
D02*
G36*
X762Y221D02*
X762Y209D01*
X782Y209D01*
X782Y211D01*
X784Y211D01*
X784Y213D01*
X788Y213D01*
X788Y215D01*
X792Y215D01*
X792Y217D01*
X796Y217D01*
X796Y219D01*
X802Y219D01*
X802Y221D01*
X762Y221D01*
G37*
D02*
G36*
X828Y219D02*
X828Y217D01*
X832Y217D01*
X832Y215D01*
X836Y215D01*
X836Y213D01*
X838Y213D01*
X838Y211D01*
X842Y211D01*
X842Y209D01*
X844Y209D01*
X844Y207D01*
X846Y207D01*
X846Y205D01*
X848Y205D01*
X848Y203D01*
X850Y203D01*
X850Y201D01*
X852Y201D01*
X852Y197D01*
X854Y197D01*
X854Y195D01*
X856Y195D01*
X856Y191D01*
X858Y191D01*
X858Y187D01*
X860Y187D01*
X860Y179D01*
X862Y179D01*
X862Y163D01*
X860Y163D01*
X860Y157D01*
X858Y157D01*
X858Y153D01*
X856Y153D01*
X856Y149D01*
X854Y149D01*
X854Y145D01*
X852Y145D01*
X852Y143D01*
X850Y143D01*
X850Y141D01*
X848Y141D01*
X848Y139D01*
X846Y139D01*
X846Y137D01*
X844Y137D01*
X844Y135D01*
X842Y135D01*
X842Y133D01*
X840Y133D01*
X840Y131D01*
X838Y131D01*
X838Y129D01*
X834Y129D01*
X834Y127D01*
X830Y127D01*
X830Y125D01*
X826Y125D01*
X826Y123D01*
X818Y123D01*
X818Y121D01*
X910Y121D01*
X910Y219D01*
X828Y219D01*
G37*
D02*
G36*
X1460Y219D02*
X1460Y207D01*
X1480Y207D01*
X1480Y209D01*
X1484Y209D01*
X1484Y211D01*
X1486Y211D01*
X1486Y213D01*
X1490Y213D01*
X1490Y215D01*
X1494Y215D01*
X1494Y217D01*
X1502Y217D01*
X1502Y219D01*
X1460Y219D01*
G37*
D02*
G36*
X1518Y219D02*
X1518Y217D01*
X1524Y217D01*
X1524Y215D01*
X1528Y215D01*
X1528Y213D01*
X1532Y213D01*
X1532Y211D01*
X1536Y211D01*
X1536Y209D01*
X1538Y209D01*
X1538Y207D01*
X1540Y207D01*
X1540Y205D01*
X1542Y205D01*
X1542Y203D01*
X1544Y203D01*
X1544Y201D01*
X1546Y201D01*
X1546Y199D01*
X1548Y199D01*
X1548Y197D01*
X1550Y197D01*
X1550Y195D01*
X1552Y195D01*
X1552Y191D01*
X1554Y191D01*
X1554Y187D01*
X1556Y187D01*
X1556Y183D01*
X1558Y183D01*
X1558Y175D01*
X1560Y175D01*
X1560Y163D01*
X1558Y163D01*
X1558Y155D01*
X1556Y155D01*
X1556Y151D01*
X1554Y151D01*
X1554Y147D01*
X1552Y147D01*
X1552Y143D01*
X1550Y143D01*
X1550Y141D01*
X1548Y141D01*
X1548Y139D01*
X1546Y139D01*
X1546Y135D01*
X1544Y135D01*
X1544Y133D01*
X1540Y133D01*
X1540Y131D01*
X1538Y131D01*
X1538Y129D01*
X1536Y129D01*
X1536Y127D01*
X1532Y127D01*
X1532Y125D01*
X1530Y125D01*
X1530Y123D01*
X1524Y123D01*
X1524Y121D01*
X1518Y121D01*
X1518Y119D01*
X1584Y119D01*
X1584Y219D01*
X1518Y219D01*
G37*
D02*
G36*
X1684Y219D02*
X1684Y205D01*
X1704Y205D01*
X1704Y207D01*
X1706Y207D01*
X1706Y209D01*
X1708Y209D01*
X1708Y211D01*
X1712Y211D01*
X1712Y213D01*
X1716Y213D01*
X1716Y215D01*
X1720Y215D01*
X1720Y217D01*
X1726Y217D01*
X1726Y219D01*
X1684Y219D01*
G37*
D02*
G36*
X40Y151D02*
X40Y141D01*
X60Y141D01*
X60Y143D01*
X64Y143D01*
X64Y145D01*
X68Y145D01*
X68Y147D01*
X72Y147D01*
X72Y149D01*
X78Y149D01*
X78Y151D01*
X40Y151D01*
G37*
D02*
G36*
X1770Y137D02*
X1770Y135D01*
X1768Y135D01*
X1768Y133D01*
X1766Y133D01*
X1766Y131D01*
X1764Y131D01*
X1764Y129D01*
X1760Y129D01*
X1760Y127D01*
X1758Y127D01*
X1758Y125D01*
X1754Y125D01*
X1754Y123D01*
X1750Y123D01*
X1750Y121D01*
X1744Y121D01*
X1744Y119D01*
X1846Y119D01*
X1846Y121D01*
X1848Y121D01*
X1848Y123D01*
X1850Y123D01*
X1850Y125D01*
X1854Y125D01*
X1854Y127D01*
X1856Y127D01*
X1856Y129D01*
X1860Y129D01*
X1860Y131D01*
X1862Y131D01*
X1862Y133D01*
X1868Y133D01*
X1868Y135D01*
X1874Y135D01*
X1874Y137D01*
X1770Y137D01*
G37*
D02*
G36*
X762Y135D02*
X762Y121D01*
X806Y121D01*
X806Y123D01*
X798Y123D01*
X798Y125D01*
X794Y125D01*
X794Y127D01*
X790Y127D01*
X790Y129D01*
X786Y129D01*
X786Y131D01*
X784Y131D01*
X784Y133D01*
X782Y133D01*
X782Y135D01*
X762Y135D01*
G37*
D02*
G36*
X280Y133D02*
X280Y121D01*
X324Y121D01*
X324Y123D01*
X316Y123D01*
X316Y125D01*
X310Y125D01*
X310Y127D01*
X308Y127D01*
X308Y129D01*
X304Y129D01*
X304Y131D01*
X302Y131D01*
X302Y133D01*
X280Y133D01*
G37*
D02*
G36*
X524Y133D02*
X524Y123D01*
X522Y123D01*
X522Y121D01*
X566Y121D01*
X566Y123D01*
X560Y123D01*
X560Y125D01*
X554Y125D01*
X554Y127D01*
X550Y127D01*
X550Y129D01*
X548Y129D01*
X548Y131D01*
X544Y131D01*
X544Y133D01*
X524Y133D01*
G37*
D02*
G36*
X1234Y133D02*
X1234Y119D01*
X1276Y119D01*
X1276Y121D01*
X1270Y121D01*
X1270Y123D01*
X1264Y123D01*
X1264Y125D01*
X1262Y125D01*
X1262Y127D01*
X1258Y127D01*
X1258Y129D01*
X1256Y129D01*
X1256Y131D01*
X1254Y131D01*
X1254Y133D01*
X1234Y133D01*
G37*
D02*
G36*
X1684Y133D02*
X1684Y119D01*
X1726Y119D01*
X1726Y121D01*
X1718Y121D01*
X1718Y123D01*
X1714Y123D01*
X1714Y125D01*
X1712Y125D01*
X1712Y127D01*
X1708Y127D01*
X1708Y129D01*
X1706Y129D01*
X1706Y131D01*
X1704Y131D01*
X1704Y133D01*
X1684Y133D01*
G37*
D02*
G36*
X1010Y131D02*
X1010Y119D01*
X1050Y119D01*
X1050Y121D01*
X1044Y121D01*
X1044Y123D01*
X1040Y123D01*
X1040Y125D01*
X1036Y125D01*
X1036Y127D01*
X1034Y127D01*
X1034Y129D01*
X1030Y129D01*
X1030Y131D01*
X1010Y131D01*
G37*
D02*
G36*
X1460Y131D02*
X1460Y119D01*
X1500Y119D01*
X1500Y121D01*
X1494Y121D01*
X1494Y123D01*
X1490Y123D01*
X1490Y125D01*
X1486Y125D01*
X1486Y127D01*
X1484Y127D01*
X1484Y129D01*
X1480Y129D01*
X1480Y131D01*
X1460Y131D01*
G37*
D02*
G36*
X136Y121D02*
X136Y119D01*
X572Y119D01*
X572Y121D01*
X136Y121D01*
G37*
D02*
G36*
X136Y121D02*
X136Y119D01*
X572Y119D01*
X572Y121D01*
X136Y121D01*
G37*
D02*
G36*
X136Y121D02*
X136Y119D01*
X572Y119D01*
X572Y121D01*
X136Y121D01*
G37*
D02*
G36*
X136Y121D02*
X136Y119D01*
X572Y119D01*
X572Y121D01*
X136Y121D01*
G37*
D02*
G36*
X722Y121D02*
X722Y119D01*
X910Y119D01*
X910Y121D01*
X722Y121D01*
G37*
D02*
G36*
X722Y121D02*
X722Y119D01*
X910Y119D01*
X910Y121D01*
X722Y121D01*
G37*
D02*
G36*
X138Y119D02*
X138Y115D01*
X140Y115D01*
X140Y109D01*
X142Y109D01*
X142Y87D01*
X140Y87D01*
X140Y81D01*
X138Y81D01*
X138Y77D01*
X136Y77D01*
X136Y73D01*
X134Y73D01*
X134Y69D01*
X132Y69D01*
X132Y67D01*
X130Y67D01*
X130Y65D01*
X128Y65D01*
X128Y61D01*
X126Y61D01*
X126Y41D01*
X584Y41D01*
X584Y61D01*
X580Y61D01*
X580Y63D01*
X578Y63D01*
X578Y65D01*
X576Y65D01*
X576Y67D01*
X574Y67D01*
X574Y69D01*
X572Y69D01*
X572Y73D01*
X570Y73D01*
X570Y77D01*
X568Y77D01*
X568Y83D01*
X566Y83D01*
X566Y89D01*
X568Y89D01*
X568Y97D01*
X570Y97D01*
X570Y99D01*
X572Y99D01*
X572Y119D01*
X138Y119D01*
G37*
D02*
G36*
X722Y119D02*
X722Y117D01*
X1844Y117D01*
X1844Y119D01*
X722Y119D01*
G37*
D02*
G36*
X722Y119D02*
X722Y117D01*
X1844Y117D01*
X1844Y119D01*
X722Y119D01*
G37*
D02*
G36*
X722Y119D02*
X722Y117D01*
X1844Y117D01*
X1844Y119D01*
X722Y119D01*
G37*
D02*
G36*
X722Y119D02*
X722Y117D01*
X1844Y117D01*
X1844Y119D01*
X722Y119D01*
G37*
D02*
G36*
X722Y119D02*
X722Y117D01*
X1844Y117D01*
X1844Y119D01*
X722Y119D01*
G37*
D02*
G36*
X722Y119D02*
X722Y117D01*
X1844Y117D01*
X1844Y119D01*
X722Y119D01*
G37*
D02*
G36*
X722Y119D02*
X722Y117D01*
X1844Y117D01*
X1844Y119D01*
X722Y119D01*
G37*
D02*
G36*
X722Y119D02*
X722Y117D01*
X1844Y117D01*
X1844Y119D01*
X722Y119D01*
G37*
D02*
G36*
X722Y119D02*
X722Y117D01*
X1844Y117D01*
X1844Y119D01*
X722Y119D01*
G37*
D02*
G36*
X722Y117D02*
X722Y99D01*
X724Y99D01*
X724Y95D01*
X726Y95D01*
X726Y83D01*
X724Y83D01*
X724Y77D01*
X722Y77D01*
X722Y75D01*
X720Y75D01*
X720Y71D01*
X718Y71D01*
X718Y69D01*
X716Y69D01*
X716Y67D01*
X714Y67D01*
X714Y65D01*
X712Y65D01*
X712Y63D01*
X708Y63D01*
X708Y61D01*
X702Y61D01*
X702Y41D01*
X1838Y41D01*
X1838Y61D01*
X1836Y61D01*
X1836Y67D01*
X1834Y67D01*
X1834Y73D01*
X1832Y73D01*
X1832Y95D01*
X1834Y95D01*
X1834Y101D01*
X1836Y101D01*
X1836Y107D01*
X1838Y107D01*
X1838Y109D01*
X1840Y109D01*
X1840Y113D01*
X1842Y113D01*
X1842Y115D01*
X1844Y115D01*
X1844Y117D01*
X722Y117D01*
G37*
D02*
G36*
X614Y65D02*
X614Y63D01*
X612Y63D01*
X612Y61D01*
X608Y61D01*
X608Y41D01*
X690Y41D01*
X690Y61D01*
X684Y61D01*
X684Y63D01*
X682Y63D01*
X682Y65D01*
X614Y65D01*
G37*
D02*
G36*
X1803Y1829D02*
X1848Y1829D01*
X1848Y1795D01*
X1803Y1795D01*
X1803Y1829D01*
G37*
D02*
G36*
X1774Y1798D02*
X1806Y1798D01*
X1806Y1753D01*
X1774Y1753D01*
X1774Y1798D01*
G37*
D02*
G36*
X1495Y1883D02*
X1548Y1883D01*
X1548Y1841D01*
X1495Y1841D01*
X1495Y1883D01*
G37*
D02*
G36*
X1466Y1854D02*
X1508Y1854D01*
X1508Y1801D01*
X1466Y1801D01*
X1466Y1854D01*
G37*
D02*
G36*
X1430Y1257D02*
X1477Y1257D01*
X1477Y1223D01*
X1430Y1223D01*
X1430Y1257D01*
G37*
D02*
G36*
X1474Y1301D02*
X1506Y1301D01*
X1506Y1254D01*
X1474Y1254D01*
X1474Y1301D01*
G37*
D02*
G36*
X1296Y687D02*
X1339Y687D01*
X1339Y655D01*
X1296Y655D01*
X1296Y687D01*
G37*
D02*
G36*
X1670Y593D02*
X1717Y593D01*
X1717Y561D01*
X1670Y561D01*
X1670Y593D01*
G37*
D02*
G36*
X1711Y223D02*
X1756Y223D01*
X1756Y191D01*
X1711Y191D01*
X1711Y223D01*
G37*
D02*
G36*
X787Y225D02*
X832Y225D01*
X832Y193D01*
X787Y193D01*
X787Y225D01*
G37*
D02*
G36*
X1063Y1379D02*
X1060Y1379D01*
X1060Y1376D01*
X1049Y1376D01*
X1049Y1379D01*
X1045Y1379D01*
X1045Y1383D01*
X1041Y1383D01*
X1041Y1394D01*
X1045Y1394D01*
X1045Y1398D01*
X1049Y1398D01*
X1049Y1401D01*
X1056Y1401D01*
X1056Y1398D01*
X1060Y1398D01*
X1060Y1394D01*
X1063Y1394D01*
X1063Y1379D01*
G37*
D02*
G36*
X1056Y1663D02*
X967Y1663D01*
X967Y1685D01*
X1056Y1685D01*
X1056Y1663D01*
G37*
D02*
G36*
X1056Y1704D02*
X1012Y1704D01*
X1012Y1755D01*
X1015Y1755D01*
X1015Y1752D01*
X1019Y1752D01*
X1019Y1748D01*
X1023Y1748D01*
X1023Y1744D01*
X1026Y1744D01*
X1026Y1741D01*
X1030Y1741D01*
X1030Y1737D01*
X1034Y1737D01*
X1034Y1733D01*
X1038Y1733D01*
X1038Y1730D01*
X1041Y1730D01*
X1041Y1726D01*
X1045Y1726D01*
X1045Y1722D01*
X1049Y1722D01*
X1049Y1719D01*
X1052Y1719D01*
X1052Y1715D01*
X1056Y1715D01*
X1056Y1704D01*
G37*
D02*
G36*
X1056Y1759D02*
X1012Y1759D01*
X1012Y1781D01*
X1056Y1781D01*
X1056Y1759D01*
G37*
D02*
G36*
X1012Y1704D02*
X1008Y1704D01*
X1008Y1781D01*
X1012Y1781D01*
X1012Y1704D01*
G37*
D02*
G36*
X1012Y1704D02*
X1008Y1704D01*
X1008Y1781D01*
X1012Y1781D01*
X1012Y1704D01*
G37*
D02*
G36*
X1008Y1704D02*
X967Y1704D01*
X967Y1726D01*
X1008Y1726D01*
X1008Y1704D01*
G37*
D02*
G36*
X1008Y1733D02*
X1004Y1733D01*
X1004Y1737D01*
X1001Y1737D01*
X1001Y1741D01*
X997Y1741D01*
X997Y1744D01*
X993Y1744D01*
X993Y1748D01*
X990Y1748D01*
X990Y1752D01*
X986Y1752D01*
X986Y1755D01*
X982Y1755D01*
X982Y1759D01*
X979Y1759D01*
X979Y1763D01*
X975Y1763D01*
X975Y1767D01*
X971Y1767D01*
X971Y1770D01*
X967Y1770D01*
X967Y1781D01*
X1008Y1781D01*
X1008Y1733D01*
G37*
D02*
G36*
X1056Y1829D02*
X1052Y1829D01*
X1052Y1818D01*
X1049Y1818D01*
X1049Y1811D01*
X1045Y1811D01*
X1045Y1807D01*
X1041Y1807D01*
X1041Y1803D01*
X1038Y1803D01*
X1038Y1800D01*
X1034Y1800D01*
X1034Y1848D01*
X1030Y1848D01*
X1030Y1851D01*
X1026Y1851D01*
X1026Y1855D01*
X1030Y1855D01*
X1030Y1859D01*
X1034Y1859D01*
X1034Y1862D01*
X1038Y1862D01*
X1038Y1866D01*
X1041Y1866D01*
X1041Y1870D01*
X1045Y1870D01*
X1045Y1862D01*
X1049Y1862D01*
X1049Y1859D01*
X1052Y1859D01*
X1052Y1848D01*
X1056Y1848D01*
X1056Y1829D01*
G37*
D02*
G36*
X1034Y1800D02*
X1030Y1800D01*
X1030Y1796D01*
X1019Y1796D01*
X1019Y1792D01*
X1004Y1792D01*
X1004Y1796D01*
X993Y1796D01*
X993Y1800D01*
X990Y1800D01*
X990Y1826D01*
X993Y1826D01*
X993Y1822D01*
X997Y1822D01*
X997Y1818D01*
X1004Y1818D01*
X1004Y1815D01*
X1019Y1815D01*
X1019Y1818D01*
X1026Y1818D01*
X1026Y1822D01*
X1030Y1822D01*
X1030Y1829D01*
X1034Y1829D01*
X1034Y1800D01*
G37*
D02*
G36*
X1012Y1840D02*
X1001Y1840D01*
X1001Y1855D01*
X993Y1855D01*
X993Y1851D01*
X990Y1851D01*
X990Y1877D01*
X993Y1877D01*
X993Y1881D01*
X1008Y1881D01*
X1008Y1885D01*
X1012Y1885D01*
X1012Y1840D01*
G37*
D02*
G36*
X990Y1800D02*
X986Y1800D01*
X986Y1877D01*
X990Y1877D01*
X990Y1800D01*
G37*
D02*
G36*
X990Y1800D02*
X986Y1800D01*
X986Y1877D01*
X990Y1877D01*
X990Y1800D01*
G37*
D02*
G36*
X986Y1803D02*
X982Y1803D01*
X982Y1807D01*
X979Y1807D01*
X979Y1811D01*
X975Y1811D01*
X975Y1815D01*
X971Y1815D01*
X971Y1822D01*
X967Y1822D01*
X967Y1855D01*
X971Y1855D01*
X971Y1862D01*
X975Y1862D01*
X975Y1866D01*
X979Y1866D01*
X979Y1870D01*
X982Y1870D01*
X982Y1874D01*
X986Y1874D01*
X986Y1803D01*
G37*
D02*
G36*
X1137Y1280D02*
X1133Y1280D01*
X1133Y1269D01*
X1130Y1269D01*
X1130Y1261D01*
X1126Y1261D01*
X1126Y1309D01*
X1122Y1309D01*
X1122Y1324D01*
X1119Y1324D01*
X1119Y1335D01*
X1115Y1335D01*
X1115Y1346D01*
X1111Y1346D01*
X1111Y1357D01*
X1108Y1357D01*
X1108Y1364D01*
X1104Y1364D01*
X1104Y1394D01*
X1108Y1394D01*
X1108Y1379D01*
X1111Y1379D01*
X1111Y1368D01*
X1115Y1368D01*
X1115Y1361D01*
X1119Y1361D01*
X1119Y1350D01*
X1122Y1350D01*
X1122Y1339D01*
X1126Y1339D01*
X1126Y1331D01*
X1130Y1331D01*
X1130Y1320D01*
X1133Y1320D01*
X1133Y1305D01*
X1137Y1305D01*
X1137Y1280D01*
G37*
D02*
G36*
X1126Y1258D02*
X1122Y1258D01*
X1122Y1254D01*
X1119Y1254D01*
X1119Y1250D01*
X1115Y1250D01*
X1115Y1246D01*
X1108Y1246D01*
X1108Y1243D01*
X1093Y1243D01*
X1093Y1246D01*
X1082Y1246D01*
X1082Y1250D01*
X1078Y1250D01*
X1078Y1254D01*
X1074Y1254D01*
X1074Y1258D01*
X1071Y1258D01*
X1071Y1265D01*
X1074Y1265D01*
X1074Y1261D01*
X1082Y1261D01*
X1082Y1258D01*
X1089Y1258D01*
X1089Y1254D01*
X1104Y1254D01*
X1104Y1258D01*
X1111Y1258D01*
X1111Y1261D01*
X1115Y1261D01*
X1115Y1265D01*
X1119Y1265D01*
X1119Y1269D01*
X1122Y1269D01*
X1122Y1276D01*
X1126Y1276D01*
X1126Y1258D01*
G37*
D02*
G36*
X1115Y1435D02*
X1111Y1435D01*
X1111Y1416D01*
X1108Y1416D01*
X1108Y1497D01*
X1104Y1497D01*
X1104Y1516D01*
X1100Y1516D01*
X1100Y1527D01*
X1093Y1527D01*
X1093Y1549D01*
X1097Y1549D01*
X1097Y1545D01*
X1100Y1545D01*
X1100Y1538D01*
X1104Y1538D01*
X1104Y1530D01*
X1108Y1530D01*
X1108Y1519D01*
X1111Y1519D01*
X1111Y1505D01*
X1115Y1505D01*
X1115Y1435D01*
G37*
D02*
G36*
X1108Y1405D02*
X1104Y1405D01*
X1104Y1442D01*
X1108Y1442D01*
X1108Y1405D01*
G37*
D02*
G36*
X1104Y1376D02*
X1100Y1376D01*
X1100Y1424D01*
X1104Y1424D01*
X1104Y1376D01*
G37*
D02*
G36*
X1104Y1376D02*
X1100Y1376D01*
X1100Y1424D01*
X1104Y1424D01*
X1104Y1376D01*
G37*
D02*
G36*
X1100Y1379D02*
X1097Y1379D01*
X1097Y1376D01*
X1093Y1376D01*
X1093Y1368D01*
X1089Y1368D01*
X1089Y1361D01*
X1086Y1361D01*
X1086Y1353D01*
X1082Y1353D01*
X1082Y1346D01*
X1078Y1346D01*
X1078Y1342D01*
X1074Y1342D01*
X1074Y1339D01*
X1071Y1339D01*
X1071Y1331D01*
X1067Y1331D01*
X1067Y1328D01*
X1063Y1328D01*
X1063Y1324D01*
X1060Y1324D01*
X1060Y1320D01*
X1056Y1320D01*
X1056Y1317D01*
X1052Y1317D01*
X1052Y1313D01*
X1049Y1313D01*
X1049Y1309D01*
X1045Y1309D01*
X1045Y1305D01*
X1041Y1305D01*
X1041Y1302D01*
X1034Y1302D01*
X1034Y1298D01*
X1030Y1298D01*
X1030Y1313D01*
X1038Y1313D01*
X1038Y1317D01*
X1041Y1317D01*
X1041Y1320D01*
X1045Y1320D01*
X1045Y1324D01*
X1049Y1324D01*
X1049Y1328D01*
X1052Y1328D01*
X1052Y1331D01*
X1056Y1331D01*
X1056Y1335D01*
X1060Y1335D01*
X1060Y1339D01*
X1063Y1339D01*
X1063Y1346D01*
X1067Y1346D01*
X1067Y1350D01*
X1071Y1350D01*
X1071Y1357D01*
X1074Y1357D01*
X1074Y1361D01*
X1078Y1361D01*
X1078Y1368D01*
X1082Y1368D01*
X1082Y1376D01*
X1086Y1376D01*
X1086Y1383D01*
X1089Y1383D01*
X1089Y1390D01*
X1093Y1390D01*
X1093Y1457D01*
X1097Y1457D01*
X1097Y1427D01*
X1100Y1427D01*
X1100Y1379D01*
G37*
D02*
G36*
X1093Y1412D02*
X1089Y1412D01*
X1089Y1553D01*
X1093Y1553D01*
X1093Y1412D01*
G37*
D02*
G36*
X1093Y1412D02*
X1089Y1412D01*
X1089Y1553D01*
X1093Y1553D01*
X1093Y1412D01*
G37*
D02*
G36*
X1089Y1427D02*
X1086Y1427D01*
X1086Y1449D01*
X1082Y1449D01*
X1082Y1530D01*
X1086Y1530D01*
X1086Y1545D01*
X1089Y1545D01*
X1089Y1427D01*
G37*
D02*
G36*
X1089Y1630D02*
X1086Y1630D01*
X1086Y1623D01*
X1082Y1623D01*
X1082Y1615D01*
X1078Y1615D01*
X1078Y1634D01*
X1071Y1634D01*
X1071Y1630D01*
X1067Y1630D01*
X1067Y1626D01*
X1063Y1626D01*
X1063Y1623D01*
X1056Y1623D01*
X1056Y1619D01*
X1052Y1619D01*
X1052Y1615D01*
X1049Y1615D01*
X1049Y1612D01*
X1045Y1612D01*
X1045Y1608D01*
X1041Y1608D01*
X1041Y1604D01*
X1038Y1604D01*
X1038Y1601D01*
X1034Y1601D01*
X1034Y1597D01*
X1030Y1597D01*
X1030Y1593D01*
X1026Y1593D01*
X1026Y1589D01*
X1023Y1589D01*
X1023Y1601D01*
X1026Y1601D01*
X1026Y1604D01*
X1030Y1604D01*
X1030Y1608D01*
X1034Y1608D01*
X1034Y1612D01*
X1038Y1612D01*
X1038Y1615D01*
X1041Y1615D01*
X1041Y1619D01*
X1045Y1619D01*
X1045Y1623D01*
X1049Y1623D01*
X1049Y1626D01*
X1052Y1626D01*
X1052Y1630D01*
X1056Y1630D01*
X1056Y1634D01*
X1060Y1634D01*
X1060Y1637D01*
X1067Y1637D01*
X1067Y1641D01*
X1074Y1641D01*
X1074Y1645D01*
X1086Y1645D01*
X1086Y1641D01*
X1089Y1641D01*
X1089Y1630D01*
G37*
D02*
G36*
X1086Y1560D02*
X1082Y1560D01*
X1082Y1553D01*
X1078Y1553D01*
X1078Y1571D01*
X1071Y1571D01*
X1071Y1567D01*
X1067Y1567D01*
X1067Y1564D01*
X1063Y1564D01*
X1063Y1560D01*
X1060Y1560D01*
X1060Y1556D01*
X1052Y1556D01*
X1052Y1553D01*
X1049Y1553D01*
X1049Y1549D01*
X1045Y1549D01*
X1045Y1545D01*
X1041Y1545D01*
X1041Y1542D01*
X1038Y1542D01*
X1038Y1538D01*
X1034Y1538D01*
X1034Y1534D01*
X1030Y1534D01*
X1030Y1530D01*
X1026Y1530D01*
X1026Y1527D01*
X1023Y1527D01*
X1023Y1523D01*
X1019Y1523D01*
X1019Y1519D01*
X1015Y1519D01*
X1015Y1534D01*
X1019Y1534D01*
X1019Y1538D01*
X1023Y1538D01*
X1023Y1542D01*
X1026Y1542D01*
X1026Y1545D01*
X1030Y1545D01*
X1030Y1549D01*
X1034Y1549D01*
X1034Y1553D01*
X1041Y1553D01*
X1041Y1556D01*
X1045Y1556D01*
X1045Y1560D01*
X1049Y1560D01*
X1049Y1564D01*
X1052Y1564D01*
X1052Y1567D01*
X1056Y1567D01*
X1056Y1571D01*
X1063Y1571D01*
X1063Y1575D01*
X1067Y1575D01*
X1067Y1578D01*
X1074Y1578D01*
X1074Y1582D01*
X1082Y1582D01*
X1082Y1578D01*
X1086Y1578D01*
X1086Y1560D01*
G37*
D02*
G36*
X1078Y1545D02*
X1074Y1545D01*
X1074Y1542D01*
X1071Y1542D01*
X1071Y1534D01*
X1067Y1534D01*
X1067Y1530D01*
X1063Y1530D01*
X1063Y1527D01*
X1060Y1527D01*
X1060Y1523D01*
X1052Y1523D01*
X1052Y1519D01*
X1049Y1519D01*
X1049Y1516D01*
X1041Y1516D01*
X1041Y1512D01*
X1034Y1512D01*
X1034Y1508D01*
X1023Y1508D01*
X1023Y1505D01*
X1015Y1505D01*
X1015Y1516D01*
X1026Y1516D01*
X1026Y1519D01*
X1034Y1519D01*
X1034Y1523D01*
X1041Y1523D01*
X1041Y1527D01*
X1045Y1527D01*
X1045Y1530D01*
X1049Y1530D01*
X1049Y1534D01*
X1056Y1534D01*
X1056Y1538D01*
X1060Y1538D01*
X1060Y1542D01*
X1063Y1542D01*
X1063Y1545D01*
X1067Y1545D01*
X1067Y1553D01*
X1071Y1553D01*
X1071Y1556D01*
X1074Y1556D01*
X1074Y1564D01*
X1078Y1564D01*
X1078Y1545D01*
G37*
D02*
G36*
X1078Y1612D02*
X1074Y1612D01*
X1074Y1604D01*
X1071Y1604D01*
X1071Y1601D01*
X1067Y1601D01*
X1067Y1597D01*
X1060Y1597D01*
X1060Y1593D01*
X1056Y1593D01*
X1056Y1589D01*
X1052Y1589D01*
X1052Y1586D01*
X1045Y1586D01*
X1045Y1582D01*
X1041Y1582D01*
X1041Y1578D01*
X1034Y1578D01*
X1034Y1575D01*
X1030Y1575D01*
X1030Y1571D01*
X1023Y1571D01*
X1023Y1582D01*
X1030Y1582D01*
X1030Y1586D01*
X1038Y1586D01*
X1038Y1589D01*
X1041Y1589D01*
X1041Y1593D01*
X1049Y1593D01*
X1049Y1597D01*
X1052Y1597D01*
X1052Y1601D01*
X1056Y1601D01*
X1056Y1604D01*
X1060Y1604D01*
X1060Y1608D01*
X1063Y1608D01*
X1063Y1612D01*
X1067Y1612D01*
X1067Y1615D01*
X1071Y1615D01*
X1071Y1623D01*
X1074Y1623D01*
X1074Y1626D01*
X1078Y1626D01*
X1078Y1612D01*
G37*
D02*
G36*
X1034Y1324D02*
X1030Y1324D01*
X1030Y1350D01*
X1034Y1350D01*
X1034Y1324D01*
G37*
D02*
G36*
X1030Y1294D02*
X1026Y1294D01*
X1026Y1357D01*
X1030Y1357D01*
X1030Y1294D01*
G37*
D02*
G36*
X1030Y1294D02*
X1026Y1294D01*
X1026Y1357D01*
X1030Y1357D01*
X1030Y1294D01*
G37*
D02*
G36*
X1026Y1283D02*
X1023Y1283D01*
X1023Y1350D01*
X1015Y1350D01*
X1015Y1346D01*
X1008Y1346D01*
X1008Y1342D01*
X1004Y1342D01*
X1004Y1339D01*
X997Y1339D01*
X997Y1335D01*
X990Y1335D01*
X990Y1331D01*
X982Y1331D01*
X982Y1328D01*
X971Y1328D01*
X971Y1342D01*
X979Y1342D01*
X979Y1346D01*
X990Y1346D01*
X990Y1350D01*
X997Y1350D01*
X997Y1353D01*
X1004Y1353D01*
X1004Y1357D01*
X1012Y1357D01*
X1012Y1361D01*
X1026Y1361D01*
X1026Y1283D01*
G37*
D02*
G36*
X1023Y1269D02*
X1019Y1269D01*
X1019Y1283D01*
X1012Y1283D01*
X1012Y1280D01*
X1008Y1280D01*
X1008Y1276D01*
X1001Y1276D01*
X1001Y1272D01*
X997Y1272D01*
X997Y1269D01*
X993Y1269D01*
X993Y1265D01*
X990Y1265D01*
X990Y1261D01*
X986Y1261D01*
X986Y1258D01*
X979Y1258D01*
X979Y1254D01*
X975Y1254D01*
X975Y1250D01*
X971Y1250D01*
X971Y1246D01*
X967Y1246D01*
X967Y1243D01*
X964Y1243D01*
X964Y1239D01*
X960Y1239D01*
X960Y1235D01*
X956Y1235D01*
X956Y1232D01*
X953Y1232D01*
X953Y1228D01*
X949Y1228D01*
X949Y1221D01*
X945Y1221D01*
X945Y1217D01*
X942Y1217D01*
X942Y1206D01*
X938Y1206D01*
X938Y1191D01*
X934Y1191D01*
X934Y1228D01*
X938Y1228D01*
X938Y1232D01*
X942Y1232D01*
X942Y1235D01*
X945Y1235D01*
X945Y1239D01*
X949Y1239D01*
X949Y1243D01*
X953Y1243D01*
X953Y1246D01*
X956Y1246D01*
X956Y1250D01*
X960Y1250D01*
X960Y1254D01*
X964Y1254D01*
X964Y1258D01*
X967Y1258D01*
X967Y1261D01*
X971Y1261D01*
X971Y1265D01*
X975Y1265D01*
X975Y1269D01*
X982Y1269D01*
X982Y1272D01*
X986Y1272D01*
X986Y1276D01*
X990Y1276D01*
X990Y1280D01*
X993Y1280D01*
X993Y1283D01*
X1001Y1283D01*
X1001Y1287D01*
X1004Y1287D01*
X1004Y1291D01*
X1008Y1291D01*
X1008Y1294D01*
X1012Y1294D01*
X1012Y1298D01*
X1019Y1298D01*
X1019Y1302D01*
X1023Y1302D01*
X1023Y1269D01*
G37*
D02*
G36*
X1023Y1571D02*
X1019Y1571D01*
X1019Y1597D01*
X1023Y1597D01*
X1023Y1571D01*
G37*
D02*
G36*
X1023Y1571D02*
X1019Y1571D01*
X1019Y1597D01*
X1023Y1597D01*
X1023Y1571D01*
G37*
D02*
G36*
X1019Y1265D02*
X1015Y1265D01*
X1015Y1280D01*
X1019Y1280D01*
X1019Y1265D01*
G37*
D02*
G36*
X1019Y1567D02*
X1008Y1567D01*
X1008Y1564D01*
X1001Y1564D01*
X1001Y1556D01*
X997Y1556D01*
X997Y1553D01*
X993Y1553D01*
X993Y1549D01*
X990Y1549D01*
X990Y1564D01*
X975Y1564D01*
X975Y1575D01*
X990Y1575D01*
X990Y1571D01*
X997Y1571D01*
X997Y1575D01*
X1004Y1575D01*
X1004Y1578D01*
X1008Y1578D01*
X1008Y1582D01*
X1012Y1582D01*
X1012Y1589D01*
X1015Y1589D01*
X1015Y1593D01*
X1019Y1593D01*
X1019Y1567D01*
G37*
D02*
G36*
X1015Y1479D02*
X1012Y1479D01*
X1012Y1501D01*
X1015Y1501D01*
X1015Y1479D01*
G37*
D02*
G36*
X1015Y1505D02*
X1012Y1505D01*
X1012Y1530D01*
X1015Y1530D01*
X1015Y1505D01*
G37*
D02*
G36*
X1015Y1505D02*
X1012Y1505D01*
X1012Y1530D01*
X1015Y1530D01*
X1015Y1505D01*
G37*
D02*
G36*
X1012Y1471D02*
X1008Y1471D01*
X1008Y1527D01*
X1012Y1527D01*
X1012Y1471D01*
G37*
D02*
G36*
X1012Y1471D02*
X1008Y1471D01*
X1008Y1527D01*
X1012Y1527D01*
X1012Y1471D01*
G37*
D02*
G36*
X1008Y1464D02*
X1004Y1464D01*
X1004Y1460D01*
X1001Y1460D01*
X1001Y1457D01*
X997Y1457D01*
X997Y1453D01*
X990Y1453D01*
X990Y1449D01*
X986Y1449D01*
X986Y1446D01*
X975Y1446D01*
X975Y1457D01*
X982Y1457D01*
X982Y1460D01*
X990Y1460D01*
X990Y1464D01*
X993Y1464D01*
X993Y1468D01*
X997Y1468D01*
X997Y1471D01*
X1001Y1471D01*
X1001Y1475D01*
X1004Y1475D01*
X1004Y1483D01*
X1008Y1483D01*
X1008Y1464D01*
G37*
D02*
G36*
X1008Y1497D02*
X1004Y1497D01*
X1004Y1501D01*
X1001Y1501D01*
X1001Y1497D01*
X997Y1497D01*
X997Y1494D01*
X993Y1494D01*
X993Y1490D01*
X990Y1490D01*
X990Y1505D01*
X979Y1505D01*
X979Y1516D01*
X982Y1516D01*
X982Y1512D01*
X1001Y1512D01*
X1001Y1519D01*
X1004Y1519D01*
X1004Y1523D01*
X1008Y1523D01*
X1008Y1497D01*
G37*
D02*
G36*
X1001Y1387D02*
X997Y1387D01*
X997Y1383D01*
X993Y1383D01*
X993Y1376D01*
X990Y1376D01*
X990Y1372D01*
X986Y1372D01*
X986Y1394D01*
X1001Y1394D01*
X1001Y1387D01*
G37*
D02*
G36*
X1001Y1416D02*
X997Y1416D01*
X997Y1409D01*
X993Y1409D01*
X993Y1401D01*
X990Y1401D01*
X990Y1427D01*
X982Y1427D01*
X982Y1431D01*
X975Y1431D01*
X975Y1438D01*
X990Y1438D01*
X990Y1435D01*
X997Y1435D01*
X997Y1431D01*
X1001Y1431D01*
X1001Y1416D01*
G37*
D02*
G36*
X990Y1173D02*
X986Y1173D01*
X986Y1165D01*
X982Y1165D01*
X982Y1162D01*
X979Y1162D01*
X979Y1158D01*
X971Y1158D01*
X971Y1154D01*
X942Y1154D01*
X942Y1158D01*
X938Y1158D01*
X938Y1162D01*
X934Y1162D01*
X934Y1180D01*
X938Y1180D01*
X938Y1173D01*
X942Y1173D01*
X942Y1169D01*
X945Y1169D01*
X945Y1165D01*
X967Y1165D01*
X967Y1169D01*
X975Y1169D01*
X975Y1173D01*
X979Y1173D01*
X979Y1176D01*
X982Y1176D01*
X982Y1180D01*
X990Y1180D01*
X990Y1173D01*
G37*
D02*
G36*
X990Y1398D02*
X986Y1398D01*
X986Y1420D01*
X990Y1420D01*
X990Y1398D01*
G37*
D02*
G36*
X990Y1486D02*
X986Y1486D01*
X986Y1483D01*
X982Y1483D01*
X982Y1475D01*
X979Y1475D01*
X979Y1471D01*
X975Y1471D01*
X975Y1464D01*
X971Y1464D01*
X971Y1460D01*
X967Y1460D01*
X967Y1475D01*
X971Y1475D01*
X971Y1483D01*
X975Y1483D01*
X975Y1486D01*
X979Y1486D01*
X979Y1490D01*
X982Y1490D01*
X982Y1497D01*
X986Y1497D01*
X986Y1501D01*
X990Y1501D01*
X990Y1486D01*
G37*
D02*
G36*
X990Y1542D02*
X986Y1542D01*
X986Y1534D01*
X982Y1534D01*
X982Y1530D01*
X979Y1530D01*
X979Y1545D01*
X982Y1545D01*
X982Y1553D01*
X986Y1553D01*
X986Y1556D01*
X990Y1556D01*
X990Y1542D01*
G37*
D02*
G36*
X986Y1364D02*
X982Y1364D01*
X982Y1412D01*
X986Y1412D01*
X986Y1364D01*
G37*
D02*
G36*
X986Y1364D02*
X982Y1364D01*
X982Y1412D01*
X986Y1412D01*
X986Y1364D01*
G37*
D02*
G36*
X986Y1593D02*
X982Y1593D01*
X982Y1589D01*
X979Y1589D01*
X979Y1582D01*
X975Y1582D01*
X975Y1601D01*
X982Y1601D01*
X982Y1604D01*
X986Y1604D01*
X986Y1593D01*
G37*
D02*
G36*
X982Y1361D02*
X979Y1361D01*
X979Y1376D01*
X967Y1376D01*
X967Y1372D01*
X960Y1372D01*
X960Y1383D01*
X964Y1383D01*
X964Y1387D01*
X967Y1387D01*
X967Y1394D01*
X971Y1394D01*
X971Y1398D01*
X975Y1398D01*
X975Y1401D01*
X979Y1401D01*
X979Y1409D01*
X982Y1409D01*
X982Y1361D01*
G37*
D02*
G36*
X979Y1353D02*
X975Y1353D01*
X975Y1346D01*
X971Y1346D01*
X971Y1364D01*
X975Y1364D01*
X975Y1368D01*
X979Y1368D01*
X979Y1353D01*
G37*
D02*
G36*
X979Y1505D02*
X975Y1505D01*
X975Y1542D01*
X979Y1542D01*
X979Y1505D01*
G37*
D02*
G36*
X979Y1505D02*
X975Y1505D01*
X975Y1542D01*
X979Y1542D01*
X979Y1505D01*
G37*
D02*
G36*
X975Y1431D02*
X971Y1431D01*
X971Y1453D01*
X975Y1453D01*
X975Y1431D01*
G37*
D02*
G36*
X975Y1431D02*
X971Y1431D01*
X971Y1453D01*
X975Y1453D01*
X975Y1431D01*
G37*
D02*
G36*
X975Y1508D02*
X967Y1508D01*
X967Y1512D01*
X964Y1512D01*
X964Y1519D01*
X967Y1519D01*
X967Y1530D01*
X971Y1530D01*
X971Y1534D01*
X975Y1534D01*
X975Y1508D01*
G37*
D02*
G36*
X975Y1564D02*
X971Y1564D01*
X971Y1593D01*
X975Y1593D01*
X975Y1564D01*
G37*
D02*
G36*
X975Y1564D02*
X971Y1564D01*
X971Y1593D01*
X975Y1593D01*
X975Y1564D01*
G37*
D02*
G36*
X971Y1328D02*
X967Y1328D01*
X967Y1357D01*
X971Y1357D01*
X971Y1328D01*
G37*
D02*
G36*
X971Y1328D02*
X967Y1328D01*
X967Y1357D01*
X971Y1357D01*
X971Y1328D01*
G37*
D02*
G36*
X971Y1435D02*
X967Y1435D01*
X967Y1453D01*
X971Y1453D01*
X971Y1435D01*
G37*
D02*
G36*
X971Y1564D02*
X967Y1564D01*
X967Y1567D01*
X964Y1567D01*
X964Y1582D01*
X967Y1582D01*
X967Y1589D01*
X971Y1589D01*
X971Y1564D01*
G37*
D02*
G36*
X967Y1328D02*
X964Y1328D01*
X964Y1331D01*
X960Y1331D01*
X960Y1339D01*
X964Y1339D01*
X964Y1350D01*
X967Y1350D01*
X967Y1328D01*
G37*
D02*
G36*
X967Y1435D02*
X964Y1435D01*
X964Y1471D01*
X967Y1471D01*
X967Y1435D01*
G37*
D02*
G36*
X967Y1435D02*
X964Y1435D01*
X964Y1471D01*
X967Y1471D01*
X967Y1435D01*
G37*
D02*
G36*
X964Y1438D02*
X960Y1438D01*
X960Y1442D01*
X956Y1442D01*
X956Y1457D01*
X960Y1457D01*
X960Y1464D01*
X964Y1464D01*
X964Y1438D01*
G37*
D02*
G36*
X934Y1165D02*
X931Y1165D01*
X931Y1221D01*
X934Y1221D01*
X934Y1165D01*
G37*
D02*
G36*
X934Y1165D02*
X931Y1165D01*
X931Y1221D01*
X934Y1221D01*
X934Y1165D01*
G37*
D02*
G36*
X931Y1169D02*
X927Y1169D01*
X927Y1180D01*
X923Y1180D01*
X923Y1202D01*
X927Y1202D01*
X927Y1213D01*
X931Y1213D01*
X931Y1169D01*
G37*
D02*
G36*
X990Y1626D02*
X986Y1626D01*
X986Y1623D01*
X971Y1623D01*
X971Y1626D01*
X967Y1626D01*
X967Y1641D01*
X971Y1641D01*
X971Y1645D01*
X986Y1645D01*
X986Y1637D01*
X990Y1637D01*
X990Y1626D01*
G37*
D02*
G54D21*
X883Y1885D02*
X884Y1885D01*
X881Y1884D02*
X885Y1884D01*
X880Y1883D02*
X886Y1883D01*
X880Y1882D02*
X886Y1882D01*
X880Y1881D02*
X887Y1881D01*
X880Y1880D02*
X887Y1880D01*
X880Y1879D02*
X887Y1879D01*
X880Y1878D02*
X887Y1878D01*
X880Y1877D02*
X887Y1877D01*
X880Y1876D02*
X887Y1876D01*
X880Y1875D02*
X887Y1875D01*
X880Y1874D02*
X887Y1874D01*
X880Y1873D02*
X936Y1873D01*
X880Y1872D02*
X937Y1872D01*
X880Y1871D02*
X938Y1871D01*
X880Y1870D02*
X938Y1870D01*
X880Y1869D02*
X938Y1869D01*
X880Y1868D02*
X938Y1868D01*
X880Y1867D02*
X938Y1867D01*
X880Y1866D02*
X887Y1866D01*
X931Y1866D02*
X938Y1866D01*
X880Y1865D02*
X887Y1865D01*
X931Y1865D02*
X938Y1865D01*
X880Y1864D02*
X887Y1864D01*
X931Y1864D02*
X938Y1864D01*
X880Y1863D02*
X887Y1863D01*
X931Y1863D02*
X938Y1863D01*
X880Y1862D02*
X887Y1862D01*
X931Y1862D02*
X938Y1862D01*
X880Y1861D02*
X887Y1861D01*
X931Y1861D02*
X938Y1861D01*
X880Y1860D02*
X887Y1860D01*
X931Y1860D02*
X938Y1860D01*
X880Y1859D02*
X887Y1859D01*
X931Y1859D02*
X938Y1859D01*
X880Y1858D02*
X886Y1858D01*
X932Y1858D02*
X938Y1858D01*
X880Y1857D02*
X886Y1857D01*
X932Y1857D02*
X938Y1857D01*
X881Y1856D02*
X885Y1856D01*
X933Y1856D02*
X937Y1856D01*
X875Y1834D02*
X920Y1834D01*
X872Y1833D02*
X921Y1833D01*
X871Y1832D02*
X922Y1832D01*
X870Y1831D02*
X922Y1831D01*
X869Y1830D02*
X922Y1830D01*
X868Y1829D02*
X922Y1829D01*
X867Y1828D02*
X921Y1828D01*
X866Y1827D02*
X919Y1827D01*
X865Y1826D02*
X875Y1826D01*
X888Y1826D02*
X897Y1826D01*
X908Y1826D02*
X917Y1826D01*
X865Y1825D02*
X873Y1825D01*
X887Y1825D02*
X896Y1825D01*
X909Y1825D02*
X918Y1825D01*
X865Y1824D02*
X873Y1824D01*
X886Y1824D02*
X895Y1824D01*
X910Y1824D02*
X919Y1824D01*
X864Y1823D02*
X872Y1823D01*
X885Y1823D02*
X894Y1823D01*
X911Y1823D02*
X920Y1823D01*
X864Y1822D02*
X871Y1822D01*
X885Y1822D02*
X893Y1822D01*
X912Y1822D02*
X920Y1822D01*
X864Y1821D02*
X871Y1821D01*
X884Y1821D02*
X893Y1821D01*
X913Y1821D02*
X921Y1821D01*
X864Y1820D02*
X871Y1820D01*
X884Y1820D02*
X892Y1820D01*
X913Y1820D02*
X921Y1820D01*
X864Y1819D02*
X871Y1819D01*
X883Y1819D02*
X891Y1819D01*
X914Y1819D02*
X922Y1819D01*
X864Y1818D02*
X871Y1818D01*
X883Y1818D02*
X890Y1818D01*
X915Y1818D02*
X922Y1818D01*
X864Y1817D02*
X871Y1817D01*
X883Y1817D02*
X890Y1817D01*
X915Y1817D02*
X922Y1817D01*
X864Y1816D02*
X871Y1816D01*
X883Y1816D02*
X890Y1816D01*
X915Y1816D02*
X922Y1816D01*
X864Y1815D02*
X871Y1815D01*
X883Y1815D02*
X890Y1815D01*
X915Y1815D02*
X922Y1815D01*
X864Y1814D02*
X871Y1814D01*
X883Y1814D02*
X890Y1814D01*
X915Y1814D02*
X922Y1814D01*
X864Y1813D02*
X871Y1813D01*
X883Y1813D02*
X890Y1813D01*
X915Y1813D02*
X922Y1813D01*
X864Y1812D02*
X871Y1812D01*
X883Y1812D02*
X890Y1812D01*
X915Y1812D02*
X922Y1812D01*
X864Y1811D02*
X871Y1811D01*
X883Y1811D02*
X890Y1811D01*
X915Y1811D02*
X922Y1811D01*
X864Y1810D02*
X871Y1810D01*
X883Y1810D02*
X890Y1810D01*
X915Y1810D02*
X922Y1810D01*
X864Y1809D02*
X871Y1809D01*
X883Y1809D02*
X890Y1809D01*
X915Y1809D02*
X922Y1809D01*
X864Y1808D02*
X871Y1808D01*
X884Y1808D02*
X891Y1808D01*
X914Y1808D02*
X922Y1808D01*
X864Y1807D02*
X871Y1807D01*
X884Y1807D02*
X892Y1807D01*
X913Y1807D02*
X921Y1807D01*
X864Y1806D02*
X871Y1806D01*
X884Y1806D02*
X892Y1806D01*
X912Y1806D02*
X921Y1806D01*
X864Y1805D02*
X871Y1805D01*
X885Y1805D02*
X894Y1805D01*
X911Y1805D02*
X920Y1805D01*
X864Y1804D02*
X871Y1804D01*
X886Y1804D02*
X920Y1804D01*
X864Y1803D02*
X870Y1803D01*
X886Y1803D02*
X919Y1803D01*
X865Y1802D02*
X870Y1802D01*
X887Y1802D02*
X918Y1802D01*
X866Y1801D02*
X869Y1801D01*
X888Y1801D02*
X917Y1801D01*
X1593Y1801D02*
X1593Y1801D01*
X889Y1800D02*
X916Y1800D01*
X1592Y1800D02*
X1594Y1800D01*
X890Y1799D02*
X915Y1799D01*
X1591Y1799D02*
X1595Y1799D01*
X892Y1798D02*
X914Y1798D01*
X1590Y1798D02*
X1596Y1798D01*
X894Y1797D02*
X911Y1797D01*
X1589Y1797D02*
X1597Y1797D01*
X1588Y1796D02*
X1598Y1796D01*
X1587Y1795D02*
X1599Y1795D01*
X1586Y1794D02*
X1600Y1794D01*
X1585Y1793D02*
X1601Y1793D01*
X1584Y1792D02*
X1602Y1792D01*
X1583Y1791D02*
X1603Y1791D01*
X1582Y1790D02*
X1604Y1790D01*
X1581Y1789D02*
X1605Y1789D01*
X1580Y1788D02*
X1606Y1788D01*
X1579Y1787D02*
X1607Y1787D01*
X1578Y1786D02*
X1608Y1786D01*
X1577Y1785D02*
X1609Y1785D01*
X1576Y1784D02*
X1610Y1784D01*
X1575Y1783D02*
X1611Y1783D01*
X1574Y1782D02*
X1612Y1782D01*
X1573Y1781D02*
X1613Y1781D01*
X1572Y1780D02*
X1614Y1780D01*
X1571Y1779D02*
X1615Y1779D01*
X1570Y1778D02*
X1616Y1778D01*
X1569Y1777D02*
X1617Y1777D01*
X1568Y1776D02*
X1618Y1776D01*
X1567Y1775D02*
X1619Y1775D01*
X1566Y1774D02*
X1620Y1774D01*
X1565Y1773D02*
X1621Y1773D01*
X1564Y1772D02*
X1622Y1772D01*
X1563Y1771D02*
X1623Y1771D01*
X1562Y1770D02*
X1624Y1770D01*
X1561Y1769D02*
X1592Y1769D01*
X1595Y1769D02*
X1625Y1769D01*
X891Y1768D02*
X901Y1768D01*
X1560Y1768D02*
X1588Y1768D01*
X1599Y1768D02*
X1626Y1768D01*
X890Y1767D02*
X902Y1767D01*
X1559Y1767D02*
X1585Y1767D01*
X1601Y1767D02*
X1627Y1767D01*
X890Y1766D02*
X902Y1766D01*
X1558Y1766D02*
X1584Y1766D01*
X1602Y1766D02*
X1628Y1766D01*
X890Y1765D02*
X903Y1765D01*
X1557Y1765D02*
X1583Y1765D01*
X1604Y1765D02*
X1629Y1765D01*
X890Y1764D02*
X903Y1764D01*
X1556Y1764D02*
X1582Y1764D01*
X1604Y1764D02*
X1630Y1764D01*
X890Y1763D02*
X903Y1763D01*
X1555Y1763D02*
X1581Y1763D01*
X1605Y1763D02*
X1631Y1763D01*
X890Y1762D02*
X903Y1762D01*
X1554Y1762D02*
X1581Y1762D01*
X1606Y1762D02*
X1632Y1762D01*
X890Y1761D02*
X903Y1761D01*
X1553Y1761D02*
X1580Y1761D01*
X1606Y1761D02*
X1633Y1761D01*
X890Y1760D02*
X903Y1760D01*
X1552Y1760D02*
X1580Y1760D01*
X1607Y1760D02*
X1634Y1760D01*
X890Y1759D02*
X903Y1759D01*
X1551Y1759D02*
X1579Y1759D01*
X1607Y1759D02*
X1635Y1759D01*
X890Y1758D02*
X903Y1758D01*
X1550Y1758D02*
X1579Y1758D01*
X1607Y1758D02*
X1636Y1758D01*
X890Y1757D02*
X903Y1757D01*
X1549Y1757D02*
X1579Y1757D01*
X1607Y1757D02*
X1637Y1757D01*
X890Y1756D02*
X902Y1756D01*
X1548Y1756D02*
X1579Y1756D01*
X1607Y1756D02*
X1638Y1756D01*
X890Y1755D02*
X902Y1755D01*
X1548Y1755D02*
X1579Y1755D01*
X1607Y1755D02*
X1638Y1755D01*
X892Y1754D02*
X901Y1754D01*
X1549Y1754D02*
X1579Y1754D01*
X1607Y1754D02*
X1637Y1754D01*
X1550Y1753D02*
X1579Y1753D01*
X1607Y1753D02*
X1636Y1753D01*
X1551Y1752D02*
X1579Y1752D01*
X1607Y1752D02*
X1635Y1752D01*
X1552Y1751D02*
X1580Y1751D01*
X1607Y1751D02*
X1634Y1751D01*
X1553Y1750D02*
X1580Y1750D01*
X1606Y1750D02*
X1633Y1750D01*
X1554Y1749D02*
X1581Y1749D01*
X1606Y1749D02*
X1632Y1749D01*
X1555Y1748D02*
X1581Y1748D01*
X1605Y1748D02*
X1631Y1748D01*
X1556Y1747D02*
X1582Y1747D01*
X1605Y1747D02*
X1630Y1747D01*
X1557Y1746D02*
X1583Y1746D01*
X1604Y1746D02*
X1629Y1746D01*
X1558Y1745D02*
X1584Y1745D01*
X1603Y1745D02*
X1628Y1745D01*
X1559Y1744D02*
X1585Y1744D01*
X1601Y1744D02*
X1627Y1744D01*
X1560Y1743D02*
X1587Y1743D01*
X1600Y1743D02*
X1626Y1743D01*
X1561Y1742D02*
X1589Y1742D01*
X1597Y1742D02*
X1625Y1742D01*
X1562Y1741D02*
X1624Y1741D01*
X1563Y1740D02*
X1623Y1740D01*
X1564Y1739D02*
X1622Y1739D01*
X1565Y1738D02*
X1621Y1738D01*
X1566Y1737D02*
X1620Y1737D01*
X1567Y1736D02*
X1619Y1736D01*
X1568Y1735D02*
X1618Y1735D01*
X1569Y1734D02*
X1617Y1734D01*
X1570Y1733D02*
X1616Y1733D01*
X1571Y1732D02*
X1615Y1732D01*
X1572Y1731D02*
X1614Y1731D01*
X1573Y1730D02*
X1613Y1730D01*
X1574Y1729D02*
X1612Y1729D01*
X1575Y1728D02*
X1611Y1728D01*
X1576Y1727D02*
X1610Y1727D01*
X1577Y1726D02*
X1609Y1726D01*
X875Y1725D02*
X920Y1725D01*
X1578Y1725D02*
X1608Y1725D01*
X872Y1724D02*
X921Y1724D01*
X1579Y1724D02*
X1607Y1724D01*
X871Y1723D02*
X922Y1723D01*
X1580Y1723D02*
X1606Y1723D01*
X870Y1722D02*
X922Y1722D01*
X1581Y1722D02*
X1605Y1722D01*
X869Y1721D02*
X922Y1721D01*
X1582Y1721D02*
X1604Y1721D01*
X868Y1720D02*
X922Y1720D01*
X1583Y1720D02*
X1603Y1720D01*
X867Y1719D02*
X921Y1719D01*
X1584Y1719D02*
X1602Y1719D01*
X866Y1718D02*
X919Y1718D01*
X1585Y1718D02*
X1601Y1718D01*
X865Y1717D02*
X875Y1717D01*
X888Y1717D02*
X897Y1717D01*
X908Y1717D02*
X917Y1717D01*
X1586Y1717D02*
X1600Y1717D01*
X865Y1716D02*
X873Y1716D01*
X887Y1716D02*
X896Y1716D01*
X909Y1716D02*
X918Y1716D01*
X1587Y1716D02*
X1599Y1716D01*
X865Y1715D02*
X873Y1715D01*
X886Y1715D02*
X895Y1715D01*
X910Y1715D02*
X919Y1715D01*
X1588Y1715D02*
X1598Y1715D01*
X864Y1714D02*
X872Y1714D01*
X885Y1714D02*
X894Y1714D01*
X911Y1714D02*
X920Y1714D01*
X1589Y1714D02*
X1597Y1714D01*
X864Y1713D02*
X871Y1713D01*
X885Y1713D02*
X893Y1713D01*
X912Y1713D02*
X920Y1713D01*
X1590Y1713D02*
X1596Y1713D01*
X864Y1712D02*
X871Y1712D01*
X884Y1712D02*
X893Y1712D01*
X913Y1712D02*
X921Y1712D01*
X1591Y1712D02*
X1595Y1712D01*
X864Y1711D02*
X871Y1711D01*
X884Y1711D02*
X892Y1711D01*
X913Y1711D02*
X921Y1711D01*
X1592Y1711D02*
X1594Y1711D01*
X864Y1710D02*
X871Y1710D01*
X883Y1710D02*
X891Y1710D01*
X914Y1710D02*
X922Y1710D01*
X1593Y1710D02*
X1593Y1710D01*
X864Y1709D02*
X871Y1709D01*
X883Y1709D02*
X890Y1709D01*
X915Y1709D02*
X922Y1709D01*
X864Y1708D02*
X871Y1708D01*
X883Y1708D02*
X890Y1708D01*
X915Y1708D02*
X922Y1708D01*
X864Y1707D02*
X871Y1707D01*
X883Y1707D02*
X890Y1707D01*
X915Y1707D02*
X922Y1707D01*
X864Y1706D02*
X871Y1706D01*
X883Y1706D02*
X890Y1706D01*
X915Y1706D02*
X922Y1706D01*
X864Y1705D02*
X871Y1705D01*
X883Y1705D02*
X890Y1705D01*
X915Y1705D02*
X922Y1705D01*
X864Y1704D02*
X871Y1704D01*
X883Y1704D02*
X890Y1704D01*
X915Y1704D02*
X922Y1704D01*
X864Y1703D02*
X871Y1703D01*
X883Y1703D02*
X890Y1703D01*
X915Y1703D02*
X922Y1703D01*
X864Y1702D02*
X871Y1702D01*
X883Y1702D02*
X890Y1702D01*
X915Y1702D02*
X922Y1702D01*
X864Y1701D02*
X871Y1701D01*
X883Y1701D02*
X890Y1701D01*
X915Y1701D02*
X922Y1701D01*
X864Y1700D02*
X871Y1700D01*
X883Y1700D02*
X890Y1700D01*
X915Y1700D02*
X922Y1700D01*
X864Y1699D02*
X871Y1699D01*
X884Y1699D02*
X891Y1699D01*
X914Y1699D02*
X922Y1699D01*
X864Y1698D02*
X871Y1698D01*
X884Y1698D02*
X892Y1698D01*
X913Y1698D02*
X921Y1698D01*
X864Y1697D02*
X871Y1697D01*
X884Y1697D02*
X892Y1697D01*
X912Y1697D02*
X921Y1697D01*
X864Y1696D02*
X871Y1696D01*
X885Y1696D02*
X894Y1696D01*
X911Y1696D02*
X920Y1696D01*
X864Y1695D02*
X871Y1695D01*
X886Y1695D02*
X920Y1695D01*
X864Y1694D02*
X870Y1694D01*
X886Y1694D02*
X919Y1694D01*
X865Y1693D02*
X870Y1693D01*
X887Y1693D02*
X918Y1693D01*
X866Y1692D02*
X869Y1692D01*
X888Y1692D02*
X917Y1692D01*
X889Y1691D02*
X916Y1691D01*
X890Y1690D02*
X915Y1690D01*
X892Y1689D02*
X914Y1689D01*
X894Y1688D02*
X911Y1688D01*
X881Y1670D02*
X910Y1670D01*
X881Y1669D02*
X915Y1669D01*
X880Y1668D02*
X917Y1668D01*
X880Y1667D02*
X918Y1667D01*
X880Y1666D02*
X919Y1666D01*
X881Y1665D02*
X920Y1665D01*
X882Y1664D02*
X921Y1664D01*
X892Y1663D02*
X921Y1663D01*
X913Y1662D02*
X921Y1662D01*
X914Y1661D02*
X922Y1661D01*
X915Y1660D02*
X922Y1660D01*
X915Y1659D02*
X922Y1659D01*
X915Y1658D02*
X922Y1658D01*
X915Y1657D02*
X922Y1657D01*
X915Y1656D02*
X922Y1656D01*
X915Y1655D02*
X922Y1655D01*
X915Y1654D02*
X922Y1654D01*
X915Y1653D02*
X922Y1653D01*
X915Y1652D02*
X922Y1652D01*
X914Y1651D02*
X921Y1651D01*
X913Y1650D02*
X921Y1650D01*
X913Y1649D02*
X921Y1649D01*
X912Y1648D02*
X920Y1648D01*
X911Y1647D02*
X919Y1647D01*
X911Y1646D02*
X919Y1646D01*
X910Y1645D02*
X918Y1645D01*
X909Y1644D02*
X918Y1644D01*
X909Y1643D02*
X917Y1643D01*
X908Y1642D02*
X916Y1642D01*
X907Y1641D02*
X916Y1641D01*
X881Y1640D02*
X920Y1640D01*
X881Y1639D02*
X921Y1639D01*
X880Y1638D02*
X922Y1638D01*
X880Y1637D02*
X922Y1637D01*
X880Y1636D02*
X922Y1636D01*
X881Y1635D02*
X921Y1635D01*
X882Y1634D02*
X920Y1634D01*
X882Y1612D02*
X885Y1612D01*
X881Y1611D02*
X886Y1611D01*
X880Y1610D02*
X886Y1610D01*
X880Y1609D02*
X887Y1609D01*
X880Y1608D02*
X887Y1608D01*
X880Y1607D02*
X887Y1607D01*
X880Y1606D02*
X887Y1606D01*
X880Y1605D02*
X887Y1605D01*
X880Y1604D02*
X887Y1604D01*
X880Y1603D02*
X887Y1603D01*
X880Y1602D02*
X887Y1602D01*
X880Y1601D02*
X920Y1601D01*
X934Y1601D02*
X939Y1601D01*
X880Y1600D02*
X921Y1600D01*
X932Y1600D02*
X940Y1600D01*
X880Y1599D02*
X922Y1599D01*
X932Y1599D02*
X941Y1599D01*
X880Y1598D02*
X922Y1598D01*
X931Y1598D02*
X941Y1598D01*
X880Y1597D02*
X922Y1597D01*
X931Y1597D02*
X941Y1597D01*
X880Y1596D02*
X922Y1596D01*
X931Y1596D02*
X941Y1596D01*
X880Y1595D02*
X922Y1595D01*
X931Y1595D02*
X941Y1595D01*
X880Y1594D02*
X922Y1594D01*
X931Y1594D02*
X941Y1594D01*
X880Y1593D02*
X887Y1593D01*
X915Y1593D02*
X922Y1593D01*
X932Y1593D02*
X941Y1593D01*
X880Y1592D02*
X887Y1592D01*
X915Y1592D02*
X922Y1592D01*
X932Y1592D02*
X941Y1592D01*
X880Y1591D02*
X887Y1591D01*
X915Y1591D02*
X922Y1591D01*
X933Y1591D02*
X940Y1591D01*
X880Y1590D02*
X887Y1590D01*
X915Y1590D02*
X922Y1590D01*
X935Y1590D02*
X938Y1590D01*
X880Y1589D02*
X887Y1589D01*
X915Y1589D02*
X922Y1589D01*
X880Y1588D02*
X887Y1588D01*
X915Y1588D02*
X922Y1588D01*
X880Y1587D02*
X887Y1587D01*
X915Y1587D02*
X922Y1587D01*
X880Y1586D02*
X887Y1586D01*
X915Y1586D02*
X922Y1586D01*
X880Y1585D02*
X886Y1585D01*
X916Y1585D02*
X922Y1585D01*
X881Y1584D02*
X886Y1584D01*
X916Y1584D02*
X921Y1584D01*
X882Y1583D02*
X885Y1583D01*
X917Y1583D02*
X920Y1583D01*
X891Y1550D02*
X901Y1550D01*
X890Y1549D02*
X902Y1549D01*
X890Y1548D02*
X902Y1548D01*
X890Y1547D02*
X903Y1547D01*
X890Y1546D02*
X903Y1546D01*
X890Y1545D02*
X903Y1545D01*
X890Y1544D02*
X903Y1544D01*
X890Y1543D02*
X903Y1543D01*
X890Y1542D02*
X903Y1542D01*
X890Y1541D02*
X903Y1541D01*
X890Y1540D02*
X903Y1540D01*
X890Y1539D02*
X903Y1539D01*
X890Y1538D02*
X902Y1538D01*
X890Y1537D02*
X902Y1537D01*
X892Y1536D02*
X901Y1536D01*
X882Y1503D02*
X885Y1503D01*
X881Y1502D02*
X886Y1502D01*
X880Y1501D02*
X886Y1501D01*
X880Y1500D02*
X887Y1500D01*
X880Y1499D02*
X887Y1499D01*
X880Y1498D02*
X887Y1498D01*
X880Y1497D02*
X887Y1497D01*
X880Y1496D02*
X887Y1496D01*
X880Y1495D02*
X887Y1495D01*
X880Y1494D02*
X887Y1494D01*
X880Y1493D02*
X887Y1493D01*
X880Y1492D02*
X936Y1492D01*
X880Y1491D02*
X937Y1491D01*
X880Y1490D02*
X938Y1490D01*
X880Y1489D02*
X938Y1489D01*
X880Y1488D02*
X938Y1488D01*
X880Y1487D02*
X938Y1487D01*
X880Y1486D02*
X938Y1486D01*
X880Y1485D02*
X938Y1485D01*
X880Y1484D02*
X887Y1484D01*
X931Y1484D02*
X938Y1484D01*
X880Y1483D02*
X887Y1483D01*
X931Y1483D02*
X938Y1483D01*
X880Y1482D02*
X887Y1482D01*
X931Y1482D02*
X938Y1482D01*
X880Y1481D02*
X887Y1481D01*
X931Y1481D02*
X938Y1481D01*
X880Y1480D02*
X887Y1480D01*
X931Y1480D02*
X938Y1480D01*
X880Y1479D02*
X887Y1479D01*
X931Y1479D02*
X938Y1479D01*
X880Y1478D02*
X887Y1478D01*
X931Y1478D02*
X938Y1478D01*
X880Y1477D02*
X887Y1477D01*
X931Y1477D02*
X938Y1477D01*
X880Y1476D02*
X886Y1476D01*
X932Y1476D02*
X938Y1476D01*
X881Y1475D02*
X886Y1475D01*
X932Y1475D02*
X937Y1475D01*
X882Y1474D02*
X885Y1474D01*
X933Y1474D02*
X936Y1474D01*
X881Y1452D02*
X937Y1452D01*
X881Y1451D02*
X937Y1451D01*
X880Y1450D02*
X938Y1450D01*
X880Y1449D02*
X938Y1449D01*
X880Y1448D02*
X938Y1448D01*
X881Y1447D02*
X937Y1447D01*
X882Y1446D02*
X936Y1446D01*
X885Y1445D02*
X895Y1445D01*
X907Y1445D02*
X917Y1445D01*
X884Y1444D02*
X893Y1444D01*
X909Y1444D02*
X918Y1444D01*
X883Y1443D02*
X892Y1443D01*
X910Y1443D02*
X919Y1443D01*
X882Y1442D02*
X891Y1442D01*
X910Y1442D02*
X920Y1442D01*
X882Y1441D02*
X891Y1441D01*
X911Y1441D02*
X920Y1441D01*
X881Y1440D02*
X890Y1440D01*
X912Y1440D02*
X921Y1440D01*
X881Y1439D02*
X889Y1439D01*
X913Y1439D02*
X921Y1439D01*
X880Y1438D02*
X888Y1438D01*
X914Y1438D02*
X922Y1438D01*
X880Y1437D02*
X887Y1437D01*
X915Y1437D02*
X922Y1437D01*
X880Y1436D02*
X887Y1436D01*
X915Y1436D02*
X922Y1436D01*
X880Y1435D02*
X887Y1435D01*
X915Y1435D02*
X922Y1435D01*
X880Y1434D02*
X887Y1434D01*
X915Y1434D02*
X922Y1434D01*
X880Y1433D02*
X887Y1433D01*
X915Y1433D02*
X922Y1433D01*
X880Y1432D02*
X887Y1432D01*
X915Y1432D02*
X922Y1432D01*
X880Y1431D02*
X887Y1431D01*
X915Y1431D02*
X922Y1431D01*
X880Y1430D02*
X887Y1430D01*
X915Y1430D02*
X922Y1430D01*
X880Y1429D02*
X887Y1429D01*
X915Y1429D02*
X922Y1429D01*
X880Y1428D02*
X887Y1428D01*
X915Y1428D02*
X922Y1428D01*
X880Y1427D02*
X887Y1427D01*
X915Y1427D02*
X922Y1427D01*
X880Y1426D02*
X888Y1426D01*
X914Y1426D02*
X921Y1426D01*
X881Y1425D02*
X889Y1425D01*
X913Y1425D02*
X921Y1425D01*
X881Y1424D02*
X890Y1424D01*
X912Y1424D02*
X921Y1424D01*
X882Y1423D02*
X892Y1423D01*
X910Y1423D02*
X920Y1423D01*
X883Y1422D02*
X919Y1422D01*
X883Y1421D02*
X918Y1421D01*
X884Y1420D02*
X918Y1420D01*
X885Y1419D02*
X917Y1419D01*
X886Y1418D02*
X916Y1418D01*
X888Y1417D02*
X914Y1417D01*
X890Y1416D02*
X913Y1416D01*
X882Y1398D02*
X894Y1398D01*
X881Y1397D02*
X914Y1397D01*
X880Y1396D02*
X916Y1396D01*
X880Y1395D02*
X918Y1395D01*
X880Y1394D02*
X919Y1394D01*
X880Y1393D02*
X920Y1393D01*
X881Y1392D02*
X920Y1392D01*
X883Y1391D02*
X921Y1391D01*
X906Y1390D02*
X921Y1390D01*
X914Y1389D02*
X922Y1389D01*
X915Y1388D02*
X922Y1388D01*
X915Y1387D02*
X922Y1387D01*
X915Y1386D02*
X922Y1386D01*
X915Y1385D02*
X922Y1385D01*
X915Y1384D02*
X922Y1384D01*
X915Y1383D02*
X922Y1383D01*
X915Y1382D02*
X922Y1382D01*
X915Y1381D02*
X922Y1381D01*
X915Y1380D02*
X922Y1380D01*
X914Y1379D02*
X922Y1379D01*
X914Y1378D02*
X921Y1378D01*
X913Y1377D02*
X921Y1377D01*
X912Y1376D02*
X920Y1376D01*
X912Y1375D02*
X920Y1375D01*
X911Y1374D02*
X919Y1374D01*
X910Y1373D02*
X918Y1373D01*
X910Y1372D02*
X918Y1372D01*
X909Y1371D02*
X917Y1371D01*
X908Y1370D02*
X917Y1370D01*
X908Y1369D02*
X916Y1369D01*
X882Y1368D02*
X920Y1368D01*
X881Y1367D02*
X921Y1367D01*
X880Y1366D02*
X922Y1366D01*
X880Y1365D02*
X922Y1365D01*
X880Y1364D02*
X922Y1364D01*
X880Y1363D02*
X922Y1363D01*
X881Y1362D02*
X921Y1362D01*
X883Y1361D02*
X919Y1361D01*
X883Y1340D02*
X884Y1340D01*
X881Y1339D02*
X885Y1339D01*
X880Y1338D02*
X886Y1338D01*
X880Y1337D02*
X886Y1337D01*
X880Y1336D02*
X887Y1336D01*
X880Y1335D02*
X887Y1335D01*
X880Y1334D02*
X887Y1334D01*
X880Y1333D02*
X887Y1333D01*
X880Y1332D02*
X887Y1332D01*
X880Y1331D02*
X887Y1331D01*
X880Y1330D02*
X887Y1330D01*
X880Y1329D02*
X887Y1329D01*
X880Y1328D02*
X920Y1328D01*
X933Y1328D02*
X940Y1328D01*
X880Y1327D02*
X921Y1327D01*
X932Y1327D02*
X941Y1327D01*
X880Y1326D02*
X922Y1326D01*
X932Y1326D02*
X941Y1326D01*
X880Y1325D02*
X922Y1325D01*
X931Y1325D02*
X941Y1325D01*
X880Y1324D02*
X922Y1324D01*
X931Y1324D02*
X941Y1324D01*
X880Y1323D02*
X922Y1323D01*
X931Y1323D02*
X941Y1323D01*
X880Y1322D02*
X922Y1322D01*
X931Y1322D02*
X941Y1322D01*
X880Y1321D02*
X887Y1321D01*
X915Y1321D02*
X922Y1321D01*
X931Y1321D02*
X941Y1321D01*
X880Y1320D02*
X887Y1320D01*
X915Y1320D02*
X922Y1320D01*
X932Y1320D02*
X941Y1320D01*
X880Y1319D02*
X887Y1319D01*
X915Y1319D02*
X922Y1319D01*
X932Y1319D02*
X940Y1319D01*
X880Y1318D02*
X887Y1318D01*
X915Y1318D02*
X922Y1318D01*
X933Y1318D02*
X939Y1318D01*
X880Y1317D02*
X887Y1317D01*
X915Y1317D02*
X922Y1317D01*
X880Y1316D02*
X887Y1316D01*
X915Y1316D02*
X922Y1316D01*
X880Y1315D02*
X887Y1315D01*
X915Y1315D02*
X922Y1315D01*
X880Y1314D02*
X887Y1314D01*
X915Y1314D02*
X922Y1314D01*
X880Y1313D02*
X886Y1313D01*
X915Y1313D02*
X922Y1313D01*
X880Y1312D02*
X886Y1312D01*
X916Y1312D02*
X921Y1312D01*
X881Y1311D02*
X885Y1311D01*
X917Y1311D02*
X921Y1311D01*
X933Y1287D02*
X936Y1287D01*
X932Y1286D02*
X937Y1286D01*
X932Y1285D02*
X938Y1285D01*
X931Y1284D02*
X938Y1284D01*
X931Y1283D02*
X938Y1283D01*
X931Y1282D02*
X938Y1282D01*
X931Y1281D02*
X938Y1281D01*
X931Y1280D02*
X938Y1280D01*
X917Y1279D02*
X921Y1279D01*
X931Y1279D02*
X938Y1279D01*
X916Y1278D02*
X921Y1278D01*
X931Y1278D02*
X938Y1278D01*
X915Y1277D02*
X922Y1277D01*
X931Y1277D02*
X938Y1277D01*
X915Y1276D02*
X922Y1276D01*
X931Y1276D02*
X938Y1276D01*
X915Y1275D02*
X922Y1275D01*
X931Y1275D02*
X938Y1275D01*
X915Y1274D02*
X922Y1274D01*
X931Y1274D02*
X938Y1274D01*
X915Y1273D02*
X922Y1273D01*
X931Y1273D02*
X938Y1273D01*
X915Y1272D02*
X922Y1272D01*
X931Y1272D02*
X938Y1272D01*
X915Y1271D02*
X922Y1271D01*
X930Y1271D02*
X938Y1271D01*
X915Y1270D02*
X922Y1270D01*
X929Y1270D02*
X937Y1270D01*
X915Y1269D02*
X922Y1269D01*
X927Y1269D02*
X937Y1269D01*
X882Y1268D02*
X936Y1268D01*
X881Y1267D02*
X936Y1267D01*
X880Y1266D02*
X935Y1266D01*
X880Y1265D02*
X934Y1265D01*
X880Y1264D02*
X933Y1264D01*
X881Y1263D02*
X932Y1263D01*
X881Y1262D02*
X930Y1262D01*
X915Y1261D02*
X922Y1261D01*
X915Y1260D02*
X922Y1260D01*
X915Y1259D02*
X922Y1259D01*
X915Y1258D02*
X922Y1258D01*
X915Y1257D02*
X922Y1257D01*
X916Y1256D02*
X922Y1256D01*
X916Y1255D02*
X921Y1255D01*
X917Y1254D02*
X920Y1254D01*
D02*
G04 End of Copper0*
M02*