G04 MADE WITH FRITZING*
G04 WWW.FRITZING.ORG*
G04 DOUBLE SIDED*
G04 HOLES PLATED*
G04 CONTOUR ON CENTER OF CONTOUR VECTOR*
%ASAXBY*%
%FSLAX23Y23*%
%MOIN*%
%OFA0B0*%
%SFA1.0B1.0*%
%ADD10C,0.070000*%
%ADD11C,0.080000*%
%ADD12C,0.082000*%
%ADD13C,0.075000*%
%ADD14C,0.065000*%
%ADD15C,0.039370*%
%ADD16R,0.069972X0.070000*%
%ADD17R,0.080000X0.080000*%
%ADD18R,0.082000X0.082000*%
%ADD19C,0.032000*%
%ADD20C,0.012000*%
%ADD21C,0.048000*%
%ADD22C,0.024000*%
%ADD23R,0.001000X0.001000*%
%LNCOPPER0*%
G90*
G70*
G54D10*
X611Y1730D03*
X611Y1630D03*
X611Y1530D03*
X611Y1430D03*
X611Y1330D03*
X611Y1230D03*
X611Y1130D03*
X611Y1030D03*
X611Y930D03*
X611Y830D03*
X611Y730D03*
X611Y630D03*
X611Y530D03*
X611Y430D03*
X611Y330D03*
X1211Y1730D03*
X1211Y1630D03*
X1211Y1530D03*
X1211Y1430D03*
X1211Y1330D03*
X1211Y1230D03*
X1211Y1130D03*
X1211Y1030D03*
X1211Y930D03*
X1211Y830D03*
X1211Y730D03*
X1211Y630D03*
X1211Y530D03*
X1211Y430D03*
X1211Y330D03*
G54D11*
X1759Y1730D03*
X1759Y1830D03*
X219Y267D03*
X219Y167D03*
X219Y530D03*
X219Y430D03*
X219Y786D03*
X219Y686D03*
X219Y1108D03*
X219Y1008D03*
X219Y1356D03*
X219Y1256D03*
X219Y1604D03*
X219Y1504D03*
X219Y1852D03*
X219Y1752D03*
X1756Y1130D03*
X1756Y1230D03*
X1756Y630D03*
X1756Y730D03*
X1756Y130D03*
X1756Y230D03*
G54D12*
X1433Y330D03*
X1433Y230D03*
X1433Y130D03*
X1433Y830D03*
X1433Y730D03*
X1433Y630D03*
X1433Y1330D03*
X1433Y1230D03*
X1433Y1130D03*
G54D13*
X504Y567D03*
X504Y967D03*
X404Y330D03*
X404Y730D03*
X504Y467D03*
X504Y67D03*
X1311Y467D03*
X1311Y67D03*
X1311Y956D03*
X1311Y556D03*
X1311Y1449D03*
X1311Y1049D03*
G54D14*
X1481Y1830D03*
X1481Y1730D03*
X1311Y1730D03*
X1311Y1830D03*
G54D15*
X516Y373D03*
X1044Y925D03*
X972Y709D03*
X708Y565D03*
X108Y277D03*
X132Y205D03*
X444Y1045D03*
X492Y877D03*
G54D16*
X611Y1730D03*
G54D17*
X1759Y1730D03*
X219Y267D03*
X219Y530D03*
X219Y786D03*
X219Y1108D03*
X219Y1356D03*
X219Y1604D03*
X219Y1852D03*
X1756Y1130D03*
X1756Y630D03*
X1756Y130D03*
G54D18*
X1433Y330D03*
X1433Y830D03*
X1433Y1330D03*
G54D19*
X1911Y1630D02*
X1911Y1130D01*
D02*
X1911Y1130D02*
X1792Y1130D01*
D02*
X1790Y1710D02*
X1911Y1630D01*
D02*
X1911Y1130D02*
X1911Y630D01*
D02*
X1911Y630D02*
X1792Y630D01*
D02*
X1792Y1130D02*
X1911Y1130D01*
D02*
X1911Y630D02*
X1911Y130D01*
D02*
X1911Y130D02*
X1792Y130D01*
D02*
X1792Y630D02*
X1911Y630D01*
G54D20*
D02*
X1328Y1432D02*
X1414Y1348D01*
D02*
X1327Y939D02*
X1415Y849D01*
D02*
X1326Y450D02*
X1416Y350D01*
G54D21*
D02*
X1111Y1830D02*
X1275Y1830D01*
D02*
X1111Y1630D02*
X1111Y1830D01*
D02*
X1171Y1630D02*
X1111Y1630D01*
D02*
X1517Y1830D02*
X1717Y1830D01*
D02*
X1411Y1830D02*
X1445Y1830D01*
D02*
X1347Y1830D02*
X1411Y1830D01*
D02*
X1611Y1130D02*
X1477Y1130D01*
D02*
X1611Y1630D02*
X1611Y1130D01*
D02*
X1251Y1630D02*
X1611Y1630D01*
D02*
X1611Y1030D02*
X1351Y1046D01*
D02*
X1611Y1130D02*
X1611Y1030D01*
D02*
X1477Y1130D02*
X1611Y1130D01*
D02*
X1611Y630D02*
X1477Y630D01*
D02*
X1611Y1030D02*
X1611Y630D01*
D02*
X1351Y1046D02*
X1611Y1030D01*
D02*
X1611Y530D02*
X1351Y552D01*
D02*
X1611Y630D02*
X1611Y530D01*
D02*
X1477Y630D02*
X1611Y630D01*
D02*
X1611Y130D02*
X1477Y130D01*
D02*
X1611Y530D02*
X1611Y130D01*
D02*
X1351Y552D02*
X1611Y530D01*
G54D22*
D02*
X1611Y30D02*
X1340Y64D01*
D02*
X1611Y130D02*
X1611Y30D01*
D02*
X1465Y130D02*
X1611Y130D01*
G54D20*
D02*
X911Y1430D02*
X631Y1243D01*
D02*
X1011Y1530D02*
X911Y1430D01*
D02*
X1289Y1455D02*
X1011Y1530D01*
D02*
X911Y1230D02*
X244Y1112D01*
D02*
X1192Y1417D02*
X911Y1230D01*
D02*
X911Y930D02*
X635Y930D01*
D02*
X911Y530D02*
X911Y930D01*
D02*
X1288Y471D02*
X911Y530D01*
D02*
X1289Y961D02*
X1011Y1030D01*
D02*
X1011Y1030D02*
X635Y1030D01*
G54D19*
D02*
X1411Y1730D02*
X1451Y1730D01*
D02*
X1342Y1730D02*
X1411Y1730D01*
D02*
X1246Y1730D02*
X1281Y1730D01*
D02*
X1611Y1730D02*
X1723Y1730D01*
D02*
X1512Y1730D02*
X1611Y1730D01*
G54D22*
D02*
X33Y47D02*
X33Y1747D01*
D02*
X411Y230D02*
X411Y30D01*
D02*
X411Y30D02*
X111Y30D01*
D02*
X611Y330D02*
X411Y230D01*
D02*
X111Y30D02*
X33Y47D01*
D02*
X33Y1747D02*
X187Y1751D01*
D02*
X611Y359D02*
X611Y330D01*
D02*
X242Y1335D02*
X300Y1284D01*
X300Y1285D02*
X300Y1189D01*
X300Y1189D02*
X156Y1189D01*
X156Y1189D02*
X156Y925D01*
X156Y925D02*
X324Y925D01*
X324Y925D02*
X591Y651D01*
D02*
X199Y1480D02*
X156Y1429D01*
X156Y1429D02*
X108Y1237D01*
X108Y1237D02*
X108Y853D01*
X108Y853D02*
X300Y853D01*
X300Y853D02*
X348Y637D01*
X348Y637D02*
X444Y637D01*
X444Y637D02*
X444Y397D01*
X444Y397D02*
X498Y379D01*
D02*
X1038Y906D02*
X978Y727D01*
D02*
X697Y549D02*
X628Y454D01*
D02*
X111Y295D02*
X156Y613D01*
X156Y613D02*
X300Y613D01*
X300Y613D02*
X394Y357D01*
D02*
X241Y408D02*
X300Y349D01*
X300Y349D02*
X300Y205D01*
X300Y205D02*
X151Y205D01*
D02*
X444Y1026D02*
X444Y901D01*
X444Y901D02*
X475Y885D01*
D02*
X190Y179D02*
X149Y197D01*
D02*
X249Y1013D02*
X425Y1041D01*
G54D23*
X1449Y1763D02*
X1513Y1763D01*
X1449Y1762D02*
X1513Y1762D01*
X1449Y1761D02*
X1513Y1761D01*
X1449Y1760D02*
X1513Y1760D01*
X1449Y1759D02*
X1513Y1759D01*
X1449Y1758D02*
X1513Y1758D01*
X1449Y1757D02*
X1513Y1757D01*
X1449Y1756D02*
X1513Y1756D01*
X1449Y1755D02*
X1513Y1755D01*
X1449Y1754D02*
X1513Y1754D01*
X1449Y1753D02*
X1513Y1753D01*
X1449Y1752D02*
X1513Y1752D01*
X1449Y1751D02*
X1513Y1751D01*
X1449Y1750D02*
X1513Y1750D01*
X1449Y1749D02*
X1513Y1749D01*
X1449Y1748D02*
X1513Y1748D01*
X1449Y1747D02*
X1513Y1747D01*
X1449Y1746D02*
X1513Y1746D01*
X1449Y1745D02*
X1513Y1745D01*
X1449Y1744D02*
X1476Y1744D01*
X1486Y1744D02*
X1513Y1744D01*
X1449Y1743D02*
X1473Y1743D01*
X1488Y1743D02*
X1513Y1743D01*
X1449Y1742D02*
X1472Y1742D01*
X1489Y1742D02*
X1513Y1742D01*
X1449Y1741D02*
X1471Y1741D01*
X1491Y1741D02*
X1513Y1741D01*
X1449Y1740D02*
X1470Y1740D01*
X1491Y1740D02*
X1513Y1740D01*
X1449Y1739D02*
X1469Y1739D01*
X1492Y1739D02*
X1513Y1739D01*
X1449Y1738D02*
X1468Y1738D01*
X1493Y1738D02*
X1513Y1738D01*
X1449Y1737D02*
X1468Y1737D01*
X1493Y1737D02*
X1513Y1737D01*
X1449Y1736D02*
X1467Y1736D01*
X1494Y1736D02*
X1513Y1736D01*
X1449Y1735D02*
X1467Y1735D01*
X1494Y1735D02*
X1513Y1735D01*
X1449Y1734D02*
X1467Y1734D01*
X1495Y1734D02*
X1513Y1734D01*
X1449Y1733D02*
X1466Y1733D01*
X1495Y1733D02*
X1513Y1733D01*
X1449Y1732D02*
X1466Y1732D01*
X1495Y1732D02*
X1513Y1732D01*
X1449Y1731D02*
X1466Y1731D01*
X1495Y1731D02*
X1513Y1731D01*
X1449Y1730D02*
X1466Y1730D01*
X1495Y1730D02*
X1513Y1730D01*
X1449Y1729D02*
X1466Y1729D01*
X1495Y1729D02*
X1513Y1729D01*
X1449Y1728D02*
X1467Y1728D01*
X1495Y1728D02*
X1513Y1728D01*
X1449Y1727D02*
X1467Y1727D01*
X1494Y1727D02*
X1513Y1727D01*
X1449Y1726D02*
X1467Y1726D01*
X1494Y1726D02*
X1513Y1726D01*
X1449Y1725D02*
X1468Y1725D01*
X1493Y1725D02*
X1513Y1725D01*
X1449Y1724D02*
X1468Y1724D01*
X1493Y1724D02*
X1513Y1724D01*
X1449Y1723D02*
X1469Y1723D01*
X1492Y1723D02*
X1513Y1723D01*
X1449Y1722D02*
X1470Y1722D01*
X1491Y1722D02*
X1513Y1722D01*
X1449Y1721D02*
X1471Y1721D01*
X1490Y1721D02*
X1513Y1721D01*
X1449Y1720D02*
X1472Y1720D01*
X1489Y1720D02*
X1513Y1720D01*
X1449Y1719D02*
X1473Y1719D01*
X1488Y1719D02*
X1513Y1719D01*
X1449Y1718D02*
X1476Y1718D01*
X1485Y1718D02*
X1513Y1718D01*
X1449Y1717D02*
X1513Y1717D01*
X1449Y1716D02*
X1513Y1716D01*
X1449Y1715D02*
X1513Y1715D01*
X1449Y1714D02*
X1513Y1714D01*
X1449Y1713D02*
X1513Y1713D01*
X1449Y1712D02*
X1513Y1712D01*
X1449Y1711D02*
X1513Y1711D01*
X1449Y1710D02*
X1513Y1710D01*
X1449Y1709D02*
X1513Y1709D01*
X1449Y1708D02*
X1513Y1708D01*
X1449Y1707D02*
X1513Y1707D01*
X1449Y1706D02*
X1513Y1706D01*
X1449Y1705D02*
X1513Y1705D01*
X1449Y1704D02*
X1513Y1704D01*
X1449Y1703D02*
X1513Y1703D01*
X1449Y1702D02*
X1513Y1702D01*
X1449Y1701D02*
X1513Y1701D01*
X1449Y1700D02*
X1513Y1700D01*
X1449Y1699D02*
X1513Y1699D01*
D02*
G04 End of Copper0*
M02*