; NON-PLATED HOLES START AT T1
; THROUGH (PLATED) HOLES START AT T100
M48
INCH
T100C0.040000
T101C0.036000
T102C0.035000
T103C0.027559
T104C0.042000
T105C0.015748
%
T100
X002185Y005299
X002185Y010077
X017555Y007299
X002185Y012559
X017555Y011299
X017555Y001299
X002185Y004299
X017592Y018299
X002185Y002670
X002185Y016040
X002185Y007855
X017555Y006299
X002185Y018522
X002185Y011077
X017592Y017299
X002185Y001670
X002185Y015040
X002185Y013559
X002185Y006855
X017555Y012299
X002185Y017522
X017555Y002299
T101
X006111Y004299
X012111Y012299
X012111Y005299
X006111Y016299
X006111Y009299
X012111Y017299
X006111Y013299
X006111Y006299
X012111Y014299
X012111Y007299
X006111Y010299
X006111Y003299
X012111Y011299
X012111Y004299
X006111Y015299
X006111Y008299
X012111Y016299
X012111Y009299
X006111Y012299
X006111Y005299
X012111Y013299
X012111Y006299
X012111Y010299
X012111Y003299
X006111Y017299
X006111Y014299
X006111Y007299
X012111Y015299
X012111Y008299
X006111Y011299
T102
X005037Y005670
X013111Y005559
X005037Y000670
X004037Y007299
X013111Y004670
X013111Y014485
X004037Y003299
X005037Y009670
X013111Y000670
X013111Y010485
X013111Y009559
X005037Y004670
T103
X014814Y017299
X013111Y018299
X014814Y018299
X013111Y017299
T104
X014333Y006299
X014333Y007299
X014333Y001299
X014333Y011299
X014333Y008299
X014333Y002299
X014333Y012299
X014333Y003299
X014333Y013299
T105
X004439Y010445
X001079Y002765
X009719Y007085
X004919Y008765
X001319Y002045
X005159Y003725
X007079Y005645
X010440Y009245
T00
M30
